<svg width="375" height="812" viewBox="0 0 375 812" fill="none" xmlns="http://www.w3.org/2000/svg">
<rect width="375" height="812" fill="white"/>
<g clip-path="url(#clip0_22_402)">
<path d="M31.1816 61.6467C30.9863 61.8419 30.9863 62.1585 31.1816 62.3538L35.071 66.2432C35.4615 66.6337 35.4615 67.2668 35.071 67.6572C34.6805 68.0477 34.0475 68.0477 33.657 67.6572L28.7071 62.7073C28.3166 62.3168 28.3166 61.6836 28.7071 61.2931L33.657 56.3432C34.0475 55.9528 34.6805 55.9528 35.071 56.3432C35.4615 56.7337 35.4615 57.3668 35.071 57.7572L31.1816 61.6467Z" fill="#545974"/>
</g>
<rect x="21" y="265" width="333" height="38" rx="9" fill="white" fill-opacity="0.2" stroke="#F1F1F1" stroke-width="2"/>
<path d="M30.41 253H31.79L32.86 257.19H32.88V253H33.86V260H32.73L31.41 254.89H31.39V260H30.41V253ZM35.5276 253H37.0176L38.1576 260H37.0576L36.8576 258.61V258.63H35.6076L35.4076 260H34.3876L35.5276 253ZM36.7276 257.68L36.2376 254.22H36.2176L35.7376 257.68H36.7276ZM38.6913 253H40.2613L40.9613 258.01H40.9813L41.6813 253H43.2513V260H42.2113V254.7H42.1913L41.3913 260H40.4713L39.6713 254.7H39.6513V260H38.6913V253ZM44.0721 253H47.0721V254H45.1721V255.85H46.6821V256.85H45.1721V259H47.0721V260H44.0721V253Z" fill="#545974"/>
<path d="M43.342 279.242L40.514 289H39.086L36.818 281.146L34.466 289L33.052 289.014L30.322 279.242H31.68L33.808 287.516L36.16 279.242H37.588L39.828 287.488L41.97 279.242H43.342ZM51.7362 284.87C51.7362 285.113 51.7222 285.369 51.6942 285.64H45.5622C45.6089 286.396 45.8655 286.989 46.3322 287.418C46.8082 287.838 47.3822 288.048 48.0542 288.048C48.6049 288.048 49.0622 287.922 49.4262 287.67C49.7995 287.409 50.0609 287.063 50.2102 286.634H51.5822C51.3769 287.371 50.9662 287.973 50.3502 288.44C49.7342 288.897 48.9689 289.126 48.0542 289.126C47.3262 289.126 46.6729 288.963 46.0942 288.636C45.5249 288.309 45.0769 287.847 44.7502 287.25C44.4235 286.643 44.2602 285.943 44.2602 285.15C44.2602 284.357 44.4189 283.661 44.7362 283.064C45.0535 282.467 45.4969 282.009 46.0662 281.692C46.6449 281.365 47.3075 281.202 48.0542 281.202C48.7822 281.202 49.4262 281.361 49.9862 281.678C50.5462 281.995 50.9755 282.434 51.2742 282.994C51.5822 283.545 51.7362 284.17 51.7362 284.87ZM50.4202 284.604C50.4202 284.119 50.3129 283.703 50.0982 283.358C49.8835 283.003 49.5895 282.737 49.2162 282.56C48.8522 282.373 48.4462 282.28 47.9982 282.28C47.3542 282.28 46.8035 282.485 46.3462 282.896C45.8982 283.307 45.6415 283.876 45.5762 284.604H50.4202ZM54.6918 282.756C54.9532 282.299 55.3358 281.925 55.8398 281.636C56.3438 281.347 56.9178 281.202 57.5618 281.202C58.2525 281.202 58.8732 281.365 59.4238 281.692C59.9745 282.019 60.4085 282.481 60.7258 283.078C61.0432 283.666 61.2018 284.352 61.2018 285.136C61.2018 285.911 61.0432 286.601 60.7258 287.208C60.4085 287.815 59.9698 288.286 59.4098 288.622C58.8592 288.958 58.2432 289.126 57.5618 289.126C56.8992 289.126 56.3158 288.981 55.8118 288.692C55.3172 288.403 54.9438 288.034 54.6918 287.586V289H53.4178V278.64H54.6918V282.756ZM59.8998 285.136C59.8998 284.557 59.7832 284.053 59.5498 283.624C59.3165 283.195 58.9992 282.868 58.5978 282.644C58.2058 282.42 57.7718 282.308 57.2958 282.308C56.8292 282.308 56.3952 282.425 55.9938 282.658C55.6018 282.882 55.2845 283.213 55.0418 283.652C54.8085 284.081 54.6918 284.581 54.6918 285.15C54.6918 285.729 54.8085 286.237 55.0418 286.676C55.2845 287.105 55.6018 287.437 55.9938 287.67C56.3952 287.894 56.8292 288.006 57.2958 288.006C57.7718 288.006 58.2058 287.894 58.5978 287.67C58.9992 287.437 59.3165 287.105 59.5498 286.676C59.7832 286.237 59.8998 285.724 59.8998 285.136ZM65.5948 289.126C65.0068 289.126 64.4794 289.028 64.0128 288.832C63.5461 288.627 63.1774 288.347 62.9068 287.992C62.6361 287.628 62.4868 287.213 62.4588 286.746H63.7748C63.8121 287.129 63.9894 287.441 64.3068 287.684C64.6334 287.927 65.0581 288.048 65.5808 288.048C66.0661 288.048 66.4488 287.941 66.7288 287.726C67.0088 287.511 67.1488 287.241 67.1488 286.914C67.1488 286.578 66.9994 286.331 66.7008 286.172C66.4021 286.004 65.9401 285.841 65.3148 285.682C64.7454 285.533 64.2788 285.383 63.9148 285.234C63.5601 285.075 63.2521 284.847 62.9908 284.548C62.7388 284.24 62.6128 283.839 62.6128 283.344C62.6128 282.952 62.7294 282.593 62.9628 282.266C63.1961 281.939 63.5274 281.683 63.9568 281.496C64.3861 281.3 64.8761 281.202 65.4268 281.202C66.2761 281.202 66.9621 281.417 67.4848 281.846C68.0074 282.275 68.2874 282.863 68.3248 283.61H67.0508C67.0228 283.209 66.8594 282.887 66.5608 282.644C66.2714 282.401 65.8794 282.28 65.3848 282.28C64.9274 282.28 64.5634 282.378 64.2928 282.574C64.0221 282.77 63.8868 283.027 63.8868 283.344C63.8868 283.596 63.9661 283.806 64.1248 283.974C64.2928 284.133 64.4981 284.263 64.7408 284.366C64.9928 284.459 65.3381 284.567 65.7768 284.688C66.3274 284.837 66.7754 284.987 67.1208 285.136C67.4661 285.276 67.7601 285.491 68.0028 285.78C68.2548 286.069 68.3854 286.447 68.3948 286.914C68.3948 287.334 68.2781 287.712 68.0448 288.048C67.8114 288.384 67.4801 288.65 67.0508 288.846C66.6308 289.033 66.1454 289.126 65.5948 289.126ZM70.8512 280.082C70.6086 280.082 70.4032 279.998 70.2352 279.83C70.0672 279.662 69.9832 279.457 69.9832 279.214C69.9832 278.971 70.0672 278.766 70.2352 278.598C70.4032 278.43 70.6086 278.346 70.8512 278.346C71.0846 278.346 71.2806 278.43 71.4392 278.598C71.6072 278.766 71.6912 278.971 71.6912 279.214C71.6912 279.457 71.6072 279.662 71.4392 279.83C71.2806 279.998 71.0846 280.082 70.8512 280.082ZM71.4672 281.328V289H70.1932V281.328H71.4672ZM75.1925 282.378V286.9C75.1925 287.273 75.2719 287.539 75.4305 287.698C75.5892 287.847 75.8645 287.922 76.2565 287.922H77.1945V289H76.0465C75.3372 289 74.8052 288.837 74.4505 288.51C74.0959 288.183 73.9185 287.647 73.9185 286.9V282.378H72.9245V281.328H73.9185V279.396H75.1925V281.328H77.1945V282.378H75.1925ZM85.7382 284.87C85.7382 285.113 85.7242 285.369 85.6962 285.64H79.5642C79.6108 286.396 79.8675 286.989 80.3342 287.418C80.8102 287.838 81.3842 288.048 82.0562 288.048C82.6068 288.048 83.0642 287.922 83.4282 287.67C83.8015 287.409 84.0628 287.063 84.2122 286.634H85.5842C85.3788 287.371 84.9682 287.973 84.3522 288.44C83.7362 288.897 82.9708 289.126 82.0562 289.126C81.3282 289.126 80.6748 288.963 80.0962 288.636C79.5268 288.309 79.0788 287.847 78.7522 287.25C78.4255 286.643 78.2622 285.943 78.2622 285.15C78.2622 284.357 78.4208 283.661 78.7382 283.064C79.0555 282.467 79.4988 282.009 80.0682 281.692C80.6468 281.365 81.3095 281.202 82.0562 281.202C82.7842 281.202 83.4282 281.361 83.9882 281.678C84.5482 281.995 84.9775 282.434 85.2762 282.994C85.5842 283.545 85.7382 284.17 85.7382 284.87ZM84.4222 284.604C84.4222 284.119 84.3148 283.703 84.1002 283.358C83.8855 283.003 83.5915 282.737 83.2182 282.56C82.8542 282.373 82.4482 282.28 82.0002 282.28C81.3562 282.28 80.8055 282.485 80.3482 282.896C79.9002 283.307 79.6435 283.876 79.5782 284.604H84.4222ZM92.1798 275.812L88.3438 291.38H87.0838L90.9058 275.812H92.1798ZM99.846 286.83H95.59L94.806 289H93.462L96.99 279.298H98.46L101.974 289H100.63L99.846 286.83ZM99.482 285.794L97.718 280.866L95.954 285.794H99.482ZM104.786 282.742C105.038 282.303 105.411 281.939 105.906 281.65C106.41 281.351 106.993 281.202 107.656 281.202C108.337 281.202 108.953 281.365 109.504 281.692C110.064 282.019 110.502 282.481 110.82 283.078C111.137 283.666 111.296 284.352 111.296 285.136C111.296 285.911 111.137 286.601 110.82 287.208C110.502 287.815 110.064 288.286 109.504 288.622C108.953 288.958 108.337 289.126 107.656 289.126C107.002 289.126 106.424 288.981 105.92 288.692C105.425 288.393 105.047 288.025 104.786 287.586V292.64H103.512V281.328H104.786V282.742ZM109.994 285.136C109.994 284.557 109.877 284.053 109.644 283.624C109.41 283.195 109.093 282.868 108.692 282.644C108.3 282.42 107.866 282.308 107.39 282.308C106.923 282.308 106.489 282.425 106.088 282.658C105.696 282.882 105.378 283.213 105.136 283.652C104.902 284.081 104.786 284.581 104.786 285.15C104.786 285.729 104.902 286.237 105.136 286.676C105.378 287.105 105.696 287.437 106.088 287.67C106.489 287.894 106.923 288.006 107.39 288.006C107.866 288.006 108.3 287.894 108.692 287.67C109.093 287.437 109.41 287.105 109.644 286.676C109.877 286.237 109.994 285.724 109.994 285.136ZM114.247 282.742C114.499 282.303 114.872 281.939 115.367 281.65C115.871 281.351 116.454 281.202 117.117 281.202C117.798 281.202 118.414 281.365 118.965 281.692C119.525 282.019 119.963 282.481 120.281 283.078C120.598 283.666 120.757 284.352 120.757 285.136C120.757 285.911 120.598 286.601 120.281 287.208C119.963 287.815 119.525 288.286 118.965 288.622C118.414 288.958 117.798 289.126 117.117 289.126C116.463 289.126 115.885 288.981 115.381 288.692C114.886 288.393 114.508 288.025 114.247 287.586V292.64H112.973V281.328H114.247V282.742ZM119.455 285.136C119.455 284.557 119.338 284.053 119.105 283.624C118.871 283.195 118.554 282.868 118.153 282.644C117.761 282.42 117.327 282.308 116.851 282.308C116.384 282.308 115.95 282.425 115.549 282.658C115.157 282.882 114.839 283.213 114.597 283.652C114.363 284.081 114.247 284.581 114.247 285.15C114.247 285.729 114.363 286.237 114.597 286.676C114.839 287.105 115.157 287.437 115.549 287.67C115.95 287.894 116.384 288.006 116.851 288.006C117.327 288.006 117.761 287.894 118.153 287.67C118.554 287.437 118.871 287.105 119.105 286.676C119.338 286.237 119.455 285.724 119.455 285.136ZM133.838 289H132.564L127.44 281.23V289H126.166V279.228H127.44L132.564 286.984V279.228H133.838V289ZM135.534 285.136C135.534 284.352 135.692 283.666 136.01 283.078C136.327 282.481 136.761 282.019 137.312 281.692C137.872 281.365 138.492 281.202 139.174 281.202C139.846 281.202 140.429 281.347 140.924 281.636C141.418 281.925 141.787 282.289 142.03 282.728V281.328H143.318V289H142.03V287.572C141.778 288.02 141.4 288.393 140.896 288.692C140.401 288.981 139.822 289.126 139.16 289.126C138.478 289.126 137.862 288.958 137.312 288.622C136.761 288.286 136.327 287.815 136.01 287.208C135.692 286.601 135.534 285.911 135.534 285.136ZM142.03 285.15C142.03 284.571 141.913 284.067 141.68 283.638C141.446 283.209 141.129 282.882 140.728 282.658C140.336 282.425 139.902 282.308 139.426 282.308C138.95 282.308 138.516 282.42 138.124 282.644C137.732 282.868 137.419 283.195 137.186 283.624C136.952 284.053 136.836 284.557 136.836 285.136C136.836 285.724 136.952 286.237 137.186 286.676C137.419 287.105 137.732 287.437 138.124 287.67C138.516 287.894 138.95 288.006 139.426 288.006C139.902 288.006 140.336 287.894 140.728 287.67C141.129 287.437 141.446 287.105 141.68 286.676C141.913 286.237 142.03 285.729 142.03 285.15ZM154.697 281.188C155.294 281.188 155.826 281.314 156.293 281.566C156.759 281.809 157.128 282.177 157.399 282.672C157.669 283.167 157.805 283.769 157.805 284.478V289H156.545V284.66C156.545 283.895 156.353 283.311 155.971 282.91C155.597 282.499 155.089 282.294 154.445 282.294C153.782 282.294 153.255 282.509 152.863 282.938C152.471 283.358 152.275 283.969 152.275 284.772V289H151.015V284.66C151.015 283.895 150.823 283.311 150.441 282.91C150.067 282.499 149.559 282.294 148.915 282.294C148.252 282.294 147.725 282.509 147.333 282.938C146.941 283.358 146.745 283.969 146.745 284.772V289H145.471V281.328H146.745V282.434C146.997 282.033 147.333 281.725 147.753 281.51C148.182 281.295 148.653 281.188 149.167 281.188C149.811 281.188 150.38 281.333 150.875 281.622C151.369 281.911 151.738 282.336 151.981 282.896C152.195 282.355 152.55 281.935 153.045 281.636C153.539 281.337 154.09 281.188 154.697 281.188ZM166.894 284.87C166.894 285.113 166.88 285.369 166.852 285.64H160.72C160.767 286.396 161.024 286.989 161.49 287.418C161.966 287.838 162.54 288.048 163.212 288.048C163.763 288.048 164.22 287.922 164.584 287.67C164.958 287.409 165.219 287.063 165.368 286.634H166.74C166.535 287.371 166.124 287.973 165.508 288.44C164.892 288.897 164.127 289.126 163.212 289.126C162.484 289.126 161.831 288.963 161.252 288.636C160.683 288.309 160.235 287.847 159.908 287.25C159.582 286.643 159.418 285.943 159.418 285.15C159.418 284.357 159.577 283.661 159.894 283.064C160.212 282.467 160.655 282.009 161.224 281.692C161.803 281.365 162.466 281.202 163.212 281.202C163.94 281.202 164.584 281.361 165.144 281.678C165.704 281.995 166.134 282.434 166.432 282.994C166.74 283.545 166.894 284.17 166.894 284.87ZM165.578 284.604C165.578 284.119 165.471 283.703 165.256 283.358C165.042 283.003 164.748 282.737 164.374 282.56C164.01 282.373 163.604 282.28 163.156 282.28C162.512 282.28 161.962 282.485 161.504 282.896C161.056 283.307 160.8 283.876 160.734 284.604H165.578Z" fill="#BABABA"/>
<rect x="21" y="348" width="333" height="38" rx="9" fill="white" fill-opacity="0.2" stroke="#F1F1F1" stroke-width="2"/>
<path d="M32.01 343.1C31.4767 343.1 31.07 342.95 30.79 342.65C30.51 342.343 30.37 341.907 30.37 341.34V336H31.47V341.42C31.47 341.66 31.5167 341.833 31.61 341.94C31.71 342.047 31.85 342.1 32.03 342.1C32.21 342.1 32.3467 342.047 32.44 341.94C32.54 341.833 32.59 341.66 32.59 341.42V336H33.65V341.34C33.65 341.907 33.51 342.343 33.23 342.65C32.95 342.95 32.5433 343.1 32.01 343.1ZM34.4334 336H36.0634C36.6301 336 37.0434 336.133 37.3034 336.4C37.5634 336.66 37.6934 337.063 37.6934 337.61V338.04C37.6934 338.767 37.4534 339.227 36.9734 339.42V339.44C37.2401 339.52 37.4268 339.683 37.5334 339.93C37.6468 340.177 37.7034 340.507 37.7034 340.92V342.15C37.7034 342.35 37.7101 342.513 37.7234 342.64C37.7368 342.76 37.7701 342.88 37.8234 343H36.7034C36.6634 342.887 36.6368 342.78 36.6234 342.68C36.6101 342.58 36.6034 342.4 36.6034 342.14V340.86C36.6034 340.54 36.5501 340.317 36.4434 340.19C36.3434 340.063 36.1668 340 35.9134 340H35.5334V343H34.4334V336ZM35.9334 339C36.1534 339 36.3168 338.943 36.4234 338.83C36.5368 338.717 36.5934 338.527 36.5934 338.26V337.72C36.5934 337.467 36.5468 337.283 36.4534 337.17C36.3668 337.057 36.2268 337 36.0334 337H35.5334V339H35.9334ZM38.4666 336H39.5666V342H41.3766V343H38.4666V336Z" fill="#545974"/>
<path d="M43.342 362.242L40.514 372H39.086L36.818 364.146L34.466 372L33.052 372.014L30.322 362.242H31.68L33.808 370.516L36.16 362.242H37.588L39.828 370.488L41.97 362.242H43.342ZM51.7362 367.87C51.7362 368.113 51.7222 368.369 51.6942 368.64H45.5622C45.6089 369.396 45.8655 369.989 46.3322 370.418C46.8082 370.838 47.3822 371.048 48.0542 371.048C48.6049 371.048 49.0622 370.922 49.4262 370.67C49.7995 370.409 50.0609 370.063 50.2102 369.634H51.5822C51.3769 370.371 50.9662 370.973 50.3502 371.44C49.7342 371.897 48.9689 372.126 48.0542 372.126C47.3262 372.126 46.6729 371.963 46.0942 371.636C45.5249 371.309 45.0769 370.847 44.7502 370.25C44.4235 369.643 44.2602 368.943 44.2602 368.15C44.2602 367.357 44.4189 366.661 44.7362 366.064C45.0535 365.467 45.4969 365.009 46.0662 364.692C46.6449 364.365 47.3075 364.202 48.0542 364.202C48.7822 364.202 49.4262 364.361 49.9862 364.678C50.5462 364.995 50.9755 365.434 51.2742 365.994C51.5822 366.545 51.7362 367.17 51.7362 367.87ZM50.4202 367.604C50.4202 367.119 50.3129 366.703 50.0982 366.358C49.8835 366.003 49.5895 365.737 49.2162 365.56C48.8522 365.373 48.4462 365.28 47.9982 365.28C47.3542 365.28 46.8035 365.485 46.3462 365.896C45.8982 366.307 45.6415 366.876 45.5762 367.604H50.4202ZM54.6918 365.756C54.9532 365.299 55.3358 364.925 55.8398 364.636C56.3438 364.347 56.9178 364.202 57.5618 364.202C58.2525 364.202 58.8732 364.365 59.4238 364.692C59.9745 365.019 60.4085 365.481 60.7258 366.078C61.0432 366.666 61.2018 367.352 61.2018 368.136C61.2018 368.911 61.0432 369.601 60.7258 370.208C60.4085 370.815 59.9698 371.286 59.4098 371.622C58.8592 371.958 58.2432 372.126 57.5618 372.126C56.8992 372.126 56.3158 371.981 55.8118 371.692C55.3172 371.403 54.9438 371.034 54.6918 370.586V372H53.4178V361.64H54.6918V365.756ZM59.8998 368.136C59.8998 367.557 59.7832 367.053 59.5498 366.624C59.3165 366.195 58.9992 365.868 58.5978 365.644C58.2058 365.42 57.7718 365.308 57.2958 365.308C56.8292 365.308 56.3952 365.425 55.9938 365.658C55.6018 365.882 55.2845 366.213 55.0418 366.652C54.8085 367.081 54.6918 367.581 54.6918 368.15C54.6918 368.729 54.8085 369.237 55.0418 369.676C55.2845 370.105 55.6018 370.437 55.9938 370.67C56.3952 370.894 56.8292 371.006 57.2958 371.006C57.7718 371.006 58.2058 370.894 58.5978 370.67C58.9992 370.437 59.3165 370.105 59.5498 369.676C59.7832 369.237 59.8998 368.724 59.8998 368.136ZM65.5948 372.126C65.0068 372.126 64.4794 372.028 64.0128 371.832C63.5461 371.627 63.1774 371.347 62.9068 370.992C62.6361 370.628 62.4868 370.213 62.4588 369.746H63.7748C63.8121 370.129 63.9894 370.441 64.3068 370.684C64.6334 370.927 65.0581 371.048 65.5808 371.048C66.0661 371.048 66.4488 370.941 66.7288 370.726C67.0088 370.511 67.1488 370.241 67.1488 369.914C67.1488 369.578 66.9994 369.331 66.7008 369.172C66.4021 369.004 65.9401 368.841 65.3148 368.682C64.7454 368.533 64.2788 368.383 63.9148 368.234C63.5601 368.075 63.2521 367.847 62.9908 367.548C62.7388 367.24 62.6128 366.839 62.6128 366.344C62.6128 365.952 62.7294 365.593 62.9628 365.266C63.1961 364.939 63.5274 364.683 63.9568 364.496C64.3861 364.3 64.8761 364.202 65.4268 364.202C66.2761 364.202 66.9621 364.417 67.4848 364.846C68.0074 365.275 68.2874 365.863 68.3248 366.61H67.0508C67.0228 366.209 66.8594 365.887 66.5608 365.644C66.2714 365.401 65.8794 365.28 65.3848 365.28C64.9274 365.28 64.5634 365.378 64.2928 365.574C64.0221 365.77 63.8868 366.027 63.8868 366.344C63.8868 366.596 63.9661 366.806 64.1248 366.974C64.2928 367.133 64.4981 367.263 64.7408 367.366C64.9928 367.459 65.3381 367.567 65.7768 367.688C66.3274 367.837 66.7754 367.987 67.1208 368.136C67.4661 368.276 67.7601 368.491 68.0028 368.78C68.2548 369.069 68.3854 369.447 68.3948 369.914C68.3948 370.334 68.2781 370.712 68.0448 371.048C67.8114 371.384 67.4801 371.65 67.0508 371.846C66.6308 372.033 66.1454 372.126 65.5948 372.126ZM70.8512 363.082C70.6086 363.082 70.4032 362.998 70.2352 362.83C70.0672 362.662 69.9832 362.457 69.9832 362.214C69.9832 361.971 70.0672 361.766 70.2352 361.598C70.4032 361.43 70.6086 361.346 70.8512 361.346C71.0846 361.346 71.2806 361.43 71.4392 361.598C71.6072 361.766 71.6912 361.971 71.6912 362.214C71.6912 362.457 71.6072 362.662 71.4392 362.83C71.2806 362.998 71.0846 363.082 70.8512 363.082ZM71.4672 364.328V372H70.1932V364.328H71.4672ZM75.1925 365.378V369.9C75.1925 370.273 75.2719 370.539 75.4305 370.698C75.5892 370.847 75.8645 370.922 76.2565 370.922H77.1945V372H76.0465C75.3372 372 74.8052 371.837 74.4505 371.51C74.0959 371.183 73.9185 370.647 73.9185 369.9V365.378H72.9245V364.328H73.9185V362.396H75.1925V364.328H77.1945V365.378H75.1925ZM85.7382 367.87C85.7382 368.113 85.7242 368.369 85.6962 368.64H79.5642C79.6108 369.396 79.8675 369.989 80.3342 370.418C80.8102 370.838 81.3842 371.048 82.0562 371.048C82.6068 371.048 83.0642 370.922 83.4282 370.67C83.8015 370.409 84.0628 370.063 84.2122 369.634H85.5842C85.3788 370.371 84.9682 370.973 84.3522 371.44C83.7362 371.897 82.9708 372.126 82.0562 372.126C81.3282 372.126 80.6748 371.963 80.0962 371.636C79.5268 371.309 79.0788 370.847 78.7522 370.25C78.4255 369.643 78.2622 368.943 78.2622 368.15C78.2622 367.357 78.4208 366.661 78.7382 366.064C79.0555 365.467 79.4988 365.009 80.0682 364.692C80.6468 364.365 81.3095 364.202 82.0562 364.202C82.7842 364.202 83.4282 364.361 83.9882 364.678C84.5482 364.995 84.9775 365.434 85.2762 365.994C85.5842 366.545 85.7382 367.17 85.7382 367.87ZM84.4222 367.604C84.4222 367.119 84.3148 366.703 84.1002 366.358C83.8855 366.003 83.5915 365.737 83.2182 365.56C82.8542 365.373 82.4482 365.28 82.0002 365.28C81.3562 365.28 80.8055 365.485 80.3482 365.896C79.9002 366.307 79.6435 366.876 79.5782 367.604H84.4222ZM92.1798 358.812L88.3438 374.38H87.0838L90.9058 358.812H92.1798ZM99.846 369.83H95.59L94.806 372H93.462L96.99 362.298H98.46L101.974 372H100.63L99.846 369.83ZM99.482 368.794L97.718 363.866L95.954 368.794H99.482ZM104.786 365.742C105.038 365.303 105.411 364.939 105.906 364.65C106.41 364.351 106.993 364.202 107.656 364.202C108.337 364.202 108.953 364.365 109.504 364.692C110.064 365.019 110.502 365.481 110.82 366.078C111.137 366.666 111.296 367.352 111.296 368.136C111.296 368.911 111.137 369.601 110.82 370.208C110.502 370.815 110.064 371.286 109.504 371.622C108.953 371.958 108.337 372.126 107.656 372.126C107.002 372.126 106.424 371.981 105.92 371.692C105.425 371.393 105.047 371.025 104.786 370.586V375.64H103.512V364.328H104.786V365.742ZM109.994 368.136C109.994 367.557 109.877 367.053 109.644 366.624C109.41 366.195 109.093 365.868 108.692 365.644C108.3 365.42 107.866 365.308 107.39 365.308C106.923 365.308 106.489 365.425 106.088 365.658C105.696 365.882 105.378 366.213 105.136 366.652C104.902 367.081 104.786 367.581 104.786 368.15C104.786 368.729 104.902 369.237 105.136 369.676C105.378 370.105 105.696 370.437 106.088 370.67C106.489 370.894 106.923 371.006 107.39 371.006C107.866 371.006 108.3 370.894 108.692 370.67C109.093 370.437 109.41 370.105 109.644 369.676C109.877 369.237 109.994 368.724 109.994 368.136ZM114.247 365.742C114.499 365.303 114.872 364.939 115.367 364.65C115.871 364.351 116.454 364.202 117.117 364.202C117.798 364.202 118.414 364.365 118.965 364.692C119.525 365.019 119.963 365.481 120.281 366.078C120.598 366.666 120.757 367.352 120.757 368.136C120.757 368.911 120.598 369.601 120.281 370.208C119.963 370.815 119.525 371.286 118.965 371.622C118.414 371.958 117.798 372.126 117.117 372.126C116.463 372.126 115.885 371.981 115.381 371.692C114.886 371.393 114.508 371.025 114.247 370.586V375.64H112.973V364.328H114.247V365.742ZM119.455 368.136C119.455 367.557 119.338 367.053 119.105 366.624C118.871 366.195 118.554 365.868 118.153 365.644C117.761 365.42 117.327 365.308 116.851 365.308C116.384 365.308 115.95 365.425 115.549 365.658C115.157 365.882 114.839 366.213 114.597 366.652C114.363 367.081 114.247 367.581 114.247 368.15C114.247 368.729 114.363 369.237 114.597 369.676C114.839 370.105 115.157 370.437 115.549 370.67C115.95 370.894 116.384 371.006 116.851 371.006C117.327 371.006 117.761 370.894 118.153 370.67C118.554 370.437 118.871 370.105 119.105 369.676C119.338 369.237 119.455 368.724 119.455 368.136ZM127.44 370.964H130.856V372H126.166V362.242H127.44V370.964ZM132.867 363.082C132.624 363.082 132.419 362.998 132.251 362.83C132.083 362.662 131.999 362.457 131.999 362.214C131.999 361.971 132.083 361.766 132.251 361.598C132.419 361.43 132.624 361.346 132.867 361.346C133.1 361.346 133.296 361.43 133.455 361.598C133.623 361.766 133.707 361.971 133.707 362.214C133.707 362.457 133.623 362.662 133.455 362.83C133.296 362.998 133.1 363.082 132.867 363.082ZM133.483 364.328V372H132.209V364.328H133.483ZM139.392 364.188C140.326 364.188 141.082 364.473 141.66 365.042C142.239 365.602 142.528 366.414 142.528 367.478V372H141.268V367.66C141.268 366.895 141.077 366.311 140.694 365.91C140.312 365.499 139.789 365.294 139.126 365.294C138.454 365.294 137.918 365.504 137.516 365.924C137.124 366.344 136.928 366.955 136.928 367.758V372H135.654V364.328H136.928V365.42C137.18 365.028 137.521 364.725 137.95 364.51C138.389 364.295 138.87 364.188 139.392 364.188ZM148.893 372L145.883 368.612V372H144.609V361.64H145.883V367.73L148.837 364.328H150.615L147.003 368.15L150.629 372H148.893Z" fill="#BABABA"/>
<rect x="21" y="431" width="333" height="38" rx="9" fill="white" fill-opacity="0.2" stroke="#F1F1F1" stroke-width="2"/>
<path d="M30.41 419H33.41V420H31.51V421.85H33.02V422.85H31.51V425H33.41V426H30.41V419ZM34.0428 419H35.6128L36.3128 424.01H36.3328L37.0328 419H38.6028V426H37.5628V420.7H37.5428L36.7428 426H35.8228L35.0228 420.7H35.0028V426H34.0428V419ZM40.2737 419H41.7637L42.9037 426H41.8037L41.6037 424.61V424.63H40.3537L40.1537 426H39.1337L40.2737 419ZM41.4737 423.68L40.9837 420.22H40.9637L40.4837 423.68H41.4737ZM43.4373 419H44.5373V426H43.4373V419ZM45.3612 419H46.4612V425H48.2712V426H45.3612V419ZM52.8402 419H53.7902L51.0302 426H50.0802L52.8402 419ZM57.4885 426.1C56.9552 426.1 56.5485 425.95 56.2685 425.65C55.9885 425.343 55.8485 424.907 55.8485 424.34V419H56.9485V424.42C56.9485 424.66 56.9952 424.833 57.0885 424.94C57.1885 425.047 57.3285 425.1 57.5085 425.1C57.6885 425.1 57.8252 425.047 57.9185 424.94C58.0185 424.833 58.0685 424.66 58.0685 424.42V419H59.1285V424.34C59.1285 424.907 58.9885 425.343 58.7085 425.65C58.4285 425.95 58.0218 426.1 57.4885 426.1ZM61.342 426.1C60.8086 426.1 60.4053 425.95 60.132 425.65C59.8586 425.343 59.722 424.907 59.722 424.34V423.94H60.762V424.42C60.762 424.873 60.952 425.1 61.332 425.1C61.5186 425.1 61.6586 425.047 61.752 424.94C61.852 424.827 61.902 424.647 61.902 424.4C61.902 424.107 61.8353 423.85 61.702 423.63C61.5686 423.403 61.322 423.133 60.962 422.82C60.5086 422.42 60.192 422.06 60.012 421.74C59.832 421.413 59.742 421.047 59.742 420.64C59.742 420.087 59.882 419.66 60.162 419.36C60.442 419.053 60.8486 418.9 61.382 418.9C61.9086 418.9 62.3053 419.053 62.572 419.36C62.8453 419.66 62.982 420.093 62.982 420.66V420.95H61.942V420.59C61.942 420.35 61.8953 420.177 61.802 420.07C61.7086 419.957 61.572 419.9 61.392 419.9C61.0253 419.9 60.842 420.123 60.842 420.57C60.842 420.823 60.9086 421.06 61.042 421.28C61.182 421.5 61.432 421.767 61.792 422.08C62.252 422.48 62.5686 422.843 62.742 423.17C62.9153 423.497 63.002 423.88 63.002 424.32C63.002 424.893 62.8586 425.333 62.572 425.64C62.292 425.947 61.882 426.1 61.342 426.1ZM63.6327 419H66.6327V420H64.7327V421.85H66.2427V422.85H64.7327V425H66.6327V426H63.6327V419ZM67.2655 419H68.8955C69.4621 419 69.8755 419.133 70.1355 419.4C70.3955 419.66 70.5255 420.063 70.5255 420.61V421.04C70.5255 421.767 70.2855 422.227 69.8055 422.42V422.44C70.0721 422.52 70.2588 422.683 70.3655 422.93C70.4788 423.177 70.5355 423.507 70.5355 423.92V425.15C70.5355 425.35 70.5421 425.513 70.5555 425.64C70.5688 425.76 70.6021 425.88 70.6555 426H69.5355C69.4955 425.887 69.4688 425.78 69.4555 425.68C69.4421 425.58 69.4355 425.4 69.4355 425.14V423.86C69.4355 423.54 69.3821 423.317 69.2755 423.19C69.1755 423.063 68.9988 423 68.7455 423H68.3655V426H67.2655V419ZM68.7655 422C68.9855 422 69.1488 421.943 69.2555 421.83C69.3688 421.717 69.4255 421.527 69.4255 421.26V420.72C69.4255 420.467 69.3788 420.283 69.2855 420.17C69.1988 420.057 69.0588 420 68.8655 420H68.3655V422H68.7655ZM71.2987 419H72.6787L73.7487 423.19H73.7687V419H74.7487V426H73.6187L72.2987 420.89H72.2787V426H71.2987V419ZM76.4163 419H77.9063L79.0463 426H77.9463L77.7463 424.61V424.63H76.4963L76.2963 426H75.2763L76.4163 419ZM77.6163 423.68L77.1263 420.22H77.1063L76.6262 423.68H77.6163ZM79.5799 419H81.1499L81.8499 424.01H81.8699L82.5699 419H84.1399V426H83.0999V420.7H83.0799L82.2799 426H81.3599L80.5599 420.7H80.5399V426H79.5799V419ZM84.9608 419H87.9608V420H86.0608V421.85H87.5708V422.85H86.0608V425H87.9608V426H84.9608V419Z" fill="#545974"/>
<path d="M32.352 446.278V449.54H35.908V450.59H32.352V453.95H36.328V455H31.078V445.228H36.328V446.278H32.352ZM47.4817 447.188C48.0791 447.188 48.6111 447.314 49.0777 447.566C49.5444 447.809 49.9131 448.177 50.1837 448.672C50.4544 449.167 50.5897 449.769 50.5897 450.478V455H49.3297V450.66C49.3297 449.895 49.1384 449.311 48.7557 448.91C48.3824 448.499 47.8737 448.294 47.2297 448.294C46.5671 448.294 46.0397 448.509 45.6477 448.938C45.2557 449.358 45.0597 449.969 45.0597 450.772V455H43.7997V450.66C43.7997 449.895 43.6084 449.311 43.2257 448.91C42.8524 448.499 42.3437 448.294 41.6997 448.294C41.0371 448.294 40.5097 448.509 40.1177 448.938C39.7257 449.358 39.5297 449.969 39.5297 450.772V455H38.2557V447.328H39.5297V448.434C39.7817 448.033 40.1177 447.725 40.5377 447.51C40.9671 447.295 41.4384 447.188 41.9517 447.188C42.5957 447.188 43.1651 447.333 43.6597 447.622C44.1544 447.911 44.5231 448.336 44.7657 448.896C44.9804 448.355 45.3351 447.935 45.8297 447.636C46.3244 447.337 46.8751 447.188 47.4817 447.188ZM52.2036 451.136C52.2036 450.352 52.3622 449.666 52.6796 449.078C52.9969 448.481 53.4309 448.019 53.9816 447.692C54.5416 447.365 55.1622 447.202 55.8436 447.202C56.5156 447.202 57.0989 447.347 57.5936 447.636C58.0882 447.925 58.4569 448.289 58.6996 448.728V447.328H59.9876V455H58.6996V453.572C58.4476 454.02 58.0696 454.393 57.5656 454.692C57.0709 454.981 56.4922 455.126 55.8296 455.126C55.1482 455.126 54.5322 454.958 53.9816 454.622C53.4309 454.286 52.9969 453.815 52.6796 453.208C52.3622 452.601 52.2036 451.911 52.2036 451.136ZM58.6996 451.15C58.6996 450.571 58.5829 450.067 58.3496 449.638C58.1162 449.209 57.7989 448.882 57.3976 448.658C57.0056 448.425 56.5716 448.308 56.0956 448.308C55.6196 448.308 55.1856 448.42 54.7936 448.644C54.4016 448.868 54.0889 449.195 53.8556 449.624C53.6222 450.053 53.5056 450.557 53.5056 451.136C53.5056 451.724 53.6222 452.237 53.8556 452.676C54.0889 453.105 54.4016 453.437 54.7936 453.67C55.1856 453.894 55.6196 454.006 56.0956 454.006C56.5716 454.006 57.0056 453.894 57.3976 453.67C57.7989 453.437 58.1162 453.105 58.3496 452.676C58.5829 452.237 58.6996 451.729 58.6996 451.15ZM62.7985 446.082C62.5558 446.082 62.3505 445.998 62.1825 445.83C62.0145 445.662 61.9305 445.457 61.9305 445.214C61.9305 444.971 62.0145 444.766 62.1825 444.598C62.3505 444.43 62.5558 444.346 62.7985 444.346C63.0318 444.346 63.2278 444.43 63.3865 444.598C63.5545 444.766 63.6385 444.971 63.6385 445.214C63.6385 445.457 63.5545 445.662 63.3865 445.83C63.2278 445.998 63.0318 446.082 62.7985 446.082ZM63.4145 447.328V455H62.1405V447.328H63.4145ZM66.8598 444.64V455H65.5858V444.64H66.8598ZM77.5235 441.812L73.6875 457.38H72.4275L76.2495 441.812H77.5235ZM84.4002 445.242V451.416C84.4002 452.284 84.6102 452.928 85.0302 453.348C85.4595 453.768 86.0522 453.978 86.8082 453.978C87.5548 453.978 88.1382 453.768 88.5582 453.348C88.9875 452.928 89.2022 452.284 89.2022 451.416V445.242H90.4762V451.402C90.4762 452.214 90.3128 452.9 89.9862 453.46C89.6595 454.011 89.2162 454.421 88.6562 454.692C88.1055 454.963 87.4848 455.098 86.7942 455.098C86.1035 455.098 85.4782 454.963 84.9182 454.692C84.3675 454.421 83.9288 454.011 83.6022 453.46C83.2848 452.9 83.1262 452.214 83.1262 451.402V445.242H84.4002ZM95.3174 455.126C94.7294 455.126 94.2021 455.028 93.7354 454.832C93.2688 454.627 92.9001 454.347 92.6294 453.992C92.3588 453.628 92.2094 453.213 92.1814 452.746H93.4974C93.5348 453.129 93.7121 453.441 94.0294 453.684C94.3561 453.927 94.7808 454.048 95.3034 454.048C95.7888 454.048 96.1714 453.941 96.4514 453.726C96.7314 453.511 96.8714 453.241 96.8714 452.914C96.8714 452.578 96.7221 452.331 96.4234 452.172C96.1248 452.004 95.6628 451.841 95.0374 451.682C94.4681 451.533 94.0014 451.383 93.6374 451.234C93.2828 451.075 92.9748 450.847 92.7134 450.548C92.4614 450.24 92.3354 449.839 92.3354 449.344C92.3354 448.952 92.4521 448.593 92.6854 448.266C92.9188 447.939 93.2501 447.683 93.6794 447.496C94.1088 447.3 94.5988 447.202 95.1494 447.202C95.9988 447.202 96.6848 447.417 97.2074 447.846C97.7301 448.275 98.0101 448.863 98.0474 449.61H96.7734C96.7454 449.209 96.5821 448.887 96.2834 448.644C95.9941 448.401 95.6021 448.28 95.1074 448.28C94.6501 448.28 94.2861 448.378 94.0154 448.574C93.7448 448.77 93.6094 449.027 93.6094 449.344C93.6094 449.596 93.6888 449.806 93.8474 449.974C94.0154 450.133 94.2208 450.263 94.4634 450.366C94.7154 450.459 95.0608 450.567 95.4994 450.688C96.0501 450.837 96.4981 450.987 96.8434 451.136C97.1888 451.276 97.4828 451.491 97.7254 451.78C97.9774 452.069 98.1081 452.447 98.1174 452.914C98.1174 453.334 98.0008 453.712 97.7674 454.048C97.5341 454.384 97.2028 454.65 96.7734 454.846C96.3534 455.033 95.8681 455.126 95.3174 455.126ZM106.916 450.87C106.916 451.113 106.902 451.369 106.874 451.64H100.742C100.789 452.396 101.045 452.989 101.512 453.418C101.988 453.838 102.562 454.048 103.234 454.048C103.785 454.048 104.242 453.922 104.606 453.67C104.979 453.409 105.241 453.063 105.39 452.634H106.762C106.557 453.371 106.146 453.973 105.53 454.44C104.914 454.897 104.149 455.126 103.234 455.126C102.506 455.126 101.853 454.963 101.274 454.636C100.705 454.309 100.257 453.847 99.9299 453.25C99.6032 452.643 99.4399 451.943 99.4399 451.15C99.4399 450.357 99.5986 449.661 99.9159 449.064C100.233 448.467 100.677 448.009 101.246 447.692C101.825 447.365 102.487 447.202 103.234 447.202C103.962 447.202 104.606 447.361 105.166 447.678C105.726 447.995 106.155 448.434 106.454 448.994C106.762 449.545 106.916 450.17 106.916 450.87ZM105.6 450.604C105.6 450.119 105.493 449.703 105.278 449.358C105.063 449.003 104.769 448.737 104.396 448.56C104.032 448.373 103.626 448.28 103.178 448.28C102.534 448.28 101.983 448.485 101.526 448.896C101.078 449.307 100.821 449.876 100.756 450.604H105.6ZM109.872 448.574C110.096 448.135 110.413 447.795 110.824 447.552C111.244 447.309 111.752 447.188 112.35 447.188V448.504H112.014C110.586 448.504 109.872 449.279 109.872 450.828V455H108.598V447.328H109.872V448.574ZM117.558 447.188C118.492 447.188 119.248 447.473 119.826 448.042C120.405 448.602 120.694 449.414 120.694 450.478V455H119.434V450.66C119.434 449.895 119.243 449.311 118.86 448.91C118.478 448.499 117.955 448.294 117.292 448.294C116.62 448.294 116.084 448.504 115.682 448.924C115.29 449.344 115.094 449.955 115.094 450.758V455H113.82V447.328H115.094V448.42C115.346 448.028 115.687 447.725 116.116 447.51C116.555 447.295 117.036 447.188 117.558 447.188ZM122.299 451.136C122.299 450.352 122.458 449.666 122.775 449.078C123.093 448.481 123.527 448.019 124.077 447.692C124.637 447.365 125.258 447.202 125.939 447.202C126.611 447.202 127.195 447.347 127.689 447.636C128.184 447.925 128.553 448.289 128.795 448.728V447.328H130.083V455H128.795V453.572C128.543 454.02 128.165 454.393 127.661 454.692C127.167 454.981 126.588 455.126 125.925 455.126C125.244 455.126 124.628 454.958 124.077 454.622C123.527 454.286 123.093 453.815 122.775 453.208C122.458 452.601 122.299 451.911 122.299 451.136ZM128.795 451.15C128.795 450.571 128.679 450.067 128.445 449.638C128.212 449.209 127.895 448.882 127.493 448.658C127.101 448.425 126.667 448.308 126.191 448.308C125.715 448.308 125.281 448.42 124.889 448.644C124.497 448.868 124.185 449.195 123.951 449.624C123.718 450.053 123.601 450.557 123.601 451.136C123.601 451.724 123.718 452.237 123.951 452.676C124.185 453.105 124.497 453.437 124.889 453.67C125.281 453.894 125.715 454.006 126.191 454.006C126.667 454.006 127.101 453.894 127.493 453.67C127.895 453.437 128.212 453.105 128.445 452.676C128.679 452.237 128.795 451.729 128.795 451.15ZM141.462 447.188C142.06 447.188 142.592 447.314 143.058 447.566C143.525 447.809 143.894 448.177 144.164 448.672C144.435 449.167 144.57 449.769 144.57 450.478V455H143.31V450.66C143.31 449.895 143.119 449.311 142.736 448.91C142.363 448.499 141.854 448.294 141.21 448.294C140.548 448.294 140.02 448.509 139.628 448.938C139.236 449.358 139.04 449.969 139.04 450.772V455H137.78V450.66C137.78 449.895 137.589 449.311 137.206 448.91C136.833 448.499 136.324 448.294 135.68 448.294C135.018 448.294 134.49 448.509 134.098 448.938C133.706 449.358 133.51 449.969 133.51 450.772V455H132.236V447.328H133.51V448.434C133.762 448.033 134.098 447.725 134.518 447.51C134.948 447.295 135.419 447.188 135.932 447.188C136.576 447.188 137.146 447.333 137.64 447.622C138.135 447.911 138.504 448.336 138.746 448.896C138.961 448.355 139.316 447.935 139.81 447.636C140.305 447.337 140.856 447.188 141.462 447.188ZM153.66 450.87C153.66 451.113 153.646 451.369 153.618 451.64H147.486C147.533 452.396 147.789 452.989 148.256 453.418C148.732 453.838 149.306 454.048 149.978 454.048C150.529 454.048 150.986 453.922 151.35 453.67C151.723 453.409 151.985 453.063 152.134 452.634H153.506C153.301 453.371 152.89 453.973 152.274 454.44C151.658 454.897 150.893 455.126 149.978 455.126C149.25 455.126 148.597 454.963 148.018 454.636C147.449 454.309 147.001 453.847 146.674 453.25C146.347 452.643 146.184 451.943 146.184 451.15C146.184 450.357 146.343 449.661 146.66 449.064C146.977 448.467 147.421 448.009 147.99 447.692C148.569 447.365 149.231 447.202 149.978 447.202C150.706 447.202 151.35 447.361 151.91 447.678C152.47 447.995 152.899 448.434 153.198 448.994C153.506 449.545 153.66 450.17 153.66 450.87ZM152.344 450.604C152.344 450.119 152.237 449.703 152.022 449.358C151.807 449.003 151.513 448.737 151.14 448.56C150.776 448.373 150.37 448.28 149.922 448.28C149.278 448.28 148.727 448.485 148.27 448.896C147.822 449.307 147.565 449.876 147.5 450.604H152.344Z" fill="#BABABA"/>
<rect x="21" y="514" width="333" height="38" rx="9" fill="white" fill-opacity="0.2" stroke="#F1F1F1" stroke-width="2"/>
<path d="M30.41 502H32.03C32.5767 502 32.9867 502.147 33.26 502.44C33.5333 502.733 33.67 503.163 33.67 503.73V504.42C33.67 504.987 33.5333 505.417 33.26 505.71C32.9867 506.003 32.5767 506.15 32.03 506.15H31.51V509H30.41V502ZM32.03 505.15C32.21 505.15 32.3433 505.1 32.43 505C32.5233 504.9 32.57 504.73 32.57 504.49V503.66C32.57 503.42 32.5233 503.25 32.43 503.15C32.3433 503.05 32.21 503 32.03 503H31.51V505.15H32.03ZM34.7659 502H36.2559L37.3959 509H36.2959L36.0959 507.61V507.63H34.8459L34.6459 509H33.6259L34.7659 502ZM35.9659 506.68L35.4759 503.22H35.4559L34.9759 506.68H35.9659ZM39.3302 509.1C38.7969 509.1 38.3936 508.95 38.1202 508.65C37.8469 508.343 37.7102 507.907 37.7102 507.34V506.94H38.7502V507.42C38.7502 507.873 38.9402 508.1 39.3202 508.1C39.5069 508.1 39.6469 508.047 39.7402 507.94C39.8402 507.827 39.8902 507.647 39.8902 507.4C39.8902 507.107 39.8236 506.85 39.6902 506.63C39.5569 506.403 39.3102 506.133 38.9502 505.82C38.4969 505.42 38.1802 505.06 38.0002 504.74C37.8202 504.413 37.7302 504.047 37.7302 503.64C37.7302 503.087 37.8702 502.66 38.1502 502.36C38.4302 502.053 38.8369 501.9 39.3702 501.9C39.8969 501.9 40.2936 502.053 40.5602 502.36C40.8336 502.66 40.9702 503.093 40.9702 503.66V503.95H39.9302V503.59C39.9302 503.35 39.8836 503.177 39.7902 503.07C39.6969 502.957 39.5602 502.9 39.3802 502.9C39.0136 502.9 38.8302 503.123 38.8302 503.57C38.8302 503.823 38.8969 504.06 39.0302 504.28C39.1702 504.5 39.4202 504.767 39.7802 505.08C40.2402 505.48 40.5569 505.843 40.7302 506.17C40.9036 506.497 40.9902 506.88 40.9902 507.32C40.9902 507.893 40.8469 508.333 40.5602 508.64C40.2802 508.947 39.8702 509.1 39.3302 509.1ZM43.0509 509.1C42.5176 509.1 42.1143 508.95 41.8409 508.65C41.5676 508.343 41.4309 507.907 41.4309 507.34V506.94H42.4709V507.42C42.4709 507.873 42.6609 508.1 43.0409 508.1C43.2276 508.1 43.3676 508.047 43.4609 507.94C43.5609 507.827 43.6109 507.647 43.6109 507.4C43.6109 507.107 43.5443 506.85 43.4109 506.63C43.2776 506.403 43.0309 506.133 42.6709 505.82C42.2176 505.42 41.9009 505.06 41.7209 504.74C41.5409 504.413 41.4509 504.047 41.4509 503.64C41.4509 503.087 41.5909 502.66 41.8709 502.36C42.1509 502.053 42.5576 501.9 43.0909 501.9C43.6176 501.9 44.0143 502.053 44.2809 502.36C44.5543 502.66 44.6909 503.093 44.6909 503.66V503.95H43.6509V503.59C43.6509 503.35 43.6043 503.177 43.5109 503.07C43.4176 502.957 43.2809 502.9 43.1009 502.9C42.7343 502.9 42.5509 503.123 42.5509 503.57C42.5509 503.823 42.6176 504.06 42.7509 504.28C42.8909 504.5 43.1409 504.767 43.5009 505.08C43.9609 505.48 44.2776 505.843 44.4509 506.17C44.6243 506.497 44.7109 506.88 44.7109 507.32C44.7109 507.893 44.5676 508.333 44.2809 508.64C44.0009 508.947 43.5909 509.1 43.0509 509.1ZM45.0816 502H46.1416L46.6316 507.38H46.6516L47.1716 502H48.3716L48.8916 507.38H48.9116L49.4016 502H50.3516L49.6416 509H48.2716L47.7716 504.28H47.7516L47.2516 509H45.7916L45.0816 502ZM52.498 509.1C51.958 509.1 51.5447 508.947 51.258 508.64C50.9714 508.333 50.828 507.9 50.828 507.34V503.66C50.828 503.1 50.9714 502.667 51.258 502.36C51.5447 502.053 51.958 501.9 52.498 501.9C53.038 501.9 53.4514 502.053 53.738 502.36C54.0247 502.667 54.168 503.1 54.168 503.66V507.34C54.168 507.9 54.0247 508.333 53.738 508.64C53.4514 508.947 53.038 509.1 52.498 509.1ZM52.498 508.1C52.878 508.1 53.068 507.87 53.068 507.41V503.59C53.068 503.13 52.878 502.9 52.498 502.9C52.118 502.9 51.928 503.13 51.928 503.59V507.41C51.928 507.87 52.118 508.1 52.498 508.1ZM54.912 502H56.542C57.1086 502 57.522 502.133 57.782 502.4C58.042 502.66 58.172 503.063 58.172 503.61V504.04C58.172 504.767 57.932 505.227 57.452 505.42V505.44C57.7186 505.52 57.9053 505.683 58.012 505.93C58.1253 506.177 58.182 506.507 58.182 506.92V508.15C58.182 508.35 58.1886 508.513 58.202 508.64C58.2153 508.76 58.2486 508.88 58.302 509H57.182C57.142 508.887 57.1153 508.78 57.102 508.68C57.0886 508.58 57.082 508.4 57.082 508.14V506.86C57.082 506.54 57.0286 506.317 56.922 506.19C56.822 506.063 56.6453 506 56.392 506H56.012V509H54.912V502ZM56.412 505C56.632 505 56.7953 504.943 56.902 504.83C57.0153 504.717 57.072 504.527 57.072 504.26V503.72C57.072 503.467 57.0253 503.283 56.932 503.17C56.8453 503.057 56.7053 503 56.512 503H56.012V505H56.412ZM58.9452 502H60.6252C61.1718 502 61.5818 502.147 61.8552 502.44C62.1285 502.733 62.2652 503.163 62.2652 503.73V507.27C62.2652 507.837 62.1285 508.267 61.8552 508.56C61.5818 508.853 61.1718 509 60.6252 509H58.9452V502ZM60.6052 508C60.7852 508 60.9218 507.947 61.0152 507.84C61.1152 507.733 61.1652 507.56 61.1652 507.32V503.68C61.1652 503.44 61.1152 503.267 61.0152 503.16C60.9218 503.053 60.7852 503 60.6052 503H60.0452V508H60.6052Z" fill="#545974"/>
<path d="M37.602 531.098C37.602 531.91 37.322 532.587 36.762 533.128C36.2113 533.66 35.3667 533.926 34.228 533.926H32.352V538H31.078V528.242H34.228C35.3293 528.242 36.1647 528.508 36.734 529.04C37.3127 529.572 37.602 530.258 37.602 531.098ZM34.228 532.876C34.9373 532.876 35.46 532.722 35.796 532.414C36.132 532.106 36.3 531.667 36.3 531.098C36.3 529.894 35.6093 529.292 34.228 529.292H32.352V532.876H34.228ZM38.7094 534.136C38.7094 533.352 38.8681 532.666 39.1854 532.078C39.5028 531.481 39.9368 531.019 40.4874 530.692C41.0474 530.365 41.6681 530.202 42.3494 530.202C43.0214 530.202 43.6048 530.347 44.0994 530.636C44.5941 530.925 44.9628 531.289 45.2054 531.728V530.328H46.4934V538H45.2054V536.572C44.9534 537.02 44.5754 537.393 44.0714 537.692C43.5768 537.981 42.9981 538.126 42.3354 538.126C41.6541 538.126 41.0381 537.958 40.4874 537.622C39.9368 537.286 39.5028 536.815 39.1854 536.208C38.8681 535.601 38.7094 534.911 38.7094 534.136ZM45.2054 534.15C45.2054 533.571 45.0888 533.067 44.8554 532.638C44.6221 532.209 44.3048 531.882 43.9034 531.658C43.5114 531.425 43.0774 531.308 42.6014 531.308C42.1254 531.308 41.6914 531.42 41.2994 531.644C40.9074 531.868 40.5948 532.195 40.3614 532.624C40.1281 533.053 40.0114 533.557 40.0114 534.136C40.0114 534.724 40.1281 535.237 40.3614 535.676C40.5948 536.105 40.9074 536.437 41.2994 536.67C41.6914 536.894 42.1254 537.006 42.6014 537.006C43.0774 537.006 43.5114 536.894 43.9034 536.67C44.3048 536.437 44.6221 536.105 44.8554 535.676C45.0888 535.237 45.2054 534.729 45.2054 534.15ZM51.3624 538.126C50.7744 538.126 50.247 538.028 49.7804 537.832C49.3137 537.627 48.945 537.347 48.6744 536.992C48.4037 536.628 48.2544 536.213 48.2264 535.746H49.5424C49.5797 536.129 49.757 536.441 50.0744 536.684C50.401 536.927 50.8257 537.048 51.3484 537.048C51.8337 537.048 52.2164 536.941 52.4964 536.726C52.7764 536.511 52.9164 536.241 52.9164 535.914C52.9164 535.578 52.767 535.331 52.4684 535.172C52.1697 535.004 51.7077 534.841 51.0824 534.682C50.513 534.533 50.0464 534.383 49.6824 534.234C49.3277 534.075 49.0197 533.847 48.7584 533.548C48.5064 533.24 48.3804 532.839 48.3804 532.344C48.3804 531.952 48.497 531.593 48.7304 531.266C48.9637 530.939 49.295 530.683 49.7244 530.496C50.1537 530.3 50.6437 530.202 51.1944 530.202C52.0437 530.202 52.7297 530.417 53.2524 530.846C53.775 531.275 54.055 531.863 54.0924 532.61H52.8184C52.7904 532.209 52.627 531.887 52.3284 531.644C52.039 531.401 51.647 531.28 51.1524 531.28C50.695 531.28 50.331 531.378 50.0604 531.574C49.7897 531.77 49.6544 532.027 49.6544 532.344C49.6544 532.596 49.7337 532.806 49.8924 532.974C50.0604 533.133 50.2657 533.263 50.5084 533.366C50.7604 533.459 51.1057 533.567 51.5444 533.688C52.095 533.837 52.543 533.987 52.8884 534.136C53.2337 534.276 53.5277 534.491 53.7704 534.78C54.0224 535.069 54.153 535.447 54.1624 535.914C54.1624 536.334 54.0457 536.712 53.8124 537.048C53.579 537.384 53.2477 537.65 52.8184 537.846C52.3984 538.033 51.913 538.126 51.3624 538.126ZM58.6768 538.126C58.0888 538.126 57.5615 538.028 57.0948 537.832C56.6281 537.627 56.2595 537.347 55.9888 536.992C55.7181 536.628 55.5688 536.213 55.5408 535.746H56.8568C56.8941 536.129 57.0715 536.441 57.3888 536.684C57.7155 536.927 58.1401 537.048 58.6628 537.048C59.1481 537.048 59.5308 536.941 59.8108 536.726C60.0908 536.511 60.2308 536.241 60.2308 535.914C60.2308 535.578 60.0815 535.331 59.7828 535.172C59.4841 535.004 59.0221 534.841 58.3968 534.682C57.8275 534.533 57.3608 534.383 56.9968 534.234C56.6421 534.075 56.3341 533.847 56.0728 533.548C55.8208 533.24 55.6948 532.839 55.6948 532.344C55.6948 531.952 55.8115 531.593 56.0448 531.266C56.2781 530.939 56.6095 530.683 57.0388 530.496C57.4681 530.3 57.9581 530.202 58.5088 530.202C59.3581 530.202 60.0441 530.417 60.5668 530.846C61.0895 531.275 61.3695 531.863 61.4068 532.61H60.1328C60.1048 532.209 59.9415 531.887 59.6428 531.644C59.3535 531.401 58.9615 531.28 58.4668 531.28C58.0095 531.28 57.6455 531.378 57.3748 531.574C57.1041 531.77 56.9688 532.027 56.9688 532.344C56.9688 532.596 57.0481 532.806 57.2068 532.974C57.3748 533.133 57.5801 533.263 57.8228 533.366C58.0748 533.459 58.4201 533.567 58.8588 533.688C59.4095 533.837 59.8575 533.987 60.2028 534.136C60.5481 534.276 60.8421 534.491 61.0848 534.78C61.3368 535.069 61.4675 535.447 61.4768 535.914C61.4768 536.334 61.3601 536.712 61.1268 537.048C60.8935 537.384 60.5621 537.65 60.1328 537.846C59.7128 538.033 59.2275 538.126 58.6768 538.126ZM73.4953 530.328L71.1013 538H69.7853L67.9373 531.91L66.0893 538H64.7733L62.3653 530.328H63.6673L65.4313 536.768L67.3353 530.328H68.6373L70.4993 536.782L72.2353 530.328H73.4953ZM78.1056 538.126C77.387 538.126 76.7336 537.963 76.1456 537.636C75.567 537.309 75.1096 536.847 74.7736 536.25C74.447 535.643 74.2836 534.943 74.2836 534.15C74.2836 533.366 74.4516 532.675 74.7876 532.078C75.133 531.471 75.5996 531.009 76.1876 530.692C76.7756 530.365 77.4336 530.202 78.1616 530.202C78.8896 530.202 79.5476 530.365 80.1356 530.692C80.7236 531.009 81.1856 531.467 81.5216 532.064C81.867 532.661 82.0396 533.357 82.0396 534.15C82.0396 534.943 81.8623 535.643 81.5076 536.25C81.1623 536.847 80.691 537.309 80.0936 537.636C79.4963 537.963 78.8336 538.126 78.1056 538.126ZM78.1056 537.006C78.563 537.006 78.9923 536.899 79.3936 536.684C79.795 536.469 80.117 536.147 80.3596 535.718C80.6116 535.289 80.7376 534.766 80.7376 534.15C80.7376 533.534 80.6163 533.011 80.3736 532.582C80.131 532.153 79.8136 531.835 79.4216 531.63C79.0296 531.415 78.605 531.308 78.1476 531.308C77.681 531.308 77.2516 531.415 76.8596 531.63C76.477 531.835 76.169 532.153 75.9356 532.582C75.7023 533.011 75.5856 533.534 75.5856 534.15C75.5856 534.775 75.6976 535.303 75.9216 535.732C76.155 536.161 76.463 536.483 76.8456 536.698C77.2283 536.903 77.6483 537.006 78.1056 537.006ZM84.9887 531.574C85.2127 531.135 85.5301 530.795 85.9407 530.552C86.3607 530.309 86.8694 530.188 87.4667 530.188V531.504H87.1307C85.7027 531.504 84.9887 532.279 84.9887 533.828V538H83.7147V530.328H84.9887V531.574ZM88.4614 534.136C88.4614 533.352 88.62 532.666 88.9374 532.078C89.2547 531.481 89.6887 531.019 90.2394 530.692C90.7994 530.365 91.4247 530.202 92.1154 530.202C92.7127 530.202 93.268 530.342 93.7814 530.622C94.2947 530.893 94.6867 531.252 94.9574 531.7V527.64H96.2454V538H94.9574V536.558C94.7054 537.015 94.332 537.393 93.8374 537.692C93.3427 537.981 92.764 538.126 92.1014 538.126C91.42 538.126 90.7994 537.958 90.2394 537.622C89.6887 537.286 89.2547 536.815 88.9374 536.208C88.62 535.601 88.4614 534.911 88.4614 534.136ZM94.9574 534.15C94.9574 533.571 94.8407 533.067 94.6074 532.638C94.374 532.209 94.0567 531.882 93.6554 531.658C93.2634 531.425 92.8294 531.308 92.3534 531.308C91.8774 531.308 91.4434 531.42 91.0514 531.644C90.6594 531.868 90.3467 532.195 90.1134 532.624C89.88 533.053 89.7634 533.557 89.7634 534.136C89.7634 534.724 89.88 535.237 90.1134 535.676C90.3467 536.105 90.6594 536.437 91.0514 536.67C91.4434 536.894 91.8774 537.006 92.3534 537.006C92.8294 537.006 93.2634 536.894 93.6554 536.67C94.0567 536.437 94.374 536.105 94.6074 535.676C94.8407 535.237 94.9574 534.729 94.9574 534.15Z" fill="#BABABA"/>
<rect x="20" y="722" width="335" height="40" rx="10" fill="#FF6464"/>
<path d="M152.446 735.8H154.83L156.654 747H154.894L154.574 744.776V744.808H152.574L152.254 747H150.622L152.446 735.8ZM154.366 743.288L153.582 737.752H153.55L152.782 743.288H154.366ZM157.508 735.8H160.196C161.07 735.8 161.726 736.035 162.164 736.504C162.601 736.973 162.82 737.661 162.82 738.568V744.232C162.82 745.139 162.601 745.827 162.164 746.296C161.726 746.765 161.07 747 160.196 747H157.508V735.8ZM160.164 745.4C160.452 745.4 160.67 745.315 160.82 745.144C160.98 744.973 161.06 744.696 161.06 744.312V738.488C161.06 738.104 160.98 737.827 160.82 737.656C160.67 737.485 160.452 737.4 160.164 737.4H159.268V745.4H160.164ZM164.008 735.8H166.696C167.57 735.8 168.226 736.035 168.664 736.504C169.101 736.973 169.32 737.661 169.32 738.568V744.232C169.32 745.139 169.101 745.827 168.664 746.296C168.226 746.765 167.57 747 166.696 747H164.008V735.8ZM166.664 745.4C166.952 745.4 167.17 745.315 167.32 745.144C167.48 744.973 167.56 744.696 167.56 744.312V738.488C167.56 738.104 167.48 737.827 167.32 737.656C167.17 737.485 166.952 737.4 166.664 737.4H165.768V745.4H166.664ZM173.07 735.8H175.662C176.537 735.8 177.193 736.035 177.63 736.504C178.067 736.973 178.286 737.661 178.286 738.568V739.672C178.286 740.579 178.067 741.267 177.63 741.736C177.193 742.205 176.537 742.44 175.662 742.44H174.83V747H173.07V735.8ZM175.662 740.84C175.95 740.84 176.163 740.76 176.302 740.6C176.451 740.44 176.526 740.168 176.526 739.784V738.456C176.526 738.072 176.451 737.8 176.302 737.64C176.163 737.48 175.95 737.4 175.662 737.4H174.83V740.84H175.662ZM180.039 735.8H182.423L184.247 747H182.487L182.167 744.776V744.808H180.167L179.847 747H178.215L180.039 735.8ZM181.959 743.288L181.175 737.752H181.143L180.375 743.288H181.959ZM187.342 747.16C186.489 747.16 185.844 746.92 185.406 746.44C184.969 745.949 184.75 745.251 184.75 744.344V743.704H186.414V744.472C186.414 745.197 186.718 745.56 187.326 745.56C187.625 745.56 187.849 745.475 187.998 745.304C188.158 745.123 188.238 744.835 188.238 744.44C188.238 743.971 188.132 743.56 187.918 743.208C187.705 742.845 187.31 742.413 186.734 741.912C186.009 741.272 185.502 740.696 185.214 740.184C184.926 739.661 184.782 739.075 184.782 738.424C184.782 737.539 185.006 736.856 185.454 736.376C185.902 735.885 186.553 735.64 187.406 735.64C188.249 735.64 188.884 735.885 189.31 736.376C189.748 736.856 189.966 737.549 189.966 738.456V738.92H188.302V738.344C188.302 737.96 188.228 737.683 188.078 737.512C187.929 737.331 187.71 737.24 187.422 737.24C186.836 737.24 186.542 737.597 186.542 738.312C186.542 738.717 186.649 739.096 186.862 739.448C187.086 739.8 187.486 740.227 188.062 740.728C188.798 741.368 189.305 741.949 189.582 742.472C189.86 742.995 189.998 743.608 189.998 744.312C189.998 745.229 189.769 745.933 189.31 746.424C188.862 746.915 188.206 747.16 187.342 747.16ZM193.296 747.16C192.442 747.16 191.797 746.92 191.36 746.44C190.922 745.949 190.704 745.251 190.704 744.344V743.704H192.368V744.472C192.368 745.197 192.672 745.56 193.28 745.56C193.578 745.56 193.802 745.475 193.952 745.304C194.112 745.123 194.192 744.835 194.192 744.44C194.192 743.971 194.085 743.56 193.872 743.208C193.658 742.845 193.264 742.413 192.688 741.912C191.962 741.272 191.456 740.696 191.168 740.184C190.88 739.661 190.736 739.075 190.736 738.424C190.736 737.539 190.96 736.856 191.408 736.376C191.856 735.885 192.506 735.64 193.36 735.64C194.202 735.64 194.837 735.885 195.264 736.376C195.701 736.856 195.92 737.549 195.92 738.456V738.92H194.256V738.344C194.256 737.96 194.181 737.683 194.032 737.512C193.882 737.331 193.664 737.24 193.376 737.24C192.789 737.24 192.496 737.597 192.496 738.312C192.496 738.717 192.602 739.096 192.816 739.448C193.04 739.8 193.44 740.227 194.016 740.728C194.752 741.368 195.258 741.949 195.536 742.472C195.813 742.995 195.952 743.608 195.952 744.312C195.952 745.229 195.722 745.933 195.264 746.424C194.816 746.915 194.16 747.16 193.296 747.16ZM196.545 735.8H198.241L199.025 744.408H199.057L199.889 735.8H201.809L202.641 744.408H202.673L203.457 735.8H204.977L203.841 747H201.649L200.849 739.448H200.817L200.017 747H197.681L196.545 735.8ZM208.411 747.16C207.547 747.16 206.886 746.915 206.427 746.424C205.968 745.933 205.739 745.24 205.739 744.344V738.456C205.739 737.56 205.968 736.867 206.427 736.376C206.886 735.885 207.547 735.64 208.411 735.64C209.275 735.64 209.936 735.885 210.395 736.376C210.854 736.867 211.083 737.56 211.083 738.456V744.344C211.083 745.24 210.854 745.933 210.395 746.424C209.936 746.915 209.275 747.16 208.411 747.16ZM208.411 745.56C209.019 745.56 209.323 745.192 209.323 744.456V738.344C209.323 737.608 209.019 737.24 208.411 737.24C207.803 737.24 207.499 737.608 207.499 738.344V744.456C207.499 745.192 207.803 745.56 208.411 745.56ZM212.273 735.8H214.881C215.788 735.8 216.449 736.013 216.865 736.44C217.281 736.856 217.489 737.501 217.489 738.376V739.064C217.489 740.227 217.105 740.963 216.337 741.272V741.304C216.764 741.432 217.063 741.693 217.233 742.088C217.415 742.483 217.505 743.011 217.505 743.672V745.64C217.505 745.96 217.516 746.221 217.537 746.424C217.559 746.616 217.612 746.808 217.697 747H215.905C215.841 746.819 215.799 746.648 215.777 746.488C215.756 746.328 215.745 746.04 215.745 745.624V743.576C215.745 743.064 215.66 742.707 215.489 742.504C215.329 742.301 215.047 742.2 214.641 742.2H214.033V747H212.273V735.8ZM214.673 740.6C215.025 740.6 215.287 740.509 215.457 740.328C215.639 740.147 215.729 739.843 215.729 739.416V738.552C215.729 738.147 215.655 737.853 215.505 737.672C215.367 737.491 215.143 737.4 214.833 737.4H214.033V740.6H214.673ZM218.726 735.8H221.414C222.289 735.8 222.945 736.035 223.382 736.504C223.82 736.973 224.038 737.661 224.038 738.568V744.232C224.038 745.139 223.82 745.827 223.382 746.296C222.945 746.765 222.289 747 221.414 747H218.726V735.8ZM221.382 745.4C221.67 745.4 221.889 745.315 222.038 745.144C222.198 744.973 222.278 744.696 222.278 744.312V738.488C222.278 738.104 222.198 737.827 222.038 737.656C221.889 737.485 221.67 737.4 221.382 737.4H220.486V745.4H221.382Z" fill="white"/>
<rect x="199" y="584" width="155" height="38" rx="9" stroke="#FF6464" stroke-width="2"/>
<path d="M243.355 608.16C242.502 608.16 241.851 607.92 241.403 607.44C240.955 606.949 240.731 606.251 240.731 605.344V599.456C240.731 598.549 240.955 597.856 241.403 597.376C241.851 596.885 242.502 596.64 243.355 596.64C244.208 596.64 244.859 596.885 245.307 597.376C245.755 597.856 245.979 598.549 245.979 599.456V600.416H244.315V599.344C244.315 598.608 244.011 598.24 243.403 598.24C242.795 598.24 242.491 598.608 242.491 599.344V605.472C242.491 606.197 242.795 606.56 243.403 606.56C244.011 606.56 244.315 606.197 244.315 605.472V603.28H243.435V601.68H245.979V605.344C245.979 606.251 245.755 606.949 245.307 607.44C244.859 607.92 244.208 608.16 243.355 608.16ZM247.109 596.8H251.909V598.4H248.869V601.36H251.285V602.96H248.869V606.4H251.909V608H247.109V596.8ZM252.922 596.8H255.13L256.842 603.504H256.874V596.8H258.442V608H256.634L254.522 599.824H254.49V608H252.922V596.8ZM259.75 596.8H264.55V598.4H261.51V601.36H263.926V602.96H261.51V606.4H264.55V608H259.75V596.8ZM265.562 596.8H268.17C269.077 596.8 269.738 597.013 270.154 597.44C270.57 597.856 270.778 598.501 270.778 599.376V600.064C270.778 601.227 270.394 601.963 269.626 602.272V602.304C270.053 602.432 270.352 602.693 270.522 603.088C270.704 603.483 270.794 604.011 270.794 604.672V606.64C270.794 606.96 270.805 607.221 270.826 607.424C270.848 607.616 270.901 607.808 270.986 608H269.194C269.13 607.819 269.088 607.648 269.066 607.488C269.045 607.328 269.034 607.04 269.034 606.624V604.576C269.034 604.064 268.949 603.707 268.778 603.504C268.618 603.301 268.336 603.2 267.93 603.2H267.322V608H265.562V596.8ZM267.962 601.6C268.314 601.6 268.576 601.509 268.746 601.328C268.928 601.147 269.018 600.843 269.018 600.416V599.552C269.018 599.147 268.944 598.853 268.794 598.672C268.656 598.491 268.432 598.4 268.122 598.4H267.322V601.6H267.962ZM273.375 596.8H275.759L277.583 608H275.823L275.503 605.776V605.808H273.503L273.183 608H271.551L273.375 596.8ZM275.295 604.288L274.511 598.752H274.479L273.711 604.288H275.295ZM279.079 598.4H277.239V596.8H282.679V598.4H280.839V608H279.079V598.4ZM283.531 596.8H288.331V598.4H285.291V601.36H287.707V602.96H285.291V606.4H288.331V608H283.531V596.8ZM291.906 596.8H294.114L295.826 603.504H295.858V596.8H297.426V608H295.618L293.506 599.824H293.474V608H291.906V596.8ZM298.734 596.8H303.534V598.4H300.494V601.36H302.91V602.96H300.494V606.4H303.534V608H298.734V596.8ZM304.131 596.8H305.827L306.611 605.408H306.643L307.475 596.8H309.395L310.227 605.408H310.259L311.043 596.8H312.563L311.427 608H309.235L308.435 600.448H308.403L307.603 608H305.267L304.131 596.8Z" fill="#FF6464"/>
<path d="M28.064 137.2H37.6L44.896 182H37.856L36.576 173.104V173.232H28.576L27.296 182H20.768L28.064 137.2ZM35.744 167.152L32.608 145.008H32.48L29.408 167.152H35.744ZM48.3115 137.2H59.0635C62.5622 137.2 65.1862 138.139 66.9355 140.016C68.6848 141.893 69.5595 144.645 69.5595 148.272V170.928C69.5595 174.555 68.6848 177.307 66.9355 179.184C65.1862 181.061 62.5622 182 59.0635 182H48.3115V137.2ZM58.9355 175.6C60.0875 175.6 60.9622 175.259 61.5595 174.576C62.1995 173.893 62.5195 172.784 62.5195 171.248V147.952C62.5195 146.416 62.1995 145.307 61.5595 144.624C60.9622 143.941 60.0875 143.6 58.9355 143.6H55.3515V175.6H58.9355ZM74.3115 137.2H85.0635C88.5622 137.2 91.1862 138.139 92.9355 140.016C94.6848 141.893 95.5595 144.645 95.5595 148.272V170.928C95.5595 174.555 94.6848 177.307 92.9355 179.184C91.1862 181.061 88.5622 182 85.0635 182H74.3115V137.2ZM84.9355 175.6C86.0875 175.6 86.9622 175.259 87.5595 174.576C88.1995 173.893 88.5195 172.784 88.5195 171.248V147.952C88.5195 146.416 88.1995 145.307 87.5595 144.624C86.9622 143.941 86.0875 143.6 84.9355 143.6H81.3515V175.6H84.9355ZM110.562 137.2H119.394L126.242 164.016H126.37V137.2H132.642V182H125.41L116.962 149.296H116.834V182H110.562V137.2ZM137.874 137.2H157.074V143.6H144.914V155.44H154.578V161.84H144.914V175.6H157.074V182H137.874V137.2ZM159.46 137.2H166.244L169.38 171.632H169.508L172.836 137.2H180.516L183.844 171.632H183.972L187.108 137.2H193.188L188.644 182H179.876L176.676 151.792H176.548L173.348 182H164.004L159.46 137.2Z" fill="#545974"/>
<path d="M33.3035 26.8809C33.3035 25.7969 33.6697 24.9082 34.4021 24.2148C35.1395 23.5166 36.0818 23.1675 37.2293 23.1675C38.0008 23.1675 38.6844 23.3457 39.2801 23.7021C39.8758 24.0586 40.3519 24.5762 40.7083 25.2549C41.2063 26.1387 41.4554 27.252 41.4554 28.5947C41.4554 30.3721 41.077 31.7612 40.3201 32.7622C39.5633 33.7583 38.5135 34.2563 37.1707 34.2563C36.2039 34.2563 35.3812 33.9951 34.7024 33.4727C34.0237 32.9453 33.6062 32.2471 33.45 31.3779H35.3323C35.4544 31.7783 35.679 32.0957 36.0062 32.3301C36.3382 32.5596 36.7312 32.6743 37.1854 32.6743C37.9568 32.6743 38.5599 32.335 38.9944 31.6562C39.429 30.9727 39.6463 30.0254 39.6463 28.8145H39.5804H39.5437H39.5218C39.2728 29.3174 38.909 29.708 38.4305 29.9863C37.952 30.2598 37.4026 30.3965 36.7825 30.3965C35.7767 30.3965 34.9441 30.0645 34.285 29.4004C33.6307 28.7363 33.3035 27.8965 33.3035 26.8809ZM35.1565 26.8223C35.1565 27.4277 35.3519 27.9258 35.7425 28.3164C36.1331 28.7021 36.6312 28.895 37.2366 28.895C37.8421 28.895 38.3426 28.7021 38.7381 28.3164C39.1336 27.9307 39.3313 27.4424 39.3313 26.8516C39.3313 26.2559 39.1312 25.7554 38.7308 25.3501C38.3304 24.9448 37.8348 24.7422 37.2439 24.7422C36.6531 24.7422 36.1575 24.9424 35.7571 25.3428C35.3567 25.7383 35.1565 26.2314 35.1565 26.8223ZM43.3746 32.9966C43.3746 32.6597 43.4845 32.3838 43.7042 32.1689C43.9239 31.9492 44.2047 31.8394 44.5465 31.8394C44.8932 31.8394 45.1739 31.9492 45.3888 32.1689C45.6085 32.3838 45.7184 32.6597 45.7184 32.9966C45.7184 33.3286 45.6085 33.6045 45.3888 33.8242C45.1739 34.0439 44.8932 34.1538 44.5465 34.1538C44.2047 34.1538 43.9239 34.0439 43.7042 33.8242C43.4845 33.6045 43.3746 33.3286 43.3746 32.9966ZM43.3746 27.5107C43.3746 27.1738 43.4845 26.8979 43.7042 26.6831C43.9239 26.4634 44.2047 26.3535 44.5465 26.3535C44.8932 26.3535 45.1739 26.4634 45.3888 26.6831C45.6085 26.8979 45.7184 27.1738 45.7184 27.5107C45.7184 27.8428 45.6085 28.1187 45.3888 28.3384C45.1739 28.5532 44.8932 28.6606 44.5465 28.6606C44.2047 28.6606 43.9239 28.5532 43.7042 28.3384C43.4845 28.1187 43.3746 27.8428 43.3746 27.5107ZM47.4105 32.0298V30.3452C48.2699 28.7632 49.7055 26.4585 51.7172 23.4312H54.3832V30.4331H55.8114V32.0298H54.3832V34H52.5741V32.0298H47.4105ZM49.161 30.4771H52.6034V24.9692H52.5009C51.3583 26.6587 50.245 28.458 49.161 30.3672V30.4771ZM57.0861 27.1812V25.3647L59.8474 23.4312H61.7297V34H59.84V25.3354H59.7155L57.0861 27.1812Z" fill="#545974"/>
<rect opacity="0.35" x="336.833" y="21.8335" width="21" height="10.3333" rx="2.16667" stroke="#545974"/>
<path opacity="0.4" d="M359.333 25V29C360.138 28.6612 360.661 27.8731 360.661 27C360.661 26.1269 360.138 25.3388 359.333 25Z" fill="#545974"/>
<rect x="338.333" y="23.3335" width="18" height="7.33333" rx="1.33333" fill="#545974"/>
<path fill-rule="evenodd" clip-rule="evenodd" d="M323.667 23.615C325.892 23.6151 328.031 24.4693 329.644 26.0008C329.765 26.1191 329.959 26.1176 330.079 25.9975L331.239 24.8272C331.3 24.7663 331.334 24.6837 331.333 24.5979C331.333 24.5121 331.298 24.4299 331.237 24.3697C327.005 20.3175 320.329 20.3175 316.097 24.3697C316.035 24.4299 316.001 24.512 316 24.5978C315.999 24.6837 316.033 24.7662 316.094 24.8272L317.255 25.9975C317.374 26.1178 317.568 26.1193 317.69 26.0008C319.302 24.4692 321.442 23.615 323.667 23.615ZM323.667 27.4226C324.889 27.4226 326.068 27.8765 326.974 28.6963C327.097 28.8126 327.29 28.8101 327.409 28.6906L328.569 27.5203C328.63 27.4589 328.663 27.3756 328.663 27.2891C328.662 27.2025 328.626 27.12 328.564 27.0598C325.805 24.4954 321.532 24.4954 318.773 27.0598C318.71 27.12 318.675 27.2026 318.674 27.2891C318.673 27.3757 318.707 27.459 318.768 27.5203L319.927 28.6906C320.047 28.8101 320.24 28.8126 320.362 28.6963C321.268 27.877 322.446 27.4231 323.667 27.4226ZM325.989 29.9845C325.991 30.0712 325.957 30.1549 325.895 30.2157L323.89 32.2377C323.831 32.2971 323.751 32.3306 323.667 32.3306C323.583 32.3306 323.503 32.2971 323.445 32.2377L321.439 30.2157C321.377 30.1549 321.343 30.0712 321.345 29.9844C321.347 29.8976 321.384 29.8154 321.449 29.7573C322.729 28.675 324.605 28.675 325.886 29.7573C325.95 29.8155 325.988 29.8977 325.989 29.9845Z" fill="#545974"/>
<path fill-rule="evenodd" clip-rule="evenodd" d="M310 21.6665H309C308.448 21.6665 308 22.1142 308 22.6665V31.3332C308 31.8855 308.448 32.3332 309 32.3332H310C310.552 32.3332 311 31.8855 311 31.3332V22.6665C311 22.1142 310.552 21.6665 310 21.6665ZM304.333 23.9998H305.333C305.886 23.9998 306.333 24.4476 306.333 24.9998V31.3332C306.333 31.8855 305.886 32.3332 305.333 32.3332H304.333C303.781 32.3332 303.333 31.8855 303.333 31.3332V24.9998C303.333 24.4476 303.781 23.9998 304.333 23.9998ZM300.667 26.3332H299.667C299.114 26.3332 298.667 26.7809 298.667 27.3332V31.3332C298.667 31.8855 299.114 32.3332 299.667 32.3332H300.667C301.219 32.3332 301.667 31.8855 301.667 31.3332V27.3332C301.667 26.7809 301.219 26.3332 300.667 26.3332ZM296 28.3332H295C294.448 28.3332 294 28.7809 294 29.3332V31.3332C294 31.8855 294.448 32.3332 295 32.3332H296C296.552 32.3332 297 31.8855 297 31.3332V29.3332C297 28.7809 296.552 28.3332 296 28.3332Z" fill="#545974"/>
<rect x="120" y="803" width="134" height="5" rx="2.5" fill="#545974"/>
<defs>
<clipPath id="clip0_22_402">
<rect width="24" height="24" fill="white" transform="translate(20 50)"/>
</clipPath>
</defs>
</svg>
