<svg fill="none" height="100%" width="100%" viewBox="0 0 512 512" xmlns:xlink="http://www.w3.org/1999/xlink" xmlns="http://www.w3.org/2000/svg"><defs><clipPath id="i0"><rect height="32" width="53" y="0" x="0" /></clipPath><g id="i1"><g transform="matrix(1,0,0,1,0,0)" id="i2"><g id="i3" transform="matrix(1,0,0,1,0,0)"><path fill="#ff6363" d="M52.25,6.42C52.25,5.45,51.44,4.63,50.47,4.63C50.47,4.63,48.21,4.63,48.21,4.63C48.21,4.63,49.33,2.69,49.33,2.69C49.56,2.28,49.63,1.79,49.51,1.33C49.39,0.87,49.1,0.48,48.69,0.24C48.49,0.12,48.26,0.05,48.03,0.02C47.8,-0.01,47.57,0,47.34,0.06C47.12,0.12,46.9,0.22,46.72,0.36C46.53,0.5,46.38,0.68,46.26,0.88C46.26,0.88,45.13,2.85,45.13,2.85C45.13,2.85,44,0.91,44,0.91C43.88,0.71,43.74,0.52,43.55,0.38C43.37,0.24,43.16,0.14,42.93,0.08C42.7,0.02,42.47,0.01,42.24,0.04C42.01,0.07,41.79,0.14,41.59,0.26C40.74,0.76,40.44,1.85,40.94,2.71C40.94,2.71,42.06,4.66,42.06,4.66C42.06,4.66,39.81,4.66,39.81,4.66C39.58,4.65,39.34,4.69,39.12,4.78C38.9,4.87,38.7,5,38.53,5.16C38.36,5.32,38.23,5.51,38.14,5.73C38.05,5.95,38,6.19,38,6.42C38,7.39,38.81,8.2,39.78,8.2C39.78,8.2,42.04,8.2,42.04,8.2C42.04,8.2,40.9,10.17,40.9,10.17C40.78,10.37,40.7,10.6,40.67,10.83C40.64,11.06,40.66,11.29,40.72,11.52C40.78,11.75,40.89,11.96,41.03,12.14C41.17,12.32,41.36,12.48,41.56,12.59C42.41,13.09,43.5,12.78,44,11.93C44,11.93,45.13,9.98,45.13,9.98C45.13,9.98,46.26,11.95,46.26,11.95C46.76,12.8,47.86,13.08,48.71,12.61C49.56,12.11,49.85,11.05,49.38,10.19C49.38,10.19,48.24,8.22,48.24,8.22C48.24,8.22,50.49,8.22,50.49,8.22C51.44,8.2,52.25,7.39,52.25,6.42C52.25,6.42,52.25,6.42,52.25,6.42ZM3.56,12.59C4.42,13.09,5.5,12.78,6,11.93C6,11.93,7.13,9.98,7.13,9.98C7.13,9.98,8.27,11.95,8.27,11.95C8.77,12.8,9.85,13.08,10.71,12.61C11.57,12.11,11.86,11.05,11.38,10.19C11.38,10.19,10.21,8.2,10.21,8.2C10.21,8.2,12.47,8.2,12.47,8.2C13.44,8.2,14.25,7.39,14.25,6.42C14.25,5.45,13.44,4.63,12.47,4.63C12.47,4.63,10.21,4.63,10.21,4.63C10.21,4.63,11.33,2.69,11.33,2.69C11.83,1.83,11.54,0.74,10.69,0.24C10.28,0.01,9.79,-0.05,9.33,0.07C8.87,0.19,8.48,0.5,8.24,0.91C8.24,0.91,7.13,2.85,7.13,2.85C7.13,2.85,6,0.91,6,0.91C5.76,0.5,5.38,0.19,4.92,0.07C4.46,-0.05,3.97,0.01,3.56,0.24C2.7,0.74,2.42,1.83,2.92,2.69C2.92,2.69,4.04,4.63,4.04,4.63C4.04,4.63,1.78,4.63,1.78,4.63C0.81,4.63,0,5.45,0,6.42C0,7.39,0.81,8.2,1.78,8.2C1.78,8.2,4.04,8.2,4.04,8.2C4.04,8.2,2.9,10.17,2.9,10.17C2.42,11.03,2.7,12.11,3.56,12.59C3.56,12.59,3.56,12.59,3.56,12.59ZM4.75,23.11C4.75,23.11,26.13,23.11,26.13,23.11C26.13,23.11,47.5,23.11,47.5,23.11C48.81,23.11,49.88,24.18,49.88,25.49C49.88,26.8,48.81,27.86,47.5,27.86C47.5,27.86,34.53,31.42,26.13,31.42C17.73,31.42,4.75,27.86,4.75,27.86C3.44,27.86,2.38,26.8,2.38,25.49C2.38,24.18,3.44,23.11,4.75,23.11C4.75,23.11,4.75,23.11,4.75,23.11Z" /></g></g></g><clipPath id="i4"><rect height="12" width="15" y="0" x="0" /></clipPath><g id="i5"><g id="i6"><g transform="translate(7.125,5.94)"><animateTransform repeatCount="indefinite" type="translate" attributeName="transform" dur="5s" begin="0s" calcMode="spline" values="7.125 5.94; 7.125 5.94" keyTimes="0; 1" keySplines="0.766 0 0.667 1" fill="freeze" /><g transform="scale(1,1)"><animateTransform repeatCount="indefinite" type="scale" attributeName="transform" dur="5s" begin="0s" calcMode="spline" values="1 1; 1 0.011; 1 0.542; 1 1; 1 1; 0.007 1; 1 0.542; 1 1; 1 1; 1 1; 1 0.71; 0.007 1; 1 1; 1 1; 1 0.795; 1 1; 1 0.518; 1 1; 1 0.968; 1 1; 1 1; 1 0.976; 1 1" keyTimes="0; 0.1; 0.133333; 0.166667; 0.2; 0.233333; 0.266667; 0.3; 0.333333; 0.366667; 0.4; 0.433333; 0.466667; 0.5; 0.533333; 0.6; 0.666667; 0.733333; 0.8; 0.833333; 0.866667; 0.933333; 1" keySplines="0.333 0 0.667 1; 0.333 0 0.667 1; 0.333 0 0.667 1; 0.333 0 0.667 1; 0.333 0 0.667 1; 0.333 0 0.667 1; 0.333 0 0.667 1; 0.333 0 0.667 1; 0.333 0 0.667 1; 0.333 0 0.667 1; 0.333 0 0.667 1; 0.333 0 0.667 1; 0.333 0 0.667 1; 0.333 0 0.667 1; 0.333 0 0.667 1; 0.333 0 0.667 1; 0.333 0 0.667 1; 0.333 0 0.667 1; 0.333 0 0.667 1; 0.333 0 0.667 1; 0.333 0 0.667 1; 0.333 0 0.667 1" fill="freeze" /><g transform="translate(-7.125,-5.94)"><g id="i7" transform="matrix(1,0,0,1,0,0)"><path fill="#ff6363" d="M7.13,7.59C7.57,7.59,7.98,7.41,8.29,7.1C8.6,6.79,8.77,6.38,8.77,5.94C8.77,5.5,8.6,5.08,8.29,4.77C7.98,4.46,7.57,4.29,7.13,4.29C6.69,4.29,6.27,4.46,5.96,4.77C5.65,5.08,5.48,5.5,5.48,5.94C5.48,6.38,5.65,6.79,5.96,7.1C6.27,7.41,6.69,7.59,7.13,7.59C7.13,7.59,7.13,7.59,7.13,7.59ZM7.13,8.91C6.34,8.91,5.59,8.6,5.03,8.04C4.47,7.48,4.16,6.73,4.16,5.94C4.16,5.15,4.47,4.4,5.03,3.84C5.59,3.28,6.34,2.97,7.13,2.97C7.92,2.97,8.66,3.28,9.22,3.84C9.78,4.4,10.09,5.15,10.09,5.94C10.09,6.73,9.78,7.48,9.22,8.04C8.66,8.6,7.92,8.91,7.13,8.91C7.13,8.91,7.13,8.91,7.13,8.91ZM7.13,10.56C8.47,10.56,9.77,10.1,10.82,9.26C11.87,8.42,12.61,7.25,12.91,5.94C12.61,4.63,11.87,3.46,10.82,2.62C9.77,1.78,8.47,1.33,7.13,1.33C5.79,1.33,4.48,1.78,3.43,2.62C2.38,3.46,1.64,4.63,1.34,5.94C1.64,7.25,2.38,8.42,3.43,9.26C4.48,10.1,5.79,10.56,7.13,10.56C7.13,10.56,7.13,10.56,7.13,10.56C7.13,10.56,7.13,10.56,7.13,10.56ZM7.13,0C10.68,0,13.63,2.56,14.25,5.94C13.63,9.32,10.68,11.88,7.13,11.88C3.58,11.88,0.62,9.32,0,5.94C0.62,2.56,3.58,0,7.13,0C7.13,0,7.13,0,7.13,0Z" /></g></g></g></g></g></g></defs><g transform="matrix(5.149,0,0,5.149,119.546,173.613)" id="i8"><g clip-path="url(#i0)"><g transform="matrix(1,0,0,1,0,0)"><g transform="matrix(1,0,0,1,0,0)"><path fill="#ff6363" d="M52.25,6.42C52.25,5.45,51.44,4.63,50.47,4.63C50.47,4.63,48.21,4.63,48.21,4.63C48.21,4.63,49.33,2.69,49.33,2.69C49.56,2.28,49.63,1.79,49.51,1.33C49.39,0.87,49.1,0.48,48.69,0.24C48.49,0.12,48.26,0.05,48.03,0.02C47.8,-0.01,47.57,0,47.34,0.06C47.12,0.12,46.9,0.22,46.72,0.36C46.53,0.5,46.38,0.68,46.26,0.88C46.26,0.88,45.13,2.85,45.13,2.85C45.13,2.85,44,0.91,44,0.91C43.88,0.71,43.74,0.52,43.55,0.38C43.37,0.24,43.16,0.14,42.93,0.08C42.7,0.02,42.47,0.01,42.24,0.04C42.01,0.07,41.79,0.14,41.59,0.26C40.74,0.76,40.44,1.85,40.94,2.71C40.94,2.71,42.06,4.66,42.06,4.66C42.06,4.66,39.81,4.66,39.81,4.66C39.58,4.65,39.34,4.69,39.12,4.78C38.9,4.87,38.7,5,38.53,5.16C38.36,5.32,38.23,5.51,38.14,5.73C38.05,5.95,38,6.19,38,6.42C38,7.39,38.81,8.2,39.78,8.2C39.78,8.2,42.04,8.2,42.04,8.2C42.04,8.2,40.9,10.17,40.9,10.17C40.78,10.37,40.7,10.6,40.67,10.83C40.64,11.06,40.66,11.29,40.72,11.52C40.78,11.75,40.89,11.96,41.03,12.14C41.17,12.32,41.36,12.48,41.56,12.59C42.41,13.09,43.5,12.78,44,11.93C44,11.93,45.13,9.98,45.13,9.98C45.13,9.98,46.26,11.95,46.26,11.95C46.76,12.8,47.86,13.08,48.71,12.61C49.56,12.11,49.85,11.05,49.38,10.19C49.38,10.19,48.24,8.22,48.24,8.22C48.24,8.22,50.49,8.22,50.49,8.22C51.44,8.2,52.25,7.39,52.25,6.42C52.25,6.42,52.25,6.42,52.25,6.42ZM3.56,12.59C4.42,13.09,5.5,12.78,6,11.93C6,11.93,7.13,9.98,7.13,9.98C7.13,9.98,8.27,11.95,8.27,11.95C8.77,12.8,9.85,13.08,10.71,12.61C11.57,12.11,11.86,11.05,11.38,10.19C11.38,10.19,10.21,8.2,10.21,8.2C10.21,8.2,12.47,8.2,12.47,8.2C13.44,8.2,14.25,7.39,14.25,6.42C14.25,5.45,13.44,4.63,12.47,4.63C12.47,4.63,10.21,4.63,10.21,4.63C10.21,4.63,11.33,2.69,11.33,2.69C11.83,1.83,11.54,0.74,10.69,0.24C10.28,0.01,9.79,-0.05,9.33,0.07C8.87,0.19,8.48,0.5,8.24,0.91C8.24,0.91,7.13,2.85,7.13,2.85C7.13,2.85,6,0.91,6,0.91C5.76,0.5,5.38,0.19,4.92,0.07C4.46,-0.05,3.97,0.01,3.56,0.24C2.7,0.74,2.42,1.83,2.92,2.69C2.92,2.69,4.04,4.63,4.04,4.63C4.04,4.63,1.78,4.63,1.78,4.63C0.81,4.63,0,5.45,0,6.42C0,7.39,0.81,8.2,1.78,8.2C1.78,8.2,4.04,8.2,4.04,8.2C4.04,8.2,2.9,10.17,2.9,10.17C2.42,11.03,2.7,12.11,3.56,12.59C3.56,12.59,3.56,12.59,3.56,12.59ZM4.75,23.11C4.75,23.11,26.13,23.11,26.13,23.11C26.13,23.11,47.5,23.11,47.5,23.11C48.81,23.11,49.88,24.18,49.88,25.49C49.88,26.8,48.81,27.86,47.5,27.86C47.5,27.86,34.53,31.42,26.13,31.42C17.73,31.42,4.75,27.86,4.75,27.86C3.44,27.86,2.38,26.8,2.38,25.49C2.38,24.18,3.44,23.11,4.75,23.11C4.75,23.11,4.75,23.11,4.75,23.11Z" /></g></g></g></g><g transform="matrix(6.453,0,0,6.453,207.605,170.284)" id="i9"><g clip-path="url(#i4)"><g><g transform="translate(7.125,5.94)"><animateTransform repeatCount="indefinite" type="translate" attributeName="transform" dur="5s" begin="0s" calcMode="spline" values="7.125 5.94; 7.125 5.94" keyTimes="0; 1" keySplines="0.766 0 0.667 1" fill="freeze" /><g transform="scale(1,1)"><animateTransform repeatCount="indefinite" type="scale" attributeName="transform" dur="5s" begin="0s" calcMode="spline" values="1 1; 1 0.011; 1 0.542; 1 1; 1 1; 0.007 1; 1 0.542; 1 1; 1 1; 1 1; 1 0.71; 0.007 1; 1 1; 1 1; 1 0.795; 1 1; 1 0.518; 1 1; 1 0.968; 1 1; 1 1; 1 0.976; 1 1" keyTimes="0; 0.1; 0.133333; 0.166667; 0.2; 0.233333; 0.266667; 0.3; 0.333333; 0.366667; 0.4; 0.433333; 0.466667; 0.5; 0.533333; 0.6; 0.666667; 0.733333; 0.8; 0.833333; 0.866667; 0.933333; 1" keySplines="0.333 0 0.667 1; 0.333 0 0.667 1; 0.333 0 0.667 1; 0.333 0 0.667 1; 0.333 0 0.667 1; 0.333 0 0.667 1; 0.333 0 0.667 1; 0.333 0 0.667 1; 0.333 0 0.667 1; 0.333 0 0.667 1; 0.333 0 0.667 1; 0.333 0 0.667 1; 0.333 0 0.667 1; 0.333 0 0.667 1; 0.333 0 0.667 1; 0.333 0 0.667 1; 0.333 0 0.667 1; 0.333 0 0.667 1; 0.333 0 0.667 1; 0.333 0 0.667 1; 0.333 0 0.667 1; 0.333 0 0.667 1" fill="freeze" /><g transform="translate(-7.125,-5.94)"><g transform="matrix(1,0,0,1,0,0)"><path fill="#ff6363" d="M7.13,7.59C7.57,7.59,7.98,7.41,8.29,7.1C8.6,6.79,8.77,6.38,8.77,5.94C8.77,5.5,8.6,5.08,8.29,4.77C7.98,4.46,7.57,4.29,7.13,4.29C6.69,4.29,6.27,4.46,5.96,4.77C5.65,5.08,5.48,5.5,5.48,5.94C5.48,6.38,5.65,6.79,5.96,7.1C6.27,7.41,6.69,7.59,7.13,7.59C7.13,7.59,7.13,7.59,7.13,7.59ZM7.13,8.91C6.34,8.91,5.59,8.6,5.03,8.04C4.47,7.48,4.16,6.73,4.16,5.94C4.16,5.15,4.47,4.4,5.03,3.84C5.59,3.28,6.34,2.97,7.13,2.97C7.92,2.97,8.66,3.28,9.22,3.84C9.78,4.4,10.09,5.15,10.09,5.94C10.09,6.73,9.78,7.48,9.22,8.04C8.66,8.6,7.92,8.91,7.13,8.91C7.13,8.91,7.13,8.91,7.13,8.91ZM7.13,10.56C8.47,10.56,9.77,10.1,10.82,9.26C11.87,8.42,12.61,7.25,12.91,5.94C12.61,4.63,11.87,3.46,10.82,2.62C9.77,1.78,8.47,1.33,7.13,1.33C5.79,1.33,4.48,1.78,3.43,2.62C2.38,3.46,1.64,4.63,1.34,5.94C1.64,7.25,2.38,8.42,3.43,9.26C4.48,10.1,5.79,10.56,7.13,10.56C7.13,10.56,7.13,10.56,7.13,10.56C7.13,10.56,7.13,10.56,7.13,10.56ZM7.13,0C10.68,0,13.63,2.56,14.25,5.94C13.63,9.32,10.68,11.88,7.13,11.88C3.58,11.88,0.62,9.32,0,5.94C0.62,2.56,3.58,0,7.13,0C7.13,0,7.13,0,7.13,0Z" /></g></g></g></g></g></g></g></svg>