<svg width="375" height="812" viewBox="0 0 375 812" fill="none" xmlns="http://www.w3.org/2000/svg">
<rect width="375" height="812" fill="white"/>
<g clip-path="url(#clip0_17_1171)">
<path d="M31.1816 61.6464C30.9863 61.8417 30.9863 62.1583 31.1816 62.3535L35.071 66.243C35.4615 66.6335 35.4615 67.2665 35.071 67.657C34.6805 68.0475 34.0475 68.0475 33.657 67.657L28.7071 62.7071C28.3166 62.3166 28.3166 61.6834 28.7071 61.2929L33.657 56.343C34.0475 55.9525 34.6805 55.9525 35.071 56.343C35.4615 56.7335 35.4615 57.3665 35.071 57.757L31.1816 61.6464Z" fill="#545974"/>
</g>
<path d="M22.6865 155.2H41.3105V161.6H29.7265V174.08H38.8145V180.48H29.7265V200H22.6865V155.2ZM48.064 155.2H57.6L64.896 200H57.856L56.576 191.104V191.232H48.576L47.296 200H40.768L48.064 155.2ZM55.744 185.152L52.608 163.008H52.48L49.408 185.152H55.744ZM78.1065 200.64C74.7358 200.64 72.1545 199.68 70.3625 197.76C68.6132 195.84 67.7385 193.131 67.7385 189.632V165.568C67.7385 162.069 68.6132 159.36 70.3625 157.44C72.1545 155.52 74.7358 154.56 78.1065 154.56C81.4772 154.56 84.0372 155.52 85.7865 157.44C87.5785 159.36 88.4745 162.069 88.4745 165.568V170.304H81.8185V165.12C81.8185 162.347 80.6452 160.96 78.2985 160.96C75.9518 160.96 74.7785 162.347 74.7785 165.12V190.144C74.7785 192.875 75.9518 194.24 78.2985 194.24C80.6452 194.24 81.8185 192.875 81.8185 190.144V183.296H88.4745V189.632C88.4745 193.131 87.5785 195.84 85.7865 197.76C84.0372 199.68 81.4772 200.64 78.1065 200.64ZM92.6865 155.2H111.887V161.6H99.7265V173.44H109.391V179.84H99.7265V193.6H111.887V200H92.6865V155.2ZM115.937 155.2H126.561C130.187 155.2 132.833 156.053 134.497 157.76C136.161 159.424 136.993 162.005 136.993 165.504V167.296C136.993 169.6 136.609 171.477 135.841 172.928C135.115 174.379 133.985 175.424 132.449 176.064V176.192C135.947 177.387 137.697 180.501 137.697 185.536V189.376C137.697 192.832 136.779 195.477 134.945 197.312C133.153 199.104 130.507 200 127.009 200H115.937V155.2ZM125.729 173.44C127.137 173.44 128.182 173.077 128.865 172.352C129.59 171.627 129.953 170.411 129.953 168.704V166.208C129.953 164.587 129.654 163.413 129.057 162.688C128.502 161.963 127.606 161.6 126.369 161.6H122.977V173.44H125.729ZM127.009 193.6C128.246 193.6 129.163 193.28 129.76 192.64C130.358 191.957 130.657 190.805 130.657 189.184V185.28C130.657 183.232 130.294 181.824 129.569 181.056C128.886 180.245 127.734 179.84 126.113 179.84H122.977V193.6H127.009ZM151.988 200.64C148.532 200.64 145.886 199.659 144.052 197.696C142.217 195.733 141.299 192.96 141.299 189.376V165.824C141.299 162.24 142.217 159.467 144.052 157.504C145.886 155.541 148.532 154.56 151.988 154.56C155.444 154.56 158.089 155.541 159.924 157.504C161.758 159.467 162.676 162.24 162.676 165.824V189.376C162.676 192.96 161.758 195.733 159.924 197.696C158.089 199.659 155.444 200.64 151.988 200.64ZM151.988 194.24C154.42 194.24 155.635 192.768 155.635 189.824V165.376C155.635 162.432 154.42 160.96 151.988 160.96C149.556 160.96 148.34 162.432 148.34 165.376V189.824C148.34 192.768 149.556 194.24 151.988 194.24ZM177.613 200.64C174.157 200.64 171.511 199.659 169.677 197.696C167.842 195.733 166.924 192.96 166.924 189.376V165.824C166.924 162.24 167.842 159.467 169.677 157.504C171.511 155.541 174.157 154.56 177.613 154.56C181.069 154.56 183.714 155.541 185.549 157.504C187.383 159.467 188.301 162.24 188.301 165.824V189.376C188.301 192.96 187.383 195.733 185.549 197.696C183.714 199.659 181.069 200.64 177.613 200.64ZM177.613 194.24C180.045 194.24 181.26 192.768 181.26 189.824V165.376C181.26 162.432 180.045 160.96 177.613 160.96C175.181 160.96 173.965 162.432 173.965 165.376V189.824C173.965 192.768 175.181 194.24 177.613 194.24ZM193.062 155.2H200.102V174.08L209.062 155.2H216.102L207.718 171.648L216.23 200H208.87L202.918 180.032L200.102 185.728V200H193.062V155.2Z" fill="#545974"/>
<rect x="12" y="254" width="343" height="30" fill="#F4F2F2"/>
<g clip-path="url(#clip1_17_1171)">
<path d="M35 275.75C35 276.164 34.6642 276.5 34.25 276.5C33.8358 276.5 33.5 276.164 33.5 275.75V275C33.5 274.403 33.2629 273.831 32.841 273.409C32.419 272.987 31.8467 272.75 31.25 272.75H26.75C26.1533 272.75 25.581 272.987 25.159 273.409C24.7371 273.831 24.5 274.403 24.5 275V275.75C24.5 276.164 24.1642 276.5 23.75 276.5C23.3358 276.5 23 276.164 23 275.75V275C23 274.005 23.3951 273.052 24.0983 272.348C24.8016 271.645 25.7554 271.25 26.75 271.25H31.25C32.2446 271.25 33.1984 271.645 33.9017 272.348C34.6049 273.052 35 274.005 35 275V275.75ZM29 269.75C28.4091 269.75 27.8239 269.634 27.2779 269.407C26.732 269.181 26.2359 268.85 25.818 268.432C25.4002 268.014 25.0687 267.518 24.8425 266.972C24.6164 266.426 24.5 265.841 24.5 265.25C24.5 264.659 24.6164 264.074 24.8425 263.528C25.0687 262.982 25.4002 262.486 25.818 262.068C26.2359 261.65 26.732 261.319 27.2779 261.093C27.8239 260.866 28.4091 260.75 29 260.75C30.1935 260.75 31.3381 261.224 32.182 262.068C33.0259 262.912 33.5 264.057 33.5 265.25C33.5 266.443 33.0259 267.588 32.182 268.432C31.3381 269.276 30.1935 269.75 29 269.75ZM29 268.25C29.7956 268.25 30.5587 267.934 31.1213 267.371C31.6839 266.809 32 266.046 32 265.25C32 264.454 31.6839 263.691 31.1213 263.129C30.5587 262.566 29.7956 262.25 29 262.25C28.2044 262.25 27.4413 262.566 26.8787 263.129C26.3161 263.691 26 264.454 26 265.25C26 266.046 26.3161 266.809 26.8787 267.371C27.4413 267.934 28.2044 268.25 29 268.25Z" fill="#BABABA"/>
</g>
<path d="M49.764 263.082C49.5213 263.082 49.316 262.998 49.148 262.83C48.9893 262.662 48.91 262.457 48.91 262.214C48.91 261.971 48.9893 261.766 49.148 261.598C49.316 261.43 49.5213 261.346 49.764 261.346C50.0067 261.346 50.2073 261.43 50.366 261.598C50.534 261.766 50.618 261.971 50.618 262.214C50.618 262.457 50.534 262.662 50.366 262.83C50.2073 262.998 50.0067 263.082 49.764 263.082ZM50.394 273.666C50.394 274.347 50.2213 274.847 49.876 275.164C49.5307 275.481 49.0267 275.64 48.364 275.64H47.622V274.562H48.154C48.5087 274.562 48.756 274.492 48.896 274.352C49.0453 274.212 49.12 273.974 49.12 273.638V264.328H50.394V273.666ZM52.0747 268.136C52.0747 267.352 52.2333 266.666 52.5507 266.078C52.868 265.481 53.302 265.019 53.8527 264.692C54.4127 264.365 55.0333 264.202 55.7147 264.202C56.3867 264.202 56.97 264.347 57.4647 264.636C57.9593 264.925 58.328 265.289 58.5707 265.728V264.328H59.8587V272H58.5707V270.572C58.3187 271.02 57.9407 271.393 57.4367 271.692C56.942 271.981 56.3633 272.126 55.7007 272.126C55.0193 272.126 54.4033 271.958 53.8527 271.622C53.302 271.286 52.868 270.815 52.5507 270.208C52.2333 269.601 52.0747 268.911 52.0747 268.136ZM58.5707 268.15C58.5707 267.571 58.454 267.067 58.2207 266.638C57.9873 266.209 57.67 265.882 57.2687 265.658C56.8767 265.425 56.4427 265.308 55.9667 265.308C55.4907 265.308 55.0567 265.42 54.6647 265.644C54.2727 265.868 53.96 266.195 53.7267 266.624C53.4933 267.053 53.3767 267.557 53.3767 268.136C53.3767 268.724 53.4933 269.237 53.7267 269.676C53.96 270.105 54.2727 270.437 54.6647 270.67C55.0567 270.894 55.4907 271.006 55.9667 271.006C56.4427 271.006 56.8767 270.894 57.2687 270.67C57.67 270.437 57.9873 270.105 58.2207 269.676C58.454 269.237 58.5707 268.729 58.5707 268.15ZM71.2376 264.188C71.8349 264.188 72.3669 264.314 72.8336 264.566C73.3003 264.809 73.6689 265.177 73.9396 265.672C74.2103 266.167 74.3456 266.769 74.3456 267.478V272H73.0856V267.66C73.0856 266.895 72.8943 266.311 72.5116 265.91C72.1383 265.499 71.6296 265.294 70.9856 265.294C70.3229 265.294 69.7956 265.509 69.4036 265.938C69.0116 266.358 68.8156 266.969 68.8156 267.772V272H67.5556V267.66C67.5556 266.895 67.3643 266.311 66.9816 265.91C66.6083 265.499 66.0996 265.294 65.4556 265.294C64.7929 265.294 64.2656 265.509 63.8736 265.938C63.4816 266.358 63.2856 266.969 63.2856 267.772V272H62.0116V264.328H63.2856V265.434C63.5376 265.033 63.8736 264.725 64.2936 264.51C64.7229 264.295 65.1943 264.188 65.7076 264.188C66.3516 264.188 66.9209 264.333 67.4156 264.622C67.9103 264.911 68.2789 265.336 68.5216 265.896C68.7363 265.355 69.0909 264.935 69.5856 264.636C70.0803 264.337 70.6309 264.188 71.2376 264.188ZM83.4354 267.87C83.4354 268.113 83.4214 268.369 83.3934 268.64H77.2614C77.3081 269.396 77.5648 269.989 78.0314 270.418C78.5074 270.838 79.0814 271.048 79.7534 271.048C80.3041 271.048 80.7614 270.922 81.1254 270.67C81.4988 270.409 81.7601 270.063 81.9094 269.634H83.2814C83.0761 270.371 82.6654 270.973 82.0494 271.44C81.4334 271.897 80.6681 272.126 79.7534 272.126C79.0254 272.126 78.3721 271.963 77.7934 271.636C77.2241 271.309 76.7761 270.847 76.4494 270.25C76.1228 269.643 75.9594 268.943 75.9594 268.15C75.9594 267.357 76.1181 266.661 76.4354 266.064C76.7528 265.467 77.1961 265.009 77.7654 264.692C78.3441 264.365 79.0068 264.202 79.7534 264.202C80.4814 264.202 81.1254 264.361 81.6854 264.678C82.2454 264.995 82.6748 265.434 82.9734 265.994C83.2814 266.545 83.4354 267.17 83.4354 267.87ZM82.1194 267.604C82.1194 267.119 82.0121 266.703 81.7974 266.358C81.5828 266.003 81.2888 265.737 80.9154 265.56C80.5514 265.373 80.1454 265.28 79.6974 265.28C79.0534 265.28 78.5028 265.485 78.0454 265.896C77.5974 266.307 77.3408 266.876 77.2754 267.604H82.1194ZM87.8331 272.126C87.2451 272.126 86.7177 272.028 86.2511 271.832C85.7844 271.627 85.4157 271.347 85.1451 270.992C84.8744 270.628 84.7251 270.213 84.6971 269.746H86.0131C86.0504 270.129 86.2277 270.441 86.5451 270.684C86.8717 270.927 87.2964 271.048 87.8191 271.048C88.3044 271.048 88.6871 270.941 88.9671 270.726C89.2471 270.511 89.3871 270.241 89.3871 269.914C89.3871 269.578 89.2377 269.331 88.9391 269.172C88.6404 269.004 88.1784 268.841 87.5531 268.682C86.9837 268.533 86.5171 268.383 86.1531 268.234C85.7984 268.075 85.4904 267.847 85.2291 267.548C84.9771 267.24 84.8511 266.839 84.8511 266.344C84.8511 265.952 84.9677 265.593 85.2011 265.266C85.4344 264.939 85.7657 264.683 86.1951 264.496C86.6244 264.3 87.1144 264.202 87.6651 264.202C88.5144 264.202 89.2004 264.417 89.7231 264.846C90.2457 265.275 90.5257 265.863 90.5631 266.61H89.2891C89.2611 266.209 89.0977 265.887 88.7991 265.644C88.5097 265.401 88.1177 265.28 87.6231 265.28C87.1657 265.28 86.8017 265.378 86.5311 265.574C86.2604 265.77 86.1251 266.027 86.1251 266.344C86.1251 266.596 86.2044 266.806 86.3631 266.974C86.5311 267.133 86.7364 267.263 86.9791 267.366C87.2311 267.459 87.5764 267.567 88.0151 267.688C88.5657 267.837 89.0137 267.987 89.3591 268.136C89.7044 268.276 89.9984 268.491 90.2411 268.78C90.4931 269.069 90.6237 269.447 90.6331 269.914C90.6331 270.334 90.5164 270.712 90.2831 271.048C90.0497 271.384 89.7184 271.65 89.2891 271.846C88.8691 272.033 88.3837 272.126 87.8331 272.126ZM92.8375 272.084C92.5948 272.084 92.3895 272 92.2215 271.832C92.0535 271.664 91.9695 271.459 91.9695 271.216C91.9695 270.973 92.0535 270.768 92.2215 270.6C92.3895 270.432 92.5948 270.348 92.8375 270.348C93.0708 270.348 93.2668 270.432 93.4255 270.6C93.5935 270.768 93.6775 270.973 93.6775 271.216C93.6775 271.459 93.5935 271.664 93.4255 271.832C93.2668 272 93.0708 272.084 92.8375 272.084ZM98.087 272.126C97.499 272.126 96.9716 272.028 96.505 271.832C96.0383 271.627 95.6696 271.347 95.399 270.992C95.1283 270.628 94.979 270.213 94.951 269.746H96.267C96.3043 270.129 96.4816 270.441 96.799 270.684C97.1256 270.927 97.5503 271.048 98.073 271.048C98.5583 271.048 98.941 270.941 99.221 270.726C99.501 270.511 99.641 270.241 99.641 269.914C99.641 269.578 99.4916 269.331 99.193 269.172C98.8943 269.004 98.4323 268.841 97.807 268.682C97.2376 268.533 96.771 268.383 96.407 268.234C96.0523 268.075 95.7443 267.847 95.483 267.548C95.231 267.24 95.105 266.839 95.105 266.344C95.105 265.952 95.2216 265.593 95.455 265.266C95.6883 264.939 96.0196 264.683 96.449 264.496C96.8783 264.3 97.3683 264.202 97.919 264.202C98.7683 264.202 99.4543 264.417 99.977 264.846C100.5 265.275 100.78 265.863 100.817 266.61H99.543C99.515 266.209 99.3516 265.887 99.053 265.644C98.7636 265.401 98.3716 265.28 97.877 265.28C97.4196 265.28 97.0556 265.378 96.785 265.574C96.5143 265.77 96.379 266.027 96.379 266.344C96.379 266.596 96.4583 266.806 96.617 266.974C96.785 267.133 96.9903 267.263 97.233 267.366C97.485 267.459 97.8303 267.567 98.269 267.688C98.8196 267.837 99.2676 267.987 99.613 268.136C99.9583 268.276 100.252 268.491 100.495 268.78C100.747 269.069 100.878 269.447 100.887 269.914C100.887 270.334 100.77 270.712 100.537 271.048C100.304 271.384 99.9723 271.65 99.543 271.846C99.123 272.033 98.6376 272.126 98.087 272.126ZM111.911 264.188C112.509 264.188 113.041 264.314 113.507 264.566C113.974 264.809 114.343 265.177 114.613 265.672C114.884 266.167 115.019 266.769 115.019 267.478V272H113.759V267.66C113.759 266.895 113.568 266.311 113.185 265.91C112.812 265.499 112.303 265.294 111.659 265.294C110.997 265.294 110.469 265.509 110.077 265.938C109.685 266.358 109.489 266.969 109.489 267.772V272H108.229V267.66C108.229 266.895 108.038 266.311 107.655 265.91C107.282 265.499 106.773 265.294 106.129 265.294C105.467 265.294 104.939 265.509 104.547 265.938C104.155 266.358 103.959 266.969 103.959 267.772V272H102.685V264.328H103.959V265.434C104.211 265.033 104.547 264.725 104.967 264.51C105.397 264.295 105.868 264.188 106.381 264.188C107.025 264.188 107.595 264.333 108.089 264.622C108.584 264.911 108.953 265.336 109.195 265.896C109.41 265.355 109.765 264.935 110.259 264.636C110.754 264.337 111.305 264.188 111.911 264.188ZM117.767 263.082C117.525 263.082 117.319 262.998 117.151 262.83C116.983 262.662 116.899 262.457 116.899 262.214C116.899 261.971 116.983 261.766 117.151 261.598C117.319 261.43 117.525 261.346 117.767 261.346C118.001 261.346 118.197 261.43 118.355 261.598C118.523 261.766 118.607 261.971 118.607 262.214C118.607 262.457 118.523 262.662 118.355 262.83C118.197 262.998 118.001 263.082 117.767 263.082ZM118.383 264.328V272H117.109V264.328H118.383ZM122.109 265.378V269.9C122.109 270.273 122.188 270.539 122.347 270.698C122.505 270.847 122.781 270.922 123.173 270.922H124.111V272H122.963C122.253 272 121.721 271.837 121.367 271.51C121.012 271.183 120.835 270.647 120.835 269.9V265.378H119.841V264.328H120.835V262.396H122.109V264.328H124.111V265.378H122.109ZM129.462 264.188C130.041 264.188 130.564 264.314 131.03 264.566C131.497 264.809 131.861 265.177 132.122 265.672C132.393 266.167 132.528 266.769 132.528 267.478V272H131.268V267.66C131.268 266.895 131.077 266.311 130.694 265.91C130.312 265.499 129.789 265.294 129.126 265.294C128.454 265.294 127.918 265.504 127.516 265.924C127.124 266.344 126.928 266.955 126.928 267.758V272H125.654V261.64H126.928V265.42C127.18 265.028 127.526 264.725 127.964 264.51C128.412 264.295 128.912 264.188 129.462 264.188ZM141.609 263.026C142.645 263.026 143.546 263.222 144.311 263.614C145.077 264.006 145.665 264.557 146.075 265.266C146.486 265.966 146.691 266.778 146.691 267.702C146.691 268.439 146.57 269.149 146.327 269.83C146.085 270.502 145.73 271.048 145.263 271.468C144.806 271.888 144.269 272.098 143.653 272.098C143.187 272.098 142.827 271.981 142.575 271.748C142.323 271.515 142.179 271.197 142.141 270.796C141.852 271.197 141.483 271.515 141.035 271.748C140.597 271.981 140.13 272.098 139.635 272.098C138.926 272.098 138.366 271.883 137.955 271.454C137.554 271.015 137.353 270.427 137.353 269.69C137.353 268.99 137.498 268.337 137.787 267.73C138.086 267.123 138.497 266.638 139.019 266.274C139.542 265.901 140.135 265.714 140.797 265.714C141.684 265.714 142.281 266.05 142.589 266.722L142.743 265.854H143.849L143.149 269.9C143.121 270.077 143.107 270.241 143.107 270.39C143.107 270.95 143.355 271.23 143.849 271.23C144.223 271.23 144.545 271.053 144.815 270.698C145.095 270.343 145.305 269.9 145.445 269.368C145.585 268.827 145.655 268.295 145.655 267.772C145.655 266.549 145.287 265.602 144.549 264.93C143.821 264.258 142.79 263.922 141.455 263.922C140.345 263.922 139.341 264.193 138.445 264.734C137.559 265.266 136.863 265.999 136.359 266.932C135.855 267.865 135.603 268.897 135.603 270.026C135.594 271.258 135.963 272.205 136.709 272.868C137.456 273.54 138.492 273.876 139.817 273.876C140.695 273.876 141.469 273.717 142.141 273.4L142.309 274.268C141.479 274.613 140.564 274.786 139.565 274.786C138.567 274.786 137.685 274.595 136.919 274.212C136.163 273.839 135.575 273.297 135.155 272.588C134.745 271.888 134.539 271.071 134.539 270.138C134.539 268.822 134.843 267.623 135.449 266.54C136.056 265.448 136.896 264.589 137.969 263.964C139.052 263.339 140.265 263.026 141.609 263.026ZM140.013 271.104C140.433 271.104 140.821 270.983 141.175 270.74C141.53 270.488 141.81 270.152 142.015 269.732C142.221 269.303 142.323 268.836 142.323 268.332C142.323 267.847 142.188 267.455 141.917 267.156C141.656 266.848 141.283 266.694 140.797 266.694C140.349 266.694 139.953 266.829 139.607 267.1C139.271 267.361 139.01 267.711 138.823 268.15C138.637 268.579 138.543 269.027 138.543 269.494C138.543 269.989 138.669 270.381 138.921 270.67C139.173 270.959 139.537 271.104 140.013 271.104ZM158.013 264.188C158.61 264.188 159.142 264.314 159.609 264.566C160.076 264.809 160.444 265.177 160.715 265.672C160.986 266.167 161.121 266.769 161.121 267.478V272H159.861V267.66C159.861 266.895 159.67 266.311 159.287 265.91C158.914 265.499 158.405 265.294 157.761 265.294C157.098 265.294 156.571 265.509 156.179 265.938C155.787 266.358 155.591 266.969 155.591 267.772V272H154.331V267.66C154.331 266.895 154.14 266.311 153.757 265.91C153.384 265.499 152.875 265.294 152.231 265.294C151.568 265.294 151.041 265.509 150.649 265.938C150.257 266.358 150.061 266.969 150.061 267.772V272H148.787V264.328H150.061V265.434C150.313 265.033 150.649 264.725 151.069 264.51C151.498 264.295 151.97 264.188 152.483 264.188C153.127 264.188 153.696 264.333 154.191 264.622C154.686 264.911 155.054 265.336 155.297 265.896C155.512 265.355 155.866 264.935 156.361 264.636C156.856 264.337 157.406 264.188 158.013 264.188ZM162.735 268.136C162.735 267.352 162.893 266.666 163.211 266.078C163.528 265.481 163.962 265.019 164.513 264.692C165.073 264.365 165.693 264.202 166.375 264.202C167.047 264.202 167.63 264.347 168.125 264.636C168.619 264.925 168.988 265.289 169.231 265.728V264.328H170.519V272H169.231V270.572C168.979 271.02 168.601 271.393 168.097 271.692C167.602 271.981 167.023 272.126 166.361 272.126C165.679 272.126 165.063 271.958 164.513 271.622C163.962 271.286 163.528 270.815 163.211 270.208C162.893 269.601 162.735 268.911 162.735 268.136ZM169.231 268.15C169.231 267.571 169.114 267.067 168.881 266.638C168.647 266.209 168.33 265.882 167.929 265.658C167.537 265.425 167.103 265.308 166.627 265.308C166.151 265.308 165.717 265.42 165.325 265.644C164.933 265.868 164.62 266.195 164.387 266.624C164.153 267.053 164.037 267.557 164.037 268.136C164.037 268.724 164.153 269.237 164.387 269.676C164.62 270.105 164.933 270.437 165.325 270.67C165.717 270.894 166.151 271.006 166.627 271.006C167.103 271.006 167.537 270.894 167.929 270.67C168.33 270.437 168.647 270.105 168.881 269.676C169.114 269.237 169.231 268.729 169.231 268.15ZM173.33 263.082C173.087 263.082 172.882 262.998 172.714 262.83C172.546 262.662 172.462 262.457 172.462 262.214C172.462 261.971 172.546 261.766 172.714 261.598C172.882 261.43 173.087 261.346 173.33 261.346C173.563 261.346 173.759 261.43 173.918 261.598C174.086 261.766 174.17 261.971 174.17 262.214C174.17 262.457 174.086 262.662 173.918 262.83C173.759 262.998 173.563 263.082 173.33 263.082ZM173.946 264.328V272H172.672V264.328H173.946ZM177.391 261.64V272H176.117V261.64H177.391ZM179.968 272.084C179.726 272.084 179.52 272 179.352 271.832C179.184 271.664 179.1 271.459 179.1 271.216C179.1 270.973 179.184 270.768 179.352 270.6C179.52 270.432 179.726 270.348 179.968 270.348C180.202 270.348 180.398 270.432 180.556 270.6C180.724 270.768 180.808 270.973 180.808 271.216C180.808 271.459 180.724 271.664 180.556 271.832C180.398 272 180.202 272.084 179.968 272.084ZM182.026 268.15C182.026 267.357 182.184 266.666 182.502 266.078C182.819 265.481 183.258 265.019 183.818 264.692C184.387 264.365 185.036 264.202 185.764 264.202C186.706 264.202 187.481 264.431 188.088 264.888C188.704 265.345 189.11 265.98 189.306 266.792H187.934C187.803 266.325 187.546 265.957 187.164 265.686C186.79 265.415 186.324 265.28 185.764 265.28C185.036 265.28 184.448 265.532 184 266.036C183.552 266.531 183.328 267.235 183.328 268.15C183.328 269.074 183.552 269.788 184 270.292C184.448 270.796 185.036 271.048 185.764 271.048C186.324 271.048 186.79 270.917 187.164 270.656C187.537 270.395 187.794 270.021 187.934 269.536H189.306C189.1 270.32 188.69 270.95 188.074 271.426C187.458 271.893 186.688 272.126 185.764 272.126C185.036 272.126 184.387 271.963 183.818 271.636C183.258 271.309 182.819 270.847 182.502 270.25C182.184 269.653 182.026 268.953 182.026 268.15ZM194.352 272.126C193.633 272.126 192.98 271.963 192.392 271.636C191.813 271.309 191.356 270.847 191.02 270.25C190.693 269.643 190.53 268.943 190.53 268.15C190.53 267.366 190.698 266.675 191.034 266.078C191.379 265.471 191.846 265.009 192.434 264.692C193.022 264.365 193.68 264.202 194.408 264.202C195.136 264.202 195.794 264.365 196.382 264.692C196.97 265.009 197.432 265.467 197.768 266.064C198.113 266.661 198.286 267.357 198.286 268.15C198.286 268.943 198.108 269.643 197.754 270.25C197.408 270.847 196.937 271.309 196.34 271.636C195.742 271.963 195.08 272.126 194.352 272.126ZM194.352 271.006C194.809 271.006 195.238 270.899 195.64 270.684C196.041 270.469 196.363 270.147 196.606 269.718C196.858 269.289 196.984 268.766 196.984 268.15C196.984 267.534 196.862 267.011 196.62 266.582C196.377 266.153 196.06 265.835 195.668 265.63C195.276 265.415 194.851 265.308 194.394 265.308C193.927 265.308 193.498 265.415 193.106 265.63C192.723 265.835 192.415 266.153 192.182 266.582C191.948 267.011 191.832 267.534 191.832 268.15C191.832 268.775 191.944 269.303 192.168 269.732C192.401 270.161 192.709 270.483 193.092 270.698C193.474 270.903 193.894 271.006 194.352 271.006ZM209.187 264.188C209.784 264.188 210.316 264.314 210.783 264.566C211.249 264.809 211.618 265.177 211.889 265.672C212.159 266.167 212.295 266.769 212.295 267.478V272H211.035V267.66C211.035 266.895 210.843 266.311 210.461 265.91C210.087 265.499 209.579 265.294 208.935 265.294C208.272 265.294 207.745 265.509 207.353 265.938C206.961 266.358 206.765 266.969 206.765 267.772V272H205.505V267.66C205.505 266.895 205.313 266.311 204.931 265.91C204.557 265.499 204.049 265.294 203.405 265.294C202.742 265.294 202.215 265.509 201.823 265.938C201.431 266.358 201.235 266.969 201.235 267.772V272H199.961V264.328H201.235V265.434C201.487 265.033 201.823 264.725 202.243 264.51C202.672 264.295 203.143 264.188 203.657 264.188C204.301 264.188 204.87 264.333 205.365 264.622C205.859 264.911 206.228 265.336 206.471 265.896C206.685 265.355 207.04 264.935 207.535 264.636C208.029 264.337 208.58 264.188 209.187 264.188Z" fill="#545974"/>
<rect x="12" y="304" width="343" height="30" fill="#F4F2F2"/>
<g clip-path="url(#clip2_17_1171)">
<path d="M35 325.75C35 326.164 34.6642 326.5 34.25 326.5C33.8358 326.5 33.5 326.164 33.5 325.75V325C33.5 324.403 33.2629 323.831 32.841 323.409C32.419 322.987 31.8467 322.75 31.25 322.75H26.75C26.1533 322.75 25.581 322.987 25.159 323.409C24.7371 323.831 24.5 324.403 24.5 325V325.75C24.5 326.164 24.1642 326.5 23.75 326.5C23.3358 326.5 23 326.164 23 325.75V325C23 324.005 23.3951 323.052 24.0983 322.348C24.8016 321.645 25.7554 321.25 26.75 321.25H31.25C32.2446 321.25 33.1984 321.645 33.9017 322.348C34.6049 323.052 35 324.005 35 325V325.75ZM29 319.75C28.4091 319.75 27.8239 319.634 27.2779 319.407C26.732 319.181 26.2359 318.85 25.818 318.432C25.4002 318.014 25.0687 317.518 24.8425 316.972C24.6164 316.426 24.5 315.841 24.5 315.25C24.5 314.659 24.6164 314.074 24.8425 313.528C25.0687 312.982 25.4002 312.486 25.818 312.068C26.2359 311.65 26.732 311.319 27.2779 311.093C27.8239 310.866 28.4091 310.75 29 310.75C30.1935 310.75 31.3381 311.224 32.182 312.068C33.0259 312.912 33.5 314.057 33.5 315.25C33.5 316.443 33.0259 317.588 32.182 318.432C31.3381 319.276 30.1935 319.75 29 319.75ZM29 318.25C29.7956 318.25 30.5587 317.934 31.1213 317.371C31.6839 316.809 32 316.046 32 315.25C32 314.454 31.6839 313.691 31.1213 313.129C30.5587 312.566 29.7956 312.25 29 312.25C28.2044 312.25 27.4413 312.566 26.8787 313.129C26.3161 313.691 26 314.454 26 315.25C26 316.046 26.3161 316.809 26.8787 317.371C27.4413 317.934 28.2044 318.25 29 318.25Z" fill="#BABABA"/>
</g>
<path d="M48.602 319.136C48.602 318.352 48.7607 317.666 49.078 317.078C49.3953 316.481 49.8293 316.019 50.38 315.692C50.94 315.365 51.5607 315.202 52.242 315.202C52.914 315.202 53.4973 315.347 53.992 315.636C54.4867 315.925 54.8553 316.289 55.098 316.728V315.328H56.386V323H55.098V321.572C54.846 322.02 54.468 322.393 53.964 322.692C53.4693 322.981 52.8907 323.126 52.228 323.126C51.5467 323.126 50.9307 322.958 50.38 322.622C49.8293 322.286 49.3953 321.815 49.078 321.208C48.7607 320.601 48.602 319.911 48.602 319.136ZM55.098 319.15C55.098 318.571 54.9813 318.067 54.748 317.638C54.5147 317.209 54.1973 316.882 53.796 316.658C53.404 316.425 52.97 316.308 52.494 316.308C52.018 316.308 51.584 316.42 51.192 316.644C50.8 316.868 50.4873 317.195 50.254 317.624C50.0207 318.053 49.904 318.557 49.904 319.136C49.904 319.724 50.0207 320.237 50.254 320.676C50.4873 321.105 50.8 321.437 51.192 321.67C51.584 321.894 52.018 322.006 52.494 322.006C52.97 322.006 53.404 321.894 53.796 321.67C54.1973 321.437 54.5147 321.105 54.748 320.676C54.9813 320.237 55.098 319.729 55.098 319.15ZM59.8129 316.756C60.0743 316.299 60.4569 315.925 60.9609 315.636C61.4649 315.347 62.0389 315.202 62.6829 315.202C63.3736 315.202 63.9943 315.365 64.5449 315.692C65.0956 316.019 65.5296 316.481 65.8469 317.078C66.1643 317.666 66.3229 318.352 66.3229 319.136C66.3229 319.911 66.1643 320.601 65.8469 321.208C65.5296 321.815 65.0909 322.286 64.5309 322.622C63.9803 322.958 63.3643 323.126 62.6829 323.126C62.0203 323.126 61.4369 322.981 60.9329 322.692C60.4383 322.403 60.0649 322.034 59.8129 321.586V323H58.5389V312.64H59.8129V316.756ZM65.0209 319.136C65.0209 318.557 64.9043 318.053 64.6709 317.624C64.4376 317.195 64.1203 316.868 63.7189 316.644C63.3269 316.42 62.8929 316.308 62.4169 316.308C61.9503 316.308 61.5163 316.425 61.1149 316.658C60.7229 316.882 60.4056 317.213 60.1629 317.652C59.9296 318.081 59.8129 318.581 59.8129 319.15C59.8129 319.729 59.9296 320.237 60.1629 320.676C60.4056 321.105 60.7229 321.437 61.1149 321.67C61.5163 321.894 61.9503 322.006 62.4169 322.006C62.8929 322.006 63.3269 321.894 63.7189 321.67C64.1203 321.437 64.4376 321.105 64.6709 320.676C64.9043 320.237 65.0209 319.724 65.0209 319.136ZM67.5239 319.15C67.5239 318.357 67.6825 317.666 67.9999 317.078C68.3172 316.481 68.7559 316.019 69.3159 315.692C69.8852 315.365 70.5339 315.202 71.2619 315.202C72.2045 315.202 72.9792 315.431 73.5859 315.888C74.2019 316.345 74.6079 316.98 74.8039 317.792H73.4319C73.3012 317.325 73.0445 316.957 72.6619 316.686C72.2885 316.415 71.8219 316.28 71.2619 316.28C70.5339 316.28 69.9459 316.532 69.4979 317.036C69.0499 317.531 68.8259 318.235 68.8259 319.15C68.8259 320.074 69.0499 320.788 69.4979 321.292C69.9459 321.796 70.5339 322.048 71.2619 322.048C71.8219 322.048 72.2885 321.917 72.6619 321.656C73.0352 321.395 73.2919 321.021 73.4319 320.536H74.8039C74.5985 321.32 74.1879 321.95 73.5719 322.426C72.9559 322.893 72.1859 323.126 71.2619 323.126C70.5339 323.126 69.8852 322.963 69.3159 322.636C68.7559 322.309 68.3172 321.847 67.9999 321.25C67.6825 320.653 67.5239 319.953 67.5239 319.15ZM76.9098 323.084C76.6671 323.084 76.4618 323 76.2938 322.832C76.1258 322.664 76.0418 322.459 76.0418 322.216C76.0418 321.973 76.1258 321.768 76.2938 321.6C76.4618 321.432 76.6671 321.348 76.9098 321.348C77.1431 321.348 77.3391 321.432 77.4978 321.6C77.6658 321.768 77.7498 321.973 77.7498 322.216C77.7498 322.459 77.6658 322.664 77.4978 322.832C77.3391 323 77.1431 323.084 76.9098 323.084ZM82.1592 323.126C81.5712 323.126 81.0439 323.028 80.5772 322.832C80.1106 322.627 79.7419 322.347 79.4712 321.992C79.2006 321.628 79.0512 321.213 79.0232 320.746H80.3392C80.3766 321.129 80.5539 321.441 80.8712 321.684C81.1979 321.927 81.6226 322.048 82.1452 322.048C82.6306 322.048 83.0132 321.941 83.2932 321.726C83.5732 321.511 83.7132 321.241 83.7132 320.914C83.7132 320.578 83.5639 320.331 83.2652 320.172C82.9666 320.004 82.5046 319.841 81.8792 319.682C81.3099 319.533 80.8432 319.383 80.4792 319.234C80.1246 319.075 79.8166 318.847 79.5552 318.548C79.3032 318.24 79.1772 317.839 79.1772 317.344C79.1772 316.952 79.2939 316.593 79.5272 316.266C79.7606 315.939 80.0919 315.683 80.5212 315.496C80.9506 315.3 81.4406 315.202 81.9912 315.202C82.8406 315.202 83.5266 315.417 84.0492 315.846C84.5719 316.275 84.8519 316.863 84.8892 317.61H83.6152C83.5872 317.209 83.4239 316.887 83.1252 316.644C82.8359 316.401 82.4439 316.28 81.9492 316.28C81.4919 316.28 81.1279 316.378 80.8572 316.574C80.5866 316.77 80.4512 317.027 80.4512 317.344C80.4512 317.596 80.5306 317.806 80.6892 317.974C80.8572 318.133 81.0626 318.263 81.3052 318.366C81.5572 318.459 81.9026 318.567 82.3412 318.688C82.8919 318.837 83.3399 318.987 83.6852 319.136C84.0306 319.276 84.3246 319.491 84.5672 319.78C84.8192 320.069 84.9499 320.447 84.9592 320.914C84.9592 321.334 84.8426 321.712 84.6092 322.048C84.3759 322.384 84.0446 322.65 83.6152 322.846C83.1952 323.033 82.7099 323.126 82.1592 323.126ZM95.9837 315.188C96.581 315.188 97.113 315.314 97.5797 315.566C98.0464 315.809 98.415 316.177 98.6857 316.672C98.9564 317.167 99.0917 317.769 99.0917 318.478V323H97.8317V318.66C97.8317 317.895 97.6404 317.311 97.2577 316.91C96.8844 316.499 96.3757 316.294 95.7317 316.294C95.069 316.294 94.5417 316.509 94.1497 316.938C93.7577 317.358 93.5617 317.969 93.5617 318.772V323H92.3017V318.66C92.3017 317.895 92.1104 317.311 91.7277 316.91C91.3544 316.499 90.8457 316.294 90.2017 316.294C89.539 316.294 89.0117 316.509 88.6197 316.938C88.2277 317.358 88.0317 317.969 88.0317 318.772V323H86.7577V315.328H88.0317V316.434C88.2837 316.033 88.6197 315.725 89.0397 315.51C89.469 315.295 89.9404 315.188 90.4537 315.188C91.0977 315.188 91.667 315.333 92.1617 315.622C92.6564 315.911 93.025 316.336 93.2677 316.896C93.4824 316.355 93.837 315.935 94.3317 315.636C94.8264 315.337 95.377 315.188 95.9837 315.188ZM101.84 314.082C101.597 314.082 101.392 313.998 101.224 313.83C101.056 313.662 100.972 313.457 100.972 313.214C100.972 312.971 101.056 312.766 101.224 312.598C101.392 312.43 101.597 312.346 101.84 312.346C102.073 312.346 102.269 312.43 102.428 312.598C102.596 312.766 102.68 312.971 102.68 313.214C102.68 313.457 102.596 313.662 102.428 313.83C102.269 313.998 102.073 314.082 101.84 314.082ZM102.456 315.328V323H101.182V315.328H102.456ZM106.181 316.378V320.9C106.181 321.273 106.26 321.539 106.419 321.698C106.577 321.847 106.853 321.922 107.245 321.922H108.183V323H107.035C106.325 323 105.793 322.837 105.439 322.51C105.084 322.183 104.907 321.647 104.907 320.9V316.378H103.913V315.328H104.907V313.396H106.181V315.328H108.183V316.378H106.181ZM113.534 315.188C114.113 315.188 114.636 315.314 115.102 315.566C115.569 315.809 115.933 316.177 116.194 316.672C116.465 317.167 116.6 317.769 116.6 318.478V323H115.34V318.66C115.34 317.895 115.149 317.311 114.766 316.91C114.384 316.499 113.861 316.294 113.198 316.294C112.526 316.294 111.99 316.504 111.588 316.924C111.196 317.344 111 317.955 111 318.758V323H109.726V312.64H111V316.42C111.252 316.028 111.598 315.725 112.036 315.51C112.484 315.295 112.984 315.188 113.534 315.188ZM125.682 314.026C126.718 314.026 127.618 314.222 128.384 314.614C129.149 315.006 129.737 315.557 130.148 316.266C130.558 316.966 130.764 317.778 130.764 318.702C130.764 319.439 130.642 320.149 130.4 320.83C130.157 321.502 129.802 322.048 129.336 322.468C128.878 322.888 128.342 323.098 127.726 323.098C127.259 323.098 126.9 322.981 126.648 322.748C126.396 322.515 126.251 322.197 126.214 321.796C125.924 322.197 125.556 322.515 125.108 322.748C124.669 322.981 124.202 323.098 123.708 323.098C122.998 323.098 122.438 322.883 122.028 322.454C121.626 322.015 121.426 321.427 121.426 320.69C121.426 319.99 121.57 319.337 121.86 318.73C122.158 318.123 122.569 317.638 123.092 317.274C123.614 316.901 124.207 316.714 124.87 316.714C125.756 316.714 126.354 317.05 126.662 317.722L126.816 316.854H127.922L127.222 320.9C127.194 321.077 127.18 321.241 127.18 321.39C127.18 321.95 127.427 322.23 127.922 322.23C128.295 322.23 128.617 322.053 128.888 321.698C129.168 321.343 129.378 320.9 129.518 320.368C129.658 319.827 129.728 319.295 129.728 318.772C129.728 317.549 129.359 316.602 128.622 315.93C127.894 315.258 126.862 314.922 125.528 314.922C124.417 314.922 123.414 315.193 122.518 315.734C121.631 316.266 120.936 316.999 120.432 317.932C119.928 318.865 119.676 319.897 119.676 321.026C119.666 322.258 120.035 323.205 120.782 323.868C121.528 324.54 122.564 324.876 123.89 324.876C124.767 324.876 125.542 324.717 126.214 324.4L126.382 325.268C125.551 325.613 124.636 325.786 123.638 325.786C122.639 325.786 121.757 325.595 120.992 325.212C120.236 324.839 119.648 324.297 119.228 323.588C118.817 322.888 118.612 322.071 118.612 321.138C118.612 319.822 118.915 318.623 119.522 317.54C120.128 316.448 120.968 315.589 122.042 314.964C123.124 314.339 124.338 314.026 125.682 314.026ZM124.086 322.104C124.506 322.104 124.893 321.983 125.248 321.74C125.602 321.488 125.882 321.152 126.088 320.732C126.293 320.303 126.396 319.836 126.396 319.332C126.396 318.847 126.26 318.455 125.99 318.156C125.728 317.848 125.355 317.694 124.87 317.694C124.422 317.694 124.025 317.829 123.68 318.1C123.344 318.361 123.082 318.711 122.896 319.15C122.709 319.579 122.616 320.027 122.616 320.494C122.616 320.989 122.742 321.381 122.994 321.67C123.246 321.959 123.61 322.104 124.086 322.104ZM142.085 315.188C142.683 315.188 143.215 315.314 143.681 315.566C144.148 315.809 144.517 316.177 144.787 316.672C145.058 317.167 145.193 317.769 145.193 318.478V323H143.933V318.66C143.933 317.895 143.742 317.311 143.359 316.91C142.986 316.499 142.477 316.294 141.833 316.294C141.171 316.294 140.643 316.509 140.251 316.938C139.859 317.358 139.663 317.969 139.663 318.772V323H138.403V318.66C138.403 317.895 138.212 317.311 137.829 316.91C137.456 316.499 136.947 316.294 136.303 316.294C135.641 316.294 135.113 316.509 134.721 316.938C134.329 317.358 134.133 317.969 134.133 318.772V323H132.859V315.328H134.133V316.434C134.385 316.033 134.721 315.725 135.141 315.51C135.571 315.295 136.042 315.188 136.555 315.188C137.199 315.188 137.769 315.333 138.263 315.622C138.758 315.911 139.127 316.336 139.369 316.896C139.584 316.355 139.939 315.935 140.433 315.636C140.928 315.337 141.479 315.188 142.085 315.188ZM146.807 319.136C146.807 318.352 146.966 317.666 147.283 317.078C147.6 316.481 148.034 316.019 148.585 315.692C149.145 315.365 149.766 315.202 150.447 315.202C151.119 315.202 151.702 315.347 152.197 315.636C152.692 315.925 153.06 316.289 153.303 316.728V315.328H154.591V323H153.303V321.572C153.051 322.02 152.673 322.393 152.169 322.692C151.674 322.981 151.096 323.126 150.433 323.126C149.752 323.126 149.136 322.958 148.585 322.622C148.034 322.286 147.6 321.815 147.283 321.208C146.966 320.601 146.807 319.911 146.807 319.136ZM153.303 319.15C153.303 318.571 153.186 318.067 152.953 317.638C152.72 317.209 152.402 316.882 152.001 316.658C151.609 316.425 151.175 316.308 150.699 316.308C150.223 316.308 149.789 316.42 149.397 316.644C149.005 316.868 148.692 317.195 148.459 317.624C148.226 318.053 148.109 318.557 148.109 319.136C148.109 319.724 148.226 320.237 148.459 320.676C148.692 321.105 149.005 321.437 149.397 321.67C149.789 321.894 150.223 322.006 150.699 322.006C151.175 322.006 151.609 321.894 152.001 321.67C152.402 321.437 152.72 321.105 152.953 320.676C153.186 320.237 153.303 319.729 153.303 319.15ZM157.402 314.082C157.159 314.082 156.954 313.998 156.786 313.83C156.618 313.662 156.534 313.457 156.534 313.214C156.534 312.971 156.618 312.766 156.786 312.598C156.954 312.43 157.159 312.346 157.402 312.346C157.635 312.346 157.831 312.43 157.99 312.598C158.158 312.766 158.242 312.971 158.242 313.214C158.242 313.457 158.158 313.662 157.99 313.83C157.831 313.998 157.635 314.082 157.402 314.082ZM158.018 315.328V323H156.744V315.328H158.018ZM161.463 312.64V323H160.189V312.64H161.463ZM164.041 323.084C163.798 323.084 163.593 323 163.425 322.832C163.257 322.664 163.173 322.459 163.173 322.216C163.173 321.973 163.257 321.768 163.425 321.6C163.593 321.432 163.798 321.348 164.041 321.348C164.274 321.348 164.47 321.432 164.629 321.6C164.797 321.768 164.881 321.973 164.881 322.216C164.881 322.459 164.797 322.664 164.629 322.832C164.47 323 164.274 323.084 164.041 323.084ZM166.098 319.15C166.098 318.357 166.257 317.666 166.574 317.078C166.891 316.481 167.33 316.019 167.89 315.692C168.459 315.365 169.108 315.202 169.836 315.202C170.779 315.202 171.553 315.431 172.16 315.888C172.776 316.345 173.182 316.98 173.378 317.792H172.006C171.875 317.325 171.619 316.957 171.236 316.686C170.863 316.415 170.396 316.28 169.836 316.28C169.108 316.28 168.52 316.532 168.072 317.036C167.624 317.531 167.4 318.235 167.4 319.15C167.4 320.074 167.624 320.788 168.072 321.292C168.52 321.796 169.108 322.048 169.836 322.048C170.396 322.048 170.863 321.917 171.236 321.656C171.609 321.395 171.866 321.021 172.006 320.536H173.378C173.173 321.32 172.762 321.95 172.146 322.426C171.53 322.893 170.76 323.126 169.836 323.126C169.108 323.126 168.459 322.963 167.89 322.636C167.33 322.309 166.891 321.847 166.574 321.25C166.257 320.653 166.098 319.953 166.098 319.15ZM178.424 323.126C177.705 323.126 177.052 322.963 176.464 322.636C175.885 322.309 175.428 321.847 175.092 321.25C174.765 320.643 174.602 319.943 174.602 319.15C174.602 318.366 174.77 317.675 175.106 317.078C175.451 316.471 175.918 316.009 176.506 315.692C177.094 315.365 177.752 315.202 178.48 315.202C179.208 315.202 179.866 315.365 180.454 315.692C181.042 316.009 181.504 316.467 181.84 317.064C182.185 317.661 182.358 318.357 182.358 319.15C182.358 319.943 182.181 320.643 181.826 321.25C181.481 321.847 181.009 322.309 180.412 322.636C179.815 322.963 179.152 323.126 178.424 323.126ZM178.424 322.006C178.881 322.006 179.311 321.899 179.712 321.684C180.113 321.469 180.435 321.147 180.678 320.718C180.93 320.289 181.056 319.766 181.056 319.15C181.056 318.534 180.935 318.011 180.692 317.582C180.449 317.153 180.132 316.835 179.74 316.63C179.348 316.415 178.923 316.308 178.466 316.308C177.999 316.308 177.57 316.415 177.178 316.63C176.795 316.835 176.487 317.153 176.254 317.582C176.021 318.011 175.904 318.534 175.904 319.15C175.904 319.775 176.016 320.303 176.24 320.732C176.473 321.161 176.781 321.483 177.164 321.698C177.547 321.903 177.967 322.006 178.424 322.006ZM193.259 315.188C193.856 315.188 194.388 315.314 194.855 315.566C195.322 315.809 195.69 316.177 195.961 316.672C196.232 317.167 196.367 317.769 196.367 318.478V323H195.107V318.66C195.107 317.895 194.916 317.311 194.533 316.91C194.16 316.499 193.651 316.294 193.007 316.294C192.344 316.294 191.817 316.509 191.425 316.938C191.033 317.358 190.837 317.969 190.837 318.772V323H189.577V318.66C189.577 317.895 189.386 317.311 189.003 316.91C188.63 316.499 188.121 316.294 187.477 316.294C186.814 316.294 186.287 316.509 185.895 316.938C185.503 317.358 185.307 317.969 185.307 318.772V323H184.033V315.328H185.307V316.434C185.559 316.033 185.895 315.725 186.315 315.51C186.744 315.295 187.216 315.188 187.729 315.188C188.373 315.188 188.942 315.333 189.437 315.622C189.932 315.911 190.3 316.336 190.543 316.896C190.758 316.355 191.112 315.935 191.607 315.636C192.102 315.337 192.652 315.188 193.259 315.188Z" fill="#545974"/>
<path d="M33.3035 26.8809C33.3035 25.7969 33.6697 24.9082 34.4021 24.2148C35.1395 23.5166 36.0818 23.1675 37.2293 23.1675C38.0008 23.1675 38.6844 23.3457 39.2801 23.7021C39.8758 24.0586 40.3519 24.5762 40.7083 25.2549C41.2063 26.1387 41.4554 27.252 41.4554 28.5947C41.4554 30.3721 41.077 31.7612 40.3201 32.7622C39.5633 33.7583 38.5135 34.2563 37.1707 34.2563C36.2039 34.2563 35.3812 33.9951 34.7024 33.4727C34.0237 32.9453 33.6062 32.2471 33.45 31.3779H35.3323C35.4544 31.7783 35.679 32.0957 36.0062 32.3301C36.3382 32.5596 36.7312 32.6743 37.1854 32.6743C37.9568 32.6743 38.5599 32.335 38.9944 31.6562C39.429 30.9727 39.6463 30.0254 39.6463 28.8145H39.5804H39.5437H39.5218C39.2728 29.3174 38.909 29.708 38.4305 29.9863C37.952 30.2598 37.4026 30.3965 36.7825 30.3965C35.7767 30.3965 34.9441 30.0645 34.285 29.4004C33.6307 28.7363 33.3035 27.8965 33.3035 26.8809ZM35.1565 26.8223C35.1565 27.4277 35.3519 27.9258 35.7425 28.3164C36.1331 28.7021 36.6312 28.895 37.2366 28.895C37.8421 28.895 38.3426 28.7021 38.7381 28.3164C39.1336 27.9307 39.3313 27.4424 39.3313 26.8516C39.3313 26.2559 39.1312 25.7554 38.7308 25.3501C38.3304 24.9448 37.8348 24.7422 37.2439 24.7422C36.6531 24.7422 36.1575 24.9424 35.7571 25.3428C35.3567 25.7383 35.1565 26.2314 35.1565 26.8223ZM43.3746 32.9966C43.3746 32.6597 43.4845 32.3838 43.7042 32.1689C43.9239 31.9492 44.2047 31.8394 44.5465 31.8394C44.8932 31.8394 45.1739 31.9492 45.3888 32.1689C45.6085 32.3838 45.7184 32.6597 45.7184 32.9966C45.7184 33.3286 45.6085 33.6045 45.3888 33.8242C45.1739 34.0439 44.8932 34.1538 44.5465 34.1538C44.2047 34.1538 43.9239 34.0439 43.7042 33.8242C43.4845 33.6045 43.3746 33.3286 43.3746 32.9966ZM43.3746 27.5107C43.3746 27.1738 43.4845 26.8979 43.7042 26.6831C43.9239 26.4634 44.2047 26.3535 44.5465 26.3535C44.8932 26.3535 45.1739 26.4634 45.3888 26.6831C45.6085 26.8979 45.7184 27.1738 45.7184 27.5107C45.7184 27.8428 45.6085 28.1187 45.3888 28.3384C45.1739 28.5532 44.8932 28.6606 44.5465 28.6606C44.2047 28.6606 43.9239 28.5532 43.7042 28.3384C43.4845 28.1187 43.3746 27.8428 43.3746 27.5107ZM47.4105 32.0298V30.3452C48.2699 28.7632 49.7055 26.4585 51.7172 23.4312H54.3832V30.4331H55.8114V32.0298H54.3832V34H52.5741V32.0298H47.4105ZM49.161 30.4771H52.6034V24.9692H52.5009C51.3583 26.6587 50.245 28.458 49.161 30.3672V30.4771ZM57.0861 27.1812V25.3647L59.8474 23.4312H61.7297V34H59.84V25.3354H59.7155L57.0861 27.1812Z" fill="#545974"/>
<rect opacity="0.35" x="336.833" y="21.8333" width="21" height="10.3333" rx="2.16667" stroke="#545974"/>
<path opacity="0.4" d="M359.333 25V29C360.138 28.6612 360.661 27.8731 360.661 27C360.661 26.1269 360.138 25.3388 359.333 25Z" fill="#545974"/>
<rect x="338.333" y="23.3333" width="18" height="7.33333" rx="1.33333" fill="#545974"/>
<path fill-rule="evenodd" clip-rule="evenodd" d="M323.667 23.615C325.892 23.6151 328.031 24.4693 329.644 26.0008C329.765 26.1191 329.959 26.1176 330.079 25.9975L331.239 24.8272C331.3 24.7663 331.334 24.6837 331.333 24.5979C331.333 24.5121 331.298 24.4299 331.237 24.3697C327.005 20.3175 320.329 20.3175 316.097 24.3697C316.035 24.4299 316.001 24.512 316 24.5978C315.999 24.6837 316.033 24.7662 316.094 24.8272L317.255 25.9975C317.374 26.1178 317.568 26.1193 317.69 26.0008C319.302 24.4692 321.442 23.615 323.667 23.615ZM323.667 27.4226C324.889 27.4226 326.068 27.8765 326.974 28.6963C327.097 28.8126 327.29 28.8101 327.409 28.6906L328.569 27.5203C328.63 27.4589 328.663 27.3756 328.663 27.2891C328.662 27.2025 328.626 27.12 328.564 27.0598C325.805 24.4954 321.532 24.4954 318.773 27.0598C318.71 27.12 318.675 27.2026 318.674 27.2891C318.673 27.3757 318.707 27.459 318.768 27.5203L319.927 28.6906C320.047 28.8101 320.24 28.8126 320.362 28.6963C321.268 27.877 322.446 27.4231 323.667 27.4226ZM325.989 29.9845C325.991 30.0712 325.957 30.1549 325.895 30.2157L323.89 32.2377C323.831 32.2971 323.751 32.3306 323.667 32.3306C323.583 32.3306 323.503 32.2971 323.445 32.2377L321.439 30.2157C321.377 30.1549 321.343 30.0712 321.345 29.9844C321.347 29.8976 321.384 29.8154 321.449 29.7573C322.729 28.675 324.605 28.675 325.886 29.7573C325.95 29.8155 325.988 29.8977 325.989 29.9845Z" fill="#545974"/>
<path fill-rule="evenodd" clip-rule="evenodd" d="M310 21.6667H309C308.448 21.6667 308 22.1145 308 22.6667V31.3334C308 31.8857 308.448 32.3334 309 32.3334H310C310.552 32.3334 311 31.8857 311 31.3334V22.6667C311 22.1145 310.552 21.6667 310 21.6667ZM304.333 24.0001H305.333C305.886 24.0001 306.333 24.4478 306.333 25.0001V31.3334C306.333 31.8857 305.886 32.3334 305.333 32.3334H304.333C303.781 32.3334 303.333 31.8857 303.333 31.3334V25.0001C303.333 24.4478 303.781 24.0001 304.333 24.0001ZM300.667 26.3334H299.667C299.114 26.3334 298.667 26.7811 298.667 27.3334V31.3334C298.667 31.8857 299.114 32.3334 299.667 32.3334H300.667C301.219 32.3334 301.667 31.8857 301.667 31.3334V27.3334C301.667 26.7811 301.219 26.3334 300.667 26.3334ZM296 28.3334H295C294.448 28.3334 294 28.7811 294 29.3334V31.3334C294 31.8857 294.448 32.3334 295 32.3334H296C296.552 32.3334 297 31.8857 297 31.3334V29.3334C297 28.7811 296.552 28.3334 296 28.3334Z" fill="#545974"/>
<rect x="120" y="803" width="134" height="5" rx="2.5" fill="#545974"/>
<defs>
<clipPath id="clip0_17_1171">
<rect width="24" height="24" fill="white" transform="translate(20 50)"/>
</clipPath>
<clipPath id="clip1_17_1171">
<rect width="18" height="18" fill="white" transform="translate(20 260)"/>
</clipPath>
<clipPath id="clip2_17_1171">
<rect width="18" height="18" fill="white" transform="translate(20 310)"/>
</clipPath>
</defs>
</svg>
