<svg width="375" height="812" viewBox="0 0 375 812" fill="none" xmlns="http://www.w3.org/2000/svg">
<rect width="375" height="812" fill="white"/>
<g clip-path="url(#clip0_110_702)">
<path d="M31.1816 61.6464C30.9863 61.8417 30.9863 62.1583 31.1816 62.3535L35.071 66.243C35.4615 66.6335 35.4615 67.2665 35.071 67.657C34.6805 68.0475 34.0475 68.0475 33.657 67.657L28.7071 62.7071C28.3166 62.3166 28.3166 61.6834 28.7071 61.2929L33.657 56.343C34.0475 55.9525 34.6805 55.9525 35.071 56.343C35.4615 56.7335 35.4615 57.3665 35.071 57.757L31.1816 61.6464Z" fill="#545974"/>
</g>
<path d="M22.6865 155.2H41.3105V161.6H29.7265V174.08H38.8145V180.48H29.7265V200H22.6865V155.2ZM48.064 155.2H57.6L64.896 200H57.856L56.576 191.104V191.232H48.576L47.296 200H40.768L48.064 155.2ZM55.744 185.152L52.608 163.008H52.48L49.408 185.152H55.744ZM78.1065 200.64C74.7358 200.64 72.1545 199.68 70.3625 197.76C68.6132 195.84 67.7385 193.131 67.7385 189.632V165.568C67.7385 162.069 68.6132 159.36 70.3625 157.44C72.1545 155.52 74.7358 154.56 78.1065 154.56C81.4772 154.56 84.0372 155.52 85.7865 157.44C87.5785 159.36 88.4745 162.069 88.4745 165.568V170.304H81.8185V165.12C81.8185 162.347 80.6452 160.96 78.2985 160.96C75.9518 160.96 74.7785 162.347 74.7785 165.12V190.144C74.7785 192.875 75.9518 194.24 78.2985 194.24C80.6452 194.24 81.8185 192.875 81.8185 190.144V183.296H88.4745V189.632C88.4745 193.131 87.5785 195.84 85.7865 197.76C84.0372 199.68 81.4772 200.64 78.1065 200.64ZM92.6865 155.2H111.887V161.6H99.7265V173.44H109.391V179.84H99.7265V193.6H111.887V200H92.6865V155.2ZM115.937 155.2H126.561C130.187 155.2 132.833 156.053 134.497 157.76C136.161 159.424 136.993 162.005 136.993 165.504V167.296C136.993 169.6 136.609 171.477 135.841 172.928C135.115 174.379 133.985 175.424 132.449 176.064V176.192C135.947 177.387 137.697 180.501 137.697 185.536V189.376C137.697 192.832 136.779 195.477 134.945 197.312C133.153 199.104 130.507 200 127.009 200H115.937V155.2ZM125.729 173.44C127.137 173.44 128.182 173.077 128.865 172.352C129.59 171.627 129.953 170.411 129.953 168.704V166.208C129.953 164.587 129.654 163.413 129.057 162.688C128.502 161.963 127.606 161.6 126.369 161.6H122.977V173.44H125.729ZM127.009 193.6C128.246 193.6 129.163 193.28 129.76 192.64C130.358 191.957 130.657 190.805 130.657 189.184V185.28C130.657 183.232 130.294 181.824 129.569 181.056C128.886 180.245 127.734 179.84 126.113 179.84H122.977V193.6H127.009ZM151.988 200.64C148.532 200.64 145.886 199.659 144.052 197.696C142.217 195.733 141.299 192.96 141.299 189.376V165.824C141.299 162.24 142.217 159.467 144.052 157.504C145.886 155.541 148.532 154.56 151.988 154.56C155.444 154.56 158.089 155.541 159.924 157.504C161.758 159.467 162.676 162.24 162.676 165.824V189.376C162.676 192.96 161.758 195.733 159.924 197.696C158.089 199.659 155.444 200.64 151.988 200.64ZM151.988 194.24C154.42 194.24 155.635 192.768 155.635 189.824V165.376C155.635 162.432 154.42 160.96 151.988 160.96C149.556 160.96 148.34 162.432 148.34 165.376V189.824C148.34 192.768 149.556 194.24 151.988 194.24ZM177.613 200.64C174.157 200.64 171.511 199.659 169.677 197.696C167.842 195.733 166.924 192.96 166.924 189.376V165.824C166.924 162.24 167.842 159.467 169.677 157.504C171.511 155.541 174.157 154.56 177.613 154.56C181.069 154.56 183.714 155.541 185.549 157.504C187.383 159.467 188.301 162.24 188.301 165.824V189.376C188.301 192.96 187.383 195.733 185.549 197.696C183.714 199.659 181.069 200.64 177.613 200.64ZM177.613 194.24C180.045 194.24 181.26 192.768 181.26 189.824V165.376C181.26 162.432 180.045 160.96 177.613 160.96C175.181 160.96 173.965 162.432 173.965 165.376V189.824C173.965 192.768 175.181 194.24 177.613 194.24ZM193.062 155.2H200.102V174.08L209.062 155.2H216.102L207.718 171.648L216.23 200H208.87L202.918 180.032L200.102 185.728V200H193.062V155.2Z" fill="#545974"/>
<g clip-path="url(#clip1_110_702)">
<path d="M33.7729 349.591C33.4801 349.884 33.0053 349.884 32.7124 349.591C32.4196 349.298 32.4196 348.823 32.7124 348.53L33.2427 348C33.5213 347.721 33.7423 347.391 33.893 347.027C34.0438 346.663 34.1214 346.273 34.1214 345.879C34.1214 345.485 34.0438 345.095 33.893 344.731C33.7423 344.367 33.5213 344.036 33.2427 343.757C32.9641 343.479 32.6334 343.258 32.2694 343.107C31.9054 342.956 31.5153 342.879 31.1213 342.879C30.7273 342.879 30.3372 342.956 29.9732 343.107C29.6093 343.258 29.2785 343.479 28.9999 343.757L28.4697 344.288C28.1768 344.58 27.702 344.58 27.4092 344.288C27.1164 343.995 27.1164 343.52 27.4092 343.227L27.9394 342.697C28.7857 341.864 29.9266 341.4 31.1137 341.405C32.3008 341.409 33.438 341.883 34.2774 342.723C35.1168 343.562 35.5905 344.699 35.5954 345.886C35.6002 347.073 35.1358 348.214 34.3032 349.061L33.7729 349.591ZM30.5907 351.713C30.8835 352.005 30.8835 352.48 30.5907 352.773L30.0604 353.303C29.6438 353.727 29.1475 354.063 28.6001 354.294C28.0527 354.525 27.465 354.645 26.871 354.647C26.277 354.65 25.6883 354.534 25.1391 354.308C24.5898 354.082 24.0907 353.749 23.6707 353.329C23.2506 352.909 22.9179 352.41 22.6917 351.861C22.4655 351.312 22.3503 350.723 22.3527 350.129C22.3551 349.535 22.4751 348.947 22.7058 348.4C22.9365 347.852 23.2732 347.356 23.6967 346.94L24.2269 346.409C24.5198 346.116 24.9946 346.116 25.2874 346.409C25.5803 346.702 25.5803 347.177 25.2874 347.47L24.7572 348C24.4786 348.279 24.2576 348.609 24.1069 348.973C23.9561 349.337 23.8785 349.727 23.8785 350.121C23.8785 350.515 23.9561 350.905 24.1069 351.269C24.2576 351.633 24.4786 351.964 24.7572 352.243C25.0358 352.521 25.3665 352.742 25.7305 352.893C26.0945 353.044 26.4846 353.121 26.8786 353.121C27.2726 353.121 27.6627 353.044 28.0267 352.893C28.3906 352.742 28.7214 352.521 28.9999 352.243L29.5302 351.713C29.823 351.42 30.2978 351.42 30.5907 351.713ZM30.5903 345.348C30.8834 345.055 31.3585 345.055 31.6516 345.348C31.9446 345.641 31.9446 346.117 31.6515 346.41L27.4092 350.651C27.1163 350.944 26.6415 350.944 26.3485 350.651C26.0554 350.359 26.0553 349.883 26.3483 349.59L30.5903 345.348Z" fill="#BABABA"/>
</g>
<g clip-path="url(#clip2_110_702)">
<path d="M35 425.75C35 426.164 34.6642 426.5 34.25 426.5C33.8358 426.5 33.5 426.164 33.5 425.75V425C33.5 424.403 33.2629 423.831 32.841 423.409C32.419 422.987 31.8467 422.75 31.25 422.75H26.75C26.1533 422.75 25.581 422.987 25.159 423.409C24.7371 423.831 24.5 424.403 24.5 425V425.75C24.5 426.164 24.1642 426.5 23.75 426.5C23.3358 426.5 23 426.164 23 425.75V425C23 424.005 23.3951 423.052 24.0983 422.348C24.8016 421.645 25.7554 421.25 26.75 421.25H31.25C32.2446 421.25 33.1984 421.645 33.9017 422.348C34.6049 423.052 35 424.005 35 425V425.75ZM29 419.75C28.4091 419.75 27.8239 419.634 27.2779 419.407C26.732 419.181 26.2359 418.85 25.818 418.432C25.4002 418.014 25.0687 417.518 24.8425 416.972C24.6164 416.426 24.5 415.841 24.5 415.25C24.5 414.659 24.6164 414.074 24.8425 413.528C25.0687 412.982 25.4002 412.486 25.818 412.068C26.2359 411.65 26.732 411.319 27.2779 411.093C27.8239 410.866 28.4091 410.75 29 410.75C30.1935 410.75 31.3381 411.224 32.182 412.068C33.0259 412.912 33.5 414.057 33.5 415.25C33.5 416.443 33.0259 417.588 32.182 418.432C31.3381 419.276 30.1935 419.75 29 419.75ZM29 418.25C29.7956 418.25 30.5587 417.934 31.1213 417.371C31.6839 416.809 32 416.046 32 415.25C32 414.454 31.6839 413.691 31.1213 413.129C30.5587 412.566 29.7956 412.25 29 412.25C28.2044 412.25 27.4413 412.566 26.8787 413.129C26.3161 413.691 26 414.454 26 415.25C26 416.046 26.3161 416.809 26.8787 417.371C27.4413 417.934 28.2044 418.25 29 418.25Z" fill="#BABABA"/>
</g>
<path d="M31.298 368.328L28.904 376H27.588L25.74 369.91L23.892 376H22.576L20.168 368.328H21.47L23.234 374.768L25.138 368.328H26.44L28.302 374.782L30.038 368.328H31.298ZM42.7824 368.328L40.3884 376H39.0724L37.2244 369.91L35.3764 376H34.0604L31.6524 368.328H32.9544L34.7184 374.768L36.6224 368.328H37.9244L39.7864 374.782L41.5224 368.328H42.7824ZM54.2668 368.328L51.8728 376H50.5568L48.7088 369.91L46.8608 376H45.5448L43.1368 368.328H44.4388L46.2028 374.768L48.1068 368.328H49.4088L51.2708 374.782L53.0068 368.328H54.2668ZM55.9371 376.084C55.6945 376.084 55.4891 376 55.3211 375.832C55.1531 375.664 55.0691 375.459 55.0691 375.216C55.0691 374.973 55.1531 374.768 55.3211 374.6C55.4891 374.432 55.6945 374.348 55.9371 374.348C56.1705 374.348 56.3665 374.432 56.5251 374.6C56.6931 374.768 56.7771 374.973 56.7771 375.216C56.7771 375.459 56.6931 375.664 56.5251 375.832C56.3665 376 56.1705 376.084 55.9371 376.084ZM61.5926 369.378H59.9826V376H58.7086V369.378H57.7146V368.328H58.7086V367.782C58.7086 366.923 58.9279 366.298 59.3666 365.906C59.8146 365.505 60.5286 365.304 61.5086 365.304V366.368C60.9486 366.368 60.5519 366.48 60.3186 366.704C60.0946 366.919 59.9826 367.278 59.9826 367.782V368.328H61.5926V369.378ZM62.602 372.136C62.602 371.352 62.7607 370.666 63.078 370.078C63.3953 369.481 63.8293 369.019 64.38 368.692C64.94 368.365 65.5607 368.202 66.242 368.202C66.914 368.202 67.4973 368.347 67.992 368.636C68.4867 368.925 68.8553 369.289 69.098 369.728V368.328H70.386V376H69.098V374.572C68.846 375.02 68.468 375.393 67.964 375.692C67.4693 375.981 66.8907 376.126 66.228 376.126C65.5467 376.126 64.9307 375.958 64.38 375.622C63.8293 375.286 63.3953 374.815 63.078 374.208C62.7607 373.601 62.602 372.911 62.602 372.136ZM69.098 372.15C69.098 371.571 68.9813 371.067 68.748 370.638C68.5147 370.209 68.1973 369.882 67.796 369.658C67.404 369.425 66.97 369.308 66.494 369.308C66.018 369.308 65.584 369.42 65.192 369.644C64.8 369.868 64.4873 370.195 64.254 370.624C64.0207 371.053 63.904 371.557 63.904 372.136C63.904 372.724 64.0207 373.237 64.254 373.676C64.4873 374.105 64.8 374.437 65.192 374.67C65.584 374.894 66.018 375.006 66.494 375.006C66.97 375.006 67.404 374.894 67.796 374.67C68.1973 374.437 68.5147 374.105 68.748 373.676C68.9813 373.237 69.098 372.729 69.098 372.15ZM72.0629 372.15C72.0629 371.357 72.2216 370.666 72.5389 370.078C72.8563 369.481 73.2949 369.019 73.8549 368.692C74.4243 368.365 75.0729 368.202 75.8009 368.202C76.7436 368.202 77.5183 368.431 78.1249 368.888C78.7409 369.345 79.1469 369.98 79.3429 370.792H77.9709C77.8403 370.325 77.5836 369.957 77.2009 369.686C76.8276 369.415 76.3609 369.28 75.8009 369.28C75.0729 369.28 74.4849 369.532 74.0369 370.036C73.5889 370.531 73.3649 371.235 73.3649 372.15C73.3649 373.074 73.5889 373.788 74.0369 374.292C74.4849 374.796 75.0729 375.048 75.8009 375.048C76.3609 375.048 76.8276 374.917 77.2009 374.656C77.5743 374.395 77.8309 374.021 77.9709 373.536H79.3429C79.1376 374.32 78.7269 374.95 78.1109 375.426C77.4949 375.893 76.7249 376.126 75.8009 376.126C75.0729 376.126 74.4243 375.963 73.8549 375.636C73.2949 375.309 72.8563 374.847 72.5389 374.25C72.2216 373.653 72.0629 372.953 72.0629 372.15ZM88.0428 371.87C88.0428 372.113 88.0288 372.369 88.0008 372.64H81.8688C81.9155 373.396 82.1722 373.989 82.6388 374.418C83.1148 374.838 83.6888 375.048 84.3608 375.048C84.9115 375.048 85.3688 374.922 85.7328 374.67C86.1062 374.409 86.3675 374.063 86.5168 373.634H87.8888C87.6835 374.371 87.2728 374.973 86.6568 375.44C86.0408 375.897 85.2755 376.126 84.3608 376.126C83.6328 376.126 82.9795 375.963 82.4008 375.636C81.8315 375.309 81.3835 374.847 81.0568 374.25C80.7302 373.643 80.5668 372.943 80.5668 372.15C80.5668 371.357 80.7255 370.661 81.0428 370.064C81.3602 369.467 81.8035 369.009 82.3728 368.692C82.9515 368.365 83.6142 368.202 84.3608 368.202C85.0888 368.202 85.7328 368.361 86.2928 368.678C86.8528 368.995 87.2822 369.434 87.5808 369.994C87.8888 370.545 88.0428 371.17 88.0428 371.87ZM86.7268 371.604C86.7268 371.119 86.6195 370.703 86.4048 370.358C86.1902 370.003 85.8962 369.737 85.5228 369.56C85.1588 369.373 84.7528 369.28 84.3048 369.28C83.6608 369.28 83.1102 369.485 82.6528 369.896C82.2048 370.307 81.9482 370.876 81.8828 371.604H86.7268ZM90.9985 369.756C91.2598 369.299 91.6425 368.925 92.1465 368.636C92.6505 368.347 93.2245 368.202 93.8685 368.202C94.5592 368.202 95.1798 368.365 95.7305 368.692C96.2812 369.019 96.7152 369.481 97.0325 370.078C97.3498 370.666 97.5085 371.352 97.5085 372.136C97.5085 372.911 97.3498 373.601 97.0325 374.208C96.7152 374.815 96.2765 375.286 95.7165 375.622C95.1658 375.958 94.5498 376.126 93.8685 376.126C93.2058 376.126 92.6225 375.981 92.1185 375.692C91.6238 375.403 91.2505 375.034 90.9985 374.586V376H89.7245V365.64H90.9985V369.756ZM96.2065 372.136C96.2065 371.557 96.0898 371.053 95.8565 370.624C95.6232 370.195 95.3058 369.868 94.9045 369.644C94.5125 369.42 94.0785 369.308 93.6025 369.308C93.1358 369.308 92.7018 369.425 92.3005 369.658C91.9085 369.882 91.5912 370.213 91.3485 370.652C91.1152 371.081 90.9985 371.581 90.9985 372.15C90.9985 372.729 91.1152 373.237 91.3485 373.676C91.5912 374.105 91.9085 374.437 92.3005 374.67C92.7018 374.894 93.1358 375.006 93.6025 375.006C94.0785 375.006 94.5125 374.894 94.9045 374.67C95.3058 374.437 95.6232 374.105 95.8565 373.676C96.0898 373.237 96.2065 372.724 96.2065 372.136ZM102.531 376.126C101.813 376.126 101.159 375.963 100.571 375.636C99.9928 375.309 99.5354 374.847 99.1994 374.25C98.8728 373.643 98.7094 372.943 98.7094 372.15C98.7094 371.366 98.8774 370.675 99.2134 370.078C99.5588 369.471 100.025 369.009 100.613 368.692C101.201 368.365 101.859 368.202 102.587 368.202C103.315 368.202 103.973 368.365 104.561 368.692C105.149 369.009 105.611 369.467 105.947 370.064C106.293 370.661 106.465 371.357 106.465 372.15C106.465 372.943 106.288 373.643 105.933 374.25C105.588 374.847 105.117 375.309 104.519 375.636C103.922 375.963 103.259 376.126 102.531 376.126ZM102.531 375.006C102.989 375.006 103.418 374.899 103.819 374.684C104.221 374.469 104.543 374.147 104.785 373.718C105.037 373.289 105.163 372.766 105.163 372.15C105.163 371.534 105.042 371.011 104.799 370.582C104.557 370.153 104.239 369.835 103.847 369.63C103.455 369.415 103.031 369.308 102.573 369.308C102.107 369.308 101.677 369.415 101.285 369.63C100.903 369.835 100.595 370.153 100.361 370.582C100.128 371.011 100.011 371.534 100.011 372.15C100.011 372.775 100.123 373.303 100.347 373.732C100.581 374.161 100.889 374.483 101.271 374.698C101.654 374.903 102.074 375.006 102.531 375.006ZM111.487 376.126C110.768 376.126 110.115 375.963 109.527 375.636C108.948 375.309 108.491 374.847 108.155 374.25C107.828 373.643 107.665 372.943 107.665 372.15C107.665 371.366 107.833 370.675 108.169 370.078C108.514 369.471 108.981 369.009 109.569 368.692C110.157 368.365 110.815 368.202 111.543 368.202C112.271 368.202 112.929 368.365 113.517 368.692C114.105 369.009 114.567 369.467 114.903 370.064C115.248 370.661 115.421 371.357 115.421 372.15C115.421 372.943 115.243 373.643 114.889 374.25C114.543 374.847 114.072 375.309 113.475 375.636C112.877 375.963 112.215 376.126 111.487 376.126ZM111.487 375.006C111.944 375.006 112.373 374.899 112.775 374.684C113.176 374.469 113.498 374.147 113.741 373.718C113.993 373.289 114.119 372.766 114.119 372.15C114.119 371.534 113.997 371.011 113.755 370.582C113.512 370.153 113.195 369.835 112.803 369.63C112.411 369.415 111.986 369.308 111.529 369.308C111.062 369.308 110.633 369.415 110.241 369.63C109.858 369.835 109.55 370.153 109.317 370.582C109.083 371.011 108.967 371.534 108.967 372.15C108.967 372.775 109.079 373.303 109.303 373.732C109.536 374.161 109.844 374.483 110.227 374.698C110.609 374.903 111.029 375.006 111.487 375.006ZM121.38 376L118.37 372.612V376H117.096V365.64H118.37V371.73L121.324 368.328H123.102L119.49 372.15L123.116 376H121.38ZM124.707 376.084C124.464 376.084 124.259 376 124.091 375.832C123.923 375.664 123.839 375.459 123.839 375.216C123.839 374.973 123.923 374.768 124.091 374.6C124.259 374.432 124.464 374.348 124.707 374.348C124.94 374.348 125.136 374.432 125.295 374.6C125.463 374.768 125.547 374.973 125.547 375.216C125.547 375.459 125.463 375.664 125.295 375.832C125.136 376 124.94 376.084 124.707 376.084ZM126.764 372.15C126.764 371.357 126.923 370.666 127.24 370.078C127.557 369.481 127.996 369.019 128.556 368.692C129.125 368.365 129.774 368.202 130.502 368.202C131.445 368.202 132.219 368.431 132.826 368.888C133.442 369.345 133.848 369.98 134.044 370.792H132.672C132.541 370.325 132.285 369.957 131.902 369.686C131.529 369.415 131.062 369.28 130.502 369.28C129.774 369.28 129.186 369.532 128.738 370.036C128.29 370.531 128.066 371.235 128.066 372.15C128.066 373.074 128.29 373.788 128.738 374.292C129.186 374.796 129.774 375.048 130.502 375.048C131.062 375.048 131.529 374.917 131.902 374.656C132.275 374.395 132.532 374.021 132.672 373.536H134.044C133.839 374.32 133.428 374.95 132.812 375.426C132.196 375.893 131.426 376.126 130.502 376.126C129.774 376.126 129.125 375.963 128.556 375.636C127.996 375.309 127.557 374.847 127.24 374.25C126.923 373.653 126.764 372.953 126.764 372.15ZM139.09 376.126C138.371 376.126 137.718 375.963 137.13 375.636C136.551 375.309 136.094 374.847 135.758 374.25C135.431 373.643 135.268 372.943 135.268 372.15C135.268 371.366 135.436 370.675 135.772 370.078C136.117 369.471 136.584 369.009 137.172 368.692C137.76 368.365 138.418 368.202 139.146 368.202C139.874 368.202 140.532 368.365 141.12 368.692C141.708 369.009 142.17 369.467 142.506 370.064C142.851 370.661 143.024 371.357 143.024 372.15C143.024 372.943 142.847 373.643 142.492 374.25C142.147 374.847 141.675 375.309 141.078 375.636C140.481 375.963 139.818 376.126 139.09 376.126ZM139.09 375.006C139.547 375.006 139.977 374.899 140.378 374.684C140.779 374.469 141.101 374.147 141.344 373.718C141.596 373.289 141.722 372.766 141.722 372.15C141.722 371.534 141.601 371.011 141.358 370.582C141.115 370.153 140.798 369.835 140.406 369.63C140.014 369.415 139.589 369.308 139.132 369.308C138.665 369.308 138.236 369.415 137.844 369.63C137.461 369.835 137.153 370.153 136.92 370.582C136.687 371.011 136.57 371.534 136.57 372.15C136.57 372.775 136.682 373.303 136.906 373.732C137.139 374.161 137.447 374.483 137.83 374.698C138.213 374.903 138.633 375.006 139.09 375.006ZM153.925 368.188C154.522 368.188 155.054 368.314 155.521 368.566C155.988 368.809 156.356 369.177 156.627 369.672C156.898 370.167 157.033 370.769 157.033 371.478V376H155.773V371.66C155.773 370.895 155.582 370.311 155.199 369.91C154.826 369.499 154.317 369.294 153.673 369.294C153.01 369.294 152.483 369.509 152.091 369.938C151.699 370.358 151.503 370.969 151.503 371.772V376H150.243V371.66C150.243 370.895 150.052 370.311 149.669 369.91C149.296 369.499 148.787 369.294 148.143 369.294C147.48 369.294 146.953 369.509 146.561 369.938C146.169 370.358 145.973 370.969 145.973 371.772V376H144.699V368.328H145.973V369.434C146.225 369.033 146.561 368.725 146.981 368.51C147.41 368.295 147.882 368.188 148.395 368.188C149.039 368.188 149.608 368.333 150.103 368.622C150.598 368.911 150.966 369.336 151.209 369.896C151.424 369.355 151.778 368.935 152.273 368.636C152.768 368.337 153.318 368.188 153.925 368.188Z" fill="#545974"/>
<path d="M21.764 438.082C21.5213 438.082 21.316 437.998 21.148 437.83C20.9893 437.662 20.91 437.457 20.91 437.214C20.91 436.971 20.9893 436.766 21.148 436.598C21.316 436.43 21.5213 436.346 21.764 436.346C22.0067 436.346 22.2073 436.43 22.366 436.598C22.534 436.766 22.618 436.971 22.618 437.214C22.618 437.457 22.534 437.662 22.366 437.83C22.2073 437.998 22.0067 438.082 21.764 438.082ZM22.394 448.666C22.394 449.347 22.2213 449.847 21.876 450.164C21.5307 450.481 21.0267 450.64 20.364 450.64H19.622V449.562H20.154C20.5087 449.562 20.756 449.492 20.896 449.352C21.0453 449.212 21.12 448.974 21.12 448.638V439.328H22.394V448.666ZM24.0747 443.136C24.0747 442.352 24.2333 441.666 24.5507 441.078C24.868 440.481 25.302 440.019 25.8527 439.692C26.4127 439.365 27.0333 439.202 27.7147 439.202C28.3867 439.202 28.97 439.347 29.4647 439.636C29.9593 439.925 30.328 440.289 30.5707 440.728V439.328H31.8587V447H30.5707V445.572C30.3187 446.02 29.9407 446.393 29.4367 446.692C28.942 446.981 28.3633 447.126 27.7007 447.126C27.0193 447.126 26.4033 446.958 25.8527 446.622C25.302 446.286 24.868 445.815 24.5507 445.208C24.2333 444.601 24.0747 443.911 24.0747 443.136ZM30.5707 443.15C30.5707 442.571 30.454 442.067 30.2207 441.638C29.9873 441.209 29.67 440.882 29.2687 440.658C28.8767 440.425 28.4427 440.308 27.9667 440.308C27.4907 440.308 27.0567 440.42 26.6647 440.644C26.2727 440.868 25.96 441.195 25.7267 441.624C25.4933 442.053 25.3767 442.557 25.3767 443.136C25.3767 443.724 25.4933 444.237 25.7267 444.676C25.96 445.105 26.2727 445.437 26.6647 445.67C27.0567 445.894 27.4907 446.006 27.9667 446.006C28.4427 446.006 28.8767 445.894 29.2687 445.67C29.67 445.437 29.9873 445.105 30.2207 444.676C30.454 444.237 30.5707 443.729 30.5707 443.15ZM43.2376 439.188C43.8349 439.188 44.3669 439.314 44.8336 439.566C45.3003 439.809 45.6689 440.177 45.9396 440.672C46.2103 441.167 46.3456 441.769 46.3456 442.478V447H45.0856V442.66C45.0856 441.895 44.8943 441.311 44.5116 440.91C44.1383 440.499 43.6296 440.294 42.9856 440.294C42.3229 440.294 41.7956 440.509 41.4036 440.938C41.0116 441.358 40.8156 441.969 40.8156 442.772V447H39.5556V442.66C39.5556 441.895 39.3643 441.311 38.9816 440.91C38.6083 440.499 38.0996 440.294 37.4556 440.294C36.7929 440.294 36.2656 440.509 35.8736 440.938C35.4816 441.358 35.2856 441.969 35.2856 442.772V447H34.0116V439.328H35.2856V440.434C35.5376 440.033 35.8736 439.725 36.2936 439.51C36.7229 439.295 37.1943 439.188 37.7076 439.188C38.3516 439.188 38.9209 439.333 39.4156 439.622C39.9103 439.911 40.2789 440.336 40.5216 440.896C40.7363 440.355 41.0909 439.935 41.5856 439.636C42.0803 439.337 42.6309 439.188 43.2376 439.188ZM55.4354 442.87C55.4354 443.113 55.4214 443.369 55.3934 443.64H49.2614C49.3081 444.396 49.5648 444.989 50.0314 445.418C50.5074 445.838 51.0814 446.048 51.7534 446.048C52.3041 446.048 52.7614 445.922 53.1254 445.67C53.4988 445.409 53.7601 445.063 53.9094 444.634H55.2814C55.0761 445.371 54.6654 445.973 54.0494 446.44C53.4334 446.897 52.6681 447.126 51.7534 447.126C51.0254 447.126 50.3721 446.963 49.7934 446.636C49.2241 446.309 48.7761 445.847 48.4494 445.25C48.1228 444.643 47.9594 443.943 47.9594 443.15C47.9594 442.357 48.1181 441.661 48.4354 441.064C48.7528 440.467 49.1961 440.009 49.7654 439.692C50.3441 439.365 51.0068 439.202 51.7534 439.202C52.4814 439.202 53.1254 439.361 53.6854 439.678C54.2454 439.995 54.6748 440.434 54.9734 440.994C55.2814 441.545 55.4354 442.17 55.4354 442.87ZM54.1194 442.604C54.1194 442.119 54.0121 441.703 53.7974 441.358C53.5828 441.003 53.2888 440.737 52.9154 440.56C52.5514 440.373 52.1454 440.28 51.6974 440.28C51.0534 440.28 50.5028 440.485 50.0454 440.896C49.5974 441.307 49.3408 441.876 49.2754 442.604H54.1194ZM59.8331 447.126C59.2451 447.126 58.7177 447.028 58.2511 446.832C57.7844 446.627 57.4157 446.347 57.1451 445.992C56.8744 445.628 56.7251 445.213 56.6971 444.746H58.0131C58.0504 445.129 58.2277 445.441 58.5451 445.684C58.8717 445.927 59.2964 446.048 59.8191 446.048C60.3044 446.048 60.6871 445.941 60.9671 445.726C61.2471 445.511 61.3871 445.241 61.3871 444.914C61.3871 444.578 61.2377 444.331 60.9391 444.172C60.6404 444.004 60.1784 443.841 59.5531 443.682C58.9837 443.533 58.5171 443.383 58.1531 443.234C57.7984 443.075 57.4904 442.847 57.2291 442.548C56.9771 442.24 56.8511 441.839 56.8511 441.344C56.8511 440.952 56.9677 440.593 57.2011 440.266C57.4344 439.939 57.7657 439.683 58.1951 439.496C58.6244 439.3 59.1144 439.202 59.6651 439.202C60.5144 439.202 61.2004 439.417 61.7231 439.846C62.2457 440.275 62.5257 440.863 62.5631 441.61H61.2891C61.2611 441.209 61.0977 440.887 60.7991 440.644C60.5097 440.401 60.1177 440.28 59.6231 440.28C59.1657 440.28 58.8017 440.378 58.5311 440.574C58.2604 440.77 58.1251 441.027 58.1251 441.344C58.1251 441.596 58.2044 441.806 58.3631 441.974C58.5311 442.133 58.7364 442.263 58.9791 442.366C59.2311 442.459 59.5764 442.567 60.0151 442.688C60.5657 442.837 61.0137 442.987 61.3591 443.136C61.7044 443.276 61.9984 443.491 62.2411 443.78C62.4931 444.069 62.6237 444.447 62.6331 444.914C62.6331 445.334 62.5164 445.712 62.2831 446.048C62.0497 446.384 61.7184 446.65 61.2891 446.846C60.8691 447.033 60.3837 447.126 59.8331 447.126ZM64.8375 447.084C64.5948 447.084 64.3895 447 64.2215 446.832C64.0535 446.664 63.9695 446.459 63.9695 446.216C63.9695 445.973 64.0535 445.768 64.2215 445.6C64.3895 445.432 64.5948 445.348 64.8375 445.348C65.0708 445.348 65.2668 445.432 65.4255 445.6C65.5935 445.768 65.6775 445.973 65.6775 446.216C65.6775 446.459 65.5935 446.664 65.4255 446.832C65.2668 447 65.0708 447.084 64.8375 447.084ZM70.087 447.126C69.499 447.126 68.9716 447.028 68.505 446.832C68.0383 446.627 67.6696 446.347 67.399 445.992C67.1283 445.628 66.979 445.213 66.951 444.746H68.267C68.3043 445.129 68.4816 445.441 68.799 445.684C69.1256 445.927 69.5503 446.048 70.073 446.048C70.5583 446.048 70.941 445.941 71.221 445.726C71.501 445.511 71.641 445.241 71.641 444.914C71.641 444.578 71.4916 444.331 71.193 444.172C70.8943 444.004 70.4323 443.841 69.807 443.682C69.2376 443.533 68.771 443.383 68.407 443.234C68.0523 443.075 67.7443 442.847 67.483 442.548C67.231 442.24 67.105 441.839 67.105 441.344C67.105 440.952 67.2216 440.593 67.455 440.266C67.6883 439.939 68.0196 439.683 68.449 439.496C68.8783 439.3 69.3683 439.202 69.919 439.202C70.7683 439.202 71.4543 439.417 71.977 439.846C72.4996 440.275 72.7796 440.863 72.817 441.61H71.543C71.515 441.209 71.3516 440.887 71.053 440.644C70.7636 440.401 70.3716 440.28 69.877 440.28C69.4196 440.28 69.0556 440.378 68.785 440.574C68.5143 440.77 68.379 441.027 68.379 441.344C68.379 441.596 68.4583 441.806 68.617 441.974C68.785 442.133 68.9903 442.263 69.233 442.366C69.485 442.459 69.8303 442.567 70.269 442.688C70.8196 442.837 71.2676 442.987 71.613 443.136C71.9583 443.276 72.2523 443.491 72.495 443.78C72.747 444.069 72.8776 444.447 72.887 444.914C72.887 445.334 72.7703 445.712 72.537 446.048C72.3036 446.384 71.9723 446.65 71.543 446.846C71.123 447.033 70.6376 447.126 70.087 447.126ZM83.9114 439.188C84.5088 439.188 85.0408 439.314 85.5074 439.566C85.9741 439.809 86.3428 440.177 86.6134 440.672C86.8841 441.167 87.0194 441.769 87.0194 442.478V447H85.7594V442.66C85.7594 441.895 85.5681 441.311 85.1854 440.91C84.8121 440.499 84.3034 440.294 83.6594 440.294C82.9968 440.294 82.4694 440.509 82.0774 440.938C81.6854 441.358 81.4894 441.969 81.4894 442.772V447H80.2294V442.66C80.2294 441.895 80.0381 441.311 79.6554 440.91C79.2821 440.499 78.7734 440.294 78.1294 440.294C77.4668 440.294 76.9394 440.509 76.5474 440.938C76.1554 441.358 75.9594 441.969 75.9594 442.772V447H74.6854V439.328H75.9594V440.434C76.2114 440.033 76.5474 439.725 76.9674 439.51C77.3968 439.295 77.8681 439.188 78.3814 439.188C79.0254 439.188 79.5948 439.333 80.0894 439.622C80.5841 439.911 80.9528 440.336 81.1954 440.896C81.4101 440.355 81.7648 439.935 82.2594 439.636C82.7541 439.337 83.3048 439.188 83.9114 439.188ZM89.7673 438.082C89.5246 438.082 89.3193 437.998 89.1513 437.83C88.9833 437.662 88.8993 437.457 88.8993 437.214C88.8993 436.971 88.9833 436.766 89.1513 436.598C89.3193 436.43 89.5246 436.346 89.7673 436.346C90.0006 436.346 90.1966 436.43 90.3553 436.598C90.5233 436.766 90.6073 436.971 90.6073 437.214C90.6073 437.457 90.5233 437.662 90.3553 437.83C90.1966 437.998 90.0006 438.082 89.7673 438.082ZM90.3833 439.328V447H89.1093V439.328H90.3833ZM94.1086 440.378V444.9C94.1086 445.273 94.1879 445.539 94.3466 445.698C94.5052 445.847 94.7806 445.922 95.1726 445.922H96.1106V447H94.9626C94.2532 447 93.7212 446.837 93.3666 446.51C93.0119 446.183 92.8346 445.647 92.8346 444.9V440.378H91.8406V439.328H92.8346V437.396H94.1086V439.328H96.1106V440.378H94.1086ZM101.462 439.188C102.041 439.188 102.564 439.314 103.03 439.566C103.497 439.809 103.861 440.177 104.122 440.672C104.393 441.167 104.528 441.769 104.528 442.478V447H103.268V442.66C103.268 441.895 103.077 441.311 102.694 440.91C102.312 440.499 101.789 440.294 101.126 440.294C100.454 440.294 99.9175 440.504 99.5162 440.924C99.1242 441.344 98.9282 441.955 98.9282 442.758V447H97.6542V436.64H98.9282V440.42C99.1802 440.028 99.5255 439.725 99.9642 439.51C100.412 439.295 100.912 439.188 101.462 439.188ZM113.609 438.026C114.645 438.026 115.546 438.222 116.311 438.614C117.077 439.006 117.665 439.557 118.075 440.266C118.486 440.966 118.691 441.778 118.691 442.702C118.691 443.439 118.57 444.149 118.327 444.83C118.085 445.502 117.73 446.048 117.263 446.468C116.806 446.888 116.269 447.098 115.653 447.098C115.187 447.098 114.827 446.981 114.575 446.748C114.323 446.515 114.179 446.197 114.141 445.796C113.852 446.197 113.483 446.515 113.035 446.748C112.597 446.981 112.13 447.098 111.635 447.098C110.926 447.098 110.366 446.883 109.955 446.454C109.554 446.015 109.353 445.427 109.353 444.69C109.353 443.99 109.498 443.337 109.787 442.73C110.086 442.123 110.497 441.638 111.019 441.274C111.542 440.901 112.135 440.714 112.797 440.714C113.684 440.714 114.281 441.05 114.589 441.722L114.743 440.854H115.849L115.149 444.9C115.121 445.077 115.107 445.241 115.107 445.39C115.107 445.95 115.355 446.23 115.849 446.23C116.223 446.23 116.545 446.053 116.815 445.698C117.095 445.343 117.305 444.9 117.445 444.368C117.585 443.827 117.655 443.295 117.655 442.772C117.655 441.549 117.287 440.602 116.549 439.93C115.821 439.258 114.79 438.922 113.455 438.922C112.345 438.922 111.341 439.193 110.445 439.734C109.559 440.266 108.863 440.999 108.359 441.932C107.855 442.865 107.603 443.897 107.603 445.026C107.594 446.258 107.963 447.205 108.709 447.868C109.456 448.54 110.492 448.876 111.817 448.876C112.695 448.876 113.469 448.717 114.141 448.4L114.309 449.268C113.479 449.613 112.564 449.786 111.565 449.786C110.567 449.786 109.685 449.595 108.919 449.212C108.163 448.839 107.575 448.297 107.155 447.588C106.745 446.888 106.539 446.071 106.539 445.138C106.539 443.822 106.843 442.623 107.449 441.54C108.056 440.448 108.896 439.589 109.969 438.964C111.052 438.339 112.265 438.026 113.609 438.026ZM112.013 446.104C112.433 446.104 112.821 445.983 113.175 445.74C113.53 445.488 113.81 445.152 114.015 444.732C114.221 444.303 114.323 443.836 114.323 443.332C114.323 442.847 114.188 442.455 113.917 442.156C113.656 441.848 113.283 441.694 112.797 441.694C112.349 441.694 111.953 441.829 111.607 442.1C111.271 442.361 111.01 442.711 110.823 443.15C110.637 443.579 110.543 444.027 110.543 444.494C110.543 444.989 110.669 445.381 110.921 445.67C111.173 445.959 111.537 446.104 112.013 446.104ZM130.013 439.188C130.61 439.188 131.142 439.314 131.609 439.566C132.076 439.809 132.444 440.177 132.715 440.672C132.986 441.167 133.121 441.769 133.121 442.478V447H131.861V442.66C131.861 441.895 131.67 441.311 131.287 440.91C130.914 440.499 130.405 440.294 129.761 440.294C129.098 440.294 128.571 440.509 128.179 440.938C127.787 441.358 127.591 441.969 127.591 442.772V447H126.331V442.66C126.331 441.895 126.14 441.311 125.757 440.91C125.384 440.499 124.875 440.294 124.231 440.294C123.568 440.294 123.041 440.509 122.649 440.938C122.257 441.358 122.061 441.969 122.061 442.772V447H120.787V439.328H122.061V440.434C122.313 440.033 122.649 439.725 123.069 439.51C123.498 439.295 123.97 439.188 124.483 439.188C125.127 439.188 125.696 439.333 126.191 439.622C126.686 439.911 127.054 440.336 127.297 440.896C127.512 440.355 127.866 439.935 128.361 439.636C128.856 439.337 129.406 439.188 130.013 439.188ZM134.735 443.136C134.735 442.352 134.893 441.666 135.211 441.078C135.528 440.481 135.962 440.019 136.513 439.692C137.073 439.365 137.693 439.202 138.375 439.202C139.047 439.202 139.63 439.347 140.125 439.636C140.619 439.925 140.988 440.289 141.231 440.728V439.328H142.519V447H141.231V445.572C140.979 446.02 140.601 446.393 140.097 446.692C139.602 446.981 139.023 447.126 138.361 447.126C137.679 447.126 137.063 446.958 136.513 446.622C135.962 446.286 135.528 445.815 135.211 445.208C134.893 444.601 134.735 443.911 134.735 443.136ZM141.231 443.15C141.231 442.571 141.114 442.067 140.881 441.638C140.647 441.209 140.33 440.882 139.929 440.658C139.537 440.425 139.103 440.308 138.627 440.308C138.151 440.308 137.717 440.42 137.325 440.644C136.933 440.868 136.62 441.195 136.387 441.624C136.153 442.053 136.037 442.557 136.037 443.136C136.037 443.724 136.153 444.237 136.387 444.676C136.62 445.105 136.933 445.437 137.325 445.67C137.717 445.894 138.151 446.006 138.627 446.006C139.103 446.006 139.537 445.894 139.929 445.67C140.33 445.437 140.647 445.105 140.881 444.676C141.114 444.237 141.231 443.729 141.231 443.15ZM145.33 438.082C145.087 438.082 144.882 437.998 144.714 437.83C144.546 437.662 144.462 437.457 144.462 437.214C144.462 436.971 144.546 436.766 144.714 436.598C144.882 436.43 145.087 436.346 145.33 436.346C145.563 436.346 145.759 436.43 145.918 436.598C146.086 436.766 146.17 436.971 146.17 437.214C146.17 437.457 146.086 437.662 145.918 437.83C145.759 437.998 145.563 438.082 145.33 438.082ZM145.946 439.328V447H144.672V439.328H145.946ZM149.391 436.64V447H148.117V436.64H149.391ZM151.968 447.084C151.726 447.084 151.52 447 151.352 446.832C151.184 446.664 151.1 446.459 151.1 446.216C151.1 445.973 151.184 445.768 151.352 445.6C151.52 445.432 151.726 445.348 151.968 445.348C152.202 445.348 152.398 445.432 152.556 445.6C152.724 445.768 152.808 445.973 152.808 446.216C152.808 446.459 152.724 446.664 152.556 446.832C152.398 447 152.202 447.084 151.968 447.084ZM157.666 439.202C158.328 439.202 158.907 439.347 159.402 439.636C159.906 439.925 160.279 440.289 160.522 440.728V439.328H161.81V447.168C161.81 447.868 161.66 448.489 161.362 449.03C161.063 449.581 160.634 450.01 160.074 450.318C159.523 450.626 158.879 450.78 158.142 450.78C157.134 450.78 156.294 450.542 155.622 450.066C154.95 449.59 154.553 448.941 154.432 448.12H155.692C155.832 448.587 156.121 448.96 156.56 449.24C156.998 449.529 157.526 449.674 158.142 449.674C158.842 449.674 159.411 449.455 159.85 449.016C160.298 448.577 160.522 447.961 160.522 447.168V445.558C160.27 446.006 159.896 446.379 159.402 446.678C158.907 446.977 158.328 447.126 157.666 447.126C156.984 447.126 156.364 446.958 155.804 446.622C155.253 446.286 154.819 445.815 154.502 445.208C154.184 444.601 154.026 443.911 154.026 443.136C154.026 442.352 154.184 441.666 154.502 441.078C154.819 440.481 155.253 440.019 155.804 439.692C156.364 439.365 156.984 439.202 157.666 439.202ZM160.522 443.15C160.522 442.571 160.405 442.067 160.172 441.638C159.938 441.209 159.621 440.882 159.22 440.658C158.828 440.425 158.394 440.308 157.918 440.308C157.442 440.308 157.008 440.42 156.616 440.644C156.224 440.868 155.911 441.195 155.678 441.624C155.444 442.053 155.328 442.557 155.328 443.136C155.328 443.724 155.444 444.237 155.678 444.676C155.911 445.105 156.224 445.437 156.616 445.67C157.008 445.894 157.442 446.006 157.918 446.006C158.394 446.006 158.828 445.894 159.22 445.67C159.621 445.437 159.938 445.105 160.172 444.676C160.405 444.237 160.522 443.729 160.522 443.15ZM167.127 439.202C167.789 439.202 168.368 439.347 168.863 439.636C169.367 439.925 169.74 440.289 169.983 440.728V439.328H171.271V447.168C171.271 447.868 171.121 448.489 170.823 449.03C170.524 449.581 170.095 450.01 169.535 450.318C168.984 450.626 168.34 450.78 167.603 450.78C166.595 450.78 165.755 450.542 165.083 450.066C164.411 449.59 164.014 448.941 163.893 448.12H165.153C165.293 448.587 165.582 448.96 166.021 449.24C166.459 449.529 166.987 449.674 167.603 449.674C168.303 449.674 168.872 449.455 169.311 449.016C169.759 448.577 169.983 447.961 169.983 447.168V445.558C169.731 446.006 169.357 446.379 168.863 446.678C168.368 446.977 167.789 447.126 167.127 447.126C166.445 447.126 165.825 446.958 165.265 446.622C164.714 446.286 164.28 445.815 163.963 445.208C163.645 444.601 163.487 443.911 163.487 443.136C163.487 442.352 163.645 441.666 163.963 441.078C164.28 440.481 164.714 440.019 165.265 439.692C165.825 439.365 166.445 439.202 167.127 439.202ZM169.983 443.15C169.983 442.571 169.866 442.067 169.633 441.638C169.399 441.209 169.082 440.882 168.681 440.658C168.289 440.425 167.855 440.308 167.379 440.308C166.903 440.308 166.469 440.42 166.077 440.644C165.685 440.868 165.372 441.195 165.139 441.624C164.905 442.053 164.789 442.557 164.789 443.136C164.789 443.724 164.905 444.237 165.139 444.676C165.372 445.105 165.685 445.437 166.077 445.67C166.469 445.894 166.903 446.006 167.379 446.006C167.855 446.006 168.289 445.894 168.681 445.67C169.082 445.437 169.399 445.105 169.633 444.676C169.866 444.237 169.983 443.729 169.983 443.15Z" fill="#545974"/>
<path d="M25.418 508.62L25.922 509.53L23.976 510.342L25.936 511.14L25.404 512.078L23.71 510.846L23.934 512.96H22.884L23.094 510.846L21.4 512.092L20.854 511.14L22.8 510.328L20.854 509.544L21.372 508.606L23.108 509.852L22.884 507.724H23.948L23.71 509.852L25.418 508.62ZM32.2266 508.62L32.7306 509.53L30.7846 510.342L32.7446 511.14L32.2126 512.078L30.5186 510.846L30.7426 512.96H29.6926L29.9026 510.846L28.2086 512.092L27.6626 511.14L29.6086 510.328L27.6626 509.544L28.1806 508.606L29.9166 509.852L29.6926 507.724H30.7566L30.5186 509.852L32.2266 508.62ZM39.0352 508.62L39.5392 509.53L37.5932 510.342L39.5532 511.14L39.0212 512.078L37.3272 510.846L37.5512 512.96H36.5012L36.7112 510.846L35.0172 512.092L34.4712 511.14L36.4172 510.328L34.4712 509.544L34.9892 508.606L36.7252 509.852L36.5012 507.724H37.5652L37.3272 509.852L39.0352 508.62ZM45.8438 508.62L46.3478 509.53L44.4018 510.342L46.3618 511.14L45.8298 512.078L44.1358 510.846L44.3598 512.96H43.3098L43.5198 510.846L41.8258 512.092L41.2798 511.14L43.2258 510.328L41.2798 509.544L41.7978 508.606L43.5338 509.852L43.3098 507.724H44.3738L44.1358 509.852L45.8438 508.62ZM52.6524 508.62L53.1564 509.53L51.2104 510.342L53.1704 511.14L52.6384 512.078L50.9444 510.846L51.1684 512.96H50.1184L50.3284 510.846L48.6344 512.092L48.0884 511.14L50.0344 510.328L48.0884 509.544L48.6064 508.606L50.3424 509.852L50.1184 507.724H51.1824L50.9444 509.852L52.6524 508.62ZM59.461 508.62L59.965 509.53L58.019 510.342L59.979 511.14L59.447 512.078L57.753 510.846L57.977 512.96H56.927L57.137 510.846L55.443 512.092L54.897 511.14L56.843 510.328L54.897 509.544L55.415 508.606L57.151 509.852L56.927 507.724H57.991L57.753 509.852L59.461 508.62ZM66.2696 508.62L66.7736 509.53L64.8276 510.342L66.7876 511.14L66.2556 512.078L64.5616 510.846L64.7856 512.96H63.7356L63.9456 510.846L62.2516 512.092L61.7056 511.14L63.6516 510.328L61.7056 509.544L62.2236 508.606L63.9596 509.852L63.7356 507.724H64.7996L64.5616 509.852L66.2696 508.62ZM73.0782 508.62L73.5822 509.53L71.6362 510.342L73.5962 511.14L73.0642 512.078L71.3702 510.846L71.5942 512.96H70.5442L70.7542 510.846L69.0602 512.092L68.5142 511.14L70.4602 510.328L68.5142 509.544L69.0322 508.606L70.7682 509.852L70.5442 507.724H71.6082L71.3702 509.852L73.0782 508.62Z" fill="#545974"/>
<path d="M20.714 304.978C21.8993 304.026 22.828 303.247 23.5 302.64C24.172 302.024 24.7367 301.385 25.194 300.722C25.6607 300.05 25.894 299.392 25.894 298.748C25.894 298.141 25.7447 297.665 25.446 297.32C25.1567 296.965 24.6853 296.788 24.032 296.788C23.3973 296.788 22.9027 296.989 22.548 297.39C22.2027 297.782 22.016 298.309 21.988 298.972H20.756C20.7933 297.927 21.1107 297.119 21.708 296.55C22.3053 295.981 23.0753 295.696 24.018 295.696C24.9793 295.696 25.74 295.962 26.3 296.494C26.8693 297.026 27.154 297.759 27.154 298.692C27.154 299.467 26.9207 300.223 26.454 300.96C25.9967 301.688 25.474 302.332 24.886 302.892C24.298 303.443 23.5467 304.087 22.632 304.824H27.448V305.888H20.714V304.978ZM35.3747 296.984H30.4607V300.176C30.6754 299.877 30.9927 299.635 31.4127 299.448C31.8327 299.252 32.2854 299.154 32.7707 299.154C33.5454 299.154 34.1754 299.317 34.6607 299.644C35.1461 299.961 35.4914 300.377 35.6967 300.89C35.9114 301.394 36.0187 301.931 36.0187 302.5C36.0187 303.172 35.8927 303.774 35.6407 304.306C35.3887 304.838 35.0014 305.258 34.4787 305.566C33.9654 305.874 33.3261 306.028 32.5607 306.028C31.5807 306.028 30.7874 305.776 30.1807 305.272C29.5741 304.768 29.2054 304.096 29.0747 303.256H30.3207C30.4421 303.788 30.6987 304.203 31.0907 304.502C31.4827 304.801 31.9774 304.95 32.5747 304.95C33.3121 304.95 33.8674 304.731 34.2407 304.292C34.6141 303.844 34.8007 303.256 34.8007 302.528C34.8007 301.8 34.6141 301.24 34.2407 300.848C33.8674 300.447 33.3167 300.246 32.5887 300.246C32.0941 300.246 31.6601 300.367 31.2867 300.61C30.9227 300.843 30.6567 301.165 30.4887 301.576H29.2847V295.864H35.3747V296.984ZM51.5522 296.312V306H50.2782V298.776L47.0582 306H46.1622L42.9282 298.762V306H41.6542V296.312H43.0262L46.6102 304.32L50.1942 296.312H51.5522ZM53.2368 302.136C53.2368 301.352 53.3954 300.666 53.7128 300.078C54.0301 299.481 54.4641 299.019 55.0148 298.692C55.5748 298.365 56.1954 298.202 56.8768 298.202C57.5488 298.202 58.1321 298.347 58.6268 298.636C59.1214 298.925 59.4901 299.289 59.7328 299.728V298.328H61.0208V306H59.7328V304.572C59.4808 305.02 59.1028 305.393 58.5988 305.692C58.1041 305.981 57.5254 306.126 56.8628 306.126C56.1814 306.126 55.5654 305.958 55.0148 305.622C54.4641 305.286 54.0301 304.815 53.7128 304.208C53.3954 303.601 53.2368 302.911 53.2368 302.136ZM59.7328 302.15C59.7328 301.571 59.6161 301.067 59.3828 300.638C59.1494 300.209 58.8321 299.882 58.4308 299.658C58.0388 299.425 57.6048 299.308 57.1288 299.308C56.6528 299.308 56.2188 299.42 55.8268 299.644C55.4348 299.868 55.1221 300.195 54.8888 300.624C54.6554 301.053 54.5388 301.557 54.5388 302.136C54.5388 302.724 54.6554 303.237 54.8888 303.676C55.1221 304.105 55.4348 304.437 55.8268 304.67C56.2188 304.894 56.6528 305.006 57.1288 305.006C57.6048 305.006 58.0388 304.894 58.4308 304.67C58.8321 304.437 59.1494 304.105 59.3828 303.676C59.6161 303.237 59.7328 302.729 59.7328 302.15ZM69.7817 298.328L65.1617 309.612H63.8457L65.3577 305.916L62.2637 298.328H63.6777L66.0857 304.544L68.4657 298.328H69.7817ZM74.4308 304.978C75.6161 304.026 76.5448 303.247 77.2168 302.64C77.8888 302.024 78.4535 301.385 78.9108 300.722C79.3775 300.05 79.6108 299.392 79.6108 298.748C79.6108 298.141 79.4615 297.665 79.1628 297.32C78.8735 296.965 78.4021 296.788 77.7488 296.788C77.1141 296.788 76.6195 296.989 76.2648 297.39C75.9195 297.782 75.7328 298.309 75.7048 298.972H74.4728C74.5101 297.927 74.8275 297.119 75.4248 296.55C76.0221 295.981 76.7921 295.696 77.7348 295.696C78.6961 295.696 79.4568 295.962 80.0168 296.494C80.5861 297.026 80.8708 297.759 80.8708 298.692C80.8708 299.467 80.6375 300.223 80.1708 300.96C79.7135 301.688 79.1908 302.332 78.6028 302.892C78.0148 303.443 77.2635 304.087 76.3488 304.824H81.1648V305.888H74.4308V304.978ZM82.6375 300.834C82.6375 299.229 82.8989 297.978 83.4215 297.082C83.9442 296.177 84.8589 295.724 86.1655 295.724C87.4629 295.724 88.3729 296.177 88.8955 297.082C89.4182 297.978 89.6795 299.229 89.6795 300.834C89.6795 302.467 89.4182 303.737 88.8955 304.642C88.3729 305.547 87.4629 306 86.1655 306C84.8589 306 83.9442 305.547 83.4215 304.642C82.8989 303.737 82.6375 302.467 82.6375 300.834ZM88.4195 300.834C88.4195 300.022 88.3635 299.336 88.2515 298.776C88.1489 298.207 87.9295 297.749 87.5935 297.404C87.2669 297.059 86.7909 296.886 86.1655 296.886C85.5309 296.886 85.0455 297.059 84.7095 297.404C84.3829 297.749 84.1635 298.207 84.0515 298.776C83.9489 299.336 83.8975 300.022 83.8975 300.834C83.8975 301.674 83.9489 302.379 84.0515 302.948C84.1635 303.517 84.3829 303.975 84.7095 304.32C85.0455 304.665 85.5309 304.838 86.1655 304.838C86.7909 304.838 87.2669 304.665 87.5935 304.32C87.9295 303.975 88.1489 303.517 88.2515 302.948C88.3635 302.379 88.4195 301.674 88.4195 300.834ZM91.2745 304.978C92.4599 304.026 93.3885 303.247 94.0605 302.64C94.7325 302.024 95.2972 301.385 95.7545 300.722C96.2212 300.05 96.4545 299.392 96.4545 298.748C96.4545 298.141 96.3052 297.665 96.0065 297.32C95.7172 296.965 95.2459 296.788 94.5925 296.788C93.9579 296.788 93.4632 296.989 93.1085 297.39C92.7632 297.782 92.5765 298.309 92.5485 298.972H91.3165C91.3539 297.927 91.6712 297.119 92.2685 296.55C92.8659 295.981 93.6359 295.696 94.5785 295.696C95.5399 295.696 96.3005 295.962 96.8605 296.494C97.4299 297.026 97.7145 297.759 97.7145 298.692C97.7145 299.467 97.4812 300.223 97.0145 300.96C96.5572 301.688 96.0345 302.332 95.4465 302.892C94.8585 303.443 94.1072 304.087 93.1925 304.824H98.0085V305.888H91.2745V304.978ZM99.3273 304.978C100.513 304.026 101.441 303.247 102.113 302.64C102.785 302.024 103.35 301.385 103.807 300.722C104.274 300.05 104.507 299.392 104.507 298.748C104.507 298.141 104.358 297.665 104.059 297.32C103.77 296.965 103.299 296.788 102.645 296.788C102.011 296.788 101.516 296.989 101.161 297.39C100.816 297.782 100.629 298.309 100.601 298.972H99.3693C99.4066 297.927 99.7239 297.119 100.321 296.55C100.919 295.981 101.689 295.696 102.631 295.696C103.593 295.696 104.353 295.962 104.913 296.494C105.483 297.026 105.767 297.759 105.767 298.692C105.767 299.467 105.534 300.223 105.067 300.96C104.61 301.688 104.087 302.332 103.499 302.892C102.911 303.443 102.16 304.087 101.245 304.824H106.061V305.888H99.3273V304.978Z" fill="#545974"/>
<g clip-path="url(#clip3_110_702)">
<path d="M32.75 271.25H35.75C35.9489 271.25 36.1397 271.329 36.2803 271.47C36.421 271.61 36.5 271.801 36.5 272V284C36.5 284.199 36.421 284.39 36.2803 284.53C36.1397 284.671 35.9489 284.75 35.75 284.75H22.25C22.0511 284.75 21.8603 284.671 21.7197 284.53C21.579 284.39 21.5 284.199 21.5 284V272C21.5 271.801 21.579 271.61 21.7197 271.47C21.8603 271.329 22.0511 271.25 22.25 271.25H25.25V270.5C25.25 270.086 25.5858 269.75 26 269.75C26.4142 269.75 26.75 270.086 26.75 270.5V271.25H31.25V270.5C31.25 270.086 31.5858 269.75 32 269.75C32.4142 269.75 32.75 270.086 32.75 270.5V271.25ZM31.25 272.75H26.75V273.5C26.75 273.914 26.4142 274.25 26 274.25C25.5858 274.25 25.25 273.914 25.25 273.5V272.75H23.5C23.2239 272.75 23 272.974 23 273.25V275.75H35V273.25C35 272.974 34.7761 272.75 34.5 272.75H32.75V273.5C32.75 273.914 32.4142 274.25 32 274.25C31.5858 274.25 31.25 273.914 31.25 273.5V272.75ZM35 277.25H23V282.75C23 283.026 23.2239 283.25 23.5 283.25H34.5C34.7761 283.25 35 283.026 35 282.75V277.25Z" fill="#BABABA"/>
</g>
<g clip-path="url(#clip4_110_702)">
<path d="M33.5 487H35C35.1989 487 35.3897 487.079 35.5303 487.22C35.671 487.36 35.75 487.551 35.75 487.75V496.75C35.75 496.949 35.671 497.14 35.5303 497.28C35.3897 497.421 35.1989 497.5 35 497.5H23C22.8011 497.5 22.6103 497.421 22.4697 497.28C22.329 497.14 22.25 496.949 22.25 496.75V487.75C22.25 487.551 22.329 487.36 22.4697 487.22C22.6103 487.079 22.8011 487 23 487H24.5V486.25C24.5 485.057 24.9741 483.912 25.818 483.068C26.6619 482.224 27.8065 481.75 29 481.75C30.1935 481.75 31.3381 482.224 32.182 483.068C33.0259 483.912 33.5 485.057 33.5 486.25V487ZM24.25 488.5C23.9739 488.5 23.75 488.724 23.75 489V495.5C23.75 495.776 23.9739 496 24.25 496H33.75C34.0261 496 34.25 495.776 34.25 495.5V489C34.25 488.724 34.0261 488.5 33.75 488.5H24.25ZM28.25 492.25C28.25 491.836 28.5858 491.5 29 491.5C29.4142 491.5 29.75 491.836 29.75 492.25C29.75 492.664 29.4142 493 29 493C28.5858 493 28.25 492.664 28.25 492.25ZM25.25 492.25C25.25 491.836 25.5858 491.5 26 491.5C26.4142 491.5 26.75 491.836 26.75 492.25C26.75 492.664 26.4142 493 26 493C25.5858 493 25.25 492.664 25.25 492.25ZM31.25 492.25C31.25 491.836 31.5858 491.5 32 491.5C32.4142 491.5 32.75 491.836 32.75 492.25C32.75 492.664 32.4142 493 32 493C31.5858 493 31.25 492.664 31.25 492.25ZM32 487V486.25C32 485.454 31.6839 484.691 31.1213 484.129C30.5587 483.566 29.7956 483.25 29 483.25C28.2044 483.25 27.4413 483.566 26.8787 484.129C26.3161 484.691 26 485.454 26 486.25V487H32Z" fill="#BABABA"/>
</g>
<g clip-path="url(#clip5_110_702)">
<path d="M342.25 508.5V506.25C342.25 506.051 342.329 505.86 342.47 505.72C342.61 505.579 342.801 505.5 343 505.5H352C352.199 505.5 352.39 505.579 352.53 505.72C352.671 505.86 352.75 506.051 352.75 506.25V516.75C352.75 516.949 352.671 517.14 352.53 517.28C352.39 517.421 352.199 517.5 352 517.5H349.75V519.75C349.75 520.164 349.413 520.5 348.995 520.5H340.005C339.906 520.501 339.808 520.482 339.717 520.444C339.625 520.407 339.542 520.352 339.472 520.282C339.402 520.212 339.346 520.129 339.308 520.038C339.27 519.947 339.25 519.849 339.25 519.75L339.252 509.25C339.252 508.836 339.59 508.5 340.008 508.5H342.25ZM341.252 510C340.976 510 340.752 510.224 340.752 510.5L340.75 518.5C340.75 518.776 340.974 519 341.25 519H347.75C348.026 519 348.25 518.776 348.25 518.5V510.5C348.25 510.224 348.026 510 347.75 510H341.252ZM343.75 508.5H348.75C349.302 508.5 349.75 508.948 349.75 509.5V516H350.75C351.026 516 351.25 515.776 351.25 515.5V507.5C351.25 507.224 351.026 507 350.75 507H344.25C343.974 507 343.75 507.224 343.75 507.5V508.5Z" fill="#FF6464"/>
</g>
<g clip-path="url(#clip6_110_702)">
<path d="M308 506.25C312.044 506.25 315.408 509.16 316.114 513C315.409 516.84 312.044 519.75 308 519.75C303.956 519.75 300.591 516.84 299.886 513C300.591 509.16 303.956 506.25 308 506.25ZM308 518.25C309.53 518.25 311.014 517.73 312.21 516.776C313.405 515.823 314.242 514.491 314.583 513C314.241 511.51 313.404 510.18 312.208 509.228C311.012 508.275 309.529 507.756 308 507.756C306.471 507.756 304.988 508.275 303.792 509.228C302.596 510.18 301.759 511.51 301.417 513C301.758 514.491 302.594 515.823 303.79 516.776C304.986 517.73 306.47 518.25 308 518.25ZM308 516.375C307.105 516.375 306.246 516.019 305.614 515.386C304.981 514.754 304.625 513.895 304.625 513C304.625 512.105 304.981 511.246 305.614 510.614C306.246 509.981 307.105 509.625 308 509.625C308.895 509.625 309.754 509.981 310.386 510.614C311.019 511.246 311.375 512.105 311.375 513C311.375 513.895 311.019 514.754 310.386 515.386C309.754 516.019 308.895 516.375 308 516.375ZM308 514.875C308.497 514.875 308.974 514.677 309.326 514.326C309.677 513.974 309.875 513.497 309.875 513C309.875 512.503 309.677 512.026 309.326 511.674C308.974 511.323 308.497 511.125 308 511.125C307.503 511.125 307.026 511.323 306.674 511.674C306.323 512.026 306.125 512.503 306.125 513C306.125 513.497 306.323 513.974 306.674 514.326C307.026 514.677 307.503 514.875 308 514.875Z" fill="#FF6464"/>
</g>
<rect x="21" y="723" width="155" height="38" rx="9" stroke="#FF6464" stroke-width="2"/>
<path d="M81.5232 735.8H84.2112C85.0859 735.8 85.7419 736.035 86.1792 736.504C86.6165 736.973 86.8352 737.661 86.8352 738.568V744.232C86.8352 745.139 86.6165 745.827 86.1792 746.296C85.7419 746.765 85.0859 747 84.2112 747H81.5232V735.8ZM84.1792 745.4C84.4672 745.4 84.6859 745.315 84.8352 745.144C84.9952 744.973 85.0752 744.696 85.0752 744.312V738.488C85.0752 738.104 84.9952 737.827 84.8352 737.656C84.6859 737.485 84.4672 737.4 84.1792 737.4H83.2832V745.4H84.1792ZM88.0232 735.8H92.8232V737.4H89.7832V740.36H92.1992V741.96H89.7832V745.4H92.8232V747H88.0232V735.8ZM93.8357 735.8H95.5957V745.4H98.4917V747H93.8357V735.8ZM99.3357 735.8H104.136V737.4H101.096V740.36H103.512V741.96H101.096V745.4H104.136V747H99.3357V735.8ZM106.524 737.4H104.684V735.8H110.124V737.4H108.284V747H106.524V737.4ZM110.976 735.8H115.776V737.4H112.736V740.36H115.152V741.96H112.736V745.4H115.776V747H110.976V735.8Z" fill="#FF6464"/>
<rect x="198" y="722" width="157" height="40" rx="10" fill="#FF6464"/>
<path d="M261.513 747.16C260.66 747.16 260.009 746.92 259.561 746.44C259.113 745.949 258.889 745.251 258.889 744.344V735.8H260.649V744.472C260.649 744.856 260.724 745.133 260.873 745.304C261.033 745.475 261.257 745.56 261.545 745.56C261.833 745.56 262.052 745.475 262.201 745.304C262.361 745.133 262.441 744.856 262.441 744.472V735.8H264.137V744.344C264.137 745.251 263.913 745.949 263.465 746.44C263.017 746.92 262.366 747.16 261.513 747.16ZM265.39 735.8H267.982C268.857 735.8 269.513 736.035 269.95 736.504C270.388 736.973 270.606 737.661 270.606 738.568V739.672C270.606 740.579 270.388 741.267 269.95 741.736C269.513 742.205 268.857 742.44 267.982 742.44H267.15V747H265.39V735.8ZM267.982 740.84C268.27 740.84 268.484 740.76 268.622 740.6C268.772 740.44 268.846 740.168 268.846 739.784V738.456C268.846 738.072 268.772 737.8 268.622 737.64C268.484 737.48 268.27 737.4 267.982 737.4H267.15V740.84H267.982ZM271.562 735.8H274.25C275.125 735.8 275.781 736.035 276.218 736.504C276.656 736.973 276.874 737.661 276.874 738.568V744.232C276.874 745.139 276.656 745.827 276.218 746.296C275.781 746.765 275.125 747 274.25 747H271.562V735.8ZM274.218 745.4C274.506 745.4 274.725 745.315 274.874 745.144C275.034 744.973 275.114 744.696 275.114 744.312V738.488C275.114 738.104 275.034 737.827 274.874 737.656C274.725 737.485 274.506 737.4 274.218 737.4H273.322V745.4H274.218ZM279.391 735.8H281.775L283.599 747H281.839L281.519 744.776V744.808H279.519L279.199 747H277.567L279.391 735.8ZM281.311 743.288L280.527 737.752H280.495L279.727 743.288H281.311ZM285.095 737.4H283.255V735.8H288.695V737.4H286.855V747H285.095V737.4ZM289.547 735.8H294.347V737.4H291.307V740.36H293.723V741.96H291.307V745.4H294.347V747H289.547V735.8Z" fill="white"/>
<path d="M33.3035 26.8809C33.3035 25.7969 33.6697 24.9082 34.4021 24.2148C35.1395 23.5166 36.0818 23.1675 37.2293 23.1675C38.0008 23.1675 38.6844 23.3457 39.2801 23.7021C39.8758 24.0586 40.3519 24.5762 40.7083 25.2549C41.2063 26.1387 41.4554 27.252 41.4554 28.5947C41.4554 30.3721 41.077 31.7612 40.3201 32.7622C39.5633 33.7583 38.5135 34.2563 37.1707 34.2563C36.2039 34.2563 35.3812 33.9951 34.7024 33.4727C34.0237 32.9453 33.6062 32.2471 33.45 31.3779H35.3323C35.4544 31.7783 35.679 32.0957 36.0062 32.3301C36.3382 32.5596 36.7312 32.6743 37.1854 32.6743C37.9568 32.6743 38.5599 32.335 38.9944 31.6562C39.429 30.9727 39.6463 30.0254 39.6463 28.8145H39.5804H39.5437H39.5218C39.2728 29.3174 38.909 29.708 38.4305 29.9863C37.952 30.2598 37.4026 30.3965 36.7825 30.3965C35.7767 30.3965 34.9441 30.0645 34.285 29.4004C33.6307 28.7363 33.3035 27.8965 33.3035 26.8809ZM35.1565 26.8223C35.1565 27.4277 35.3519 27.9258 35.7425 28.3164C36.1331 28.7021 36.6312 28.895 37.2366 28.895C37.8421 28.895 38.3426 28.7021 38.7381 28.3164C39.1336 27.9307 39.3313 27.4424 39.3313 26.8516C39.3313 26.2559 39.1312 25.7554 38.7308 25.3501C38.3304 24.9448 37.8348 24.7422 37.2439 24.7422C36.6531 24.7422 36.1575 24.9424 35.7571 25.3428C35.3567 25.7383 35.1565 26.2314 35.1565 26.8223ZM43.3746 32.9966C43.3746 32.6597 43.4845 32.3838 43.7042 32.1689C43.9239 31.9492 44.2047 31.8394 44.5465 31.8394C44.8932 31.8394 45.1739 31.9492 45.3888 32.1689C45.6085 32.3838 45.7184 32.6597 45.7184 32.9966C45.7184 33.3286 45.6085 33.6045 45.3888 33.8242C45.1739 34.0439 44.8932 34.1538 44.5465 34.1538C44.2047 34.1538 43.9239 34.0439 43.7042 33.8242C43.4845 33.6045 43.3746 33.3286 43.3746 32.9966ZM43.3746 27.5107C43.3746 27.1738 43.4845 26.8979 43.7042 26.6831C43.9239 26.4634 44.2047 26.3535 44.5465 26.3535C44.8932 26.3535 45.1739 26.4634 45.3888 26.6831C45.6085 26.8979 45.7184 27.1738 45.7184 27.5107C45.7184 27.8428 45.6085 28.1187 45.3888 28.3384C45.1739 28.5532 44.8932 28.6606 44.5465 28.6606C44.2047 28.6606 43.9239 28.5532 43.7042 28.3384C43.4845 28.1187 43.3746 27.8428 43.3746 27.5107ZM47.4105 32.0298V30.3452C48.2699 28.7632 49.7055 26.4585 51.7172 23.4312H54.3832V30.4331H55.8114V32.0298H54.3832V34H52.5741V32.0298H47.4105ZM49.161 30.4771H52.6034V24.9692H52.5009C51.3583 26.6587 50.245 28.458 49.161 30.3672V30.4771ZM57.0861 27.1812V25.3647L59.8474 23.4312H61.7297V34H59.84V25.3354H59.7155L57.0861 27.1812Z" fill="#545974"/>
<rect opacity="0.35" x="336.833" y="21.8333" width="21" height="10.3333" rx="2.16667" stroke="#545974"/>
<path opacity="0.4" d="M359.333 25V29C360.138 28.6612 360.661 27.8731 360.661 27C360.661 26.1269 360.138 25.3388 359.333 25Z" fill="#545974"/>
<rect x="338.333" y="23.3333" width="18" height="7.33333" rx="1.33333" fill="#545974"/>
<path d="M321.448 29.7573C322.729 28.675 324.605 28.675 325.886 29.7573C325.95 29.8155 325.987 29.8981 325.989 29.9848C325.991 30.0714 325.956 30.1546 325.895 30.2153L323.89 32.2377C323.831 32.2971 323.751 32.3305 323.667 32.3305C323.583 32.3305 323.503 32.2971 323.444 32.2377L321.438 30.2153C321.377 30.1546 321.343 30.0712 321.345 29.9848C321.347 29.8981 321.384 29.8154 321.448 29.7573ZM318.772 27.06C321.532 24.4956 325.804 24.4957 328.563 27.06C328.626 27.1201 328.661 27.2029 328.662 27.2895C328.663 27.3758 328.629 27.4587 328.568 27.52L327.409 28.6908C327.29 28.8102 327.097 28.812 326.975 28.6957C326.069 27.876 324.889 27.4222 323.667 27.4223C322.446 27.4228 321.268 27.8767 320.362 28.6957C320.24 28.8121 320.046 28.8104 319.927 28.6908L318.769 27.52C318.707 27.4588 318.673 27.3759 318.674 27.2895C318.675 27.203 318.71 27.1201 318.772 27.06ZM316.097 24.3696C320.328 20.3175 327.004 20.3176 331.236 24.3696C331.298 24.4298 331.333 24.5122 331.333 24.5981C331.333 24.6838 331.3 24.7667 331.239 24.8276L330.079 25.9975C329.96 26.1176 329.765 26.1187 329.644 26.0004C328.031 24.469 325.892 23.6148 323.667 23.6147C321.442 23.6147 319.302 24.4688 317.689 26.0004C317.568 26.1188 317.374 26.1176 317.255 25.9975L316.094 24.8276C316.033 24.7667 316 24.6838 316 24.5981C316.001 24.5122 316.035 24.4297 316.097 24.3696Z" fill="#545974"/>
<path d="M296 28.3337C296.552 28.3337 297 28.7815 297 29.3337V31.3337C297 31.8859 296.552 32.3337 296 32.3337H295C294.448 32.3337 294 31.8859 294 31.3337V29.3337C294 28.7815 294.448 28.3337 295 28.3337H296ZM300.667 26.3337C301.219 26.3339 301.667 26.7816 301.667 27.3337V31.3337C301.667 31.8858 301.219 32.3336 300.667 32.3337H299.667C299.115 32.3337 298.667 31.8859 298.667 31.3337V27.3337C298.667 26.7815 299.115 26.3337 299.667 26.3337H300.667ZM305.333 23.9998C305.885 23.9998 306.333 24.4476 306.333 24.9998V31.3337C306.333 31.8859 305.885 32.3337 305.333 32.3337H304.333C303.781 32.3336 303.333 31.8858 303.333 31.3337V24.9998C303.333 24.4477 303.781 23.9999 304.333 23.9998H305.333ZM310 21.6667C310.552 21.6667 311 22.1145 311 22.6667V31.3337C311 31.8859 310.552 32.3337 310 32.3337H309C308.448 32.3337 308 31.8859 308 31.3337V22.6667C308 22.1145 308.448 21.6667 309 21.6667H310Z" fill="#545974"/>
<rect x="120" y="803" width="134" height="5" rx="2.5" fill="#545974"/>
<rect x="295" y="250" width="55" height="21" rx="5" fill="#F4F2F2"/>
<path d="M314.299 257.818L311.385 266H309.255L306.341 257.818H308.397L310.277 263.896H310.363L312.248 257.818H314.299ZM320.049 255.091V266H318.073V257.014H318.009L315.458 258.644V256.833L318.169 255.091H320.049Z" fill="#545974"/>
<path d="M338.5 265L333.737 256.75H343.263L338.5 265Z" fill="#FF6464"/>
<defs>
<clipPath id="clip0_110_702">
<rect width="24" height="24" fill="white" transform="translate(20 50)"/>
</clipPath>
<clipPath id="clip1_110_702">
<rect width="18" height="18" fill="white" transform="translate(20 339)"/>
</clipPath>
<clipPath id="clip2_110_702">
<rect width="18" height="18" fill="white" transform="translate(20 410)"/>
</clipPath>
<clipPath id="clip3_110_702">
<rect width="18" height="18" fill="white" transform="translate(20 269)"/>
</clipPath>
<clipPath id="clip4_110_702">
<rect width="18" height="18" fill="white" transform="translate(20 481)"/>
</clipPath>
<clipPath id="clip5_110_702">
<rect width="18" height="18" fill="white" transform="translate(337 504)"/>
</clipPath>
<clipPath id="clip6_110_702">
<rect width="18" height="18" fill="white" transform="translate(299 504)"/>
</clipPath>
</defs>
</svg>
