<svg width="375" height="812" viewBox="0 0 375 812" fill="none" xmlns="http://www.w3.org/2000/svg">
<rect width="375" height="812" fill="white"/>
<g clip-path="url(#clip0_22_298)">
<path d="M31.1816 61.6464C30.9863 61.8417 30.9863 62.1583 31.1816 62.3535L35.071 66.243C35.4615 66.6335 35.4615 67.2665 35.071 67.657C34.6805 68.0475 34.0475 68.0475 33.657 67.657L28.7071 62.7071C28.3166 62.3166 28.3166 61.6834 28.7071 61.2929L33.657 56.343C34.0475 55.9525 34.6805 55.9525 35.071 56.343C35.4615 56.7335 35.4615 57.3665 35.071 57.757L31.1816 61.6464Z" fill="#545974"/>
</g>
<path d="M22.6865 155.2H41.3105V161.6H29.7265V174.08H38.8145V180.48H29.7265V200H22.6865V155.2ZM48.064 155.2H57.6L64.896 200H57.856L56.576 191.104V191.232H48.576L47.296 200H40.768L48.064 155.2ZM55.744 185.152L52.608 163.008H52.48L49.408 185.152H55.744ZM78.1065 200.64C74.7358 200.64 72.1545 199.68 70.3625 197.76C68.6132 195.84 67.7385 193.131 67.7385 189.632V165.568C67.7385 162.069 68.6132 159.36 70.3625 157.44C72.1545 155.52 74.7358 154.56 78.1065 154.56C81.4772 154.56 84.0372 155.52 85.7865 157.44C87.5785 159.36 88.4745 162.069 88.4745 165.568V170.304H81.8185V165.12C81.8185 162.347 80.6452 160.96 78.2985 160.96C75.9518 160.96 74.7785 162.347 74.7785 165.12V190.144C74.7785 192.875 75.9518 194.24 78.2985 194.24C80.6452 194.24 81.8185 192.875 81.8185 190.144V183.296H88.4745V189.632C88.4745 193.131 87.5785 195.84 85.7865 197.76C84.0372 199.68 81.4772 200.64 78.1065 200.64ZM92.6865 155.2H111.887V161.6H99.7265V173.44H109.391V179.84H99.7265V193.6H111.887V200H92.6865V155.2ZM115.937 155.2H126.561C130.187 155.2 132.833 156.053 134.497 157.76C136.161 159.424 136.993 162.005 136.993 165.504V167.296C136.993 169.6 136.609 171.477 135.841 172.928C135.115 174.379 133.985 175.424 132.449 176.064V176.192C135.947 177.387 137.697 180.501 137.697 185.536V189.376C137.697 192.832 136.779 195.477 134.945 197.312C133.153 199.104 130.507 200 127.009 200H115.937V155.2ZM125.729 173.44C127.137 173.44 128.182 173.077 128.865 172.352C129.59 171.627 129.953 170.411 129.953 168.704V166.208C129.953 164.587 129.654 163.413 129.057 162.688C128.502 161.963 127.606 161.6 126.369 161.6H122.977V173.44H125.729ZM127.009 193.6C128.246 193.6 129.163 193.28 129.76 192.64C130.358 191.957 130.657 190.805 130.657 189.184V185.28C130.657 183.232 130.294 181.824 129.569 181.056C128.886 180.245 127.734 179.84 126.113 179.84H122.977V193.6H127.009ZM151.988 200.64C148.532 200.64 145.886 199.659 144.052 197.696C142.217 195.733 141.299 192.96 141.299 189.376V165.824C141.299 162.24 142.217 159.467 144.052 157.504C145.886 155.541 148.532 154.56 151.988 154.56C155.444 154.56 158.089 155.541 159.924 157.504C161.758 159.467 162.676 162.24 162.676 165.824V189.376C162.676 192.96 161.758 195.733 159.924 197.696C158.089 199.659 155.444 200.64 151.988 200.64ZM151.988 194.24C154.42 194.24 155.635 192.768 155.635 189.824V165.376C155.635 162.432 154.42 160.96 151.988 160.96C149.556 160.96 148.34 162.432 148.34 165.376V189.824C148.34 192.768 149.556 194.24 151.988 194.24ZM177.613 200.64C174.157 200.64 171.511 199.659 169.677 197.696C167.842 195.733 166.924 192.96 166.924 189.376V165.824C166.924 162.24 167.842 159.467 169.677 157.504C171.511 155.541 174.157 154.56 177.613 154.56C181.069 154.56 183.714 155.541 185.549 157.504C187.383 159.467 188.301 162.24 188.301 165.824V189.376C188.301 192.96 187.383 195.733 185.549 197.696C183.714 199.659 181.069 200.64 177.613 200.64ZM177.613 194.24C180.045 194.24 181.26 192.768 181.26 189.824V165.376C181.26 162.432 180.045 160.96 177.613 160.96C175.181 160.96 173.965 162.432 173.965 165.376V189.824C173.965 192.768 175.181 194.24 177.613 194.24ZM193.062 155.2H200.102V174.08L209.062 155.2H216.102L207.718 171.648L216.23 200H208.87L202.918 180.032L200.102 185.728V200H193.062V155.2Z" fill="#545974"/>
<g clip-path="url(#clip1_22_298)">
<path d="M33.773 349.591C33.4802 349.884 33.0054 349.884 32.7125 349.591C32.4197 349.298 32.4197 348.823 32.7125 348.53L33.2428 348C33.5213 347.721 33.7423 347.391 33.8931 347.027C34.0439 346.663 34.1215 346.273 34.1215 345.879C34.1215 345.485 34.0439 345.095 33.8931 344.731C33.7423 344.367 33.5213 344.036 33.2428 343.757C32.9642 343.479 32.6335 343.258 32.2695 343.107C31.9055 342.956 31.5154 342.879 31.1214 342.879C30.7274 342.879 30.3373 342.956 29.9733 343.107C29.6093 343.258 29.2786 343.479 29 343.757L28.4698 344.288C28.1769 344.58 27.7021 344.58 27.4093 344.288C27.1164 343.995 27.1164 343.52 27.4093 343.227L27.9395 342.697C28.7857 341.864 29.9267 341.4 31.1138 341.405C32.3009 341.409 33.438 341.883 34.2775 342.723C35.1169 343.562 35.5906 344.699 35.5954 345.886C35.6003 347.073 35.1358 348.214 34.3033 349.061L33.773 349.591ZM30.5908 351.713C30.8836 352.005 30.8836 352.48 30.5908 352.773L30.0605 353.303C29.6439 353.727 29.1476 354.063 28.6002 354.294C28.0527 354.525 27.4651 354.645 26.871 354.647C26.277 354.65 25.6884 354.534 25.1391 354.308C24.5898 354.082 24.0908 353.749 23.6707 353.329C23.2507 352.909 22.918 352.41 22.6918 351.861C22.4656 351.312 22.3503 350.723 22.3528 350.129C22.3552 349.535 22.4752 348.947 22.7059 348.4C22.9365 347.852 23.2733 347.356 23.6968 346.94L24.227 346.409C24.5199 346.116 24.9947 346.116 25.2875 346.409C25.5804 346.702 25.5804 347.177 25.2875 347.47L24.7573 348C24.4787 348.279 24.2577 348.609 24.1069 348.973C23.9562 349.337 23.8786 349.727 23.8786 350.121C23.8786 350.515 23.9562 350.905 24.1069 351.269C24.2577 351.633 24.4787 351.964 24.7573 352.243C25.0358 352.521 25.3666 352.742 25.7306 352.893C26.0945 353.044 26.4847 353.121 26.8786 353.121C27.2726 353.121 27.6627 353.044 28.0267 352.893C28.3907 352.742 28.7214 352.521 29 352.243L29.5303 351.713C29.8231 351.42 30.2979 351.42 30.5908 351.713ZM30.5904 345.348C30.8834 345.055 31.3586 345.055 31.6516 345.348C31.9447 345.641 31.9447 346.117 31.6516 346.41L27.4093 350.651C27.1164 350.944 26.6416 350.944 26.3486 350.651C26.0555 350.359 26.0554 349.883 26.3484 349.59L30.5904 345.348Z" fill="#BABABA"/>
</g>
<g clip-path="url(#clip2_22_298)">
<path d="M35 425.75C35 426.164 34.6642 426.5 34.25 426.5C33.8358 426.5 33.5 426.164 33.5 425.75V425C33.5 424.403 33.2629 423.831 32.841 423.409C32.419 422.987 31.8467 422.75 31.25 422.75H26.75C26.1533 422.75 25.581 422.987 25.159 423.409C24.7371 423.831 24.5 424.403 24.5 425V425.75C24.5 426.164 24.1642 426.5 23.75 426.5C23.3358 426.5 23 426.164 23 425.75V425C23 424.005 23.3951 423.052 24.0983 422.348C24.8016 421.645 25.7554 421.25 26.75 421.25H31.25C32.2446 421.25 33.1984 421.645 33.9017 422.348C34.6049 423.052 35 424.005 35 425V425.75ZM29 419.75C28.4091 419.75 27.8239 419.634 27.2779 419.407C26.732 419.181 26.2359 418.85 25.818 418.432C25.4002 418.014 25.0687 417.518 24.8425 416.972C24.6164 416.426 24.5 415.841 24.5 415.25C24.5 414.659 24.6164 414.074 24.8425 413.528C25.0687 412.982 25.4002 412.486 25.818 412.068C26.2359 411.65 26.732 411.319 27.2779 411.093C27.8239 410.866 28.4091 410.75 29 410.75C30.1935 410.75 31.3381 411.224 32.182 412.068C33.0259 412.912 33.5 414.057 33.5 415.25C33.5 416.443 33.0259 417.588 32.182 418.432C31.3381 419.276 30.1935 419.75 29 419.75ZM29 418.25C29.7956 418.25 30.5587 417.934 31.1213 417.371C31.6839 416.809 32 416.046 32 415.25C32 414.454 31.6839 413.691 31.1213 413.129C30.5587 412.566 29.7956 412.25 29 412.25C28.2044 412.25 27.4413 412.566 26.8787 413.129C26.3161 413.691 26 414.454 26 415.25C26 416.046 26.3161 416.809 26.8787 417.371C27.4413 417.934 28.2044 418.25 29 418.25Z" fill="#BABABA"/>
</g>
<path d="M31.298 398.328L28.904 406H27.588L25.74 399.91L23.892 406H22.576L20.168 398.328H21.47L23.234 404.768L25.138 398.328H26.44L28.302 404.782L30.038 398.328H31.298ZM42.7824 398.328L40.3884 406H39.0724L37.2244 399.91L35.3764 406H34.0604L31.6524 398.328H32.9544L34.7184 404.768L36.6224 398.328H37.9244L39.7864 404.782L41.5224 398.328H42.7824ZM54.2668 398.328L51.8728 406H50.5568L48.7088 399.91L46.8608 406H45.5448L43.1368 398.328H44.4388L46.2028 404.768L48.1068 398.328H49.4088L51.2708 404.782L53.0068 398.328H54.2668ZM55.9371 406.084C55.6945 406.084 55.4891 406 55.3211 405.832C55.1531 405.664 55.0691 405.459 55.0691 405.216C55.0691 404.973 55.1531 404.768 55.3211 404.6C55.4891 404.432 55.6945 404.348 55.9371 404.348C56.1705 404.348 56.3665 404.432 56.5251 404.6C56.6931 404.768 56.7771 404.973 56.7771 405.216C56.7771 405.459 56.6931 405.664 56.5251 405.832C56.3665 406 56.1705 406.084 55.9371 406.084ZM61.5926 399.378H59.9826V406H58.7086V399.378H57.7146V398.328H58.7086V397.782C58.7086 396.923 58.9279 396.298 59.3666 395.906C59.8146 395.505 60.5286 395.304 61.5086 395.304V396.368C60.9486 396.368 60.5519 396.48 60.3186 396.704C60.0946 396.919 59.9826 397.278 59.9826 397.782V398.328H61.5926V399.378ZM62.602 402.136C62.602 401.352 62.7607 400.666 63.078 400.078C63.3953 399.481 63.8293 399.019 64.38 398.692C64.94 398.365 65.5607 398.202 66.242 398.202C66.914 398.202 67.4973 398.347 67.992 398.636C68.4867 398.925 68.8553 399.289 69.098 399.728V398.328H70.386V406H69.098V404.572C68.846 405.02 68.468 405.393 67.964 405.692C67.4693 405.981 66.8907 406.126 66.228 406.126C65.5467 406.126 64.9307 405.958 64.38 405.622C63.8293 405.286 63.3953 404.815 63.078 404.208C62.7607 403.601 62.602 402.911 62.602 402.136ZM69.098 402.15C69.098 401.571 68.9813 401.067 68.748 400.638C68.5147 400.209 68.1973 399.882 67.796 399.658C67.404 399.425 66.97 399.308 66.494 399.308C66.018 399.308 65.584 399.42 65.192 399.644C64.8 399.868 64.4873 400.195 64.254 400.624C64.0207 401.053 63.904 401.557 63.904 402.136C63.904 402.724 64.0207 403.237 64.254 403.676C64.4873 404.105 64.8 404.437 65.192 404.67C65.584 404.894 66.018 405.006 66.494 405.006C66.97 405.006 67.404 404.894 67.796 404.67C68.1973 404.437 68.5147 404.105 68.748 403.676C68.9813 403.237 69.098 402.729 69.098 402.15ZM72.0629 402.15C72.0629 401.357 72.2216 400.666 72.5389 400.078C72.8563 399.481 73.2949 399.019 73.8549 398.692C74.4243 398.365 75.0729 398.202 75.8009 398.202C76.7436 398.202 77.5183 398.431 78.1249 398.888C78.7409 399.345 79.1469 399.98 79.3429 400.792H77.9709C77.8403 400.325 77.5836 399.957 77.2009 399.686C76.8276 399.415 76.3609 399.28 75.8009 399.28C75.0729 399.28 74.4849 399.532 74.0369 400.036C73.5889 400.531 73.3649 401.235 73.3649 402.15C73.3649 403.074 73.5889 403.788 74.0369 404.292C74.4849 404.796 75.0729 405.048 75.8009 405.048C76.3609 405.048 76.8276 404.917 77.2009 404.656C77.5743 404.395 77.8309 404.021 77.9709 403.536H79.3429C79.1376 404.32 78.7269 404.95 78.1109 405.426C77.4949 405.893 76.7249 406.126 75.8009 406.126C75.0729 406.126 74.4243 405.963 73.8549 405.636C73.2949 405.309 72.8563 404.847 72.5389 404.25C72.2216 403.653 72.0629 402.953 72.0629 402.15ZM88.0428 401.87C88.0428 402.113 88.0288 402.369 88.0008 402.64H81.8688C81.9155 403.396 82.1722 403.989 82.6388 404.418C83.1148 404.838 83.6888 405.048 84.3608 405.048C84.9115 405.048 85.3688 404.922 85.7328 404.67C86.1062 404.409 86.3675 404.063 86.5168 403.634H87.8888C87.6835 404.371 87.2728 404.973 86.6568 405.44C86.0408 405.897 85.2755 406.126 84.3608 406.126C83.6328 406.126 82.9795 405.963 82.4008 405.636C81.8315 405.309 81.3835 404.847 81.0568 404.25C80.7302 403.643 80.5668 402.943 80.5668 402.15C80.5668 401.357 80.7255 400.661 81.0428 400.064C81.3602 399.467 81.8035 399.009 82.3728 398.692C82.9515 398.365 83.6142 398.202 84.3608 398.202C85.0888 398.202 85.7328 398.361 86.2928 398.678C86.8528 398.995 87.2822 399.434 87.5808 399.994C87.8888 400.545 88.0428 401.17 88.0428 401.87ZM86.7268 401.604C86.7268 401.119 86.6195 400.703 86.4048 400.358C86.1902 400.003 85.8962 399.737 85.5228 399.56C85.1588 399.373 84.7528 399.28 84.3048 399.28C83.6608 399.28 83.1102 399.485 82.6528 399.896C82.2048 400.307 81.9482 400.876 81.8828 401.604H86.7268ZM90.9985 399.756C91.2598 399.299 91.6425 398.925 92.1465 398.636C92.6505 398.347 93.2245 398.202 93.8685 398.202C94.5592 398.202 95.1798 398.365 95.7305 398.692C96.2812 399.019 96.7152 399.481 97.0325 400.078C97.3498 400.666 97.5085 401.352 97.5085 402.136C97.5085 402.911 97.3498 403.601 97.0325 404.208C96.7152 404.815 96.2765 405.286 95.7165 405.622C95.1658 405.958 94.5498 406.126 93.8685 406.126C93.2058 406.126 92.6225 405.981 92.1185 405.692C91.6238 405.403 91.2505 405.034 90.9985 404.586V406H89.7245V395.64H90.9985V399.756ZM96.2065 402.136C96.2065 401.557 96.0898 401.053 95.8565 400.624C95.6232 400.195 95.3058 399.868 94.9045 399.644C94.5125 399.42 94.0785 399.308 93.6025 399.308C93.1358 399.308 92.7018 399.425 92.3005 399.658C91.9085 399.882 91.5912 400.213 91.3485 400.652C91.1152 401.081 90.9985 401.581 90.9985 402.15C90.9985 402.729 91.1152 403.237 91.3485 403.676C91.5912 404.105 91.9085 404.437 92.3005 404.67C92.7018 404.894 93.1358 405.006 93.6025 405.006C94.0785 405.006 94.5125 404.894 94.9045 404.67C95.3058 404.437 95.6232 404.105 95.8565 403.676C96.0898 403.237 96.2065 402.724 96.2065 402.136ZM102.531 406.126C101.813 406.126 101.159 405.963 100.571 405.636C99.9928 405.309 99.5354 404.847 99.1994 404.25C98.8728 403.643 98.7094 402.943 98.7094 402.15C98.7094 401.366 98.8774 400.675 99.2134 400.078C99.5588 399.471 100.025 399.009 100.613 398.692C101.201 398.365 101.859 398.202 102.587 398.202C103.315 398.202 103.973 398.365 104.561 398.692C105.149 399.009 105.611 399.467 105.947 400.064C106.293 400.661 106.465 401.357 106.465 402.15C106.465 402.943 106.288 403.643 105.933 404.25C105.588 404.847 105.117 405.309 104.519 405.636C103.922 405.963 103.259 406.126 102.531 406.126ZM102.531 405.006C102.989 405.006 103.418 404.899 103.819 404.684C104.221 404.469 104.543 404.147 104.785 403.718C105.037 403.289 105.163 402.766 105.163 402.15C105.163 401.534 105.042 401.011 104.799 400.582C104.557 400.153 104.239 399.835 103.847 399.63C103.455 399.415 103.031 399.308 102.573 399.308C102.107 399.308 101.677 399.415 101.285 399.63C100.903 399.835 100.595 400.153 100.361 400.582C100.128 401.011 100.011 401.534 100.011 402.15C100.011 402.775 100.123 403.303 100.347 403.732C100.581 404.161 100.889 404.483 101.271 404.698C101.654 404.903 102.074 405.006 102.531 405.006ZM111.487 406.126C110.768 406.126 110.115 405.963 109.527 405.636C108.948 405.309 108.491 404.847 108.155 404.25C107.828 403.643 107.665 402.943 107.665 402.15C107.665 401.366 107.833 400.675 108.169 400.078C108.514 399.471 108.981 399.009 109.569 398.692C110.157 398.365 110.815 398.202 111.543 398.202C112.271 398.202 112.929 398.365 113.517 398.692C114.105 399.009 114.567 399.467 114.903 400.064C115.248 400.661 115.421 401.357 115.421 402.15C115.421 402.943 115.243 403.643 114.889 404.25C114.543 404.847 114.072 405.309 113.475 405.636C112.877 405.963 112.215 406.126 111.487 406.126ZM111.487 405.006C111.944 405.006 112.373 404.899 112.775 404.684C113.176 404.469 113.498 404.147 113.741 403.718C113.993 403.289 114.119 402.766 114.119 402.15C114.119 401.534 113.997 401.011 113.755 400.582C113.512 400.153 113.195 399.835 112.803 399.63C112.411 399.415 111.986 399.308 111.529 399.308C111.062 399.308 110.633 399.415 110.241 399.63C109.858 399.835 109.55 400.153 109.317 400.582C109.083 401.011 108.967 401.534 108.967 402.15C108.967 402.775 109.079 403.303 109.303 403.732C109.536 404.161 109.844 404.483 110.227 404.698C110.609 404.903 111.029 405.006 111.487 405.006ZM121.38 406L118.37 402.612V406H117.096V395.64H118.37V401.73L121.324 398.328H123.102L119.49 402.15L123.116 406H121.38ZM124.707 406.084C124.464 406.084 124.259 406 124.091 405.832C123.923 405.664 123.839 405.459 123.839 405.216C123.839 404.973 123.923 404.768 124.091 404.6C124.259 404.432 124.464 404.348 124.707 404.348C124.94 404.348 125.136 404.432 125.295 404.6C125.463 404.768 125.547 404.973 125.547 405.216C125.547 405.459 125.463 405.664 125.295 405.832C125.136 406 124.94 406.084 124.707 406.084ZM126.764 402.15C126.764 401.357 126.923 400.666 127.24 400.078C127.557 399.481 127.996 399.019 128.556 398.692C129.125 398.365 129.774 398.202 130.502 398.202C131.445 398.202 132.219 398.431 132.826 398.888C133.442 399.345 133.848 399.98 134.044 400.792H132.672C132.541 400.325 132.285 399.957 131.902 399.686C131.529 399.415 131.062 399.28 130.502 399.28C129.774 399.28 129.186 399.532 128.738 400.036C128.29 400.531 128.066 401.235 128.066 402.15C128.066 403.074 128.29 403.788 128.738 404.292C129.186 404.796 129.774 405.048 130.502 405.048C131.062 405.048 131.529 404.917 131.902 404.656C132.275 404.395 132.532 404.021 132.672 403.536H134.044C133.839 404.32 133.428 404.95 132.812 405.426C132.196 405.893 131.426 406.126 130.502 406.126C129.774 406.126 129.125 405.963 128.556 405.636C127.996 405.309 127.557 404.847 127.24 404.25C126.923 403.653 126.764 402.953 126.764 402.15ZM139.09 406.126C138.371 406.126 137.718 405.963 137.13 405.636C136.551 405.309 136.094 404.847 135.758 404.25C135.431 403.643 135.268 402.943 135.268 402.15C135.268 401.366 135.436 400.675 135.772 400.078C136.117 399.471 136.584 399.009 137.172 398.692C137.76 398.365 138.418 398.202 139.146 398.202C139.874 398.202 140.532 398.365 141.12 398.692C141.708 399.009 142.17 399.467 142.506 400.064C142.851 400.661 143.024 401.357 143.024 402.15C143.024 402.943 142.847 403.643 142.492 404.25C142.147 404.847 141.675 405.309 141.078 405.636C140.481 405.963 139.818 406.126 139.09 406.126ZM139.09 405.006C139.547 405.006 139.977 404.899 140.378 404.684C140.779 404.469 141.101 404.147 141.344 403.718C141.596 403.289 141.722 402.766 141.722 402.15C141.722 401.534 141.601 401.011 141.358 400.582C141.115 400.153 140.798 399.835 140.406 399.63C140.014 399.415 139.589 399.308 139.132 399.308C138.665 399.308 138.236 399.415 137.844 399.63C137.461 399.835 137.153 400.153 136.92 400.582C136.687 401.011 136.57 401.534 136.57 402.15C136.57 402.775 136.682 403.303 136.906 403.732C137.139 404.161 137.447 404.483 137.83 404.698C138.213 404.903 138.633 405.006 139.09 405.006ZM153.925 398.188C154.522 398.188 155.054 398.314 155.521 398.566C155.988 398.809 156.356 399.177 156.627 399.672C156.898 400.167 157.033 400.769 157.033 401.478V406H155.773V401.66C155.773 400.895 155.582 400.311 155.199 399.91C154.826 399.499 154.317 399.294 153.673 399.294C153.01 399.294 152.483 399.509 152.091 399.938C151.699 400.358 151.503 400.969 151.503 401.772V406H150.243V401.66C150.243 400.895 150.052 400.311 149.669 399.91C149.296 399.499 148.787 399.294 148.143 399.294C147.48 399.294 146.953 399.509 146.561 399.938C146.169 400.358 145.973 400.969 145.973 401.772V406H144.699V398.328H145.973V399.434C146.225 399.033 146.561 398.725 146.981 398.51C147.41 398.295 147.882 398.188 148.395 398.188C149.039 398.188 149.608 398.333 150.103 398.622C150.598 398.911 150.966 399.336 151.209 399.896C151.424 399.355 151.778 398.935 152.273 398.636C152.768 398.337 153.318 398.188 153.925 398.188Z" fill="#545974"/>
<path d="M21.764 468.082C21.5213 468.082 21.316 467.998 21.148 467.83C20.9893 467.662 20.91 467.457 20.91 467.214C20.91 466.971 20.9893 466.766 21.148 466.598C21.316 466.43 21.5213 466.346 21.764 466.346C22.0067 466.346 22.2073 466.43 22.366 466.598C22.534 466.766 22.618 466.971 22.618 467.214C22.618 467.457 22.534 467.662 22.366 467.83C22.2073 467.998 22.0067 468.082 21.764 468.082ZM22.394 478.666C22.394 479.347 22.2213 479.847 21.876 480.164C21.5307 480.481 21.0267 480.64 20.364 480.64H19.622V479.562H20.154C20.5087 479.562 20.756 479.492 20.896 479.352C21.0453 479.212 21.12 478.974 21.12 478.638V469.328H22.394V478.666ZM24.0747 473.136C24.0747 472.352 24.2333 471.666 24.5507 471.078C24.868 470.481 25.302 470.019 25.8527 469.692C26.4127 469.365 27.0333 469.202 27.7147 469.202C28.3867 469.202 28.97 469.347 29.4647 469.636C29.9593 469.925 30.328 470.289 30.5707 470.728V469.328H31.8587V477H30.5707V475.572C30.3187 476.02 29.9407 476.393 29.4367 476.692C28.942 476.981 28.3633 477.126 27.7007 477.126C27.0193 477.126 26.4033 476.958 25.8527 476.622C25.302 476.286 24.868 475.815 24.5507 475.208C24.2333 474.601 24.0747 473.911 24.0747 473.136ZM30.5707 473.15C30.5707 472.571 30.454 472.067 30.2207 471.638C29.9873 471.209 29.67 470.882 29.2687 470.658C28.8767 470.425 28.4427 470.308 27.9667 470.308C27.4907 470.308 27.0567 470.42 26.6647 470.644C26.2727 470.868 25.96 471.195 25.7267 471.624C25.4933 472.053 25.3767 472.557 25.3767 473.136C25.3767 473.724 25.4933 474.237 25.7267 474.676C25.96 475.105 26.2727 475.437 26.6647 475.67C27.0567 475.894 27.4907 476.006 27.9667 476.006C28.4427 476.006 28.8767 475.894 29.2687 475.67C29.67 475.437 29.9873 475.105 30.2207 474.676C30.454 474.237 30.5707 473.729 30.5707 473.15ZM43.2376 469.188C43.8349 469.188 44.3669 469.314 44.8336 469.566C45.3003 469.809 45.6689 470.177 45.9396 470.672C46.2103 471.167 46.3456 471.769 46.3456 472.478V477H45.0856V472.66C45.0856 471.895 44.8943 471.311 44.5116 470.91C44.1383 470.499 43.6296 470.294 42.9856 470.294C42.3229 470.294 41.7956 470.509 41.4036 470.938C41.0116 471.358 40.8156 471.969 40.8156 472.772V477H39.5556V472.66C39.5556 471.895 39.3643 471.311 38.9816 470.91C38.6083 470.499 38.0996 470.294 37.4556 470.294C36.7929 470.294 36.2656 470.509 35.8736 470.938C35.4816 471.358 35.2856 471.969 35.2856 472.772V477H34.0116V469.328H35.2856V470.434C35.5376 470.033 35.8736 469.725 36.2936 469.51C36.7229 469.295 37.1943 469.188 37.7076 469.188C38.3516 469.188 38.9209 469.333 39.4156 469.622C39.9103 469.911 40.2789 470.336 40.5216 470.896C40.7363 470.355 41.0909 469.935 41.5856 469.636C42.0803 469.337 42.6309 469.188 43.2376 469.188ZM55.4354 472.87C55.4354 473.113 55.4214 473.369 55.3934 473.64H49.2614C49.3081 474.396 49.5648 474.989 50.0314 475.418C50.5074 475.838 51.0814 476.048 51.7534 476.048C52.3041 476.048 52.7614 475.922 53.1254 475.67C53.4988 475.409 53.7601 475.063 53.9094 474.634H55.2814C55.0761 475.371 54.6654 475.973 54.0494 476.44C53.4334 476.897 52.6681 477.126 51.7534 477.126C51.0254 477.126 50.3721 476.963 49.7934 476.636C49.2241 476.309 48.7761 475.847 48.4494 475.25C48.1228 474.643 47.9594 473.943 47.9594 473.15C47.9594 472.357 48.1181 471.661 48.4354 471.064C48.7528 470.467 49.1961 470.009 49.7654 469.692C50.3441 469.365 51.0068 469.202 51.7534 469.202C52.4814 469.202 53.1254 469.361 53.6854 469.678C54.2454 469.995 54.6748 470.434 54.9734 470.994C55.2814 471.545 55.4354 472.17 55.4354 472.87ZM54.1194 472.604C54.1194 472.119 54.0121 471.703 53.7974 471.358C53.5828 471.003 53.2888 470.737 52.9154 470.56C52.5514 470.373 52.1454 470.28 51.6974 470.28C51.0534 470.28 50.5028 470.485 50.0454 470.896C49.5974 471.307 49.3408 471.876 49.2754 472.604H54.1194ZM59.8331 477.126C59.2451 477.126 58.7177 477.028 58.2511 476.832C57.7844 476.627 57.4157 476.347 57.1451 475.992C56.8744 475.628 56.7251 475.213 56.6971 474.746H58.0131C58.0504 475.129 58.2277 475.441 58.5451 475.684C58.8717 475.927 59.2964 476.048 59.8191 476.048C60.3044 476.048 60.6871 475.941 60.9671 475.726C61.2471 475.511 61.3871 475.241 61.3871 474.914C61.3871 474.578 61.2377 474.331 60.9391 474.172C60.6404 474.004 60.1784 473.841 59.5531 473.682C58.9837 473.533 58.5171 473.383 58.1531 473.234C57.7984 473.075 57.4904 472.847 57.2291 472.548C56.9771 472.24 56.8511 471.839 56.8511 471.344C56.8511 470.952 56.9677 470.593 57.2011 470.266C57.4344 469.939 57.7657 469.683 58.1951 469.496C58.6244 469.3 59.1144 469.202 59.6651 469.202C60.5144 469.202 61.2004 469.417 61.7231 469.846C62.2457 470.275 62.5257 470.863 62.5631 471.61H61.2891C61.2611 471.209 61.0977 470.887 60.7991 470.644C60.5097 470.401 60.1177 470.28 59.6231 470.28C59.1657 470.28 58.8017 470.378 58.5311 470.574C58.2604 470.77 58.1251 471.027 58.1251 471.344C58.1251 471.596 58.2044 471.806 58.3631 471.974C58.5311 472.133 58.7364 472.263 58.9791 472.366C59.2311 472.459 59.5764 472.567 60.0151 472.688C60.5657 472.837 61.0137 472.987 61.3591 473.136C61.7044 473.276 61.9984 473.491 62.2411 473.78C62.4931 474.069 62.6237 474.447 62.6331 474.914C62.6331 475.334 62.5164 475.712 62.2831 476.048C62.0497 476.384 61.7184 476.65 61.2891 476.846C60.8691 477.033 60.3837 477.126 59.8331 477.126ZM64.8375 477.084C64.5948 477.084 64.3895 477 64.2215 476.832C64.0535 476.664 63.9695 476.459 63.9695 476.216C63.9695 475.973 64.0535 475.768 64.2215 475.6C64.3895 475.432 64.5948 475.348 64.8375 475.348C65.0708 475.348 65.2668 475.432 65.4255 475.6C65.5935 475.768 65.6775 475.973 65.6775 476.216C65.6775 476.459 65.5935 476.664 65.4255 476.832C65.2668 477 65.0708 477.084 64.8375 477.084ZM70.087 477.126C69.499 477.126 68.9716 477.028 68.505 476.832C68.0383 476.627 67.6696 476.347 67.399 475.992C67.1283 475.628 66.979 475.213 66.951 474.746H68.267C68.3043 475.129 68.4816 475.441 68.799 475.684C69.1256 475.927 69.5503 476.048 70.073 476.048C70.5583 476.048 70.941 475.941 71.221 475.726C71.501 475.511 71.641 475.241 71.641 474.914C71.641 474.578 71.4916 474.331 71.193 474.172C70.8943 474.004 70.4323 473.841 69.807 473.682C69.2376 473.533 68.771 473.383 68.407 473.234C68.0523 473.075 67.7443 472.847 67.483 472.548C67.231 472.24 67.105 471.839 67.105 471.344C67.105 470.952 67.2216 470.593 67.455 470.266C67.6883 469.939 68.0196 469.683 68.449 469.496C68.8783 469.3 69.3683 469.202 69.919 469.202C70.7683 469.202 71.4543 469.417 71.977 469.846C72.4996 470.275 72.7796 470.863 72.817 471.61H71.543C71.515 471.209 71.3516 470.887 71.053 470.644C70.7636 470.401 70.3716 470.28 69.877 470.28C69.4196 470.28 69.0556 470.378 68.785 470.574C68.5143 470.77 68.379 471.027 68.379 471.344C68.379 471.596 68.4583 471.806 68.617 471.974C68.785 472.133 68.9903 472.263 69.233 472.366C69.485 472.459 69.8303 472.567 70.269 472.688C70.8196 472.837 71.2676 472.987 71.613 473.136C71.9583 473.276 72.2523 473.491 72.495 473.78C72.747 474.069 72.8776 474.447 72.887 474.914C72.887 475.334 72.7703 475.712 72.537 476.048C72.3036 476.384 71.9723 476.65 71.543 476.846C71.123 477.033 70.6376 477.126 70.087 477.126ZM83.9114 469.188C84.5088 469.188 85.0408 469.314 85.5074 469.566C85.9741 469.809 86.3428 470.177 86.6134 470.672C86.8841 471.167 87.0194 471.769 87.0194 472.478V477H85.7594V472.66C85.7594 471.895 85.5681 471.311 85.1854 470.91C84.8121 470.499 84.3034 470.294 83.6594 470.294C82.9968 470.294 82.4694 470.509 82.0774 470.938C81.6854 471.358 81.4894 471.969 81.4894 472.772V477H80.2294V472.66C80.2294 471.895 80.0381 471.311 79.6554 470.91C79.2821 470.499 78.7734 470.294 78.1294 470.294C77.4668 470.294 76.9394 470.509 76.5474 470.938C76.1554 471.358 75.9594 471.969 75.9594 472.772V477H74.6854V469.328H75.9594V470.434C76.2114 470.033 76.5474 469.725 76.9674 469.51C77.3968 469.295 77.8681 469.188 78.3814 469.188C79.0254 469.188 79.5948 469.333 80.0894 469.622C80.5841 469.911 80.9528 470.336 81.1954 470.896C81.4101 470.355 81.7648 469.935 82.2594 469.636C82.7541 469.337 83.3048 469.188 83.9114 469.188ZM89.7673 468.082C89.5246 468.082 89.3193 467.998 89.1513 467.83C88.9833 467.662 88.8993 467.457 88.8993 467.214C88.8993 466.971 88.9833 466.766 89.1513 466.598C89.3193 466.43 89.5246 466.346 89.7673 466.346C90.0006 466.346 90.1966 466.43 90.3553 466.598C90.5233 466.766 90.6073 466.971 90.6073 467.214C90.6073 467.457 90.5233 467.662 90.3553 467.83C90.1966 467.998 90.0006 468.082 89.7673 468.082ZM90.3833 469.328V477H89.1093V469.328H90.3833ZM94.1086 470.378V474.9C94.1086 475.273 94.1879 475.539 94.3466 475.698C94.5052 475.847 94.7806 475.922 95.1726 475.922H96.1106V477H94.9626C94.2532 477 93.7212 476.837 93.3666 476.51C93.0119 476.183 92.8346 475.647 92.8346 474.9V470.378H91.8406V469.328H92.8346V467.396H94.1086V469.328H96.1106V470.378H94.1086ZM101.462 469.188C102.041 469.188 102.564 469.314 103.03 469.566C103.497 469.809 103.861 470.177 104.122 470.672C104.393 471.167 104.528 471.769 104.528 472.478V477H103.268V472.66C103.268 471.895 103.077 471.311 102.694 470.91C102.312 470.499 101.789 470.294 101.126 470.294C100.454 470.294 99.9175 470.504 99.5162 470.924C99.1242 471.344 98.9282 471.955 98.9282 472.758V477H97.6542V466.64H98.9282V470.42C99.1802 470.028 99.5255 469.725 99.9642 469.51C100.412 469.295 100.912 469.188 101.462 469.188ZM113.609 468.026C114.645 468.026 115.546 468.222 116.311 468.614C117.077 469.006 117.665 469.557 118.075 470.266C118.486 470.966 118.691 471.778 118.691 472.702C118.691 473.439 118.57 474.149 118.327 474.83C118.085 475.502 117.73 476.048 117.263 476.468C116.806 476.888 116.269 477.098 115.653 477.098C115.187 477.098 114.827 476.981 114.575 476.748C114.323 476.515 114.179 476.197 114.141 475.796C113.852 476.197 113.483 476.515 113.035 476.748C112.597 476.981 112.13 477.098 111.635 477.098C110.926 477.098 110.366 476.883 109.955 476.454C109.554 476.015 109.353 475.427 109.353 474.69C109.353 473.99 109.498 473.337 109.787 472.73C110.086 472.123 110.497 471.638 111.019 471.274C111.542 470.901 112.135 470.714 112.797 470.714C113.684 470.714 114.281 471.05 114.589 471.722L114.743 470.854H115.849L115.149 474.9C115.121 475.077 115.107 475.241 115.107 475.39C115.107 475.95 115.355 476.23 115.849 476.23C116.223 476.23 116.545 476.053 116.815 475.698C117.095 475.343 117.305 474.9 117.445 474.368C117.585 473.827 117.655 473.295 117.655 472.772C117.655 471.549 117.287 470.602 116.549 469.93C115.821 469.258 114.79 468.922 113.455 468.922C112.345 468.922 111.341 469.193 110.445 469.734C109.559 470.266 108.863 470.999 108.359 471.932C107.855 472.865 107.603 473.897 107.603 475.026C107.594 476.258 107.963 477.205 108.709 477.868C109.456 478.54 110.492 478.876 111.817 478.876C112.695 478.876 113.469 478.717 114.141 478.4L114.309 479.268C113.479 479.613 112.564 479.786 111.565 479.786C110.567 479.786 109.685 479.595 108.919 479.212C108.163 478.839 107.575 478.297 107.155 477.588C106.745 476.888 106.539 476.071 106.539 475.138C106.539 473.822 106.843 472.623 107.449 471.54C108.056 470.448 108.896 469.589 109.969 468.964C111.052 468.339 112.265 468.026 113.609 468.026ZM112.013 476.104C112.433 476.104 112.821 475.983 113.175 475.74C113.53 475.488 113.81 475.152 114.015 474.732C114.221 474.303 114.323 473.836 114.323 473.332C114.323 472.847 114.188 472.455 113.917 472.156C113.656 471.848 113.283 471.694 112.797 471.694C112.349 471.694 111.953 471.829 111.607 472.1C111.271 472.361 111.01 472.711 110.823 473.15C110.637 473.579 110.543 474.027 110.543 474.494C110.543 474.989 110.669 475.381 110.921 475.67C111.173 475.959 111.537 476.104 112.013 476.104ZM130.013 469.188C130.61 469.188 131.142 469.314 131.609 469.566C132.076 469.809 132.444 470.177 132.715 470.672C132.986 471.167 133.121 471.769 133.121 472.478V477H131.861V472.66C131.861 471.895 131.67 471.311 131.287 470.91C130.914 470.499 130.405 470.294 129.761 470.294C129.098 470.294 128.571 470.509 128.179 470.938C127.787 471.358 127.591 471.969 127.591 472.772V477H126.331V472.66C126.331 471.895 126.14 471.311 125.757 470.91C125.384 470.499 124.875 470.294 124.231 470.294C123.568 470.294 123.041 470.509 122.649 470.938C122.257 471.358 122.061 471.969 122.061 472.772V477H120.787V469.328H122.061V470.434C122.313 470.033 122.649 469.725 123.069 469.51C123.498 469.295 123.97 469.188 124.483 469.188C125.127 469.188 125.696 469.333 126.191 469.622C126.686 469.911 127.054 470.336 127.297 470.896C127.512 470.355 127.866 469.935 128.361 469.636C128.856 469.337 129.406 469.188 130.013 469.188ZM134.735 473.136C134.735 472.352 134.893 471.666 135.211 471.078C135.528 470.481 135.962 470.019 136.513 469.692C137.073 469.365 137.693 469.202 138.375 469.202C139.047 469.202 139.63 469.347 140.125 469.636C140.619 469.925 140.988 470.289 141.231 470.728V469.328H142.519V477H141.231V475.572C140.979 476.02 140.601 476.393 140.097 476.692C139.602 476.981 139.023 477.126 138.361 477.126C137.679 477.126 137.063 476.958 136.513 476.622C135.962 476.286 135.528 475.815 135.211 475.208C134.893 474.601 134.735 473.911 134.735 473.136ZM141.231 473.15C141.231 472.571 141.114 472.067 140.881 471.638C140.647 471.209 140.33 470.882 139.929 470.658C139.537 470.425 139.103 470.308 138.627 470.308C138.151 470.308 137.717 470.42 137.325 470.644C136.933 470.868 136.62 471.195 136.387 471.624C136.153 472.053 136.037 472.557 136.037 473.136C136.037 473.724 136.153 474.237 136.387 474.676C136.62 475.105 136.933 475.437 137.325 475.67C137.717 475.894 138.151 476.006 138.627 476.006C139.103 476.006 139.537 475.894 139.929 475.67C140.33 475.437 140.647 475.105 140.881 474.676C141.114 474.237 141.231 473.729 141.231 473.15ZM145.33 468.082C145.087 468.082 144.882 467.998 144.714 467.83C144.546 467.662 144.462 467.457 144.462 467.214C144.462 466.971 144.546 466.766 144.714 466.598C144.882 466.43 145.087 466.346 145.33 466.346C145.563 466.346 145.759 466.43 145.918 466.598C146.086 466.766 146.17 466.971 146.17 467.214C146.17 467.457 146.086 467.662 145.918 467.83C145.759 467.998 145.563 468.082 145.33 468.082ZM145.946 469.328V477H144.672V469.328H145.946ZM149.391 466.64V477H148.117V466.64H149.391ZM151.968 477.084C151.726 477.084 151.52 477 151.352 476.832C151.184 476.664 151.1 476.459 151.1 476.216C151.1 475.973 151.184 475.768 151.352 475.6C151.52 475.432 151.726 475.348 151.968 475.348C152.202 475.348 152.398 475.432 152.556 475.6C152.724 475.768 152.808 475.973 152.808 476.216C152.808 476.459 152.724 476.664 152.556 476.832C152.398 477 152.202 477.084 151.968 477.084ZM157.666 469.202C158.328 469.202 158.907 469.347 159.402 469.636C159.906 469.925 160.279 470.289 160.522 470.728V469.328H161.81V477.168C161.81 477.868 161.66 478.489 161.362 479.03C161.063 479.581 160.634 480.01 160.074 480.318C159.523 480.626 158.879 480.78 158.142 480.78C157.134 480.78 156.294 480.542 155.622 480.066C154.95 479.59 154.553 478.941 154.432 478.12H155.692C155.832 478.587 156.121 478.96 156.56 479.24C156.998 479.529 157.526 479.674 158.142 479.674C158.842 479.674 159.411 479.455 159.85 479.016C160.298 478.577 160.522 477.961 160.522 477.168V475.558C160.27 476.006 159.896 476.379 159.402 476.678C158.907 476.977 158.328 477.126 157.666 477.126C156.984 477.126 156.364 476.958 155.804 476.622C155.253 476.286 154.819 475.815 154.502 475.208C154.184 474.601 154.026 473.911 154.026 473.136C154.026 472.352 154.184 471.666 154.502 471.078C154.819 470.481 155.253 470.019 155.804 469.692C156.364 469.365 156.984 469.202 157.666 469.202ZM160.522 473.15C160.522 472.571 160.405 472.067 160.172 471.638C159.938 471.209 159.621 470.882 159.22 470.658C158.828 470.425 158.394 470.308 157.918 470.308C157.442 470.308 157.008 470.42 156.616 470.644C156.224 470.868 155.911 471.195 155.678 471.624C155.444 472.053 155.328 472.557 155.328 473.136C155.328 473.724 155.444 474.237 155.678 474.676C155.911 475.105 156.224 475.437 156.616 475.67C157.008 475.894 157.442 476.006 157.918 476.006C158.394 476.006 158.828 475.894 159.22 475.67C159.621 475.437 159.938 475.105 160.172 474.676C160.405 474.237 160.522 473.729 160.522 473.15ZM167.127 469.202C167.789 469.202 168.368 469.347 168.863 469.636C169.367 469.925 169.74 470.289 169.983 470.728V469.328H171.271V477.168C171.271 477.868 171.121 478.489 170.823 479.03C170.524 479.581 170.095 480.01 169.535 480.318C168.984 480.626 168.34 480.78 167.603 480.78C166.595 480.78 165.755 480.542 165.083 480.066C164.411 479.59 164.014 478.941 163.893 478.12H165.153C165.293 478.587 165.582 478.96 166.021 479.24C166.459 479.529 166.987 479.674 167.603 479.674C168.303 479.674 168.872 479.455 169.311 479.016C169.759 478.577 169.983 477.961 169.983 477.168V475.558C169.731 476.006 169.357 476.379 168.863 476.678C168.368 476.977 167.789 477.126 167.127 477.126C166.445 477.126 165.825 476.958 165.265 476.622C164.714 476.286 164.28 475.815 163.963 475.208C163.645 474.601 163.487 473.911 163.487 473.136C163.487 472.352 163.645 471.666 163.963 471.078C164.28 470.481 164.714 470.019 165.265 469.692C165.825 469.365 166.445 469.202 167.127 469.202ZM169.983 473.15C169.983 472.571 169.866 472.067 169.633 471.638C169.399 471.209 169.082 470.882 168.681 470.658C168.289 470.425 167.855 470.308 167.379 470.308C166.903 470.308 166.469 470.42 166.077 470.644C165.685 470.868 165.372 471.195 165.139 471.624C164.905 472.053 164.789 472.557 164.789 473.136C164.789 473.724 164.905 474.237 165.139 474.676C165.372 475.105 165.685 475.437 166.077 475.67C166.469 475.894 166.903 476.006 167.379 476.006C167.855 476.006 168.289 475.894 168.681 475.67C169.082 475.437 169.399 475.105 169.633 474.676C169.866 474.237 169.983 473.729 169.983 473.15Z" fill="#545974"/>
<path d="M22.352 537.64V548H21.078V537.64H22.352ZM24.1593 546.978C25.3446 546.026 26.2733 545.247 26.9453 544.64C27.6173 544.024 28.182 543.385 28.6393 542.722C29.106 542.05 29.3393 541.392 29.3393 540.748C29.3393 540.141 29.19 539.665 28.8913 539.32C28.602 538.965 28.1306 538.788 27.4773 538.788C26.8426 538.788 26.348 538.989 25.9933 539.39C25.648 539.782 25.4613 540.309 25.4333 540.972H24.2013C24.2386 539.927 24.556 539.119 25.1533 538.55C25.7506 537.981 26.5206 537.696 27.4633 537.696C28.4246 537.696 29.1853 537.962 29.7453 538.494C30.3146 539.026 30.5993 539.759 30.5993 540.692C30.5993 541.467 30.366 542.223 29.8993 542.96C29.442 543.688 28.9193 544.332 28.3313 544.892C27.7433 545.443 26.992 546.087 26.0773 546.824H30.8933V547.888H24.1593V546.978ZM39.576 539.026C40.612 539.026 41.5127 539.222 42.278 539.614C43.0434 540.006 43.6314 540.557 44.042 541.266C44.4527 541.966 44.658 542.778 44.658 543.702C44.658 544.439 44.5367 545.149 44.294 545.83C44.0514 546.502 43.6967 547.048 43.23 547.468C42.7727 547.888 42.236 548.098 41.62 548.098C41.1534 548.098 40.794 547.981 40.542 547.748C40.29 547.515 40.1454 547.197 40.108 546.796C39.8187 547.197 39.45 547.515 39.002 547.748C38.5634 547.981 38.0967 548.098 37.602 548.098C36.8927 548.098 36.3327 547.883 35.922 547.454C35.5207 547.015 35.32 546.427 35.32 545.69C35.32 544.99 35.4647 544.337 35.754 543.73C36.0527 543.123 36.4634 542.638 36.986 542.274C37.5087 541.901 38.1014 541.714 38.764 541.714C39.6507 541.714 40.248 542.05 40.556 542.722L40.71 541.854H41.816L41.116 545.9C41.088 546.077 41.074 546.241 41.074 546.39C41.074 546.95 41.3214 547.23 41.816 547.23C42.1894 547.23 42.5114 547.053 42.782 546.698C43.062 546.343 43.272 545.9 43.412 545.368C43.552 544.827 43.622 544.295 43.622 543.772C43.622 542.549 43.2534 541.602 42.516 540.93C41.788 540.258 40.7567 539.922 39.422 539.922C38.3114 539.922 37.308 540.193 36.412 540.734C35.5254 541.266 34.83 541.999 34.326 542.932C33.822 543.865 33.57 544.897 33.57 546.026C33.5607 547.258 33.9294 548.205 34.676 548.868C35.4227 549.54 36.4587 549.876 37.784 549.876C38.6614 549.876 39.436 549.717 40.108 549.4L40.276 550.268C39.4454 550.613 38.5307 550.786 37.532 550.786C36.5334 550.786 35.6514 550.595 34.886 550.212C34.13 549.839 33.542 549.297 33.122 548.588C32.7114 547.888 32.506 547.071 32.506 546.138C32.506 544.822 32.8094 543.623 33.416 542.54C34.0227 541.448 34.8627 540.589 35.936 539.964C37.0187 539.339 38.232 539.026 39.576 539.026ZM37.98 547.104C38.4 547.104 38.7874 546.983 39.142 546.74C39.4967 546.488 39.7767 546.152 39.982 545.732C40.1874 545.303 40.29 544.836 40.29 544.332C40.29 543.847 40.1547 543.455 39.884 543.156C39.6227 542.848 39.2494 542.694 38.764 542.694C38.316 542.694 37.9194 542.829 37.574 543.1C37.238 543.361 36.9767 543.711 36.79 544.15C36.6034 544.579 36.51 545.027 36.51 545.494C36.51 545.989 36.636 546.381 36.888 546.67C37.14 546.959 37.504 547.104 37.98 547.104ZM49.8758 541.378H48.2658V548H46.9918V541.378H45.9978V540.328H46.9918V539.782C46.9918 538.923 47.2111 538.298 47.6498 537.906C48.0978 537.505 48.8118 537.304 49.7918 537.304V538.368C49.2318 538.368 48.8351 538.48 48.6018 538.704C48.3778 538.919 48.2658 539.278 48.2658 539.782V540.328H49.8758V541.378ZM57.6052 538.984H52.6912V542.176C52.9059 541.877 53.2232 541.635 53.6432 541.448C54.0632 541.252 54.5159 541.154 55.0012 541.154C55.7759 541.154 56.4059 541.317 56.8912 541.644C57.3765 541.961 57.7219 542.377 57.9272 542.89C58.1419 543.394 58.2492 543.931 58.2492 544.5C58.2492 545.172 58.1232 545.774 57.8712 546.306C57.6192 546.838 57.2319 547.258 56.7092 547.566C56.1959 547.874 55.5565 548.028 54.7912 548.028C53.8112 548.028 53.0179 547.776 52.4112 547.272C51.8045 546.768 51.4359 546.096 51.3052 545.256H52.5512C52.6725 545.788 52.9292 546.203 53.3212 546.502C53.7132 546.801 54.2079 546.95 54.8052 546.95C55.5425 546.95 56.0979 546.731 56.4712 546.292C56.8445 545.844 57.0312 545.256 57.0312 544.528C57.0312 543.8 56.8445 543.24 56.4712 542.848C56.0979 542.447 55.5472 542.246 54.8192 542.246C54.3245 542.246 53.8905 542.367 53.5172 542.61C53.1532 542.843 52.8872 543.165 52.7192 543.576H51.5152V537.864H57.6052V538.984ZM67.9922 548.532V549.708H60.5442V548.532H67.9922ZM75.5578 548L73.2338 544.01H71.6938V548H70.4198V538.242H73.5698C74.3071 538.242 74.9278 538.368 75.4318 538.62C75.9451 538.872 76.3278 539.213 76.5798 539.642C76.8318 540.071 76.9578 540.561 76.9578 541.112C76.9578 541.784 76.7618 542.377 76.3698 542.89C75.9871 543.403 75.4085 543.744 74.6338 543.912L77.0838 548H75.5578ZM71.6938 542.988H73.5698C74.2605 542.988 74.7785 542.82 75.1238 542.484C75.4691 542.139 75.6418 541.681 75.6418 541.112C75.6418 540.533 75.4691 540.085 75.1238 539.768C74.7878 539.451 74.2698 539.292 73.5698 539.292H71.6938V542.988ZM78.5734 546.978C79.7587 546.026 80.6874 545.247 81.3594 544.64C82.0314 544.024 82.596 543.385 83.0534 542.722C83.52 542.05 83.7534 541.392 83.7534 540.748C83.7534 540.141 83.604 539.665 83.3054 539.32C83.016 538.965 82.5447 538.788 81.8914 538.788C81.2567 538.788 80.762 538.989 80.4074 539.39C80.062 539.782 79.8754 540.309 79.8474 540.972H78.6154C78.6527 539.927 78.97 539.119 79.5674 538.55C80.1647 537.981 80.9347 537.696 81.8774 537.696C82.8387 537.696 83.5994 537.962 84.1594 538.494C84.7287 539.026 85.0134 539.759 85.0134 540.692C85.0134 541.467 84.78 542.223 84.3134 542.96C83.856 543.688 83.3334 544.332 82.7454 544.892C82.1574 545.443 81.406 546.087 80.4914 546.824H85.3074V547.888H78.5734V546.978Z" fill="#545974"/>
<path d="M20.714 334.978C21.8993 334.026 22.828 333.247 23.5 332.64C24.172 332.024 24.7367 331.385 25.194 330.722C25.6607 330.05 25.894 329.392 25.894 328.748C25.894 328.141 25.7447 327.665 25.446 327.32C25.1567 326.965 24.6853 326.788 24.032 326.788C23.3973 326.788 22.9027 326.989 22.548 327.39C22.2027 327.782 22.016 328.309 21.988 328.972H20.756C20.7933 327.927 21.1107 327.119 21.708 326.55C22.3053 325.981 23.0753 325.696 24.018 325.696C24.9793 325.696 25.74 325.962 26.3 326.494C26.8693 327.026 27.154 327.759 27.154 328.692C27.154 329.467 26.9207 330.223 26.454 330.96C25.9967 331.688 25.474 332.332 24.886 332.892C24.298 333.443 23.5467 334.087 22.632 334.824H27.448V335.888H20.714V334.978ZM35.3747 326.984H30.4607V330.176C30.6754 329.877 30.9927 329.635 31.4127 329.448C31.8327 329.252 32.2854 329.154 32.7707 329.154C33.5454 329.154 34.1754 329.317 34.6607 329.644C35.1461 329.961 35.4914 330.377 35.6967 330.89C35.9114 331.394 36.0187 331.931 36.0187 332.5C36.0187 333.172 35.8927 333.774 35.6407 334.306C35.3887 334.838 35.0014 335.258 34.4787 335.566C33.9654 335.874 33.3261 336.028 32.5607 336.028C31.5807 336.028 30.7874 335.776 30.1807 335.272C29.5741 334.768 29.2054 334.096 29.0747 333.256H30.3207C30.4421 333.788 30.6987 334.203 31.0907 334.502C31.4827 334.801 31.9774 334.95 32.5747 334.95C33.3121 334.95 33.8674 334.731 34.2407 334.292C34.6141 333.844 34.8007 333.256 34.8007 332.528C34.8007 331.8 34.6141 331.24 34.2407 330.848C33.8674 330.447 33.3167 330.246 32.5887 330.246C32.0941 330.246 31.6601 330.367 31.2867 330.61C30.9227 330.843 30.6567 331.165 30.4887 331.576H29.2847V325.864H35.3747V326.984ZM51.5522 326.312V336H50.2782V328.776L47.0582 336H46.1622L42.9282 328.762V336H41.6542V326.312H43.0262L46.6102 334.32L50.1942 326.312H51.5522ZM53.2368 332.136C53.2368 331.352 53.3954 330.666 53.7128 330.078C54.0301 329.481 54.4641 329.019 55.0148 328.692C55.5748 328.365 56.1954 328.202 56.8768 328.202C57.5488 328.202 58.1321 328.347 58.6268 328.636C59.1214 328.925 59.4901 329.289 59.7328 329.728V328.328H61.0208V336H59.7328V334.572C59.4808 335.02 59.1028 335.393 58.5988 335.692C58.1041 335.981 57.5254 336.126 56.8628 336.126C56.1814 336.126 55.5654 335.958 55.0148 335.622C54.4641 335.286 54.0301 334.815 53.7128 334.208C53.3954 333.601 53.2368 332.911 53.2368 332.136ZM59.7328 332.15C59.7328 331.571 59.6161 331.067 59.3828 330.638C59.1494 330.209 58.8321 329.882 58.4308 329.658C58.0388 329.425 57.6048 329.308 57.1288 329.308C56.6528 329.308 56.2188 329.42 55.8268 329.644C55.4348 329.868 55.1221 330.195 54.8888 330.624C54.6554 331.053 54.5388 331.557 54.5388 332.136C54.5388 332.724 54.6554 333.237 54.8888 333.676C55.1221 334.105 55.4348 334.437 55.8268 334.67C56.2188 334.894 56.6528 335.006 57.1288 335.006C57.6048 335.006 58.0388 334.894 58.4308 334.67C58.8321 334.437 59.1494 334.105 59.3828 333.676C59.6161 333.237 59.7328 332.729 59.7328 332.15ZM69.7817 328.328L65.1617 339.612H63.8457L65.3577 335.916L62.2637 328.328H63.6777L66.0857 334.544L68.4657 328.328H69.7817ZM74.4308 334.978C75.6161 334.026 76.5448 333.247 77.2168 332.64C77.8888 332.024 78.4535 331.385 78.9108 330.722C79.3775 330.05 79.6108 329.392 79.6108 328.748C79.6108 328.141 79.4615 327.665 79.1628 327.32C78.8735 326.965 78.4021 326.788 77.7488 326.788C77.1141 326.788 76.6195 326.989 76.2648 327.39C75.9195 327.782 75.7328 328.309 75.7048 328.972H74.4728C74.5101 327.927 74.8275 327.119 75.4248 326.55C76.0221 325.981 76.7921 325.696 77.7348 325.696C78.6961 325.696 79.4568 325.962 80.0168 326.494C80.5861 327.026 80.8708 327.759 80.8708 328.692C80.8708 329.467 80.6375 330.223 80.1708 330.96C79.7135 331.688 79.1908 332.332 78.6028 332.892C78.0148 333.443 77.2635 334.087 76.3488 334.824H81.1648V335.888H74.4308V334.978ZM82.6375 330.834C82.6375 329.229 82.8989 327.978 83.4215 327.082C83.9442 326.177 84.8589 325.724 86.1655 325.724C87.4629 325.724 88.3729 326.177 88.8955 327.082C89.4182 327.978 89.6795 329.229 89.6795 330.834C89.6795 332.467 89.4182 333.737 88.8955 334.642C88.3729 335.547 87.4629 336 86.1655 336C84.8589 336 83.9442 335.547 83.4215 334.642C82.8989 333.737 82.6375 332.467 82.6375 330.834ZM88.4195 330.834C88.4195 330.022 88.3635 329.336 88.2515 328.776C88.1489 328.207 87.9295 327.749 87.5935 327.404C87.2669 327.059 86.7909 326.886 86.1655 326.886C85.5309 326.886 85.0455 327.059 84.7095 327.404C84.3829 327.749 84.1635 328.207 84.0515 328.776C83.9489 329.336 83.8975 330.022 83.8975 330.834C83.8975 331.674 83.9489 332.379 84.0515 332.948C84.1635 333.517 84.3829 333.975 84.7095 334.32C85.0455 334.665 85.5309 334.838 86.1655 334.838C86.7909 334.838 87.2669 334.665 87.5935 334.32C87.9295 333.975 88.1489 333.517 88.2515 332.948C88.3635 332.379 88.4195 331.674 88.4195 330.834ZM91.2745 334.978C92.4599 334.026 93.3885 333.247 94.0605 332.64C94.7325 332.024 95.2972 331.385 95.7545 330.722C96.2212 330.05 96.4545 329.392 96.4545 328.748C96.4545 328.141 96.3052 327.665 96.0065 327.32C95.7172 326.965 95.2459 326.788 94.5925 326.788C93.9579 326.788 93.4632 326.989 93.1085 327.39C92.7632 327.782 92.5765 328.309 92.5485 328.972H91.3165C91.3539 327.927 91.6712 327.119 92.2685 326.55C92.8659 325.981 93.6359 325.696 94.5785 325.696C95.5399 325.696 96.3005 325.962 96.8605 326.494C97.4299 327.026 97.7145 327.759 97.7145 328.692C97.7145 329.467 97.4812 330.223 97.0145 330.96C96.5572 331.688 96.0345 332.332 95.4465 332.892C94.8585 333.443 94.1072 334.087 93.1925 334.824H98.0085V335.888H91.2745V334.978ZM99.3273 334.978C100.513 334.026 101.441 333.247 102.113 332.64C102.785 332.024 103.35 331.385 103.807 330.722C104.274 330.05 104.507 329.392 104.507 328.748C104.507 328.141 104.358 327.665 104.059 327.32C103.77 326.965 103.299 326.788 102.645 326.788C102.011 326.788 101.516 326.989 101.161 327.39C100.816 327.782 100.629 328.309 100.601 328.972H99.3693C99.4066 327.927 99.7239 327.119 100.321 326.55C100.919 325.981 101.689 325.696 102.631 325.696C103.593 325.696 104.353 325.962 104.913 326.494C105.483 327.026 105.767 327.759 105.767 328.692C105.767 329.467 105.534 330.223 105.067 330.96C104.61 331.688 104.087 332.332 103.499 332.892C102.911 333.443 102.16 334.087 101.245 334.824H106.061V335.888H99.3273V334.978Z" fill="#545974"/>
<g clip-path="url(#clip3_22_298)">
<path d="M32.75 301.25H35.75C35.9489 301.25 36.1397 301.329 36.2803 301.47C36.421 301.61 36.5 301.801 36.5 302V314C36.5 314.199 36.421 314.39 36.2803 314.53C36.1397 314.671 35.9489 314.75 35.75 314.75H22.25C22.0511 314.75 21.8603 314.671 21.7197 314.53C21.579 314.39 21.5 314.199 21.5 314V302C21.5 301.801 21.579 301.61 21.7197 301.47C21.8603 301.329 22.0511 301.25 22.25 301.25H25.25V300.5C25.25 300.086 25.5858 299.75 26 299.75C26.4142 299.75 26.75 300.086 26.75 300.5V301.25H31.25V300.5C31.25 300.086 31.5858 299.75 32 299.75C32.4142 299.75 32.75 300.086 32.75 300.5V301.25ZM31.25 302.75H26.75V303.5C26.75 303.914 26.4142 304.25 26 304.25C25.5858 304.25 25.25 303.914 25.25 303.5V302.75H23.5C23.2239 302.75 23 302.974 23 303.25V305.75H35V303.25C35 302.974 34.7761 302.75 34.5 302.75H32.75V303.5C32.75 303.914 32.4142 304.25 32 304.25C31.5858 304.25 31.25 303.914 31.25 303.5V302.75ZM35 307.25H23V312.75C23 313.026 23.2239 313.25 23.5 313.25H34.5C34.7761 313.25 35 313.026 35 312.75V307.25Z" fill="#BABABA"/>
</g>
<g clip-path="url(#clip4_22_298)">
<path d="M33.5 517H35C35.1989 517 35.3897 517.079 35.5303 517.22C35.671 517.36 35.75 517.551 35.75 517.75V526.75C35.75 526.949 35.671 527.14 35.5303 527.28C35.3897 527.421 35.1989 527.5 35 527.5H23C22.8011 527.5 22.6103 527.421 22.4697 527.28C22.329 527.14 22.25 526.949 22.25 526.75V517.75C22.25 517.551 22.329 517.36 22.4697 517.22C22.6103 517.079 22.8011 517 23 517H24.5V516.25C24.5 515.057 24.9741 513.912 25.818 513.068C26.6619 512.224 27.8065 511.75 29 511.75C30.1935 511.75 31.3381 512.224 32.182 513.068C33.0259 513.912 33.5 515.057 33.5 516.25V517ZM24.25 518.5C23.9739 518.5 23.75 518.724 23.75 519V525.5C23.75 525.776 23.9739 526 24.25 526H33.75C34.0261 526 34.25 525.776 34.25 525.5V519C34.25 518.724 34.0261 518.5 33.75 518.5H24.25ZM28.25 522.25C28.25 521.836 28.5858 521.5 29 521.5C29.4142 521.5 29.75 521.836 29.75 522.25C29.75 522.664 29.4142 523 29 523C28.5858 523 28.25 522.664 28.25 522.25ZM25.25 522.25C25.25 521.836 25.5858 521.5 26 521.5C26.4142 521.5 26.75 521.836 26.75 522.25C26.75 522.664 26.4142 523 26 523C25.5858 523 25.25 522.664 25.25 522.25ZM31.25 522.25C31.25 521.836 31.5858 521.5 32 521.5C32.4142 521.5 32.75 521.836 32.75 522.25C32.75 522.664 32.4142 523 32 523C31.5858 523 31.25 522.664 31.25 522.25ZM32 517V516.25C32 515.454 31.6839 514.691 31.1213 514.129C30.5587 513.566 29.7956 513.25 29 513.25C28.2044 513.25 27.4413 513.566 26.8787 514.129C26.3161 514.691 26 515.454 26 516.25V517H32Z" fill="#BABABA"/>
</g>
<g clip-path="url(#clip5_22_298)">
<path d="M342.25 538.5V536.25C342.25 536.051 342.329 535.86 342.47 535.72C342.61 535.579 342.801 535.5 343 535.5H352C352.199 535.5 352.39 535.579 352.53 535.72C352.671 535.86 352.75 536.051 352.75 536.25V546.75C352.75 546.949 352.671 547.14 352.53 547.28C352.39 547.421 352.199 547.5 352 547.5H349.75V549.75C349.75 550.164 349.413 550.5 348.995 550.5H340.005C339.906 550.501 339.808 550.482 339.717 550.444C339.625 550.407 339.542 550.352 339.472 550.282C339.402 550.212 339.346 550.129 339.308 550.038C339.27 549.947 339.25 549.849 339.25 549.75L339.252 539.25C339.252 538.836 339.59 538.5 340.008 538.5H342.25ZM341.252 540C340.976 540 340.752 540.224 340.752 540.5L340.75 548.5C340.75 548.776 340.974 549 341.25 549H347.75C348.026 549 348.25 548.776 348.25 548.5V540.5C348.25 540.224 348.026 540 347.75 540H341.252ZM343.75 538.5H348.75C349.302 538.5 349.75 538.948 349.75 539.5V546H350.75C351.026 546 351.25 545.776 351.25 545.5V537.5C351.25 537.224 351.026 537 350.75 537H344.25C343.974 537 343.75 537.224 343.75 537.5V538.5Z" fill="#FF6464"/>
</g>
<g clip-path="url(#clip6_22_298)">
<path d="M312.411 548.473C311.092 549.309 309.562 549.752 308 549.75C303.956 549.75 300.591 546.84 299.886 543C300.208 541.253 301.087 539.657 302.391 538.45L300.575 536.636C300.282 536.343 300.282 535.868 300.575 535.575C300.868 535.282 301.343 535.282 301.636 535.575L315.424 549.364C315.717 549.657 315.717 550.132 315.424 550.425C315.131 550.718 314.656 550.718 314.363 550.425L312.411 548.473ZM303.451 539.512C302.432 540.439 301.722 541.657 301.417 543C301.651 544.025 302.122 544.981 302.79 545.792C303.459 546.603 304.308 547.247 305.27 547.672C306.231 548.097 307.279 548.292 308.329 548.241C309.379 548.19 310.402 547.895 311.318 547.378L309.797 545.857C309.15 546.265 308.383 546.441 307.622 546.356C306.862 546.271 306.153 545.929 305.612 545.388C305.071 544.847 304.729 544.138 304.644 543.378C304.559 542.617 304.735 541.85 305.142 541.203L303.451 539.512ZM308.685 544.746L306.254 542.314C306.121 542.654 306.089 543.025 306.164 543.383C306.238 543.74 306.415 544.068 306.673 544.326C306.931 544.584 307.259 544.761 307.616 544.836C307.974 544.91 308.345 544.879 308.685 544.745L308.685 544.746ZM314.605 546.444L313.532 545.371C314.033 544.657 314.39 543.851 314.583 543C314.379 542.107 313.996 541.265 313.456 540.525C312.917 539.785 312.233 539.163 311.445 538.695C310.658 538.228 309.784 537.926 308.876 537.807C307.968 537.688 307.045 537.755 306.164 538.003L304.98 536.82C305.916 536.452 306.935 536.25 308 536.25C312.044 536.25 315.408 539.16 316.114 543C315.884 544.249 315.368 545.428 314.605 546.444ZM307.792 539.631C308.27 539.601 308.748 539.674 309.195 539.843C309.642 540.012 310.049 540.275 310.387 540.613C310.725 540.951 310.988 541.357 311.157 541.805C311.326 542.252 311.398 542.73 311.369 543.208L307.792 539.631Z" fill="#FF6464"/>
</g>
<rect x="21" y="723" width="155" height="38" rx="9" stroke="#FF6464" stroke-width="2"/>
<path d="M81.5232 735.8H84.2112C85.0859 735.8 85.7419 736.035 86.1792 736.504C86.6165 736.973 86.8352 737.661 86.8352 738.568V744.232C86.8352 745.139 86.6165 745.827 86.1792 746.296C85.7419 746.765 85.0859 747 84.2112 747H81.5232V735.8ZM84.1792 745.4C84.4672 745.4 84.6859 745.315 84.8352 745.144C84.9952 744.973 85.0752 744.696 85.0752 744.312V738.488C85.0752 738.104 84.9952 737.827 84.8352 737.656C84.6859 737.485 84.4672 737.4 84.1792 737.4H83.2832V745.4H84.1792ZM88.0232 735.8H92.8232V737.4H89.7832V740.36H92.1992V741.96H89.7832V745.4H92.8232V747H88.0232V735.8ZM93.8357 735.8H95.5957V745.4H98.4917V747H93.8357V735.8ZM99.3357 735.8H104.136V737.4H101.096V740.36H103.512V741.96H101.096V745.4H104.136V747H99.3357V735.8ZM106.524 737.4H104.684V735.8H110.124V737.4H108.284V747H106.524V737.4ZM110.976 735.8H115.776V737.4H112.736V740.36H115.152V741.96H112.736V745.4H115.776V747H110.976V735.8Z" fill="#FF6464"/>
<rect x="198" y="722" width="157" height="40" rx="10" fill="#FF6464"/>
<path d="M261.513 747.16C260.66 747.16 260.009 746.92 259.561 746.44C259.113 745.949 258.889 745.251 258.889 744.344V735.8H260.649V744.472C260.649 744.856 260.724 745.133 260.873 745.304C261.033 745.475 261.257 745.56 261.545 745.56C261.833 745.56 262.052 745.475 262.201 745.304C262.361 745.133 262.441 744.856 262.441 744.472V735.8H264.137V744.344C264.137 745.251 263.913 745.949 263.465 746.44C263.017 746.92 262.366 747.16 261.513 747.16ZM265.39 735.8H267.982C268.857 735.8 269.513 736.035 269.95 736.504C270.388 736.973 270.606 737.661 270.606 738.568V739.672C270.606 740.579 270.388 741.267 269.95 741.736C269.513 742.205 268.857 742.44 267.982 742.44H267.15V747H265.39V735.8ZM267.982 740.84C268.27 740.84 268.484 740.76 268.622 740.6C268.772 740.44 268.846 740.168 268.846 739.784V738.456C268.846 738.072 268.772 737.8 268.622 737.64C268.484 737.48 268.27 737.4 267.982 737.4H267.15V740.84H267.982ZM271.562 735.8H274.25C275.125 735.8 275.781 736.035 276.218 736.504C276.656 736.973 276.874 737.661 276.874 738.568V744.232C276.874 745.139 276.656 745.827 276.218 746.296C275.781 746.765 275.125 747 274.25 747H271.562V735.8ZM274.218 745.4C274.506 745.4 274.725 745.315 274.874 745.144C275.034 744.973 275.114 744.696 275.114 744.312V738.488C275.114 738.104 275.034 737.827 274.874 737.656C274.725 737.485 274.506 737.4 274.218 737.4H273.322V745.4H274.218ZM279.391 735.8H281.775L283.599 747H281.839L281.519 744.776V744.808H279.519L279.199 747H277.567L279.391 735.8ZM281.311 743.288L280.527 737.752H280.495L279.727 743.288H281.311ZM285.095 737.4H283.255V735.8H288.695V737.4H286.855V747H285.095V737.4ZM289.547 735.8H294.347V737.4H291.307V740.36H293.723V741.96H291.307V745.4H294.347V747H289.547V735.8Z" fill="white"/>
<path d="M33.3035 26.8809C33.3035 25.7969 33.6697 24.9082 34.4021 24.2148C35.1395 23.5166 36.0818 23.1675 37.2293 23.1675C38.0008 23.1675 38.6844 23.3457 39.2801 23.7021C39.8758 24.0586 40.3519 24.5762 40.7083 25.2549C41.2063 26.1387 41.4554 27.252 41.4554 28.5947C41.4554 30.3721 41.077 31.7612 40.3201 32.7622C39.5633 33.7583 38.5135 34.2563 37.1707 34.2563C36.2039 34.2563 35.3812 33.9951 34.7024 33.4727C34.0237 32.9453 33.6062 32.2471 33.45 31.3779H35.3323C35.4544 31.7783 35.679 32.0957 36.0062 32.3301C36.3382 32.5596 36.7312 32.6743 37.1854 32.6743C37.9568 32.6743 38.5599 32.335 38.9944 31.6562C39.429 30.9727 39.6463 30.0254 39.6463 28.8145H39.5804H39.5437H39.5218C39.2728 29.3174 38.909 29.708 38.4305 29.9863C37.952 30.2598 37.4026 30.3965 36.7825 30.3965C35.7767 30.3965 34.9441 30.0645 34.285 29.4004C33.6307 28.7363 33.3035 27.8965 33.3035 26.8809ZM35.1565 26.8223C35.1565 27.4277 35.3519 27.9258 35.7425 28.3164C36.1331 28.7021 36.6312 28.895 37.2366 28.895C37.8421 28.895 38.3426 28.7021 38.7381 28.3164C39.1336 27.9307 39.3313 27.4424 39.3313 26.8516C39.3313 26.2559 39.1312 25.7554 38.7308 25.3501C38.3304 24.9448 37.8348 24.7422 37.2439 24.7422C36.6531 24.7422 36.1575 24.9424 35.7571 25.3428C35.3567 25.7383 35.1565 26.2314 35.1565 26.8223ZM43.3746 32.9966C43.3746 32.6597 43.4845 32.3838 43.7042 32.1689C43.9239 31.9492 44.2047 31.8394 44.5465 31.8394C44.8932 31.8394 45.1739 31.9492 45.3888 32.1689C45.6085 32.3838 45.7184 32.6597 45.7184 32.9966C45.7184 33.3286 45.6085 33.6045 45.3888 33.8242C45.1739 34.0439 44.8932 34.1538 44.5465 34.1538C44.2047 34.1538 43.9239 34.0439 43.7042 33.8242C43.4845 33.6045 43.3746 33.3286 43.3746 32.9966ZM43.3746 27.5107C43.3746 27.1738 43.4845 26.8979 43.7042 26.6831C43.9239 26.4634 44.2047 26.3535 44.5465 26.3535C44.8932 26.3535 45.1739 26.4634 45.3888 26.6831C45.6085 26.8979 45.7184 27.1738 45.7184 27.5107C45.7184 27.8428 45.6085 28.1187 45.3888 28.3384C45.1739 28.5532 44.8932 28.6606 44.5465 28.6606C44.2047 28.6606 43.9239 28.5532 43.7042 28.3384C43.4845 28.1187 43.3746 27.8428 43.3746 27.5107ZM47.4105 32.0298V30.3452C48.2699 28.7632 49.7055 26.4585 51.7172 23.4312H54.3832V30.4331H55.8114V32.0298H54.3832V34H52.5741V32.0298H47.4105ZM49.161 30.4771H52.6034V24.9692H52.5009C51.3583 26.6587 50.245 28.458 49.161 30.3672V30.4771ZM57.0861 27.1812V25.3647L59.8474 23.4312H61.7297V34H59.84V25.3354H59.7155L57.0861 27.1812Z" fill="#545974"/>
<rect opacity="0.35" x="336.833" y="21.8333" width="21" height="10.3333" rx="2.16667" stroke="#545974"/>
<path opacity="0.4" d="M359.333 25V29C360.138 28.6612 360.661 27.8731 360.661 27C360.661 26.1269 360.138 25.3388 359.333 25Z" fill="#545974"/>
<rect x="338.333" y="23.3333" width="18" height="7.33333" rx="1.33333" fill="#545974"/>
<path fill-rule="evenodd" clip-rule="evenodd" d="M323.667 23.615C325.892 23.6151 328.031 24.4693 329.644 26.0008C329.765 26.1191 329.959 26.1176 330.079 25.9975L331.239 24.8272C331.3 24.7663 331.334 24.6837 331.333 24.5979C331.333 24.5121 331.298 24.4299 331.237 24.3697C327.005 20.3175 320.329 20.3175 316.097 24.3697C316.035 24.4299 316.001 24.512 316 24.5978C315.999 24.6837 316.033 24.7662 316.094 24.8272L317.255 25.9975C317.374 26.1178 317.568 26.1193 317.69 26.0008C319.302 24.4692 321.442 23.615 323.667 23.615ZM323.667 27.4226C324.889 27.4226 326.068 27.8765 326.974 28.6963C327.097 28.8126 327.29 28.8101 327.409 28.6906L328.569 27.5203C328.63 27.4589 328.663 27.3756 328.663 27.2891C328.662 27.2025 328.626 27.12 328.564 27.0598C325.805 24.4954 321.532 24.4954 318.773 27.0598C318.71 27.12 318.675 27.2026 318.674 27.2891C318.673 27.3757 318.707 27.459 318.768 27.5203L319.927 28.6906C320.047 28.8101 320.24 28.8126 320.362 28.6963C321.268 27.877 322.446 27.4231 323.667 27.4226ZM325.989 29.9845C325.991 30.0712 325.957 30.1549 325.895 30.2157L323.89 32.2377C323.831 32.2971 323.751 32.3306 323.667 32.3306C323.583 32.3306 323.503 32.2971 323.445 32.2377L321.439 30.2157C321.377 30.1549 321.343 30.0712 321.345 29.9844C321.347 29.8976 321.384 29.8154 321.449 29.7573C322.729 28.675 324.605 28.675 325.886 29.7573C325.95 29.8155 325.988 29.8977 325.989 29.9845Z" fill="#545974"/>
<path fill-rule="evenodd" clip-rule="evenodd" d="M310 21.6667H309C308.448 21.6667 308 22.1145 308 22.6667V31.3334C308 31.8857 308.448 32.3334 309 32.3334H310C310.552 32.3334 311 31.8857 311 31.3334V22.6667C311 22.1145 310.552 21.6667 310 21.6667ZM304.333 24.0001H305.333C305.886 24.0001 306.333 24.4478 306.333 25.0001V31.3334C306.333 31.8857 305.886 32.3334 305.333 32.3334H304.333C303.781 32.3334 303.333 31.8857 303.333 31.3334V25.0001C303.333 24.4478 303.781 24.0001 304.333 24.0001ZM300.667 26.3334H299.667C299.114 26.3334 298.667 26.7811 298.667 27.3334V31.3334C298.667 31.8857 299.114 32.3334 299.667 32.3334H300.667C301.219 32.3334 301.667 31.8857 301.667 31.3334V27.3334C301.667 26.7811 301.219 26.3334 300.667 26.3334ZM296 28.3334H295C294.448 28.3334 294 28.7811 294 29.3334V31.3334C294 31.8857 294.448 32.3334 295 32.3334H296C296.552 32.3334 297 31.8857 297 31.3334V29.3334C297 28.7811 296.552 28.3334 296 28.3334Z" fill="#545974"/>
<rect x="120" y="803" width="134" height="5" rx="2.5" fill="#545974"/>
<rect x="295" y="250" width="55" height="21" rx="5" fill="#F4F2F2"/>
<path d="M314.299 257.818L311.385 266H309.255L306.341 257.818H308.397L310.277 263.896H310.363L312.248 257.818H314.299ZM320.049 255.091V266H318.073V257.014H318.009L315.458 258.644V256.833L318.169 255.091H320.049Z" fill="#545974"/>
<path d="M338.5 265L333.737 256.75H343.263L338.5 265Z" fill="#FF6464"/>
<defs>
<clipPath id="clip0_22_298">
<rect width="24" height="24" fill="white" transform="translate(20 50)"/>
</clipPath>
<clipPath id="clip1_22_298">
<rect width="18" height="18" fill="white" transform="translate(20 339)"/>
</clipPath>
<clipPath id="clip2_22_298">
<rect width="18" height="18" fill="white" transform="translate(20 410)"/>
</clipPath>
<clipPath id="clip3_22_298">
<rect width="18" height="18" fill="white" transform="translate(20 299)"/>
</clipPath>
<clipPath id="clip4_22_298">
<rect width="18" height="18" fill="white" transform="translate(20 511)"/>
</clipPath>
<clipPath id="clip5_22_298">
<rect width="18" height="18" fill="white" transform="translate(337 534)"/>
</clipPath>
<clipPath id="clip6_22_298">
<rect width="18" height="18" fill="white" transform="translate(299 534)"/>
</clipPath>
</defs>
</svg>
