<svg width="375" height="812" viewBox="0 0 375 812" fill="none" xmlns="http://www.w3.org/2000/svg">
<rect width="375" height="812" fill="white"/>
<path d="M33.3035 26.8809C33.3035 25.7969 33.6697 24.9082 34.4021 24.2148C35.1395 23.5166 36.0818 23.1675 37.2293 23.1675C38.0008 23.1675 38.6844 23.3457 39.2801 23.7021C39.8758 24.0586 40.3519 24.5762 40.7083 25.2549C41.2063 26.1387 41.4554 27.252 41.4554 28.5947C41.4554 30.3721 41.077 31.7612 40.3201 32.7622C39.5633 33.7583 38.5135 34.2563 37.1707 34.2563C36.2039 34.2563 35.3812 33.9951 34.7024 33.4727C34.0237 32.9453 33.6062 32.2471 33.45 31.3779H35.3323C35.4544 31.7783 35.679 32.0957 36.0062 32.3301C36.3382 32.5596 36.7312 32.6743 37.1854 32.6743C37.9568 32.6743 38.5599 32.335 38.9944 31.6562C39.429 30.9727 39.6463 30.0254 39.6463 28.8145H39.5804H39.5437H39.5218C39.2728 29.3174 38.909 29.708 38.4305 29.9863C37.952 30.2598 37.4026 30.3965 36.7825 30.3965C35.7767 30.3965 34.9441 30.0645 34.285 29.4004C33.6307 28.7363 33.3035 27.8965 33.3035 26.8809ZM35.1565 26.8223C35.1565 27.4277 35.3519 27.9258 35.7425 28.3164C36.1331 28.7021 36.6312 28.895 37.2366 28.895C37.8421 28.895 38.3426 28.7021 38.7381 28.3164C39.1336 27.9307 39.3313 27.4424 39.3313 26.8516C39.3313 26.2559 39.1312 25.7554 38.7308 25.3501C38.3304 24.9448 37.8348 24.7422 37.2439 24.7422C36.6531 24.7422 36.1575 24.9424 35.7571 25.3428C35.3567 25.7383 35.1565 26.2314 35.1565 26.8223ZM43.3746 32.9966C43.3746 32.6597 43.4845 32.3838 43.7042 32.1689C43.9239 31.9492 44.2047 31.8394 44.5465 31.8394C44.8932 31.8394 45.1739 31.9492 45.3888 32.1689C45.6085 32.3838 45.7184 32.6597 45.7184 32.9966C45.7184 33.3286 45.6085 33.6045 45.3888 33.8242C45.1739 34.0439 44.8932 34.1538 44.5465 34.1538C44.2047 34.1538 43.9239 34.0439 43.7042 33.8242C43.4845 33.6045 43.3746 33.3286 43.3746 32.9966ZM43.3746 27.5107C43.3746 27.1738 43.4845 26.8979 43.7042 26.6831C43.9239 26.4634 44.2047 26.3535 44.5465 26.3535C44.8932 26.3535 45.1739 26.4634 45.3888 26.6831C45.6085 26.8979 45.7184 27.1738 45.7184 27.5107C45.7184 27.8428 45.6085 28.1187 45.3888 28.3384C45.1739 28.5532 44.8932 28.6606 44.5465 28.6606C44.2047 28.6606 43.9239 28.5532 43.7042 28.3384C43.4845 28.1187 43.3746 27.8428 43.3746 27.5107ZM47.4105 32.0298V30.3452C48.2699 28.7632 49.7055 26.4585 51.7172 23.4312H54.3832V30.4331H55.8114V32.0298H54.3832V34H52.5741V32.0298H47.4105ZM49.161 30.4771H52.6034V24.9692H52.5009C51.3583 26.6587 50.245 28.458 49.161 30.3672V30.4771ZM57.0861 27.1812V25.3647L59.8474 23.4312H61.7297V34H59.84V25.3354H59.7155L57.0861 27.1812Z" fill="#545974"/>
<rect opacity="0.35" x="336.833" y="21.8333" width="21" height="10.3333" rx="2.16667" stroke="#545974"/>
<path opacity="0.4" d="M359.333 25V29C360.138 28.6612 360.661 27.8731 360.661 27C360.661 26.1269 360.138 25.3388 359.333 25Z" fill="#545974"/>
<rect x="338.333" y="23.3333" width="18" height="7.33333" rx="1.33333" fill="#545974"/>
<path fill-rule="evenodd" clip-rule="evenodd" d="M323.667 23.615C325.892 23.6151 328.031 24.4693 329.644 26.0008C329.765 26.1191 329.959 26.1176 330.079 25.9975L331.239 24.8272C331.3 24.7663 331.334 24.6837 331.333 24.5979C331.333 24.5121 331.298 24.4299 331.237 24.3697C327.005 20.3175 320.329 20.3175 316.097 24.3697C316.035 24.4299 316.001 24.512 316 24.5978C315.999 24.6837 316.033 24.7662 316.094 24.8272L317.255 25.9975C317.374 26.1178 317.568 26.1193 317.69 26.0008C319.302 24.4692 321.442 23.615 323.667 23.615ZM323.667 27.4226C324.889 27.4226 326.068 27.8765 326.974 28.6963C327.097 28.8126 327.29 28.8101 327.409 28.6906L328.569 27.5203C328.63 27.4589 328.663 27.3756 328.663 27.2891C328.662 27.2025 328.626 27.12 328.564 27.0598C325.805 24.4954 321.532 24.4954 318.773 27.0598C318.71 27.12 318.675 27.2026 318.674 27.2891C318.673 27.3757 318.707 27.459 318.768 27.5203L319.927 28.6906C320.047 28.8101 320.24 28.8126 320.362 28.6963C321.268 27.877 322.446 27.4231 323.667 27.4226ZM325.989 29.9845C325.991 30.0712 325.957 30.1549 325.895 30.2157L323.89 32.2377C323.831 32.2971 323.751 32.3306 323.667 32.3306C323.583 32.3306 323.503 32.2971 323.445 32.2377L321.439 30.2157C321.377 30.1549 321.343 30.0712 321.345 29.9844C321.347 29.8976 321.384 29.8154 321.449 29.7573C322.729 28.675 324.605 28.675 325.886 29.7573C325.95 29.8155 325.988 29.8977 325.989 29.9845Z" fill="#545974"/>
<path fill-rule="evenodd" clip-rule="evenodd" d="M310 21.6667H309C308.448 21.6667 308 22.1145 308 22.6667V31.3334C308 31.8857 308.448 32.3334 309 32.3334H310C310.552 32.3334 311 31.8857 311 31.3334V22.6667C311 22.1145 310.552 21.6667 310 21.6667ZM304.333 24.0001H305.333C305.886 24.0001 306.333 24.4478 306.333 25.0001V31.3334C306.333 31.8857 305.886 32.3334 305.333 32.3334H304.333C303.781 32.3334 303.333 31.8857 303.333 31.3334V25.0001C303.333 24.4478 303.781 24.0001 304.333 24.0001ZM300.667 26.3334H299.667C299.114 26.3334 298.667 26.7811 298.667 27.3334V31.3334C298.667 31.8857 299.114 32.3334 299.667 32.3334H300.667C301.219 32.3334 301.667 31.8857 301.667 31.3334V27.3334C301.667 26.7811 301.219 26.3334 300.667 26.3334ZM296 28.3334H295C294.448 28.3334 294 28.7811 294 29.3334V31.3334C294 31.8857 294.448 32.3334 295 32.3334H296C296.552 32.3334 297 31.8857 297 31.3334V29.3334C297 28.7811 296.552 28.3334 296 28.3334Z" fill="#545974"/>
<rect x="120" y="803" width="134" height="5" rx="2.5" fill="#545974"/>
<path d="M23 66.9999H32H41C41.55 66.9999 42 67.4499 42 67.9999C42 68.5499 41.55 68.9999 41 68.9999C41 68.9999 35.5363 70.4999 32 70.4999C28.4637 70.4999 23 68.9999 23 68.9999C22.45 68.9999 22 68.5499 22 67.9999C22 67.4499 22.45 66.9999 23 66.9999ZM22.5 62.5699C22.86 62.7799 23.32 62.6499 23.53 62.2899L24 61.4699L24.48 62.2999C24.69 62.6599 25.15 62.7799 25.51 62.5799C25.87 62.3699 25.99 61.9199 25.79 61.5599L25.3 60.7199H26.25C26.66 60.7199 27 60.3799 27 59.9699C27 59.5599 26.66 59.2199 26.25 59.2199H25.3L25.77 58.3999C25.98 58.0399 25.86 57.5799 25.5 57.3699C25.3257 57.2729 25.1205 57.2479 24.928 57.3002C24.7355 57.3525 24.5712 57.478 24.47 57.6499L24 58.4699L23.53 57.6499C23.4288 57.478 23.2645 57.3525 23.072 57.3002C22.8795 57.2479 22.6743 57.2729 22.5 57.3699C22.14 57.5799 22.02 58.0399 22.23 58.3999L22.7 59.2199H21.75C21.34 59.2199 21 59.5599 21 59.9699C21 60.3799 21.34 60.7199 21.75 60.7199H22.7L22.22 61.5499C22.02 61.9099 22.14 62.3699 22.5 62.5699ZM43 59.9699C43 59.5599 42.66 59.2199 42.25 59.2199H41.3L41.77 58.3999C41.8689 58.2271 41.896 58.0224 41.8455 57.8297C41.795 57.6371 41.671 57.472 41.5 57.3699C41.4153 57.3207 41.3217 57.2886 41.2246 57.2755C41.1275 57.2624 41.0288 57.2686 40.9341 57.2936C40.8394 57.3187 40.7505 57.3622 40.6726 57.4216C40.5947 57.481 40.5292 57.5552 40.48 57.6399L40 58.4699L39.53 57.6499C39.4811 57.5648 39.4159 57.4902 39.338 57.4305C39.2602 57.3708 39.1712 57.3271 39.0764 57.302C38.9815 57.2769 38.8826 57.2709 38.7854 57.2842C38.6882 57.2976 38.5946 57.3301 38.51 57.3799C38.15 57.5899 38.03 58.0499 38.24 58.4099L38.71 59.2299H37.76C37.6613 59.2277 37.5631 59.2451 37.4711 59.2812C37.3792 59.3174 37.2954 59.3715 37.2247 59.4404C37.1539 59.5093 37.0976 59.5916 37.059 59.6825C37.0204 59.7735 37.0004 59.8712 37 59.9699C37 60.3799 37.34 60.7199 37.75 60.7199H38.7L38.22 61.5499C38.1703 61.635 38.1382 61.7292 38.1254 61.8268C38.1126 61.9245 38.1194 62.0238 38.1455 62.1188C38.1716 62.2138 38.2164 62.3026 38.2773 62.3801C38.3381 62.4576 38.4139 62.5221 38.5 62.5699C38.86 62.7799 39.32 62.6499 39.53 62.2899L40 61.4699L40.48 62.2999C40.69 62.6599 41.15 62.7799 41.51 62.5799C41.87 62.3699 41.99 61.9199 41.79 61.5599L41.31 60.7299H42.26C42.66 60.7199 43 60.3799 43 59.9699Z" fill="#FF6464"/>
<g clip-path="url(#clip0_14_956)">
<path d="M32 57C33.7973 57 35.2927 58.2933 35.6063 60C35.293 61.7067 33.7973 63 32 63C30.2027 63 28.7073 61.7067 28.3937 60C28.707 58.2933 30.2027 57 32 57ZM32 62.3333C32.6798 62.3332 33.3395 62.1023 33.871 61.6784C34.4025 61.2545 34.7743 60.6628 34.9257 60C34.7738 59.3378 34.4017 58.7467 33.8702 58.3233C33.3388 57.9 32.6794 57.6695 32 57.6695C31.3206 57.6695 30.6612 57.9 30.1298 58.3233C29.5984 58.7467 29.2263 59.3378 29.0743 60C29.2257 60.6628 29.5976 61.2545 30.1291 61.6784C30.6605 62.1023 31.3202 62.3332 32 62.3333ZM32 61.5C31.6022 61.5 31.2207 61.342 30.9394 61.0607C30.658 60.7794 30.5 60.3978 30.5 60C30.5 59.6022 30.658 59.2206 30.9394 58.9393C31.2207 58.658 31.6022 58.5 32 58.5C32.3978 58.5 32.7794 58.658 33.0607 58.9393C33.342 59.2206 33.5 59.6022 33.5 60C33.5 60.3978 33.342 60.7794 33.0607 61.0607C32.7794 61.342 32.3978 61.5 32 61.5ZM32 60.8333C32.221 60.8333 32.433 60.7455 32.5893 60.5893C32.7455 60.433 32.8333 60.221 32.8333 60C32.8333 59.779 32.7455 59.567 32.5893 59.4107C32.433 59.2545 32.221 59.1667 32 59.1667C31.779 59.1667 31.567 59.2545 31.4108 59.4107C31.2545 59.567 31.1667 59.779 31.1667 60C31.1667 60.221 31.2545 60.433 31.4108 60.5893C31.567 60.7455 31.779 60.8333 32 60.8333Z" fill="#FF6464"/>
</g>
<foreignObject x="-10" y="698" width="395" height="124"><div xmlns="http://www.w3.org/1999/xhtml" style="backdrop-filter:blur(15px);clip-path:url(#bgblur_1_14_956_clip_path);height:100%;width:100%"></div></foreignObject><rect data-figma-bg-blur-radius="30" x="20" y="728" width="335" height="64" rx="10" fill="#F1F1F1"/>
<g clip-path="url(#clip2_14_956)">
<path d="M91 768C91 768.265 90.8946 768.52 90.7071 768.707C90.5196 768.895 90.2652 769 90 769H74C73.7348 769 73.4804 768.895 73.2929 768.707C73.1054 768.52 73 768.265 73 768V757.49C72.9999 757.338 73.0346 757.187 73.1015 757.05C73.1684 756.913 73.2657 756.794 73.386 756.7L81.386 750.478C81.5615 750.341 81.7776 750.267 82 750.267C82.2224 750.267 82.4385 750.341 82.614 750.478L90.614 756.7C90.7343 756.794 90.8316 756.913 90.8985 757.05C90.9654 757.187 91.0001 757.338 91 757.49V768ZM88.5 767C88.7761 767 89 766.776 89 766.5V758.223C89 758.068 88.9288 757.923 88.807 757.828L82.307 752.773C82.1264 752.632 81.8736 752.632 81.693 752.773L75.193 757.828C75.0712 757.923 75 758.068 75 758.223V766.5C75 766.776 75.2239 767 75.5 767H88.5ZM77 764C77 763.448 77.4477 763 78 763H86C86.5523 763 87 763.448 87 764C87 764.552 86.5523 765 86 765H78C77.4477 765 77 764.552 77 764Z" fill="#545974"/>
</g>
<g clip-path="url(#clip3_14_956)">
<path d="M301 769C301 769.552 300.552 770 300 770C299.448 770 299 769.552 299 769V768C299 767.204 298.684 766.441 298.121 765.879C297.559 765.316 296.796 765 296 765H290C289.204 765 288.441 765.316 287.879 765.879C287.316 766.441 287 767.204 287 768V769C287 769.552 286.552 770 286 770C285.448 770 285 769.552 285 769V768C285 766.674 285.527 765.402 286.464 764.464C287.402 763.527 288.674 763 290 763H296C297.326 763 298.598 763.527 299.536 764.464C300.473 765.402 301 766.674 301 768V769ZM293 761C292.212 761 291.432 760.845 290.704 760.543C289.976 760.242 289.315 759.8 288.757 759.243C288.2 758.685 287.758 758.024 287.457 757.296C287.155 756.568 287 755.788 287 755C287 754.212 287.155 753.432 287.457 752.704C287.758 751.976 288.2 751.315 288.757 750.757C289.315 750.2 289.976 749.758 290.704 749.457C291.432 749.155 292.212 749 293 749C294.591 749 296.117 749.632 297.243 750.757C298.368 751.883 299 753.409 299 755C299 756.591 298.368 758.117 297.243 759.243C296.117 760.368 294.591 761 293 761ZM293 759C294.061 759 295.078 758.579 295.828 757.828C296.579 757.078 297 756.061 297 755C297 753.939 296.579 752.922 295.828 752.172C295.078 751.421 294.061 751 293 751C291.939 751 290.922 751.421 290.172 752.172C289.421 752.922 289 753.939 289 755C289 756.061 289.421 757.078 290.172 757.828C290.922 758.579 291.939 759 293 759Z" fill="#545974"/>
</g>
<g filter="url(#filter1_d_14_956)">
<circle cx="187" cy="742" r="30" fill="#FF6464"/>
</g>
<g clip-path="url(#clip4_14_956)">
<path d="M186 741V736C186 735.448 186.448 735 187 735C187.552 735 188 735.448 188 736V741H193C193.552 741 194 741.448 194 742C194 742.552 193.552 743 193 743H188V748C188 748.552 187.552 749 187 749C186.448 749 186 748.552 186 748V743H181C180.448 743 180 742.552 180 742C180 741.448 180.448 741 181 741H186Z" fill="#F1F1F1"/>
</g>
<rect x="79" y="773" width="6" height="2" rx="1" fill="#545974"/>
<rect width="335" height="40" transform="translate(20 101)" fill="#F1F1F1"/>
<foreignObject x="-10" y="71" width="395" height="100"><div xmlns="http://www.w3.org/1999/xhtml" style="backdrop-filter:blur(15px);clip-path:url(#bgblur_5_14_956_clip_path);height:100%;width:100%"></div></foreignObject><rect data-figma-bg-blur-radius="30" x="21" y="102" width="333" height="38" rx="9" fill="white" fill-opacity="0.2" stroke="#FF6464" stroke-width="2"/>
<path d="M75.76 124.344H70.672L69.696 127H68.512L72.592 115.96H73.856L77.92 127H76.736L75.76 124.344ZM75.424 123.416L73.216 117.368L71.008 123.416H75.424Z" fill="#545974"/>
<g clip-path="url(#clip6_14_956)">
<path d="M48.25 113.5C51.976 113.5 55 116.524 55 120.25C55 123.976 51.976 127 48.25 127C44.524 127 41.5 123.976 41.5 120.25C41.5 116.524 44.524 113.5 48.25 113.5ZM48.25 125.5C51.1503 125.5 53.5 123.15 53.5 120.25C53.5 117.349 51.1503 115 48.25 115C45.349 115 43 117.349 43 120.25C43 123.15 45.349 125.5 48.25 125.5ZM54.0835 126.084C54.3764 125.791 54.8512 125.791 55.1441 126.083L56.2048 127.144C56.4979 127.437 56.4979 127.912 56.2049 128.205C55.9118 128.498 55.4367 128.498 55.1437 128.205L54.0834 127.144C53.7906 126.851 53.7906 126.376 54.0835 126.084Z" fill="#BABABA"/>
</g>
<g clip-path="url(#clip7_14_956)">
<path d="M321.901 114.25H332.75C332.949 114.25 333.14 114.329 333.28 114.47C333.421 114.61 333.5 114.801 333.5 115V127C333.5 127.199 333.421 127.39 333.28 127.53C333.14 127.671 332.949 127.75 332.75 127.75H321.901C321.778 127.75 321.656 127.72 321.547 127.661C321.439 127.603 321.346 127.519 321.277 127.416L317.277 121.416C317.195 121.293 317.151 121.148 317.151 121C317.151 120.852 317.195 120.707 317.277 120.584L321.277 114.584C321.346 114.481 321.439 114.397 321.547 114.339C321.656 114.28 321.778 114.25 321.901 114.25ZM322.302 115.75L318.803 121L322.302 126.25H332V115.75H322.302ZM326.75 119.94L328.871 117.818L329.932 118.879L327.81 121L329.932 123.121L328.871 124.182L326.75 122.06L324.629 124.182L323.568 123.121L325.689 121L323.568 118.879L324.629 117.818L326.75 119.94Z" fill="#BABABA"/>
</g>
<foreignObject x="-10" y="141" width="395" height="130"><div xmlns="http://www.w3.org/1999/xhtml" style="backdrop-filter:blur(15px);clip-path:url(#bgblur_8_14_956_clip_path);height:100%;width:100%"></div></foreignObject><rect data-figma-bg-blur-radius="30" x="21" y="172" width="333" height="68" rx="9" fill="white" fill-opacity="0.2" stroke="#F1F1F1" stroke-width="2"/>
<rect x="30" y="181" width="50" height="50" rx="10" fill="#545974"/>
<path d="M109.88 210.16H104.06L103.06 213H100.68L105.66 199.08H108.3L113.28 213H110.88L109.88 210.16ZM109.24 208.3L106.98 201.84L104.7 208.3H109.24ZM128.785 201.8C129.652 201.8 130.425 201.98 131.105 202.34C131.799 202.7 132.339 203.233 132.725 203.94C133.125 204.647 133.325 205.5 133.325 206.5V213H131.065V206.84C131.065 205.853 130.819 205.1 130.325 204.58C129.832 204.047 129.159 203.78 128.305 203.78C127.452 203.78 126.772 204.047 126.265 204.58C125.772 205.1 125.525 205.853 125.525 206.84V213H123.265V206.84C123.265 205.853 123.019 205.1 122.525 204.58C122.032 204.047 121.359 203.78 120.505 203.78C119.652 203.78 118.972 204.047 118.465 204.58C117.972 205.1 117.725 205.853 117.725 206.84V213H115.445V201.98H117.725V203.24C118.099 202.787 118.572 202.433 119.145 202.18C119.719 201.927 120.332 201.8 120.985 201.8C121.865 201.8 122.652 201.987 123.345 202.36C124.039 202.733 124.572 203.273 124.945 203.98C125.279 203.313 125.799 202.787 126.505 202.4C127.212 202 127.972 201.8 128.785 201.8ZM135.467 207.44C135.467 206.333 135.693 205.353 136.147 204.5C136.613 203.647 137.24 202.987 138.027 202.52C138.827 202.04 139.707 201.8 140.667 201.8C141.533 201.8 142.287 201.973 142.927 202.32C143.58 202.653 144.1 203.073 144.487 203.58V201.98H146.787V213H144.487V211.36C144.1 211.88 143.573 212.313 142.907 212.66C142.24 213.007 141.48 213.18 140.627 213.18C139.68 213.18 138.813 212.94 138.027 212.46C137.24 211.967 136.613 211.287 136.147 210.42C135.693 209.54 135.467 208.547 135.467 207.44ZM144.487 207.48C144.487 206.72 144.327 206.06 144.007 205.5C143.7 204.94 143.293 204.513 142.787 204.22C142.28 203.927 141.733 203.78 141.147 203.78C140.56 203.78 140.013 203.927 139.507 204.22C139 204.5 138.587 204.92 138.267 205.48C137.96 206.027 137.807 206.68 137.807 207.44C137.807 208.2 137.96 208.867 138.267 209.44C138.587 210.013 139 210.453 139.507 210.76C140.027 211.053 140.573 211.2 141.147 211.2C141.733 211.2 142.28 211.053 142.787 210.76C143.293 210.467 143.7 210.04 144.007 209.48C144.327 208.907 144.487 208.24 144.487 207.48ZM151.801 211.14H156.801V213H149.161V211.14L154.181 203.84H149.161V201.98H156.801V203.84L151.801 211.14ZM163.975 213.18C162.935 213.18 161.995 212.947 161.155 212.48C160.315 212 159.655 211.333 159.175 210.48C158.695 209.613 158.455 208.613 158.455 207.48C158.455 206.36 158.702 205.367 159.195 204.5C159.689 203.633 160.362 202.967 161.215 202.5C162.069 202.033 163.022 201.8 164.075 201.8C165.129 201.8 166.082 202.033 166.935 202.5C167.789 202.967 168.462 203.633 168.955 204.5C169.449 205.367 169.695 206.36 169.695 207.48C169.695 208.6 169.442 209.593 168.935 210.46C168.429 211.327 167.735 212 166.855 212.48C165.989 212.947 165.029 213.18 163.975 213.18ZM163.975 211.2C164.562 211.2 165.109 211.06 165.615 210.78C166.135 210.5 166.555 210.08 166.875 209.52C167.195 208.96 167.355 208.28 167.355 207.48C167.355 206.68 167.202 206.007 166.895 205.46C166.589 204.9 166.182 204.48 165.675 204.2C165.169 203.92 164.622 203.78 164.035 203.78C163.449 203.78 162.902 203.92 162.395 204.2C161.902 204.48 161.509 204.9 161.215 205.46C160.922 206.007 160.775 206.68 160.775 207.48C160.775 208.667 161.075 209.587 161.675 210.24C162.289 210.88 163.055 211.2 163.975 211.2ZM177.509 201.8C178.376 201.8 179.149 201.98 179.829 202.34C180.523 202.7 181.063 203.233 181.449 203.94C181.836 204.647 182.029 205.5 182.029 206.5V213H179.769V206.84C179.769 205.853 179.523 205.1 179.029 204.58C178.536 204.047 177.863 203.78 177.009 203.78C176.156 203.78 175.476 204.047 174.969 204.58C174.476 205.1 174.229 205.853 174.229 206.84V213H171.949V201.98H174.229V203.24C174.603 202.787 175.076 202.433 175.649 202.18C176.236 201.927 176.856 201.8 177.509 201.8Z" fill="#545974"/>
<foreignObject x="-10" y="231" width="395" height="130"><div xmlns="http://www.w3.org/1999/xhtml" style="backdrop-filter:blur(15px);clip-path:url(#bgblur_9_14_956_clip_path);height:100%;width:100%"></div></foreignObject><rect data-figma-bg-blur-radius="30" x="21" y="262" width="333" height="68" rx="9" fill="white" fill-opacity="0.2" stroke="#F1F1F1" stroke-width="2"/>
<rect x="30" y="271" width="50" height="50" rx="10" fill="#545974"/>
<path d="M109.88 300.16H104.06L103.06 303H100.68L105.66 289.08H108.3L113.28 303H110.88L109.88 300.16ZM109.24 298.3L106.98 291.84L104.7 298.3H109.24ZM117.725 293.6C118.112 293.093 118.639 292.667 119.305 292.32C119.972 291.973 120.725 291.8 121.565 291.8C122.525 291.8 123.399 292.04 124.185 292.52C124.985 292.987 125.612 293.647 126.065 294.5C126.519 295.353 126.745 296.333 126.745 297.44C126.745 298.547 126.519 299.54 126.065 300.42C125.612 301.287 124.985 301.967 124.185 302.46C123.399 302.94 122.525 303.18 121.565 303.18C120.725 303.18 119.979 303.013 119.325 302.68C118.672 302.333 118.139 301.907 117.725 301.4V308.24H115.445V291.98H117.725V293.6ZM124.425 297.44C124.425 296.68 124.265 296.027 123.945 295.48C123.639 294.92 123.225 294.5 122.705 294.22C122.199 293.927 121.652 293.78 121.065 293.78C120.492 293.78 119.945 293.927 119.425 294.22C118.919 294.513 118.505 294.94 118.185 295.5C117.879 296.06 117.725 296.72 117.725 297.48C117.725 298.24 117.879 298.907 118.185 299.48C118.505 300.04 118.919 300.467 119.425 300.76C119.945 301.053 120.492 301.2 121.065 301.2C121.652 301.2 122.199 301.053 122.705 300.76C123.225 300.453 123.639 300.013 123.945 299.44C124.265 298.867 124.425 298.2 124.425 297.44ZM131.28 293.6C131.667 293.093 132.193 292.667 132.86 292.32C133.527 291.973 134.28 291.8 135.12 291.8C136.08 291.8 136.953 292.04 137.74 292.52C138.54 292.987 139.167 293.647 139.62 294.5C140.073 295.353 140.3 296.333 140.3 297.44C140.3 298.547 140.073 299.54 139.62 300.42C139.167 301.287 138.54 301.967 137.74 302.46C136.953 302.94 136.08 303.18 135.12 303.18C134.28 303.18 133.533 303.013 132.88 302.68C132.227 302.333 131.693 301.907 131.28 301.4V308.24H129V291.98H131.28V293.6ZM137.98 297.44C137.98 296.68 137.82 296.027 137.5 295.48C137.193 294.92 136.78 294.5 136.26 294.22C135.753 293.927 135.207 293.78 134.62 293.78C134.047 293.78 133.5 293.927 132.98 294.22C132.473 294.513 132.06 294.94 131.74 295.5C131.433 296.06 131.28 296.72 131.28 297.48C131.28 298.24 131.433 298.907 131.74 299.48C132.06 300.04 132.473 300.467 132.98 300.76C133.5 301.053 134.047 301.2 134.62 301.2C135.207 301.2 135.753 301.053 136.26 300.76C136.78 300.453 137.193 300.013 137.5 299.44C137.82 298.867 137.98 298.2 137.98 297.44ZM144.835 288.2V303H142.555V288.2H144.835ZM157.928 297.22C157.928 297.633 157.901 298.007 157.848 298.34H149.428C149.495 299.22 149.821 299.927 150.408 300.46C150.995 300.993 151.715 301.26 152.568 301.26C153.795 301.26 154.661 300.747 155.168 299.72H157.628C157.295 300.733 156.688 301.567 155.808 302.22C154.941 302.86 153.861 303.18 152.568 303.18C151.515 303.18 150.568 302.947 149.728 302.48C148.901 302 148.248 301.333 147.768 300.48C147.301 299.613 147.068 298.613 147.068 297.48C147.068 296.347 147.295 295.353 147.748 294.5C148.215 293.633 148.861 292.967 149.688 292.5C150.528 292.033 151.488 291.8 152.568 291.8C153.608 291.8 154.535 292.027 155.348 292.48C156.161 292.933 156.795 293.573 157.248 294.4C157.701 295.213 157.928 296.153 157.928 297.22ZM155.548 296.5C155.535 295.66 155.235 294.987 154.648 294.48C154.061 293.973 153.335 293.72 152.468 293.72C151.681 293.72 151.008 293.973 150.448 294.48C149.888 294.973 149.555 295.647 149.448 296.5H155.548Z" fill="#545974"/>
<path d="M145.548 521.87C145.548 522.113 145.534 522.369 145.506 522.64H139.374C139.42 523.396 139.677 523.989 140.144 524.418C140.62 524.838 141.194 525.048 141.866 525.048C142.416 525.048 142.874 524.922 143.238 524.67C143.611 524.409 143.872 524.063 144.022 523.634H145.394C145.188 524.371 144.778 524.973 144.162 525.44C143.546 525.897 142.78 526.126 141.866 526.126C141.138 526.126 140.484 525.963 139.906 525.636C139.336 525.309 138.888 524.847 138.562 524.25C138.235 523.643 138.072 522.943 138.072 522.15C138.072 521.357 138.23 520.661 138.548 520.064C138.865 519.467 139.308 519.009 139.878 518.692C140.456 518.365 141.119 518.202 141.866 518.202C142.594 518.202 143.238 518.361 143.798 518.678C144.358 518.995 144.787 519.434 145.086 519.994C145.394 520.545 145.548 521.17 145.548 521.87ZM144.232 521.604C144.232 521.119 144.124 520.703 143.91 520.358C143.695 520.003 143.401 519.737 143.028 519.56C142.664 519.373 142.258 519.28 141.81 519.28C141.166 519.28 140.615 519.485 140.158 519.896C139.71 520.307 139.453 520.876 139.388 521.604H144.232ZM150.967 518.188C151.901 518.188 152.657 518.473 153.235 519.042C153.814 519.602 154.103 520.414 154.103 521.478V526H152.843V521.66C152.843 520.895 152.652 520.311 152.269 519.91C151.887 519.499 151.364 519.294 150.701 519.294C150.029 519.294 149.493 519.504 149.091 519.924C148.699 520.344 148.503 520.955 148.503 521.758V526H147.229V518.328H148.503V519.42C148.755 519.028 149.096 518.725 149.525 518.51C149.964 518.295 150.445 518.188 150.967 518.188ZM155.708 522.136C155.708 521.352 155.867 520.666 156.184 520.078C156.502 519.481 156.936 519.019 157.486 518.692C158.046 518.365 158.672 518.202 159.362 518.202C159.96 518.202 160.515 518.342 161.028 518.622C161.542 518.893 161.934 519.252 162.204 519.7V515.64H163.492V526H162.204V524.558C161.952 525.015 161.579 525.393 161.084 525.692C160.59 525.981 160.011 526.126 159.348 526.126C158.667 526.126 158.046 525.958 157.486 525.622C156.936 525.286 156.502 524.815 156.184 524.208C155.867 523.601 155.708 522.911 155.708 522.136ZM162.204 522.15C162.204 521.571 162.088 521.067 161.854 520.638C161.621 520.209 161.304 519.882 160.902 519.658C160.51 519.425 160.076 519.308 159.6 519.308C159.124 519.308 158.69 519.42 158.298 519.644C157.906 519.868 157.594 520.195 157.36 520.624C157.127 521.053 157.01 521.557 157.01 522.136C157.01 522.724 157.127 523.237 157.36 523.676C157.594 524.105 157.906 524.437 158.298 524.67C158.69 524.894 159.124 525.006 159.6 525.006C160.076 525.006 160.51 524.894 160.902 524.67C161.304 524.437 161.621 524.105 161.854 523.676C162.088 523.237 162.204 522.729 162.204 522.15ZM172.724 526.126C172.005 526.126 171.352 525.963 170.764 525.636C170.185 525.309 169.728 524.847 169.392 524.25C169.065 523.643 168.902 522.943 168.902 522.15C168.902 521.366 169.07 520.675 169.406 520.078C169.751 519.471 170.218 519.009 170.806 518.692C171.394 518.365 172.052 518.202 172.78 518.202C173.508 518.202 174.166 518.365 174.754 518.692C175.342 519.009 175.804 519.467 176.14 520.064C176.485 520.661 176.658 521.357 176.658 522.15C176.658 522.943 176.48 523.643 176.126 524.25C175.78 524.847 175.309 525.309 174.712 525.636C174.114 525.963 173.452 526.126 172.724 526.126ZM172.724 525.006C173.181 525.006 173.61 524.899 174.012 524.684C174.413 524.469 174.735 524.147 174.978 523.718C175.23 523.289 175.356 522.766 175.356 522.15C175.356 521.534 175.234 521.011 174.992 520.582C174.749 520.153 174.432 519.835 174.04 519.63C173.648 519.415 173.223 519.308 172.766 519.308C172.299 519.308 171.87 519.415 171.478 519.63C171.095 519.835 170.787 520.153 170.554 520.582C170.32 521.011 170.204 521.534 170.204 522.15C170.204 522.775 170.316 523.303 170.54 523.732C170.773 524.161 171.081 524.483 171.464 524.698C171.846 524.903 172.266 525.006 172.724 525.006ZM181.455 519.378H179.845V526H178.571V519.378H177.577V518.328H178.571V517.782C178.571 516.923 178.79 516.298 179.229 515.906C179.677 515.505 180.391 515.304 181.371 515.304V516.368C180.811 516.368 180.414 516.48 180.181 516.704C179.957 516.919 179.845 517.278 179.845 517.782V518.328H181.455V519.378ZM188.227 519.378V523.9C188.227 524.273 188.306 524.539 188.465 524.698C188.623 524.847 188.899 524.922 189.291 524.922H190.229V526H189.081C188.371 526 187.839 525.837 187.485 525.51C187.13 525.183 186.953 524.647 186.953 523.9V519.378H185.959V518.328H186.953V516.396H188.227V518.328H190.229V519.378H188.227ZM195.58 518.188C196.159 518.188 196.682 518.314 197.148 518.566C197.615 518.809 197.979 519.177 198.24 519.672C198.511 520.167 198.646 520.769 198.646 521.478V526H197.386V521.66C197.386 520.895 197.195 520.311 196.812 519.91C196.43 519.499 195.907 519.294 195.244 519.294C194.572 519.294 194.036 519.504 193.634 519.924C193.242 520.344 193.046 520.955 193.046 521.758V526H191.772V515.64H193.046V519.42C193.298 519.028 193.644 518.725 194.082 518.51C194.53 518.295 195.03 518.188 195.58 518.188ZM207.727 521.87C207.727 522.113 207.713 522.369 207.685 522.64H201.553C201.6 523.396 201.857 523.989 202.323 524.418C202.799 524.838 203.373 525.048 204.045 525.048C204.596 525.048 205.053 524.922 205.417 524.67C205.791 524.409 206.052 524.063 206.201 523.634H207.573C207.368 524.371 206.957 524.973 206.341 525.44C205.725 525.897 204.96 526.126 204.045 526.126C203.317 526.126 202.664 525.963 202.085 525.636C201.516 525.309 201.068 524.847 200.741 524.25C200.415 523.643 200.251 522.943 200.251 522.15C200.251 521.357 200.41 520.661 200.727 520.064C201.045 519.467 201.488 519.009 202.057 518.692C202.636 518.365 203.299 518.202 204.045 518.202C204.773 518.202 205.417 518.361 205.977 518.678C206.537 518.995 206.967 519.434 207.265 519.994C207.573 520.545 207.727 521.17 207.727 521.87ZM206.411 521.604C206.411 521.119 206.304 520.703 206.089 520.358C205.875 520.003 205.581 519.737 205.207 519.56C204.843 519.373 204.437 519.28 203.989 519.28C203.345 519.28 202.795 519.485 202.337 519.896C201.889 520.307 201.633 520.876 201.567 521.604H206.411ZM214.415 515.64V526H213.141V515.64H214.415ZM217.245 517.082C217.002 517.082 216.797 516.998 216.629 516.83C216.461 516.662 216.377 516.457 216.377 516.214C216.377 515.971 216.461 515.766 216.629 515.598C216.797 515.43 217.002 515.346 217.245 515.346C217.478 515.346 217.674 515.43 217.833 515.598C218.001 515.766 218.085 515.971 218.085 516.214C218.085 516.457 218.001 516.662 217.833 516.83C217.674 516.998 217.478 517.082 217.245 517.082ZM217.861 518.328V526H216.587V518.328H217.861ZM223.77 518.188C224.703 518.188 225.459 518.473 226.038 519.042C226.617 519.602 226.906 520.414 226.906 521.478V526H225.646V521.66C225.646 520.895 225.455 520.311 225.072 519.91C224.689 519.499 224.167 519.294 223.504 519.294C222.832 519.294 222.295 519.504 221.894 519.924C221.502 520.344 221.306 520.955 221.306 521.758V526H220.032V518.328H221.306V519.42C221.558 519.028 221.899 518.725 222.328 518.51C222.767 518.295 223.247 518.188 223.77 518.188ZM235.987 521.87C235.987 522.113 235.973 522.369 235.945 522.64H229.813C229.86 523.396 230.117 523.989 230.583 524.418C231.059 524.838 231.633 525.048 232.305 525.048C232.856 525.048 233.313 524.922 233.677 524.67C234.051 524.409 234.312 524.063 234.461 523.634H235.833C235.628 524.371 235.217 524.973 234.601 525.44C233.985 525.897 233.22 526.126 232.305 526.126C231.577 526.126 230.924 525.963 230.345 525.636C229.776 525.309 229.328 524.847 229.001 524.25C228.675 523.643 228.511 522.943 228.511 522.15C228.511 521.357 228.67 520.661 228.987 520.064C229.305 519.467 229.748 519.009 230.317 518.692C230.896 518.365 231.559 518.202 232.305 518.202C233.033 518.202 233.677 518.361 234.237 518.678C234.797 518.995 235.227 519.434 235.525 519.994C235.833 520.545 235.987 521.17 235.987 521.87ZM234.671 521.604C234.671 521.119 234.564 520.703 234.349 520.358C234.135 520.003 233.841 519.737 233.467 519.56C233.103 519.373 232.697 519.28 232.249 519.28C231.605 519.28 231.055 519.485 230.597 519.896C230.149 520.307 229.893 520.876 229.827 521.604H234.671ZM238.075 526.084C237.832 526.084 237.627 526 237.459 525.832C237.291 525.664 237.207 525.459 237.207 525.216C237.207 524.973 237.291 524.768 237.459 524.6C237.627 524.432 237.832 524.348 238.075 524.348C238.308 524.348 238.504 524.432 238.663 524.6C238.831 524.768 238.915 524.973 238.915 525.216C238.915 525.459 238.831 525.664 238.663 525.832C238.504 526 238.308 526.084 238.075 526.084Z" fill="#BABABA"/>
<defs>
<clipPath id="bgblur_1_14_956_clip_path" transform="translate(10 -698)"><rect x="20" y="728" width="335" height="64" rx="10"/>
</clipPath><filter id="filter1_d_14_956" x="147" y="707" width="80" height="80" filterUnits="userSpaceOnUse" color-interpolation-filters="sRGB">
<feFlood flood-opacity="0" result="BackgroundImageFix"/>
<feColorMatrix in="SourceAlpha" type="matrix" values="0 0 0 0 0 0 0 0 0 0 0 0 0 0 0 0 0 0 127 0" result="hardAlpha"/>
<feOffset dy="5"/>
<feGaussianBlur stdDeviation="5"/>
<feComposite in2="hardAlpha" operator="out"/>
<feColorMatrix type="matrix" values="0 0 0 0 1 0 0 0 0 0.392157 0 0 0 0 0.392157 0 0 0 0.3 0"/>
<feBlend mode="normal" in2="BackgroundImageFix" result="effect1_dropShadow_14_956"/>
<feBlend mode="normal" in="SourceGraphic" in2="effect1_dropShadow_14_956" result="shape"/>
</filter>
<clipPath id="bgblur_5_14_956_clip_path" transform="translate(10 -71)"><rect x="21" y="102" width="333" height="38" rx="9"/>
</clipPath><clipPath id="bgblur_8_14_956_clip_path" transform="translate(10 -141)"><rect x="21" y="172" width="333" height="68" rx="9"/>
</clipPath><clipPath id="bgblur_9_14_956_clip_path" transform="translate(10 -231)"><rect x="21" y="262" width="333" height="68" rx="9"/>
</clipPath><clipPath id="clip0_14_956">
<rect width="8" height="8" fill="white" transform="translate(28 56)"/>
</clipPath>
<clipPath id="clip2_14_956">
<rect width="24" height="24" fill="white" transform="translate(70 748)"/>
</clipPath>
<clipPath id="clip3_14_956">
<rect width="24" height="24" fill="white" transform="translate(281 748)"/>
</clipPath>
<clipPath id="clip4_14_956">
<rect width="24" height="24" fill="white" transform="translate(175 730)"/>
</clipPath>
<clipPath id="clip6_14_956">
<rect width="18" height="18" fill="white" transform="translate(40 112)"/>
</clipPath>
<clipPath id="clip7_14_956">
<rect width="18" height="18" fill="white" transform="translate(317 112)"/>
</clipPath>
</defs>
</svg>
