<svg width="375" height="812" viewBox="0 0 375 812" fill="none" xmlns="http://www.w3.org/2000/svg">
<g clip-path="url(#clip0_1_2)">
<rect width="375" height="812" fill="white"/>
<rect width="946" height="994" transform="translate(-234)" fill="white"/>
<path d="M-104.277 0H711.592V816.092H-104.277V0Z" fill="#EBE6DE"/>
<path d="M203.478 307.839H3.11191V107.418H203.478V307.839Z" fill="#BB4951"/>
<path d="M403.837 307.839H203.478V107.418H403.837V307.839Z" fill="#D4A352"/>
<path d="M203.478 508.253H3.11191V307.839H203.478V508.253Z" fill="#D4A352"/>
<path d="M403.837 508.253H203.478V307.839H403.837V508.253Z" fill="#DDB1BE"/>
<path d="M203.478 708.674H3.11191V508.253H203.478V708.674Z" fill="#DDB1BE"/>
<path d="M403.837 708.674H203.478V508.253H403.837V708.674Z" fill="#BB4951"/>
<path d="M269.55 460.894C288.386 460.894 303.658 445.624 303.658 426.784V333.539C265.987 333.539 235.45 364.085 235.45 401.766V426.784C235.45 445.624 250.715 460.894 269.55 460.894ZM337.765 460.894C318.923 460.894 303.658 445.624 303.658 426.784V333.539C341.328 333.539 371.866 364.085 371.866 401.766V426.784C371.866 445.624 356.6 460.894 337.765 460.894Z" fill="#3A6798"/>
<path d="M304.32 426.784C304.32 426.784 309.42 484.484 288.43 489.47C269.544 493.959 269.99 474.003 279.449 471.88C284.262 470.802 288.621 468.22 291.165 463.999C294.951 457.694 298.673 446.511 298.928 426.784H304.32Z" fill="#3A6798"/>
<path d="M302.995 426.784C302.995 426.784 297.896 484.484 318.885 489.47C337.771 493.959 337.325 474.003 327.866 471.88C323.054 470.802 318.694 468.22 316.151 463.999C312.364 457.694 308.642 446.511 308.387 426.784H302.995Z" fill="#3A6798"/>
<path d="M434.082 360.528C434.082 377.232 420.544 390.774 403.844 390.774C387.138 390.774 373.599 377.232 373.599 360.528C373.599 343.817 387.138 330.275 403.844 330.275C420.544 330.275 434.082 343.817 434.082 360.528ZM381.783 307.839C381.783 319.997 371.929 329.854 359.774 329.854C347.619 329.854 337.758 319.997 337.758 307.839C337.758 295.674 347.619 285.817 359.774 285.817C371.929 285.817 381.783 295.674 381.783 307.839ZM210.413 224.464C205.517 201.466 193.018 180.159 175.343 164.659C173.59 163.123 171.704 161.599 169.447 161.051C164.622 159.877 159.657 163.792 158.184 168.536C156.718 173.286 157.955 178.45 159.842 183.047C164.456 194.281 172.73 203.519 179.888 213.332C198.277 238.528 209.89 271.459 200.195 301.119C199.743 302.496 199.207 303.918 198.13 304.887C195.612 307.15 191.291 305.703 189.379 302.904C187.466 300.105 187.262 296.528 187.02 293.143C184.203 254.232 167.127 216.513 139.757 188.715C137.539 186.464 135.053 184.169 131.936 183.653C126.538 182.76 121.598 187.918 120.839 193.35C120.081 198.769 122.363 204.138 124.931 208.971C140.892 238.943 170.601 262.782 175.286 296.407C175.84 300.373 175.426 305.403 171.735 306.94C166.802 308.993 162.691 302.802 160.715 297.842C149.701 270.248 131.79 245.44 109.073 226.3C103.687 221.76 97.6443 217.38 90.6457 216.672C83.6407 215.965 75.6732 220.377 74.9275 227.377C74.3474 232.777 78.0061 237.668 81.8241 241.525C97.0643 256.91 118.545 266.709 128.788 285.792C130.489 288.973 130.961 294.22 127.436 294.96C125.983 295.266 124.536 294.514 123.268 293.742C108.971 285.001 99.0594 270.643 85.8716 260.295C76.0047 252.549 35.6765 238.643 37.9393 262.82C39.622 280.761 58.7758 296.19 72.7986 305.002C89.2179 315.305 107.887 321.311 126.168 327.75C130.815 329.382 136.475 332.87 135.168 337.62C134.001 341.834 128.367 342.574 124.026 342.076C97.7144 339.086 75.1378 322.382 49.9224 314.291C46.6398 313.239 42.6688 312.455 40.0618 314.712C43.491 324.39 53.5237 329.854 62.8807 334.075C82.9332 343.122 103.706 350.562 124.938 356.301C132.172 358.258 139.764 360.03 147.1 358.487C154.436 356.945 161.41 351.143 161.856 343.658C162.213 337.639 158.369 332.086 153.716 328.254C149.063 324.416 143.531 321.795 138.674 318.225C137.66 317.479 136.64 316.644 136.143 315.483C134.626 311.964 139.235 308.393 143.008 309.082C146.781 309.771 149.592 312.805 152.524 315.273C164.271 325.149 180.557 327.062 195.835 328.483C201.54 329.013 207.525 329.491 212.803 327.253C228.687 320.52 216.105 296.331 215.04 284.172C213.3 264.28 214.6 244.107 210.413 224.464Z" fill="#EBE6DE"/>
<path d="M203.471 385.712V682.145C196.537 673.805 190.449 656.068 189.602 647.218C187.983 630.469 188.569 612.732 180.315 598.087C173.214 585.501 160.536 577.066 152.25 565.265C142.001 550.69 139.209 532.181 138.655 514.374C137.922 490.739 140.681 466.76 149.248 444.726C157.815 422.678 172.449 402.652 192.343 389.856C195.67 387.701 199.666 385.744 203.471 385.712ZM443.643 186.292C448.264 202.155 445.001 220.268 435.452 234.097C419.396 257.337 403.844 307.839 403.844 307.839V162.326C403.844 148.159 415.317 136.689 429.467 136.689H434.541C441.603 136.689 448.015 139.558 452.668 144.193C457.302 148.828 460.177 155.242 460.177 162.326C460.177 173.267 453.306 182.62 443.643 186.292Z" fill="#3A6798"/>
<path d="M237.687 556.894C247.554 566.17 261.602 569.116 274.879 571.781C288.15 574.446 302.211 577.621 311.797 587.185C314.098 589.473 316.195 592.311 314.608 596.225C313.633 598.623 311.542 600.414 309.101 601.275C304.174 603.016 299.049 601.492 294.103 600.357C274.203 595.811 252.481 597.775 234.857 608.295C231.74 610.156 229.547 613.382 229.331 616.997C228.783 626.281 240.753 628.716 249.536 628.41C243.111 631.279 236.348 634.422 232.887 640.773C231.141 643.967 230.707 647.799 231.938 651.222C233.901 656.693 238.611 657.777 243.073 658.057C274.191 660.002 298.456 629.334 329.587 625.586C331.735 625.324 333.94 626.408 334.699 628.442C335.585 630.788 333.985 632.293 332.519 633.568L298.131 663.553C294.377 666.824 297.175 673.002 302.109 672.32C311.606 671.013 320.619 665.67 325.807 657.566L319.567 666.696C317.355 669.948 319.452 674.526 323.379 674.717C327.484 674.914 331.977 673.155 335.062 670.279C340.187 665.51 342.724 658.676 346.14 652.568C355.618 635.666 375.116 623.176 394.104 627.039C389.12 634.027 385.391 641.901 383.103 650.17C381.879 654.614 386.468 658.535 390.618 656.527C394.41 654.697 397.941 651.222 400.727 647.952C415.68 630.38 436.064 611.463 458.462 616.959C450.304 622.009 441.387 628.027 441.877 638.975C442.126 644.49 446.855 648.984 452.343 648.43C461.605 647.499 462.038 634.174 469.967 631.126C466.302 635.104 464.122 640.384 463.759 645.777C463.542 649.029 466.997 651.331 469.942 649.941C491.722 639.682 497.019 601.154 522.03 597.398C526.613 596.71 531.789 597.634 534.797 601.154C540.062 607.306 537.876 619.643 545.952 621.537C549.719 622.423 553.543 620.217 555.105 616.672C558.636 608.633 554.282 601.128 554.18 593.299C554.091 586.502 557.176 580.139 559.452 573.738C570.727 542.083 561.428 504.071 536.582 481.373C535.517 480.398 534.364 479.511 533.089 478.836C520.787 472.307 512.813 488.444 516.663 499.098C520.067 508.515 528.41 515.19 533.643 523.727C538.876 532.271 539.488 545.749 530.52 550.199C519.551 533.004 504.533 518.41 486.986 508.011C480.835 504.364 472.848 505.008 467.756 510.032C459.355 518.327 466.353 529.848 474.155 536.504C481.058 542.402 489.567 548.146 490.919 557.123C477.54 571.373 452.503 563.575 439.576 548.911C426.65 534.253 420.423 514.718 407.974 499.652C405.507 496.669 402.582 493.723 398.05 494.278C393.359 494.845 389.764 498.715 388.878 503.357C387.291 511.702 392.358 518.818 397.177 525.238C386.513 525.398 378.482 516.204 370.157 509.541C361.399 502.534 346.351 498.773 340.933 509.42C338.995 513.226 339.199 517.753 340.939 521.649C345.337 531.474 355.057 535.828 361.935 543.135C367.111 548.631 370.527 555.752 371.572 563.231C366.301 570.13 355.612 570.716 347.804 566.903C339.996 563.097 334.393 555.995 329.064 549.128C322.505 540.667 315.94 532.2 309.375 523.733C303.211 515.783 296.78 507.597 287.908 502.853C279.035 498.103 266.995 497.746 259.76 504.74C255.54 508.827 254.4 515.585 256.114 521.049C257.892 526.717 251.55 531.55 246.865 527.897C246.815 527.859 246.77 527.82 246.719 527.776L246.585 527.667C239.166 521.636 228.088 527.093 228.891 536.625C229.554 544.442 232.594 552.093 237.687 556.894Z" fill="#EBE6DE"/>
<path d="M120.916 640.6C120.916 663.547 102.316 682.145 79.3829 682.145C56.443 682.145 37.8501 663.547 37.8501 640.6C37.8501 617.654 56.443 599.056 79.3829 599.056C102.316 599.056 120.916 617.654 120.916 640.6Z" fill="#BB4951"/>
<path d="M334.253 238.554C334.253 259.594 316.539 276.496 295.212 275.15C276.517 273.971 261.507 258.414 260.939 239.689C260.646 230.023 264.088 221.174 269.939 214.473C274.152 209.64 274.152 202.27 269.939 197.443C264.088 190.736 260.646 181.886 260.939 172.227C261.507 153.495 276.517 137.939 295.212 136.759C316.539 135.42 334.253 152.316 334.253 173.362C334.253 182.594 330.849 191.023 325.221 197.462C321.014 202.282 321.014 209.634 325.221 214.447C330.849 220.893 334.253 229.322 334.253 238.554Z" fill="#BB4951"/>
<path d="M64.9267 471.497C49.9734 471.497 37.8501 459.371 37.8501 444.413V412.79C37.8501 397.832 49.9734 385.706 64.9267 385.706C79.8801 385.706 92.0034 397.832 92.0034 412.79V444.413C92.0034 459.371 79.8801 471.497 64.9267 471.497Z" fill="#5B7F5E"/>
<rect opacity="0.5" x="3" width="376" height="816" fill="url(#paint0_linear_1_2)"/>
<rect x="120" y="343" width="135" height="135" rx="10" fill="url(#paint1_linear_1_2)"/>
<path d="M169.75 397.583H187H204.25C205.304 397.583 206.167 398.446 206.167 399.5C206.167 400.554 205.304 401.417 204.25 401.417C204.25 401.417 193.778 404.292 187 404.292C180.222 404.292 169.75 401.417 169.75 401.417C168.696 401.417 167.833 400.554 167.833 399.5C167.833 398.446 168.696 397.583 169.75 397.583ZM168.792 389.092C169.482 389.495 170.363 389.246 170.766 388.556L171.667 386.984L172.587 388.575C172.989 389.265 173.871 389.495 174.561 389.112C175.251 388.709 175.481 387.847 175.097 387.157L174.158 385.547H175.979C176.765 385.547 177.417 384.895 177.417 384.109C177.417 383.323 176.765 382.672 175.979 382.672H174.158L175.059 381.1C175.462 380.41 175.232 379.528 174.542 379.126C174.208 378.94 173.814 378.892 173.445 378.992C173.076 379.093 172.761 379.333 172.567 379.662L171.667 381.234L170.766 379.662C170.572 379.333 170.257 379.093 169.888 378.992C169.519 378.892 169.126 378.94 168.792 379.126C168.102 379.528 167.872 380.41 168.274 381.1L169.175 382.672H167.354C166.568 382.672 165.917 383.323 165.917 384.109C165.917 384.895 166.568 385.547 167.354 385.547H169.175L168.255 387.137C167.872 387.827 168.102 388.709 168.792 389.092ZM208.083 384.109C208.083 383.323 207.432 382.672 206.646 382.672H204.825L205.726 381.1C205.915 380.769 205.967 380.376 205.871 380.007C205.774 379.638 205.536 379.321 205.208 379.126C205.046 379.031 204.867 378.97 204.681 378.945C204.494 378.92 204.305 378.932 204.124 378.98C203.942 379.028 203.772 379.111 203.622 379.225C203.473 379.339 203.348 379.481 203.253 379.643L202.333 381.234L201.433 379.662C201.339 379.499 201.214 379.356 201.065 379.242C200.915 379.128 200.745 379.044 200.563 378.996C200.381 378.948 200.192 378.936 200.005 378.962C199.819 378.987 199.64 379.05 199.478 379.145C198.788 379.547 198.558 380.429 198.96 381.119L199.861 382.691H198.04C197.851 382.686 197.663 382.72 197.486 382.789C197.31 382.858 197.15 382.962 197.014 383.094C196.878 383.226 196.77 383.384 196.696 383.558C196.622 383.733 196.584 383.92 196.583 384.109C196.583 384.895 197.235 385.547 198.021 385.547H199.842L198.922 387.137C198.826 387.301 198.765 387.481 198.74 387.668C198.716 387.856 198.729 388.046 198.779 388.228C198.829 388.41 198.915 388.58 199.031 388.729C199.148 388.877 199.293 389.001 199.458 389.092C200.148 389.495 201.03 389.246 201.433 388.556L202.333 386.984L203.253 388.575C203.656 389.265 204.538 389.495 205.228 389.112C205.918 388.709 206.148 387.847 205.764 387.157L204.844 385.566H206.665C207.432 385.547 208.083 384.895 208.083 384.109Z" fill="#FF6464"/>
<g clip-path="url(#clip1_1_2)">
<path d="M187 378.417C190.445 378.417 193.311 380.896 193.912 384.167C193.312 387.438 190.445 389.917 187 389.917C183.555 389.917 180.689 387.438 180.088 384.167C180.688 380.896 183.555 378.417 187 378.417ZM187 388.639C188.303 388.639 189.567 388.196 190.586 387.384C191.605 386.571 192.317 385.437 192.608 384.167C192.316 382.897 191.603 381.764 190.585 380.953C189.566 380.142 188.302 379.7 187 379.7C185.698 379.7 184.434 380.142 183.415 380.953C182.397 381.764 181.684 382.897 181.392 384.167C181.683 385.437 182.395 386.571 183.414 387.384C184.433 388.196 185.697 388.639 187 388.639V388.639ZM187 387.042C186.238 387.042 185.506 386.739 184.967 386.2C184.428 385.66 184.125 384.929 184.125 384.167C184.125 383.404 184.428 382.673 184.967 382.134C185.506 381.595 186.238 381.292 187 381.292C187.762 381.292 188.494 381.595 189.033 382.134C189.572 382.673 189.875 383.404 189.875 384.167C189.875 384.929 189.572 385.66 189.033 386.2C188.494 386.739 187.762 387.042 187 387.042ZM187 385.764C187.424 385.764 187.83 385.596 188.129 385.296C188.429 384.996 188.597 384.59 188.597 384.167C188.597 383.743 188.429 383.337 188.129 383.037C187.83 382.738 187.424 382.569 187 382.569C186.576 382.569 186.17 382.738 185.871 383.037C185.571 383.337 185.403 383.743 185.403 384.167C185.403 384.59 185.571 384.996 185.871 385.296C186.17 385.596 186.576 385.764 187 385.764Z" fill="#FF6464"/>
</g>
<path d="M147.222 421.2H151.11C152.422 421.2 153.406 421.552 154.062 422.256C154.718 422.96 155.046 423.992 155.046 425.352V427.008C155.046 428.368 154.718 429.4 154.062 430.104C153.406 430.808 152.422 431.16 151.11 431.16H149.862V438H147.222V421.2ZM151.11 428.76C151.542 428.76 151.862 428.64 152.07 428.4C152.294 428.16 152.406 427.752 152.406 427.176V425.184C152.406 424.608 152.294 424.2 152.07 423.96C151.862 423.72 151.542 423.6 151.11 423.6H149.862V428.76H151.11ZM157.676 421.2H161.252L163.988 438H161.348L160.868 434.664V434.712H157.868L157.388 438H154.94L157.676 421.2ZM160.556 432.432L159.38 424.128H159.332L158.18 432.432H160.556ZM168.631 438.24C167.351 438.24 166.383 437.88 165.727 437.16C165.071 436.424 164.743 435.376 164.743 434.016V433.056H167.239V434.208C167.239 435.296 167.695 435.84 168.607 435.84C169.055 435.84 169.391 435.712 169.615 435.456C169.855 435.184 169.975 434.752 169.975 434.16C169.975 433.456 169.815 432.84 169.495 432.312C169.175 431.768 168.583 431.12 167.719 430.368C166.631 429.408 165.871 428.544 165.439 427.776C165.007 426.992 164.791 426.112 164.791 425.136C164.791 423.808 165.127 422.784 165.799 422.064C166.471 421.328 167.447 420.96 168.727 420.96C169.991 420.96 170.943 421.328 171.583 422.064C172.239 422.784 172.567 423.824 172.567 425.184V425.88H170.071V425.016C170.071 424.44 169.959 424.024 169.735 423.768C169.511 423.496 169.183 423.36 168.751 423.36C167.871 423.36 167.431 423.896 167.431 424.968C167.431 425.576 167.591 426.144 167.911 426.672C168.247 427.2 168.847 427.84 169.711 428.592C170.815 429.552 171.575 430.424 171.991 431.208C172.407 431.992 172.615 432.912 172.615 433.968C172.615 435.344 172.271 436.4 171.583 437.136C170.911 437.872 169.927 438.24 168.631 438.24ZM177.561 438.24C176.281 438.24 175.313 437.88 174.657 437.16C174.001 436.424 173.673 435.376 173.673 434.016V433.056H176.169V434.208C176.169 435.296 176.625 435.84 177.537 435.84C177.985 435.84 178.321 435.712 178.545 435.456C178.785 435.184 178.905 434.752 178.905 434.16C178.905 433.456 178.745 432.84 178.425 432.312C178.105 431.768 177.513 431.12 176.649 430.368C175.561 429.408 174.801 428.544 174.369 427.776C173.937 426.992 173.721 426.112 173.721 425.136C173.721 423.808 174.057 422.784 174.729 422.064C175.401 421.328 176.377 420.96 177.657 420.96C178.921 420.96 179.873 421.328 180.513 422.064C181.169 422.784 181.497 423.824 181.497 425.184V425.88H179.001V425.016C179.001 424.44 178.889 424.024 178.665 423.768C178.441 423.496 178.113 423.36 177.681 423.36C176.801 423.36 176.361 423.896 176.361 424.968C176.361 425.576 176.521 426.144 176.841 426.672C177.177 427.2 177.777 427.84 178.641 428.592C179.745 429.552 180.505 430.424 180.921 431.208C181.337 431.992 181.545 432.912 181.545 433.968C181.545 435.344 181.201 436.4 180.513 437.136C179.841 437.872 178.857 438.24 177.561 438.24Z" fill="#FF6464"/>
<path d="M186.206 421.2H188.87L190.598 434.232H190.646L192.374 421.2H194.798L192.254 438H188.75L186.206 421.2ZM197.426 421.2H201.002L203.738 438H201.098L200.618 434.664V434.712H197.618L197.138 438H194.69L197.426 421.2ZM200.306 432.432L199.13 424.128H199.082L197.93 432.432H200.306ZM208.812 438.24C207.532 438.24 206.556 437.88 205.884 437.16C205.212 436.424 204.876 435.376 204.876 434.016V421.2H207.516V434.208C207.516 434.784 207.628 435.2 207.852 435.456C208.092 435.712 208.428 435.84 208.86 435.84C209.292 435.84 209.62 435.712 209.844 435.456C210.084 435.2 210.204 434.784 210.204 434.208V421.2H212.748V434.016C212.748 435.376 212.412 436.424 211.74 437.16C211.068 437.88 210.092 438.24 208.812 438.24ZM214.629 421.2H217.269V435.6H221.613V438H214.629V421.2ZM223.068 423.6H220.308V421.2H228.468V423.6H225.708V438H223.068V423.6Z" fill="#545974"/>
<path d="M79.6694 751.03V751.77H77.7694V758H76.8594V751.77H74.9494V751.03H79.6694ZM83.5095 752.42C83.9229 752.42 84.2962 752.51 84.6295 752.69C84.9629 752.863 85.2229 753.127 85.4095 753.48C85.6029 753.833 85.6995 754.263 85.6995 754.77V758H84.7995V754.9C84.7995 754.353 84.6629 753.937 84.3895 753.65C84.1162 753.357 83.7429 753.21 83.2695 753.21C82.7895 753.21 82.4062 753.36 82.1195 753.66C81.8395 753.96 81.6995 754.397 81.6995 754.97V758H80.7895V750.6H81.6995V753.3C81.8795 753.02 82.1262 752.803 82.4395 752.65C82.7595 752.497 83.1162 752.42 83.5095 752.42ZM92.186 755.05C92.186 755.223 92.176 755.407 92.156 755.6H87.776C87.8093 756.14 87.9927 756.563 88.326 756.87C88.666 757.17 89.076 757.32 89.556 757.32C89.9493 757.32 90.276 757.23 90.536 757.05C90.8027 756.863 90.9893 756.617 91.096 756.31H92.076C91.9293 756.837 91.636 757.267 91.196 757.6C90.756 757.927 90.2093 758.09 89.556 758.09C89.036 758.09 88.5693 757.973 88.156 757.74C87.7493 757.507 87.4293 757.177 87.196 756.75C86.9627 756.317 86.846 755.817 86.846 755.25C86.846 754.683 86.9593 754.187 87.186 753.76C87.4127 753.333 87.7293 753.007 88.136 752.78C88.5493 752.547 89.0227 752.43 89.556 752.43C90.076 752.43 90.536 752.543 90.936 752.77C91.336 752.997 91.6427 753.31 91.856 753.71C92.076 754.103 92.186 754.55 92.186 755.05ZM91.246 754.86C91.246 754.513 91.1693 754.217 91.016 753.97C90.8627 753.717 90.6527 753.527 90.386 753.4C90.126 753.267 89.836 753.2 89.516 753.2C89.056 753.2 88.6627 753.347 88.336 753.64C88.016 753.933 87.8327 754.34 87.786 754.86H91.246ZM98.4432 758.09C97.9299 758.09 97.4632 757.973 97.0432 757.74C96.6299 757.507 96.3032 757.177 96.0632 756.75C95.8299 756.317 95.7132 755.817 95.7132 755.25C95.7132 754.69 95.8332 754.197 96.0732 753.77C96.3199 753.337 96.6532 753.007 97.0732 752.78C97.4932 752.547 97.9632 752.43 98.4832 752.43C99.0032 752.43 99.4732 752.547 99.8932 752.78C100.313 753.007 100.643 753.333 100.883 753.76C101.13 754.187 101.253 754.683 101.253 755.25C101.253 755.817 101.127 756.317 100.873 756.75C100.627 757.177 100.29 757.507 99.8632 757.74C99.4365 757.973 98.9632 758.09 98.4432 758.09ZM98.4432 757.29C98.7699 757.29 99.0765 757.213 99.3632 757.06C99.6499 756.907 99.8799 756.677 100.053 756.37C100.233 756.063 100.323 755.69 100.323 755.25C100.323 754.81 100.237 754.437 100.063 754.13C99.8899 753.823 99.6632 753.597 99.3832 753.45C99.1032 753.297 98.7999 753.22 98.4732 753.22C98.1399 753.22 97.8332 753.297 97.5532 753.45C97.2799 753.597 97.0599 753.823 96.8932 754.13C96.7265 754.437 96.6432 754.81 96.6432 755.25C96.6432 755.697 96.7232 756.073 96.8832 756.38C97.0499 756.687 97.2699 756.917 97.5432 757.07C97.8165 757.217 98.1165 757.29 98.4432 757.29ZM105.12 752.42C105.786 752.42 106.326 752.623 106.74 753.03C107.153 753.43 107.36 754.01 107.36 754.77V758H106.46V754.9C106.46 754.353 106.323 753.937 106.05 753.65C105.776 753.357 105.403 753.21 104.93 753.21C104.45 753.21 104.066 753.36 103.78 753.66C103.5 753.96 103.36 754.397 103.36 754.97V758H102.45V752.52H103.36V753.3C103.54 753.02 103.783 752.803 104.09 752.65C104.403 752.497 104.746 752.42 105.12 752.42ZM109.756 750.6V758H108.846V750.6H109.756ZM116.027 752.52L112.727 760.58H111.787L112.867 757.94L110.657 752.52H111.667L113.387 756.96L115.087 752.52H116.027ZM120.518 753.53C120.698 753.217 120.965 752.957 121.318 752.75C121.678 752.537 122.095 752.43 122.568 752.43C123.055 752.43 123.495 752.547 123.888 752.78C124.288 753.013 124.601 753.343 124.828 753.77C125.055 754.19 125.168 754.68 125.168 755.24C125.168 755.793 125.055 756.287 124.828 756.72C124.601 757.153 124.288 757.49 123.888 757.73C123.495 757.97 123.055 758.09 122.568 758.09C122.101 758.09 121.688 757.987 121.328 757.78C120.975 757.567 120.705 757.303 120.518 756.99V760.6H119.608V752.52H120.518V753.53ZM124.238 755.24C124.238 754.827 124.155 754.467 123.988 754.16C123.821 753.853 123.595 753.62 123.308 753.46C123.028 753.3 122.718 753.22 122.378 753.22C122.045 753.22 121.735 753.303 121.448 753.47C121.168 753.63 120.941 753.867 120.768 754.18C120.601 754.487 120.518 754.843 120.518 755.25C120.518 755.663 120.601 756.027 120.768 756.34C120.941 756.647 121.168 756.883 121.448 757.05C121.735 757.21 122.045 757.29 122.378 757.29C122.718 757.29 123.028 757.21 123.308 757.05C123.595 756.883 123.821 756.647 123.988 756.34C124.155 756.027 124.238 755.66 124.238 755.24ZM126.026 755.24C126.026 754.68 126.139 754.19 126.366 753.77C126.592 753.343 126.902 753.013 127.296 752.78C127.696 752.547 128.139 752.43 128.626 752.43C129.106 752.43 129.522 752.533 129.876 752.74C130.229 752.947 130.492 753.207 130.666 753.52V752.52H131.586V758H130.666V756.98C130.486 757.3 130.216 757.567 129.856 757.78C129.502 757.987 129.089 758.09 128.616 758.09C128.129 758.09 127.689 757.97 127.296 757.73C126.902 757.49 126.592 757.153 126.366 756.72C126.139 756.287 126.026 755.793 126.026 755.24ZM130.666 755.25C130.666 754.837 130.582 754.477 130.416 754.17C130.249 753.863 130.022 753.63 129.736 753.47C129.456 753.303 129.146 753.22 128.806 753.22C128.466 753.22 128.156 753.3 127.876 753.46C127.596 753.62 127.372 753.853 127.206 754.16C127.039 754.467 126.956 754.827 126.956 755.24C126.956 755.66 127.039 756.027 127.206 756.34C127.372 756.647 127.596 756.883 127.876 757.05C128.156 757.21 128.466 757.29 128.806 757.29C129.146 757.29 129.456 757.21 129.736 757.05C130.022 756.883 130.249 756.647 130.416 756.34C130.582 756.027 130.666 755.663 130.666 755.25ZM135.064 758.09C134.644 758.09 134.267 758.02 133.934 757.88C133.6 757.733 133.337 757.533 133.144 757.28C132.95 757.02 132.844 756.723 132.824 756.39H133.764C133.79 756.663 133.917 756.887 134.144 757.06C134.377 757.233 134.68 757.32 135.054 757.32C135.4 757.32 135.674 757.243 135.874 757.09C136.074 756.937 136.174 756.743 136.174 756.51C136.174 756.27 136.067 756.093 135.854 755.98C135.64 755.86 135.31 755.743 134.864 755.63C134.457 755.523 134.124 755.417 133.864 755.31C133.61 755.197 133.39 755.033 133.204 754.82C133.024 754.6 132.934 754.313 132.934 753.96C132.934 753.68 133.017 753.423 133.184 753.19C133.35 752.957 133.587 752.773 133.894 752.64C134.2 752.5 134.55 752.43 134.944 752.43C135.55 752.43 136.04 752.583 136.414 752.89C136.787 753.197 136.987 753.617 137.014 754.15H136.104C136.084 753.863 135.967 753.633 135.754 753.46C135.547 753.287 135.267 753.2 134.914 753.2C134.587 753.2 134.327 753.27 134.134 753.41C133.94 753.55 133.844 753.733 133.844 753.96C133.844 754.14 133.9 754.29 134.014 754.41C134.134 754.523 134.28 754.617 134.454 754.69C134.634 754.757 134.88 754.833 135.194 754.92C135.587 755.027 135.907 755.133 136.154 755.24C136.4 755.34 136.61 755.493 136.784 755.7C136.964 755.907 137.057 756.177 137.064 756.51C137.064 756.81 136.98 757.08 136.814 757.32C136.647 757.56 136.41 757.75 136.104 757.89C135.804 758.023 135.457 758.09 135.064 758.09ZM140.288 758.09C139.868 758.09 139.491 758.02 139.158 757.88C138.825 757.733 138.561 757.533 138.368 757.28C138.175 757.02 138.068 756.723 138.048 756.39H138.988C139.015 756.663 139.141 756.887 139.368 757.06C139.601 757.233 139.905 757.32 140.278 757.32C140.625 757.32 140.898 757.243 141.098 757.09C141.298 756.937 141.398 756.743 141.398 756.51C141.398 756.27 141.291 756.093 141.078 755.98C140.865 755.86 140.535 755.743 140.088 755.63C139.681 755.523 139.348 755.417 139.088 755.31C138.835 755.197 138.615 755.033 138.428 754.82C138.248 754.6 138.158 754.313 138.158 753.96C138.158 753.68 138.241 753.423 138.408 753.19C138.575 752.957 138.811 752.773 139.118 752.64C139.425 752.5 139.775 752.43 140.168 752.43C140.775 752.43 141.265 752.583 141.638 752.89C142.011 753.197 142.211 753.617 142.238 754.15H141.328C141.308 753.863 141.191 753.633 140.978 753.46C140.771 753.287 140.491 753.2 140.138 753.2C139.811 753.2 139.551 753.27 139.358 753.41C139.165 753.55 139.068 753.733 139.068 753.96C139.068 754.14 139.125 754.29 139.238 754.41C139.358 754.523 139.505 754.617 139.678 754.69C139.858 754.757 140.105 754.833 140.418 754.92C140.811 755.027 141.131 755.133 141.378 755.24C141.625 755.34 141.835 755.493 142.008 755.7C142.188 755.907 142.281 756.177 142.288 756.51C142.288 756.81 142.205 757.08 142.038 757.32C141.871 757.56 141.635 757.75 141.328 757.89C141.028 758.023 140.681 758.09 140.288 758.09ZM150.873 752.52L149.163 758H148.223L146.903 753.65L145.583 758H144.643L142.923 752.52H143.853L145.113 757.12L146.473 752.52H147.403L148.733 757.13L149.973 752.52H150.873ZM154.166 758.09C153.653 758.09 153.186 757.973 152.766 757.74C152.353 757.507 152.026 757.177 151.786 756.75C151.553 756.317 151.436 755.817 151.436 755.25C151.436 754.69 151.556 754.197 151.796 753.77C152.043 753.337 152.376 753.007 152.796 752.78C153.216 752.547 153.686 752.43 154.206 752.43C154.726 752.43 155.196 752.547 155.616 752.78C156.036 753.007 156.366 753.333 156.606 753.76C156.853 754.187 156.976 754.683 156.976 755.25C156.976 755.817 156.849 756.317 156.596 756.75C156.349 757.177 156.013 757.507 155.586 757.74C155.159 757.973 154.686 758.09 154.166 758.09ZM154.166 757.29C154.493 757.29 154.799 757.213 155.086 757.06C155.373 756.907 155.603 756.677 155.776 756.37C155.956 756.063 156.046 755.69 156.046 755.25C156.046 754.81 155.959 754.437 155.786 754.13C155.613 753.823 155.386 753.597 155.106 753.45C154.826 753.297 154.523 753.22 154.196 753.22C153.863 753.22 153.556 753.297 153.276 753.45C153.003 753.597 152.783 753.823 152.616 754.13C152.449 754.437 152.366 754.81 152.366 755.25C152.366 755.697 152.446 756.073 152.606 756.38C152.773 756.687 152.993 756.917 153.266 757.07C153.539 757.217 153.839 757.29 154.166 757.29ZM159.082 753.41C159.242 753.097 159.469 752.853 159.762 752.68C160.062 752.507 160.426 752.42 160.852 752.42V753.36H160.612C159.592 753.36 159.082 753.913 159.082 755.02V758H158.172V752.52H159.082V753.41ZM161.563 755.24C161.563 754.68 161.676 754.19 161.903 753.77C162.129 753.343 162.439 753.013 162.833 752.78C163.233 752.547 163.679 752.43 164.173 752.43C164.599 752.43 164.996 752.53 165.363 752.73C165.729 752.923 166.009 753.18 166.203 753.5V750.6H167.123V758H166.203V756.97C166.023 757.297 165.756 757.567 165.403 757.78C165.049 757.987 164.636 758.09 164.163 758.09C163.676 758.09 163.233 757.97 162.833 757.73C162.439 757.49 162.129 757.153 161.903 756.72C161.676 756.287 161.563 755.793 161.563 755.24ZM166.203 755.25C166.203 754.837 166.119 754.477 165.953 754.17C165.786 753.863 165.559 753.63 165.273 753.47C164.993 753.303 164.683 753.22 164.343 753.22C164.003 753.22 163.693 753.3 163.413 753.46C163.133 753.62 162.909 753.853 162.743 754.16C162.576 754.467 162.493 754.827 162.493 755.24C162.493 755.66 162.576 756.027 162.743 756.34C162.909 756.647 163.133 756.883 163.413 757.05C163.693 757.21 164.003 757.29 164.343 757.29C164.683 757.29 164.993 757.21 165.273 757.05C165.559 756.883 165.786 756.647 165.953 756.34C166.119 756.027 166.203 755.663 166.203 755.25ZM177.917 752.42C178.343 752.42 178.723 752.51 179.057 752.69C179.39 752.863 179.653 753.127 179.847 753.48C180.04 753.833 180.137 754.263 180.137 754.77V758H179.237V754.9C179.237 754.353 179.1 753.937 178.827 753.65C178.56 753.357 178.197 753.21 177.737 753.21C177.263 753.21 176.887 753.363 176.607 753.67C176.327 753.97 176.187 754.407 176.187 754.98V758H175.287V754.9C175.287 754.353 175.15 753.937 174.877 753.65C174.61 753.357 174.247 753.21 173.787 753.21C173.313 753.21 172.937 753.363 172.657 753.67C172.377 753.97 172.237 754.407 172.237 754.98V758H171.327V752.52H172.237V753.31C172.417 753.023 172.657 752.803 172.957 752.65C173.263 752.497 173.6 752.42 173.967 752.42C174.427 752.42 174.833 752.523 175.187 752.73C175.54 752.937 175.803 753.24 175.977 753.64C176.13 753.253 176.383 752.953 176.737 752.74C177.09 752.527 177.483 752.42 177.917 752.42ZM181.289 755.24C181.289 754.68 181.403 754.19 181.629 753.77C181.856 753.343 182.166 753.013 182.559 752.78C182.959 752.547 183.403 752.43 183.889 752.43C184.369 752.43 184.786 752.533 185.139 752.74C185.493 752.947 185.756 753.207 185.929 753.52V752.52H186.849V758H185.929V756.98C185.749 757.3 185.479 757.567 185.119 757.78C184.766 757.987 184.353 758.09 183.879 758.09C183.393 758.09 182.953 757.97 182.559 757.73C182.166 757.49 181.856 757.153 181.629 756.72C181.403 756.287 181.289 755.793 181.289 755.24ZM185.929 755.25C185.929 754.837 185.846 754.477 185.679 754.17C185.513 753.863 185.286 753.63 184.999 753.47C184.719 753.303 184.409 753.22 184.069 753.22C183.729 753.22 183.419 753.3 183.139 753.46C182.859 753.62 182.636 753.853 182.469 754.16C182.303 754.467 182.219 754.827 182.219 755.24C182.219 755.66 182.303 756.027 182.469 756.34C182.636 756.647 182.859 756.883 183.139 757.05C183.419 757.21 183.729 757.29 184.069 757.29C184.409 757.29 184.719 757.21 184.999 757.05C185.286 756.883 185.513 756.647 185.679 756.34C185.846 756.027 185.929 755.663 185.929 755.25ZM191.057 752.42C191.724 752.42 192.264 752.623 192.677 753.03C193.091 753.43 193.297 754.01 193.297 754.77V758H192.397V754.9C192.397 754.353 192.261 753.937 191.987 753.65C191.714 753.357 191.341 753.21 190.867 753.21C190.387 753.21 190.004 753.36 189.717 753.66C189.437 753.96 189.297 754.397 189.297 754.97V758H188.387V752.52H189.297V753.3C189.477 753.02 189.721 752.803 190.027 752.65C190.341 752.497 190.684 752.42 191.057 752.42ZM194.444 755.24C194.444 754.68 194.557 754.19 194.784 753.77C195.01 753.343 195.32 753.013 195.714 752.78C196.114 752.547 196.557 752.43 197.044 752.43C197.524 752.43 197.94 752.533 198.294 752.74C198.647 752.947 198.91 753.207 199.084 753.52V752.52H200.004V758H199.084V756.98C198.904 757.3 198.634 757.567 198.274 757.78C197.92 757.987 197.507 758.09 197.034 758.09C196.547 758.09 196.107 757.97 195.714 757.73C195.32 757.49 195.01 757.153 194.784 756.72C194.557 756.287 194.444 755.793 194.444 755.24ZM199.084 755.25C199.084 754.837 199 754.477 198.834 754.17C198.667 753.863 198.44 753.63 198.154 753.47C197.874 753.303 197.564 753.22 197.224 753.22C196.884 753.22 196.574 753.3 196.294 753.46C196.014 753.62 195.79 753.853 195.624 754.16C195.457 754.467 195.374 754.827 195.374 755.24C195.374 755.66 195.457 756.027 195.624 756.34C195.79 756.647 196.014 756.883 196.294 757.05C196.574 757.21 196.884 757.29 197.224 757.29C197.564 757.29 197.874 757.21 198.154 757.05C198.44 756.883 198.667 756.647 198.834 756.34C199 756.027 199.084 755.663 199.084 755.25ZM203.801 752.43C204.275 752.43 204.688 752.533 205.041 752.74C205.401 752.947 205.668 753.207 205.841 753.52V752.52H206.761V758.12C206.761 758.62 206.655 759.063 206.441 759.45C206.228 759.843 205.921 760.15 205.521 760.37C205.128 760.59 204.668 760.7 204.141 760.7C203.421 760.7 202.821 760.53 202.341 760.19C201.861 759.85 201.578 759.387 201.491 758.8H202.391C202.491 759.133 202.698 759.4 203.011 759.6C203.325 759.807 203.701 759.91 204.141 759.91C204.641 759.91 205.048 759.753 205.361 759.44C205.681 759.127 205.841 758.687 205.841 758.12V756.97C205.661 757.29 205.395 757.557 205.041 757.77C204.688 757.983 204.275 758.09 203.801 758.09C203.315 758.09 202.871 757.97 202.471 757.73C202.078 757.49 201.768 757.153 201.541 756.72C201.315 756.287 201.201 755.793 201.201 755.24C201.201 754.68 201.315 754.19 201.541 753.77C201.768 753.343 202.078 753.013 202.471 752.78C202.871 752.547 203.315 752.43 203.801 752.43ZM205.841 755.25C205.841 754.837 205.758 754.477 205.591 754.17C205.425 753.863 205.198 753.63 204.911 753.47C204.631 753.303 204.321 753.22 203.981 753.22C203.641 753.22 203.331 753.3 203.051 753.46C202.771 753.62 202.548 753.853 202.381 754.16C202.215 754.467 202.131 754.827 202.131 755.24C202.131 755.66 202.215 756.027 202.381 756.34C202.548 756.647 202.771 756.883 203.051 757.05C203.331 757.21 203.641 757.29 203.981 757.29C204.321 757.29 204.631 757.21 204.911 757.05C205.198 756.883 205.425 756.647 205.591 756.34C205.758 756.027 205.841 755.663 205.841 755.25ZM213.299 755.05C213.299 755.223 213.289 755.407 213.269 755.6H208.889C208.923 756.14 209.106 756.563 209.439 756.87C209.779 757.17 210.189 757.32 210.669 757.32C211.063 757.32 211.389 757.23 211.649 757.05C211.916 756.863 212.103 756.617 212.209 756.31H213.189C213.043 756.837 212.749 757.267 212.309 757.6C211.869 757.927 211.323 758.09 210.669 758.09C210.149 758.09 209.683 757.973 209.269 757.74C208.863 757.507 208.543 757.177 208.309 756.75C208.076 756.317 207.959 755.817 207.959 755.25C207.959 754.683 208.073 754.187 208.299 753.76C208.526 753.333 208.843 753.007 209.249 752.78C209.663 752.547 210.136 752.43 210.669 752.43C211.189 752.43 211.649 752.543 212.049 752.77C212.449 752.997 212.756 753.31 212.969 753.71C213.189 754.103 213.299 754.55 213.299 755.05ZM212.359 754.86C212.359 754.513 212.283 754.217 212.129 753.97C211.976 753.717 211.766 753.527 211.499 753.4C211.239 753.267 210.949 753.2 210.629 753.2C210.169 753.2 209.776 753.347 209.449 753.64C209.129 753.933 208.946 754.34 208.899 754.86H212.359ZM215.41 753.41C215.57 753.097 215.797 752.853 216.09 752.68C216.39 752.507 216.754 752.42 217.18 752.42V753.36H216.94C215.92 753.36 215.41 753.913 215.41 755.02V758H214.5V752.52H215.41V753.41ZM225.617 752.52L222.317 760.58H221.377L222.457 757.94L220.247 752.52H221.257L222.977 756.96L224.677 752.52H225.617ZM228.922 758.09C228.408 758.09 227.942 757.973 227.522 757.74C227.108 757.507 226.782 757.177 226.542 756.75C226.308 756.317 226.192 755.817 226.192 755.25C226.192 754.69 226.312 754.197 226.552 753.77C226.798 753.337 227.132 753.007 227.552 752.78C227.972 752.547 228.442 752.43 228.962 752.43C229.482 752.43 229.952 752.547 230.372 752.78C230.792 753.007 231.122 753.333 231.362 753.76C231.608 754.187 231.732 754.683 231.732 755.25C231.732 755.817 231.605 756.317 231.352 756.75C231.105 757.177 230.768 757.507 230.342 757.74C229.915 757.973 229.442 758.09 228.922 758.09ZM228.922 757.29C229.248 757.29 229.555 757.213 229.842 757.06C230.128 756.907 230.358 756.677 230.532 756.37C230.712 756.063 230.802 755.69 230.802 755.25C230.802 754.81 230.715 754.437 230.542 754.13C230.368 753.823 230.142 753.597 229.862 753.45C229.582 753.297 229.278 753.22 228.952 753.22C228.618 753.22 228.312 753.297 228.032 753.45C227.758 753.597 227.538 753.823 227.372 754.13C227.205 754.437 227.122 754.81 227.122 755.25C227.122 755.697 227.202 756.073 227.362 756.38C227.528 756.687 227.748 756.917 228.022 757.07C228.295 757.217 228.595 757.29 228.922 757.29ZM237.788 752.52V758H236.878V757.19C236.705 757.47 236.462 757.69 236.148 757.85C235.842 758.003 235.502 758.08 235.128 758.08C234.702 758.08 234.318 757.993 233.978 757.82C233.638 757.64 233.368 757.373 233.168 757.02C232.975 756.667 232.878 756.237 232.878 755.73V752.52H233.778V755.61C233.778 756.15 233.915 756.567 234.188 756.86C234.462 757.147 234.835 757.29 235.308 757.29C235.795 757.29 236.178 757.14 236.458 756.84C236.738 756.54 236.878 756.103 236.878 755.53V752.52H237.788ZM239.465 751.03H240.475L239.515 753.3H238.875L239.465 751.03ZM242.422 750.6V758H241.512V750.6H242.422ZM244.883 750.6V758H243.973V750.6H244.883ZM254.1 755.05C254.1 755.223 254.09 755.407 254.07 755.6H249.69C249.723 756.14 249.907 756.563 250.24 756.87C250.58 757.17 250.99 757.32 251.47 757.32C251.863 757.32 252.19 757.23 252.45 757.05C252.717 756.863 252.903 756.617 253.01 756.31H253.99C253.843 756.837 253.55 757.267 253.11 757.6C252.67 757.927 252.123 758.09 251.47 758.09C250.95 758.09 250.483 757.973 250.07 757.74C249.663 757.507 249.343 757.177 249.11 756.75C248.877 756.317 248.76 755.817 248.76 755.25C248.76 754.683 248.873 754.187 249.1 753.76C249.327 753.333 249.643 753.007 250.05 752.78C250.463 752.547 250.937 752.43 251.47 752.43C251.99 752.43 252.45 752.543 252.85 752.77C253.25 752.997 253.557 753.31 253.77 753.71C253.99 754.103 254.1 754.55 254.1 755.05ZM253.16 754.86C253.16 754.513 253.083 754.217 252.93 753.97C252.777 753.717 252.567 753.527 252.3 753.4C252.04 753.267 251.75 753.2 251.43 753.2C250.97 753.2 250.577 753.347 250.25 753.64C249.93 753.933 249.747 754.34 249.7 754.86H253.16ZM257.341 757.16L259.041 752.52H260.011L257.861 758H256.801L254.651 752.52H255.631L257.341 757.16ZM265.907 755.05C265.907 755.223 265.897 755.407 265.877 755.6H261.497C261.53 756.14 261.713 756.563 262.047 756.87C262.387 757.17 262.797 757.32 263.277 757.32C263.67 757.32 263.997 757.23 264.257 757.05C264.523 756.863 264.71 756.617 264.817 756.31H265.797C265.65 756.837 265.357 757.267 264.917 757.6C264.477 757.927 263.93 758.09 263.277 758.09C262.757 758.09 262.29 757.973 261.877 757.74C261.47 757.507 261.15 757.177 260.917 756.75C260.683 756.317 260.567 755.817 260.567 755.25C260.567 754.683 260.68 754.187 260.907 753.76C261.133 753.333 261.45 753.007 261.857 752.78C262.27 752.547 262.743 752.43 263.277 752.43C263.797 752.43 264.257 752.543 264.657 752.77C265.057 752.997 265.363 753.31 265.577 753.71C265.797 754.103 265.907 754.55 265.907 755.05ZM264.967 754.86C264.967 754.513 264.89 754.217 264.737 753.97C264.583 753.717 264.373 753.527 264.107 753.4C263.847 753.267 263.557 753.2 263.237 753.2C262.777 753.2 262.383 753.347 262.057 753.64C261.737 753.933 261.553 754.34 261.507 754.86H264.967ZM268.018 753.41C268.178 753.097 268.405 752.853 268.698 752.68C268.998 752.507 269.361 752.42 269.788 752.42V753.36H269.548C268.528 753.36 268.018 753.913 268.018 755.02V758H267.108V752.52H268.018V753.41ZM276.174 752.42C276.841 752.42 277.381 752.623 277.794 753.03C278.208 753.43 278.414 754.01 278.414 754.77V758H277.514V754.9C277.514 754.353 277.378 753.937 277.104 753.65C276.831 753.357 276.458 753.21 275.984 753.21C275.504 753.21 275.121 753.36 274.834 753.66C274.554 753.96 274.414 754.397 274.414 754.97V758H273.504V752.52H274.414V753.3C274.594 753.02 274.838 752.803 275.144 752.65C275.458 752.497 275.801 752.42 276.174 752.42ZM284.901 755.05C284.901 755.223 284.891 755.407 284.871 755.6H280.491C280.524 756.14 280.708 756.563 281.041 756.87C281.381 757.17 281.791 757.32 282.271 757.32C282.664 757.32 282.991 757.23 283.251 757.05C283.518 756.863 283.704 756.617 283.811 756.31H284.791C284.644 756.837 284.351 757.267 283.911 757.6C283.471 757.927 282.924 758.09 282.271 758.09C281.751 758.09 281.284 757.973 280.871 757.74C280.464 757.507 280.144 757.177 279.911 756.75C279.678 756.317 279.561 755.817 279.561 755.25C279.561 754.683 279.674 754.187 279.901 753.76C280.128 753.333 280.444 753.007 280.851 752.78C281.264 752.547 281.738 752.43 282.271 752.43C282.791 752.43 283.251 752.543 283.651 752.77C284.051 752.997 284.358 753.31 284.571 753.71C284.791 754.103 284.901 754.55 284.901 755.05ZM283.961 754.86C283.961 754.513 283.884 754.217 283.731 753.97C283.578 753.717 283.368 753.527 283.101 753.4C282.841 753.267 282.551 753.2 282.231 753.2C281.771 753.2 281.378 753.347 281.051 753.64C280.731 753.933 280.548 754.34 280.501 754.86H283.961ZM291.102 755.05C291.102 755.223 291.092 755.407 291.072 755.6H286.692C286.725 756.14 286.909 756.563 287.242 756.87C287.582 757.17 287.992 757.32 288.472 757.32C288.865 757.32 289.192 757.23 289.452 757.05C289.719 756.863 289.905 756.617 290.012 756.31H290.992C290.845 756.837 290.552 757.267 290.112 757.6C289.672 757.927 289.125 758.09 288.472 758.09C287.952 758.09 287.485 757.973 287.072 757.74C286.665 757.507 286.345 757.177 286.112 756.75C285.879 756.317 285.762 755.817 285.762 755.25C285.762 754.683 285.875 754.187 286.102 753.76C286.329 753.333 286.645 753.007 287.052 752.78C287.465 752.547 287.939 752.43 288.472 752.43C288.992 752.43 289.452 752.543 289.852 752.77C290.252 752.997 290.559 753.31 290.772 753.71C290.992 754.103 291.102 754.55 291.102 755.05ZM290.162 754.86C290.162 754.513 290.085 754.217 289.932 753.97C289.779 753.717 289.569 753.527 289.302 753.4C289.042 753.267 288.752 753.2 288.432 753.2C287.972 753.2 287.579 753.347 287.252 753.64C286.932 753.933 286.749 754.34 286.702 754.86H290.162ZM291.963 755.24C291.963 754.68 292.077 754.19 292.303 753.77C292.53 753.343 292.84 753.013 293.233 752.78C293.633 752.547 294.08 752.43 294.573 752.43C295 752.43 295.397 752.53 295.763 752.73C296.13 752.923 296.41 753.18 296.603 753.5V750.6H297.523V758H296.603V756.97C296.423 757.297 296.157 757.567 295.803 757.78C295.45 757.987 295.037 758.09 294.563 758.09C294.077 758.09 293.633 757.97 293.233 757.73C292.84 757.49 292.53 757.153 292.303 756.72C292.077 756.287 291.963 755.793 291.963 755.24ZM296.603 755.25C296.603 754.837 296.52 754.477 296.353 754.17C296.187 753.863 295.96 753.63 295.673 753.47C295.393 753.303 295.083 753.22 294.743 753.22C294.403 753.22 294.093 753.3 293.813 753.46C293.533 753.62 293.31 753.853 293.143 754.16C292.977 754.467 292.893 754.827 292.893 755.24C292.893 755.66 292.977 756.027 293.143 756.34C293.31 756.647 293.533 756.883 293.813 757.05C294.093 757.21 294.403 757.29 294.743 757.29C295.083 757.29 295.393 757.21 295.673 757.05C295.96 756.883 296.187 756.647 296.353 756.34C296.52 756.027 296.603 755.663 296.603 755.25ZM299.351 758.06C299.178 758.06 299.031 758 298.911 757.88C298.791 757.76 298.731 757.613 298.731 757.44C298.731 757.267 298.791 757.12 298.911 757C299.031 756.88 299.178 756.82 299.351 756.82C299.518 756.82 299.658 756.88 299.771 757C299.891 757.12 299.951 757.267 299.951 757.44C299.951 757.613 299.891 757.76 299.771 757.88C299.658 758 299.518 758.06 299.351 758.06Z" fill="#BABABA"/>
<path d="M33.3035 26.8809C33.3035 25.7969 33.6697 24.9082 34.4021 24.2148C35.1395 23.5166 36.0818 23.1675 37.2293 23.1675C38.0008 23.1675 38.6844 23.3457 39.2801 23.7021C39.8758 24.0586 40.3519 24.5762 40.7083 25.2549C41.2063 26.1387 41.4554 27.252 41.4554 28.5947C41.4554 30.3721 41.077 31.7612 40.3201 32.7622C39.5633 33.7583 38.5135 34.2563 37.1707 34.2563C36.2039 34.2563 35.3812 33.9951 34.7024 33.4727C34.0237 32.9453 33.6062 32.2471 33.45 31.3779H35.3323C35.4544 31.7783 35.679 32.0957 36.0062 32.3301C36.3382 32.5596 36.7312 32.6743 37.1854 32.6743C37.9568 32.6743 38.5599 32.335 38.9944 31.6562C39.429 30.9727 39.6463 30.0254 39.6463 28.8145H39.5804H39.5437H39.5218C39.2728 29.3174 38.909 29.708 38.4305 29.9863C37.952 30.2598 37.4026 30.3965 36.7825 30.3965C35.7767 30.3965 34.9441 30.0645 34.285 29.4004C33.6307 28.7363 33.3035 27.8965 33.3035 26.8809ZM35.1565 26.8223C35.1565 27.4277 35.3519 27.9258 35.7425 28.3164C36.1331 28.7021 36.6312 28.895 37.2366 28.895C37.8421 28.895 38.3426 28.7021 38.7381 28.3164C39.1336 27.9307 39.3313 27.4424 39.3313 26.8516C39.3313 26.2559 39.1312 25.7554 38.7308 25.3501C38.3304 24.9448 37.8348 24.7422 37.2439 24.7422C36.6531 24.7422 36.1575 24.9424 35.7571 25.3428C35.3567 25.7383 35.1565 26.2314 35.1565 26.8223ZM43.3746 32.9966C43.3746 32.6597 43.4845 32.3838 43.7042 32.1689C43.9239 31.9492 44.2047 31.8394 44.5465 31.8394C44.8932 31.8394 45.1739 31.9492 45.3888 32.1689C45.6085 32.3838 45.7184 32.6597 45.7184 32.9966C45.7184 33.3286 45.6085 33.6045 45.3888 33.8242C45.1739 34.0439 44.8932 34.1538 44.5465 34.1538C44.2047 34.1538 43.9239 34.0439 43.7042 33.8242C43.4845 33.6045 43.3746 33.3286 43.3746 32.9966ZM43.3746 27.5107C43.3746 27.1738 43.4845 26.8979 43.7042 26.6831C43.9239 26.4634 44.2047 26.3535 44.5465 26.3535C44.8932 26.3535 45.1739 26.4634 45.3888 26.6831C45.6085 26.8979 45.7184 27.1738 45.7184 27.5107C45.7184 27.8428 45.6085 28.1187 45.3888 28.3384C45.1739 28.5532 44.8932 28.6606 44.5465 28.6606C44.2047 28.6606 43.9239 28.5532 43.7042 28.3384C43.4845 28.1187 43.3746 27.8428 43.3746 27.5107ZM47.4105 32.0298V30.3452C48.2699 28.7632 49.7055 26.4585 51.7172 23.4312H54.3832V30.4331H55.8114V32.0298H54.3832V34H52.5741V32.0298H47.4105ZM49.161 30.4771H52.6034V24.9692H52.5009C51.3583 26.6587 50.245 28.458 49.161 30.3672V30.4771ZM57.0861 27.1812V25.3647L59.8474 23.4312H61.7297V34H59.84V25.3354H59.7155L57.0861 27.1812Z" fill="#545974"/>
<rect opacity="0.35" x="336.833" y="21.8334" width="21" height="10.3333" rx="2.16667" stroke="#545974"/>
<path opacity="0.4" d="M359.333 25V29C360.138 28.6612 360.661 27.8731 360.661 27C360.661 26.1269 360.138 25.3388 359.333 25Z" fill="#545974"/>
<rect x="338.333" y="23.3334" width="18" height="7.33333" rx="1.33333" fill="#545974"/>
<path fill-rule="evenodd" clip-rule="evenodd" d="M323.667 23.6152C325.892 23.6153 328.031 24.4694 329.644 26.001C329.765 26.1192 329.959 26.1177 330.079 25.9976L331.239 24.8273C331.3 24.7664 331.334 24.6839 331.333 24.598C331.333 24.5122 331.298 24.4301 331.237 24.3699C327.005 20.3176 320.329 20.3176 316.097 24.3699C316.035 24.43 316.001 24.5121 316 24.598C315.999 24.6838 316.033 24.7663 316.094 24.8273L317.255 25.9976C317.374 26.1179 317.568 26.1194 317.69 26.001C319.302 24.4693 321.442 23.6152 323.667 23.6152ZM323.667 27.4227C324.889 27.4227 326.068 27.8766 326.974 28.6964C327.097 28.8127 327.29 28.8102 327.409 28.6907L328.569 27.5204C328.63 27.459 328.663 27.3757 328.663 27.2892C328.662 27.2027 328.626 27.1201 328.564 27.0599C325.805 24.4955 321.532 24.4955 318.773 27.0599C318.71 27.1201 318.675 27.2027 318.674 27.2893C318.673 27.3758 318.707 27.4591 318.768 27.5204L319.927 28.6907C320.047 28.8102 320.24 28.8127 320.362 28.6964C321.268 27.8772 322.446 27.4233 323.667 27.4227ZM325.989 29.9846C325.991 30.0714 325.957 30.155 325.895 30.2158L323.89 32.2378C323.831 32.2972 323.751 32.3307 323.667 32.3307C323.583 32.3307 323.503 32.2972 323.445 32.2378L321.439 30.2158C321.377 30.155 321.343 30.0713 321.345 29.9845C321.347 29.8977 321.384 29.8156 321.449 29.7574C322.729 28.6751 324.605 28.6751 325.886 29.7574C325.95 29.8156 325.988 29.8978 325.989 29.9846Z" fill="#545974"/>
<path fill-rule="evenodd" clip-rule="evenodd" d="M310 21.6666H309C308.448 21.6666 308 22.1143 308 22.6666V31.3333C308 31.8856 308.448 32.3333 309 32.3333H310C310.552 32.3333 311 31.8856 311 31.3333V22.6666C311 22.1143 310.552 21.6666 310 21.6666ZM304.333 24H305.333C305.886 24 306.333 24.4477 306.333 25V31.3333C306.333 31.8856 305.886 32.3333 305.333 32.3333H304.333C303.781 32.3333 303.333 31.8856 303.333 31.3333V25C303.333 24.4477 303.781 24 304.333 24ZM300.667 26.3333H299.667C299.114 26.3333 298.667 26.781 298.667 27.3333V31.3333C298.667 31.8856 299.114 32.3333 299.667 32.3333H300.667C301.219 32.3333 301.667 31.8856 301.667 31.3333V27.3333C301.667 26.781 301.219 26.3333 300.667 26.3333ZM296 28.3333H295C294.448 28.3333 294 28.781 294 29.3333V31.3333C294 31.8856 294.448 32.3333 295 32.3333H296C296.552 32.3333 297 31.8856 297 31.3333V29.3333C297 28.781 296.552 28.3333 296 28.3333Z" fill="#545974"/>
<rect x="120" y="803" width="134" height="5" rx="2.5" fill="#545974"/>
</g>
<defs>
<linearGradient id="paint0_linear_1_2" x1="191" y1="0" x2="191" y2="816" gradientUnits="userSpaceOnUse">
<stop stop-color="#FF6464"/>
<stop offset="1" stop-color="white"/>
</linearGradient>
<linearGradient id="paint1_linear_1_2" x1="187.5" y1="343" x2="187.5" y2="478" gradientUnits="userSpaceOnUse">
<stop stop-color="white" stop-opacity="0.85"/>
<stop offset="1" stop-color="white" stop-opacity="0.7"/>
</linearGradient>
<clipPath id="clip0_1_2">
<rect width="375" height="812" fill="white"/>
</clipPath>
<clipPath id="clip1_1_2">
<rect width="15.3333" height="15.3333" fill="white" transform="translate(179.333 376.5)"/>
</clipPath>
</defs>
</svg>
