<svg width="375" height="812" viewBox="0 0 375 812" fill="none" xmlns="http://www.w3.org/2000/svg">
<rect width="375" height="812" fill="white"/>
<path d="M33.3035 26.8809C33.3035 25.7969 33.6697 24.9082 34.4021 24.2148C35.1395 23.5166 36.0818 23.1675 37.2293 23.1675C38.0008 23.1675 38.6844 23.3457 39.2801 23.7021C39.8758 24.0586 40.3519 24.5762 40.7083 25.2549C41.2063 26.1387 41.4554 27.252 41.4554 28.5947C41.4554 30.3721 41.077 31.7612 40.3201 32.7622C39.5633 33.7583 38.5135 34.2563 37.1707 34.2563C36.2039 34.2563 35.3812 33.9951 34.7024 33.4727C34.0237 32.9453 33.6062 32.2471 33.45 31.3779H35.3323C35.4544 31.7783 35.679 32.0957 36.0062 32.3301C36.3382 32.5596 36.7312 32.6743 37.1854 32.6743C37.9568 32.6743 38.5599 32.335 38.9944 31.6562C39.429 30.9727 39.6463 30.0254 39.6463 28.8145H39.5804H39.5437H39.5218C39.2728 29.3174 38.909 29.708 38.4305 29.9863C37.952 30.2598 37.4026 30.3965 36.7825 30.3965C35.7767 30.3965 34.9441 30.0645 34.285 29.4004C33.6307 28.7363 33.3035 27.8965 33.3035 26.8809ZM35.1565 26.8223C35.1565 27.4277 35.3519 27.9258 35.7425 28.3164C36.1331 28.7021 36.6312 28.895 37.2366 28.895C37.8421 28.895 38.3426 28.7021 38.7381 28.3164C39.1336 27.9307 39.3313 27.4424 39.3313 26.8516C39.3313 26.2559 39.1312 25.7554 38.7308 25.3501C38.3304 24.9448 37.8348 24.7422 37.2439 24.7422C36.6531 24.7422 36.1575 24.9424 35.7571 25.3428C35.3567 25.7383 35.1565 26.2314 35.1565 26.8223ZM43.3746 32.9966C43.3746 32.6597 43.4845 32.3838 43.7042 32.1689C43.9239 31.9492 44.2047 31.8394 44.5465 31.8394C44.8932 31.8394 45.1739 31.9492 45.3888 32.1689C45.6085 32.3838 45.7184 32.6597 45.7184 32.9966C45.7184 33.3286 45.6085 33.6045 45.3888 33.8242C45.1739 34.0439 44.8932 34.1538 44.5465 34.1538C44.2047 34.1538 43.9239 34.0439 43.7042 33.8242C43.4845 33.6045 43.3746 33.3286 43.3746 32.9966ZM43.3746 27.5107C43.3746 27.1738 43.4845 26.8979 43.7042 26.6831C43.9239 26.4634 44.2047 26.3535 44.5465 26.3535C44.8932 26.3535 45.1739 26.4634 45.3888 26.6831C45.6085 26.8979 45.7184 27.1738 45.7184 27.5107C45.7184 27.8428 45.6085 28.1187 45.3888 28.3384C45.1739 28.5532 44.8932 28.6606 44.5465 28.6606C44.2047 28.6606 43.9239 28.5532 43.7042 28.3384C43.4845 28.1187 43.3746 27.8428 43.3746 27.5107ZM47.4105 32.0298V30.3452C48.2699 28.7632 49.7055 26.4585 51.7172 23.4312H54.3832V30.4331H55.8114V32.0298H54.3832V34H52.5741V32.0298H47.4105ZM49.161 30.4771H52.6034V24.9692H52.5009C51.3583 26.6587 50.245 28.458 49.161 30.3672V30.4771ZM57.0861 27.1812V25.3647L59.8474 23.4312H61.7297V34H59.84V25.3354H59.7155L57.0861 27.1812Z" fill="#545974"/>
<rect opacity="0.35" x="336.833" y="21.8333" width="21" height="10.3333" rx="2.16667" stroke="#545974"/>
<path opacity="0.4" d="M359.333 25V29C360.138 28.6612 360.661 27.8731 360.661 27C360.661 26.1269 360.138 25.3388 359.333 25Z" fill="#545974"/>
<rect x="338.333" y="23.3333" width="18" height="7.33333" rx="1.33333" fill="#545974"/>
<path fill-rule="evenodd" clip-rule="evenodd" d="M323.667 23.615C325.892 23.6151 328.031 24.4693 329.644 26.0008C329.765 26.1191 329.959 26.1176 330.079 25.9975L331.239 24.8272C331.3 24.7663 331.334 24.6837 331.333 24.5979C331.333 24.5121 331.298 24.4299 331.237 24.3697C327.005 20.3175 320.329 20.3175 316.097 24.3697C316.035 24.4299 316.001 24.512 316 24.5978C315.999 24.6837 316.033 24.7662 316.094 24.8272L317.255 25.9975C317.374 26.1178 317.568 26.1193 317.69 26.0008C319.302 24.4692 321.442 23.615 323.667 23.615ZM323.667 27.4226C324.889 27.4226 326.068 27.8765 326.974 28.6963C327.097 28.8126 327.29 28.8101 327.409 28.6906L328.569 27.5203C328.63 27.4589 328.663 27.3756 328.663 27.2891C328.662 27.2025 328.626 27.12 328.564 27.0598C325.805 24.4954 321.532 24.4954 318.773 27.0598C318.71 27.12 318.675 27.2026 318.674 27.2891C318.673 27.3757 318.707 27.459 318.768 27.5203L319.927 28.6906C320.047 28.8101 320.24 28.8126 320.362 28.6963C321.268 27.877 322.446 27.4231 323.667 27.4226ZM325.989 29.9845C325.991 30.0712 325.957 30.1549 325.895 30.2157L323.89 32.2377C323.831 32.2971 323.751 32.3306 323.667 32.3306C323.583 32.3306 323.503 32.2971 323.445 32.2377L321.439 30.2157C321.377 30.1549 321.343 30.0712 321.345 29.9844C321.347 29.8976 321.384 29.8154 321.449 29.7573C322.729 28.675 324.605 28.675 325.886 29.7573C325.95 29.8155 325.988 29.8977 325.989 29.9845Z" fill="#545974"/>
<path fill-rule="evenodd" clip-rule="evenodd" d="M310 21.6667H309C308.448 21.6667 308 22.1145 308 22.6667V31.3334C308 31.8857 308.448 32.3334 309 32.3334H310C310.552 32.3334 311 31.8857 311 31.3334V22.6667C311 22.1145 310.552 21.6667 310 21.6667ZM304.333 24.0001H305.333C305.886 24.0001 306.333 24.4478 306.333 25.0001V31.3334C306.333 31.8857 305.886 32.3334 305.333 32.3334H304.333C303.781 32.3334 303.333 31.8857 303.333 31.3334V25.0001C303.333 24.4478 303.781 24.0001 304.333 24.0001ZM300.667 26.3334H299.667C299.114 26.3334 298.667 26.7811 298.667 27.3334V31.3334C298.667 31.8857 299.114 32.3334 299.667 32.3334H300.667C301.219 32.3334 301.667 31.8857 301.667 31.3334V27.3334C301.667 26.7811 301.219 26.3334 300.667 26.3334ZM296 28.3334H295C294.448 28.3334 294 28.7811 294 29.3334V31.3334C294 31.8857 294.448 32.3334 295 32.3334H296C296.552 32.3334 297 31.8857 297 31.3334V29.3334C297 28.7811 296.552 28.3334 296 28.3334Z" fill="#545974"/>
<rect x="120" y="803" width="134" height="5" rx="2.5" fill="#545974"/>
<g clip-path="url(#clip0_22_340)">
<path d="M31.1816 61.6464C30.9863 61.8417 30.9863 62.1583 31.1816 62.3535L35.071 66.243C35.4615 66.6335 35.4615 67.2665 35.071 67.657C34.6805 68.0475 34.0475 68.0475 33.657 67.657L28.7071 62.7071C28.3166 62.3166 28.3166 61.6834 28.7071 61.2929L33.657 56.343C34.0475 55.9525 34.6805 55.9525 35.071 56.343C35.4615 56.7335 35.4615 57.3665 35.071 57.757L31.1816 61.6464Z" fill="#545974"/>
</g>
<rect x="21" y="265" width="333" height="38" rx="9" fill="white" fill-opacity="0.2" stroke="#F1F1F1" stroke-width="2"/>
<path d="M30.41 253H31.79L32.86 257.19H32.88V253H33.86V260H32.73L31.41 254.89H31.39V260H30.41V253ZM35.5276 253H37.0176L38.1576 260H37.0576L36.8576 258.61V258.63H35.6076L35.4076 260H34.3876L35.5276 253ZM36.7276 257.68L36.2376 254.22H36.2176L35.7376 257.68H36.7276ZM38.6913 253H40.2613L40.9613 258.01H40.9813L41.6813 253H43.2513V260H42.2113V254.7H42.1913L41.3913 260H40.4713L39.6713 254.7H39.6513V260H38.6913V253ZM44.0721 253H47.0721V254H45.1721V255.85H46.6821V256.85H45.1721V259H47.0721V260H44.0721V253Z" fill="#545974"/>
<path d="M36.594 279.242V280.278H32.352V283.568H35.796V284.604H32.352V289H31.078V279.242H36.594ZM37.6567 285.136C37.6567 284.352 37.8154 283.666 38.1327 283.078C38.45 282.481 38.884 282.019 39.4347 281.692C39.9947 281.365 40.6154 281.202 41.2967 281.202C41.9687 281.202 42.552 281.347 43.0467 281.636C43.5414 281.925 43.91 282.289 44.1527 282.728V281.328H45.4407V289H44.1527V287.572C43.9007 288.02 43.5227 288.393 43.0187 288.692C42.524 288.981 41.9454 289.126 41.2827 289.126C40.6014 289.126 39.9854 288.958 39.4347 288.622C38.884 288.286 38.45 287.815 38.1327 287.208C37.8154 286.601 37.6567 285.911 37.6567 285.136ZM44.1527 285.15C44.1527 284.571 44.036 284.067 43.8027 283.638C43.5694 283.209 43.252 282.882 42.8507 282.658C42.4587 282.425 42.0247 282.308 41.5487 282.308C41.0727 282.308 40.6387 282.42 40.2467 282.644C39.8547 282.868 39.542 283.195 39.3087 283.624C39.0754 284.053 38.9587 284.557 38.9587 285.136C38.9587 285.724 39.0754 286.237 39.3087 286.676C39.542 287.105 39.8547 287.437 40.2467 287.67C40.6387 287.894 41.0727 288.006 41.5487 288.006C42.0247 288.006 42.4587 287.894 42.8507 287.67C43.252 287.437 43.5694 287.105 43.8027 286.676C44.036 286.237 44.1527 285.729 44.1527 285.15ZM47.1176 285.15C47.1176 284.357 47.2763 283.666 47.5936 283.078C47.911 282.481 48.3496 282.019 48.9096 281.692C49.479 281.365 50.1276 281.202 50.8556 281.202C51.7983 281.202 52.573 281.431 53.1796 281.888C53.7956 282.345 54.2016 282.98 54.3976 283.792H53.0256C52.895 283.325 52.6383 282.957 52.2556 282.686C51.8823 282.415 51.4156 282.28 50.8556 282.28C50.1276 282.28 49.5396 282.532 49.0916 283.036C48.6436 283.531 48.4196 284.235 48.4196 285.15C48.4196 286.074 48.6436 286.788 49.0916 287.292C49.5396 287.796 50.1276 288.048 50.8556 288.048C51.4156 288.048 51.8823 287.917 52.2556 287.656C52.629 287.395 52.8856 287.021 53.0256 286.536H54.3976C54.1923 287.32 53.7816 287.95 53.1656 288.426C52.5496 288.893 51.7796 289.126 50.8556 289.126C50.1276 289.126 49.479 288.963 48.9096 288.636C48.3496 288.309 47.911 287.847 47.5936 287.25C47.2763 286.653 47.1176 285.953 47.1176 285.15ZM63.0975 284.87C63.0975 285.113 63.0835 285.369 63.0555 285.64H56.9235C56.9702 286.396 57.2269 286.989 57.6935 287.418C58.1695 287.838 58.7435 288.048 59.4155 288.048C59.9662 288.048 60.4235 287.922 60.7875 287.67C61.1609 287.409 61.4222 287.063 61.5715 286.634H62.9435C62.7382 287.371 62.3275 287.973 61.7115 288.44C61.0955 288.897 60.3302 289.126 59.4155 289.126C58.6875 289.126 58.0342 288.963 57.4555 288.636C56.8862 288.309 56.4382 287.847 56.1115 287.25C55.7849 286.643 55.6215 285.943 55.6215 285.15C55.6215 284.357 55.7802 283.661 56.0975 283.064C56.4149 282.467 56.8582 282.009 57.4275 281.692C58.0062 281.365 58.6689 281.202 59.4155 281.202C60.1435 281.202 60.7875 281.361 61.3475 281.678C61.9075 281.995 62.3369 282.434 62.6355 282.994C62.9435 283.545 63.0975 284.17 63.0975 284.87ZM61.7815 284.604C61.7815 284.119 61.6742 283.703 61.4595 283.358C61.2449 283.003 60.9509 282.737 60.5775 282.56C60.2135 282.373 59.8075 282.28 59.3595 282.28C58.7155 282.28 58.1649 282.485 57.7075 282.896C57.2595 283.307 57.0029 283.876 56.9375 284.604H61.7815ZM66.0532 282.756C66.3145 282.299 66.6972 281.925 67.2012 281.636C67.7052 281.347 68.2792 281.202 68.9232 281.202C69.6138 281.202 70.2345 281.365 70.7852 281.692C71.3358 282.019 71.7698 282.481 72.0872 283.078C72.4045 283.666 72.5632 284.352 72.5632 285.136C72.5632 285.911 72.4045 286.601 72.0872 287.208C71.7698 287.815 71.3312 288.286 70.7712 288.622C70.2205 288.958 69.6045 289.126 68.9232 289.126C68.2605 289.126 67.6772 288.981 67.1732 288.692C66.6785 288.403 66.3052 288.034 66.0532 287.586V289H64.7792V278.64H66.0532V282.756ZM71.2612 285.136C71.2612 284.557 71.1445 284.053 70.9112 283.624C70.6778 283.195 70.3605 282.868 69.9592 282.644C69.5672 282.42 69.1332 282.308 68.6572 282.308C68.1905 282.308 67.7565 282.425 67.3552 282.658C66.9632 282.882 66.6458 283.213 66.4032 283.652C66.1698 284.081 66.0532 284.581 66.0532 285.15C66.0532 285.729 66.1698 286.237 66.4032 286.676C66.6458 287.105 66.9632 287.437 67.3552 287.67C67.7565 287.894 68.1905 288.006 68.6572 288.006C69.1332 288.006 69.5672 287.894 69.9592 287.67C70.3605 287.437 70.6778 287.105 70.9112 286.676C71.1445 286.237 71.2612 285.724 71.2612 285.136ZM77.5861 289.126C76.8674 289.126 76.2141 288.963 75.6261 288.636C75.0474 288.309 74.5901 287.847 74.2541 287.25C73.9274 286.643 73.7641 285.943 73.7641 285.15C73.7641 284.366 73.9321 283.675 74.2681 283.078C74.6134 282.471 75.0801 282.009 75.6681 281.692C76.2561 281.365 76.9141 281.202 77.6421 281.202C78.3701 281.202 79.0281 281.365 79.6161 281.692C80.2041 282.009 80.6661 282.467 81.0021 283.064C81.3474 283.661 81.5201 284.357 81.5201 285.15C81.5201 285.943 81.3428 286.643 80.9881 287.25C80.6428 287.847 80.1714 288.309 79.5741 288.636C78.9768 288.963 78.3141 289.126 77.5861 289.126ZM77.5861 288.006C78.0434 288.006 78.4728 287.899 78.8741 287.684C79.2754 287.469 79.5974 287.147 79.8401 286.718C80.0921 286.289 80.2181 285.766 80.2181 285.15C80.2181 284.534 80.0968 284.011 79.8541 283.582C79.6114 283.153 79.2941 282.835 78.9021 282.63C78.5101 282.415 78.0854 282.308 77.6281 282.308C77.1614 282.308 76.7321 282.415 76.3401 282.63C75.9574 282.835 75.6494 283.153 75.4161 283.582C75.1828 284.011 75.0661 284.534 75.0661 285.15C75.0661 285.775 75.1781 286.303 75.4021 286.732C75.6354 287.161 75.9434 287.483 76.3261 287.698C76.7088 287.903 77.1288 288.006 77.5861 288.006ZM86.5412 289.126C85.8225 289.126 85.1692 288.963 84.5812 288.636C84.0025 288.309 83.5452 287.847 83.2092 287.25C82.8825 286.643 82.7192 285.943 82.7192 285.15C82.7192 284.366 82.8872 283.675 83.2232 283.078C83.5685 282.471 84.0352 282.009 84.6232 281.692C85.2112 281.365 85.8692 281.202 86.5972 281.202C87.3252 281.202 87.9832 281.365 88.5712 281.692C89.1592 282.009 89.6212 282.467 89.9572 283.064C90.3025 283.661 90.4752 284.357 90.4752 285.15C90.4752 285.943 90.2979 286.643 89.9432 287.25C89.5979 287.847 89.1265 288.309 88.5292 288.636C87.9319 288.963 87.2692 289.126 86.5412 289.126ZM86.5412 288.006C86.9985 288.006 87.4279 287.899 87.8292 287.684C88.2305 287.469 88.5525 287.147 88.7952 286.718C89.0472 286.289 89.1732 285.766 89.1732 285.15C89.1732 284.534 89.0519 284.011 88.8092 283.582C88.5665 283.153 88.2492 282.835 87.8572 282.63C87.4652 282.415 87.0405 282.308 86.5832 282.308C86.1165 282.308 85.6872 282.415 85.2952 282.63C84.9125 282.835 84.6045 283.153 84.3712 283.582C84.1379 284.011 84.0212 284.534 84.0212 285.15C84.0212 285.775 84.1332 286.303 84.3572 286.732C84.5905 287.161 84.8985 287.483 85.2812 287.698C85.6639 287.903 86.0839 288.006 86.5412 288.006ZM96.4343 289L93.4243 285.612V289H92.1503V278.64H93.4243V284.73L96.3783 281.328H98.1563L94.5443 285.15L98.1703 289H96.4343Z" fill="#545974"/>
<rect x="21" y="348" width="333" height="38" rx="9" fill="white" fill-opacity="0.2" stroke="#F1F1F1" stroke-width="2"/>
<path d="M32.01 343.1C31.4767 343.1 31.07 342.95 30.79 342.65C30.51 342.343 30.37 341.907 30.37 341.34V336H31.47V341.42C31.47 341.66 31.5167 341.833 31.61 341.94C31.71 342.047 31.85 342.1 32.03 342.1C32.21 342.1 32.3467 342.047 32.44 341.94C32.54 341.833 32.59 341.66 32.59 341.42V336H33.65V341.34C33.65 341.907 33.51 342.343 33.23 342.65C32.95 342.95 32.5433 343.1 32.01 343.1ZM34.4334 336H36.0634C36.6301 336 37.0434 336.133 37.3034 336.4C37.5634 336.66 37.6934 337.063 37.6934 337.61V338.04C37.6934 338.767 37.4534 339.227 36.9734 339.42V339.44C37.2401 339.52 37.4268 339.683 37.5334 339.93C37.6468 340.177 37.7034 340.507 37.7034 340.92V342.15C37.7034 342.35 37.7101 342.513 37.7234 342.64C37.7368 342.76 37.7701 342.88 37.8234 343H36.7034C36.6634 342.887 36.6368 342.78 36.6234 342.68C36.6101 342.58 36.6034 342.4 36.6034 342.14V340.86C36.6034 340.54 36.5501 340.317 36.4434 340.19C36.3434 340.063 36.1668 340 35.9134 340H35.5334V343H34.4334V336ZM35.9334 339C36.1534 339 36.3168 338.943 36.4234 338.83C36.5368 338.717 36.5934 338.527 36.5934 338.26V337.72C36.5934 337.467 36.5468 337.283 36.4534 337.17C36.3668 337.057 36.2268 337 36.0334 337H35.5334V339H35.9334ZM38.4666 336H39.5666V342H41.3766V343H38.4666V336Z" fill="#545974"/>
<path d="M41.298 364.328L38.904 372H37.588L35.74 365.91L33.892 372H32.576L30.168 364.328H31.47L33.234 370.768L35.138 364.328H36.44L38.302 370.782L40.038 364.328H41.298ZM52.7824 364.328L50.3884 372H49.0724L47.2244 365.91L45.3764 372H44.0604L41.6524 364.328H42.9544L44.7184 370.768L46.6224 364.328H47.9244L49.7864 370.782L51.5224 364.328H52.7824ZM64.2668 364.328L61.8728 372H60.5568L58.7088 365.91L56.8608 372H55.5448L53.1368 364.328H54.4388L56.2028 370.768L58.1068 364.328H59.4088L61.2708 370.782L63.0068 364.328H64.2668ZM65.9371 372.084C65.6945 372.084 65.4891 372 65.3211 371.832C65.1531 371.664 65.0691 371.459 65.0691 371.216C65.0691 370.973 65.1531 370.768 65.3211 370.6C65.4891 370.432 65.6945 370.348 65.9371 370.348C66.1705 370.348 66.3665 370.432 66.5251 370.6C66.6931 370.768 66.7771 370.973 66.7771 371.216C66.7771 371.459 66.6931 371.664 66.5251 371.832C66.3665 372 66.1705 372.084 65.9371 372.084ZM71.5926 365.378H69.9826V372H68.7086V365.378H67.7146V364.328H68.7086V363.782C68.7086 362.923 68.9279 362.298 69.3666 361.906C69.8146 361.505 70.5286 361.304 71.5086 361.304V362.368C70.9486 362.368 70.5519 362.48 70.3186 362.704C70.0946 362.919 69.9826 363.278 69.9826 363.782V364.328H71.5926V365.378ZM72.602 368.136C72.602 367.352 72.7607 366.666 73.078 366.078C73.3953 365.481 73.8293 365.019 74.38 364.692C74.94 364.365 75.5607 364.202 76.242 364.202C76.914 364.202 77.4973 364.347 77.992 364.636C78.4867 364.925 78.8553 365.289 79.098 365.728V364.328H80.386V372H79.098V370.572C78.846 371.02 78.468 371.393 77.964 371.692C77.4693 371.981 76.8907 372.126 76.228 372.126C75.5467 372.126 74.9307 371.958 74.38 371.622C73.8293 371.286 73.3953 370.815 73.078 370.208C72.7607 369.601 72.602 368.911 72.602 368.136ZM79.098 368.15C79.098 367.571 78.9813 367.067 78.748 366.638C78.5147 366.209 78.1973 365.882 77.796 365.658C77.404 365.425 76.97 365.308 76.494 365.308C76.018 365.308 75.584 365.42 75.192 365.644C74.8 365.868 74.4873 366.195 74.254 366.624C74.0207 367.053 73.904 367.557 73.904 368.136C73.904 368.724 74.0207 369.237 74.254 369.676C74.4873 370.105 74.8 370.437 75.192 370.67C75.584 370.894 76.018 371.006 76.494 371.006C76.97 371.006 77.404 370.894 77.796 370.67C78.1973 370.437 78.5147 370.105 78.748 369.676C78.9813 369.237 79.098 368.729 79.098 368.15ZM82.0629 368.15C82.0629 367.357 82.2216 366.666 82.5389 366.078C82.8563 365.481 83.2949 365.019 83.8549 364.692C84.4243 364.365 85.0729 364.202 85.8009 364.202C86.7436 364.202 87.5183 364.431 88.1249 364.888C88.7409 365.345 89.1469 365.98 89.3429 366.792H87.9709C87.8403 366.325 87.5836 365.957 87.2009 365.686C86.8276 365.415 86.3609 365.28 85.8009 365.28C85.0729 365.28 84.4849 365.532 84.0369 366.036C83.5889 366.531 83.3649 367.235 83.3649 368.15C83.3649 369.074 83.5889 369.788 84.0369 370.292C84.4849 370.796 85.0729 371.048 85.8009 371.048C86.3609 371.048 86.8276 370.917 87.2009 370.656C87.5743 370.395 87.8309 370.021 87.9709 369.536H89.3429C89.1376 370.32 88.7269 370.95 88.1109 371.426C87.4949 371.893 86.7249 372.126 85.8009 372.126C85.0729 372.126 84.4243 371.963 83.8549 371.636C83.2949 371.309 82.8563 370.847 82.5389 370.25C82.2216 369.653 82.0629 368.953 82.0629 368.15ZM98.0428 367.87C98.0428 368.113 98.0288 368.369 98.0008 368.64H91.8688C91.9155 369.396 92.1722 369.989 92.6388 370.418C93.1148 370.838 93.6888 371.048 94.3608 371.048C94.9115 371.048 95.3688 370.922 95.7328 370.67C96.1062 370.409 96.3675 370.063 96.5168 369.634H97.8888C97.6835 370.371 97.2728 370.973 96.6568 371.44C96.0408 371.897 95.2755 372.126 94.3608 372.126C93.6328 372.126 92.9795 371.963 92.4008 371.636C91.8315 371.309 91.3835 370.847 91.0568 370.25C90.7302 369.643 90.5668 368.943 90.5668 368.15C90.5668 367.357 90.7255 366.661 91.0428 366.064C91.3602 365.467 91.8035 365.009 92.3728 364.692C92.9515 364.365 93.6142 364.202 94.3608 364.202C95.0888 364.202 95.7328 364.361 96.2928 364.678C96.8528 364.995 97.2822 365.434 97.5808 365.994C97.8888 366.545 98.0428 367.17 98.0428 367.87ZM96.7268 367.604C96.7268 367.119 96.6195 366.703 96.4048 366.358C96.1902 366.003 95.8962 365.737 95.5228 365.56C95.1588 365.373 94.7528 365.28 94.3048 365.28C93.6608 365.28 93.1102 365.485 92.6528 365.896C92.2048 366.307 91.9482 366.876 91.8828 367.604H96.7268ZM100.998 365.756C101.26 365.299 101.642 364.925 102.146 364.636C102.65 364.347 103.224 364.202 103.868 364.202C104.559 364.202 105.18 364.365 105.73 364.692C106.281 365.019 106.715 365.481 107.032 366.078C107.35 366.666 107.508 367.352 107.508 368.136C107.508 368.911 107.35 369.601 107.032 370.208C106.715 370.815 106.276 371.286 105.716 371.622C105.166 371.958 104.55 372.126 103.868 372.126C103.206 372.126 102.622 371.981 102.118 371.692C101.624 371.403 101.25 371.034 100.998 370.586V372H99.7245V361.64H100.998V365.756ZM106.206 368.136C106.206 367.557 106.09 367.053 105.856 366.624C105.623 366.195 105.306 365.868 104.904 365.644C104.512 365.42 104.078 365.308 103.602 365.308C103.136 365.308 102.702 365.425 102.3 365.658C101.908 365.882 101.591 366.213 101.348 366.652C101.115 367.081 100.998 367.581 100.998 368.15C100.998 368.729 101.115 369.237 101.348 369.676C101.591 370.105 101.908 370.437 102.3 370.67C102.702 370.894 103.136 371.006 103.602 371.006C104.078 371.006 104.512 370.894 104.904 370.67C105.306 370.437 105.623 370.105 105.856 369.676C106.09 369.237 106.206 368.724 106.206 368.136ZM112.531 372.126C111.813 372.126 111.159 371.963 110.571 371.636C109.993 371.309 109.535 370.847 109.199 370.25C108.873 369.643 108.709 368.943 108.709 368.15C108.709 367.366 108.877 366.675 109.213 366.078C109.559 365.471 110.025 365.009 110.613 364.692C111.201 364.365 111.859 364.202 112.587 364.202C113.315 364.202 113.973 364.365 114.561 364.692C115.149 365.009 115.611 365.467 115.947 366.064C116.293 366.661 116.465 367.357 116.465 368.15C116.465 368.943 116.288 369.643 115.933 370.25C115.588 370.847 115.117 371.309 114.519 371.636C113.922 371.963 113.259 372.126 112.531 372.126ZM112.531 371.006C112.989 371.006 113.418 370.899 113.819 370.684C114.221 370.469 114.543 370.147 114.785 369.718C115.037 369.289 115.163 368.766 115.163 368.15C115.163 367.534 115.042 367.011 114.799 366.582C114.557 366.153 114.239 365.835 113.847 365.63C113.455 365.415 113.031 365.308 112.573 365.308C112.107 365.308 111.677 365.415 111.285 365.63C110.903 365.835 110.595 366.153 110.361 366.582C110.128 367.011 110.011 367.534 110.011 368.15C110.011 368.775 110.123 369.303 110.347 369.732C110.581 370.161 110.889 370.483 111.271 370.698C111.654 370.903 112.074 371.006 112.531 371.006ZM121.487 372.126C120.768 372.126 120.115 371.963 119.527 371.636C118.948 371.309 118.491 370.847 118.155 370.25C117.828 369.643 117.665 368.943 117.665 368.15C117.665 367.366 117.833 366.675 118.169 366.078C118.514 365.471 118.981 365.009 119.569 364.692C120.157 364.365 120.815 364.202 121.543 364.202C122.271 364.202 122.929 364.365 123.517 364.692C124.105 365.009 124.567 365.467 124.903 366.064C125.248 366.661 125.421 367.357 125.421 368.15C125.421 368.943 125.243 369.643 124.889 370.25C124.543 370.847 124.072 371.309 123.475 371.636C122.877 371.963 122.215 372.126 121.487 372.126ZM121.487 371.006C121.944 371.006 122.373 370.899 122.775 370.684C123.176 370.469 123.498 370.147 123.741 369.718C123.993 369.289 124.119 368.766 124.119 368.15C124.119 367.534 123.997 367.011 123.755 366.582C123.512 366.153 123.195 365.835 122.803 365.63C122.411 365.415 121.986 365.308 121.529 365.308C121.062 365.308 120.633 365.415 120.241 365.63C119.858 365.835 119.55 366.153 119.317 366.582C119.083 367.011 118.967 367.534 118.967 368.15C118.967 368.775 119.079 369.303 119.303 369.732C119.536 370.161 119.844 370.483 120.227 370.698C120.609 370.903 121.029 371.006 121.487 371.006ZM131.38 372L128.37 368.612V372H127.096V361.64H128.37V367.73L131.324 364.328H133.102L129.49 368.15L133.116 372H131.38ZM134.707 372.084C134.464 372.084 134.259 372 134.091 371.832C133.923 371.664 133.839 371.459 133.839 371.216C133.839 370.973 133.923 370.768 134.091 370.6C134.259 370.432 134.464 370.348 134.707 370.348C134.94 370.348 135.136 370.432 135.295 370.6C135.463 370.768 135.547 370.973 135.547 371.216C135.547 371.459 135.463 371.664 135.295 371.832C135.136 372 134.94 372.084 134.707 372.084ZM136.764 368.15C136.764 367.357 136.923 366.666 137.24 366.078C137.557 365.481 137.996 365.019 138.556 364.692C139.125 364.365 139.774 364.202 140.502 364.202C141.445 364.202 142.219 364.431 142.826 364.888C143.442 365.345 143.848 365.98 144.044 366.792H142.672C142.541 366.325 142.285 365.957 141.902 365.686C141.529 365.415 141.062 365.28 140.502 365.28C139.774 365.28 139.186 365.532 138.738 366.036C138.29 366.531 138.066 367.235 138.066 368.15C138.066 369.074 138.29 369.788 138.738 370.292C139.186 370.796 139.774 371.048 140.502 371.048C141.062 371.048 141.529 370.917 141.902 370.656C142.275 370.395 142.532 370.021 142.672 369.536H144.044C143.839 370.32 143.428 370.95 142.812 371.426C142.196 371.893 141.426 372.126 140.502 372.126C139.774 372.126 139.125 371.963 138.556 371.636C137.996 371.309 137.557 370.847 137.24 370.25C136.923 369.653 136.764 368.953 136.764 368.15ZM149.09 372.126C148.371 372.126 147.718 371.963 147.13 371.636C146.551 371.309 146.094 370.847 145.758 370.25C145.431 369.643 145.268 368.943 145.268 368.15C145.268 367.366 145.436 366.675 145.772 366.078C146.117 365.471 146.584 365.009 147.172 364.692C147.76 364.365 148.418 364.202 149.146 364.202C149.874 364.202 150.532 364.365 151.12 364.692C151.708 365.009 152.17 365.467 152.506 366.064C152.851 366.661 153.024 367.357 153.024 368.15C153.024 368.943 152.847 369.643 152.492 370.25C152.147 370.847 151.675 371.309 151.078 371.636C150.481 371.963 149.818 372.126 149.09 372.126ZM149.09 371.006C149.547 371.006 149.977 370.899 150.378 370.684C150.779 370.469 151.101 370.147 151.344 369.718C151.596 369.289 151.722 368.766 151.722 368.15C151.722 367.534 151.601 367.011 151.358 366.582C151.115 366.153 150.798 365.835 150.406 365.63C150.014 365.415 149.589 365.308 149.132 365.308C148.665 365.308 148.236 365.415 147.844 365.63C147.461 365.835 147.153 366.153 146.92 366.582C146.687 367.011 146.57 367.534 146.57 368.15C146.57 368.775 146.682 369.303 146.906 369.732C147.139 370.161 147.447 370.483 147.83 370.698C148.213 370.903 148.633 371.006 149.09 371.006ZM163.925 364.188C164.522 364.188 165.054 364.314 165.521 364.566C165.988 364.809 166.356 365.177 166.627 365.672C166.898 366.167 167.033 366.769 167.033 367.478V372H165.773V367.66C165.773 366.895 165.582 366.311 165.199 365.91C164.826 365.499 164.317 365.294 163.673 365.294C163.01 365.294 162.483 365.509 162.091 365.938C161.699 366.358 161.503 366.969 161.503 367.772V372H160.243V367.66C160.243 366.895 160.052 366.311 159.669 365.91C159.296 365.499 158.787 365.294 158.143 365.294C157.48 365.294 156.953 365.509 156.561 365.938C156.169 366.358 155.973 366.969 155.973 367.772V372H154.699V364.328H155.973V365.434C156.225 365.033 156.561 364.725 156.981 364.51C157.41 364.295 157.882 364.188 158.395 364.188C159.039 364.188 159.608 364.333 160.103 364.622C160.598 364.911 160.966 365.336 161.209 365.896C161.424 365.355 161.778 364.935 162.273 364.636C162.768 364.337 163.318 364.188 163.925 364.188Z" fill="#545974"/>
<rect x="21" y="431" width="333" height="38" rx="9" fill="white" fill-opacity="0.2" stroke="#F1F1F1" stroke-width="2"/>
<path d="M30.41 419H33.41V420H31.51V421.85H33.02V422.85H31.51V425H33.41V426H30.41V419ZM34.0428 419H35.6128L36.3128 424.01H36.3328L37.0328 419H38.6028V426H37.5628V420.7H37.5428L36.7428 426H35.8228L35.0228 420.7H35.0028V426H34.0428V419ZM40.2737 419H41.7637L42.9037 426H41.8037L41.6037 424.61V424.63H40.3537L40.1537 426H39.1337L40.2737 419ZM41.4737 423.68L40.9837 420.22H40.9637L40.4837 423.68H41.4737ZM43.4373 419H44.5373V426H43.4373V419ZM45.3612 419H46.4612V425H48.2712V426H45.3612V419ZM52.8402 419H53.7902L51.0302 426H50.0802L52.8402 419ZM57.4885 426.1C56.9552 426.1 56.5485 425.95 56.2685 425.65C55.9885 425.343 55.8485 424.907 55.8485 424.34V419H56.9485V424.42C56.9485 424.66 56.9952 424.833 57.0885 424.94C57.1885 425.047 57.3285 425.1 57.5085 425.1C57.6885 425.1 57.8252 425.047 57.9185 424.94C58.0185 424.833 58.0685 424.66 58.0685 424.42V419H59.1285V424.34C59.1285 424.907 58.9885 425.343 58.7085 425.65C58.4285 425.95 58.0218 426.1 57.4885 426.1ZM61.342 426.1C60.8086 426.1 60.4053 425.95 60.132 425.65C59.8586 425.343 59.722 424.907 59.722 424.34V423.94H60.762V424.42C60.762 424.873 60.952 425.1 61.332 425.1C61.5186 425.1 61.6586 425.047 61.752 424.94C61.852 424.827 61.902 424.647 61.902 424.4C61.902 424.107 61.8353 423.85 61.702 423.63C61.5686 423.403 61.322 423.133 60.962 422.82C60.5086 422.42 60.192 422.06 60.012 421.74C59.832 421.413 59.742 421.047 59.742 420.64C59.742 420.087 59.882 419.66 60.162 419.36C60.442 419.053 60.8486 418.9 61.382 418.9C61.9086 418.9 62.3053 419.053 62.572 419.36C62.8453 419.66 62.982 420.093 62.982 420.66V420.95H61.942V420.59C61.942 420.35 61.8953 420.177 61.802 420.07C61.7086 419.957 61.572 419.9 61.392 419.9C61.0253 419.9 60.842 420.123 60.842 420.57C60.842 420.823 60.9086 421.06 61.042 421.28C61.182 421.5 61.432 421.767 61.792 422.08C62.252 422.48 62.5686 422.843 62.742 423.17C62.9153 423.497 63.002 423.88 63.002 424.32C63.002 424.893 62.8586 425.333 62.572 425.64C62.292 425.947 61.882 426.1 61.342 426.1ZM63.6327 419H66.6327V420H64.7327V421.85H66.2427V422.85H64.7327V425H66.6327V426H63.6327V419ZM67.2655 419H68.8955C69.4621 419 69.8755 419.133 70.1355 419.4C70.3955 419.66 70.5255 420.063 70.5255 420.61V421.04C70.5255 421.767 70.2855 422.227 69.8055 422.42V422.44C70.0721 422.52 70.2588 422.683 70.3655 422.93C70.4788 423.177 70.5355 423.507 70.5355 423.92V425.15C70.5355 425.35 70.5421 425.513 70.5555 425.64C70.5688 425.76 70.6021 425.88 70.6555 426H69.5355C69.4955 425.887 69.4688 425.78 69.4555 425.68C69.4421 425.58 69.4355 425.4 69.4355 425.14V423.86C69.4355 423.54 69.3821 423.317 69.2755 423.19C69.1755 423.063 68.9988 423 68.7455 423H68.3655V426H67.2655V419ZM68.7655 422C68.9855 422 69.1488 421.943 69.2555 421.83C69.3688 421.717 69.4255 421.527 69.4255 421.26V420.72C69.4255 420.467 69.3788 420.283 69.2855 420.17C69.1988 420.057 69.0588 420 68.8655 420H68.3655V422H68.7655ZM71.2987 419H72.6787L73.7487 423.19H73.7687V419H74.7487V426H73.6187L72.2987 420.89H72.2787V426H71.2987V419ZM76.4163 419H77.9063L79.0463 426H77.9463L77.7463 424.61V424.63H76.4963L76.2963 426H75.2763L76.4163 419ZM77.6163 423.68L77.1263 420.22H77.1063L76.6262 423.68H77.6163ZM79.5799 419H81.1499L81.8499 424.01H81.8699L82.5699 419H84.1399V426H83.0999V420.7H83.0799L82.2799 426H81.3599L80.5599 420.7H80.5399V426H79.5799V419ZM84.9608 419H87.9608V420H86.0608V421.85H87.5708V422.85H86.0608V425H87.9608V426H84.9608V419Z" fill="#545974"/>
<path d="M31.764 446.082C31.5213 446.082 31.316 445.998 31.148 445.83C30.9893 445.662 30.91 445.457 30.91 445.214C30.91 444.971 30.9893 444.766 31.148 444.598C31.316 444.43 31.5213 444.346 31.764 444.346C32.0067 444.346 32.2073 444.43 32.366 444.598C32.534 444.766 32.618 444.971 32.618 445.214C32.618 445.457 32.534 445.662 32.366 445.83C32.2073 445.998 32.0067 446.082 31.764 446.082ZM32.394 456.666C32.394 457.347 32.2213 457.847 31.876 458.164C31.5307 458.481 31.0267 458.64 30.364 458.64H29.622V457.562H30.154C30.5087 457.562 30.756 457.492 30.896 457.352C31.0453 457.212 31.12 456.974 31.12 456.638V447.328H32.394V456.666ZM34.0747 451.136C34.0747 450.352 34.2333 449.666 34.5507 449.078C34.868 448.481 35.302 448.019 35.8527 447.692C36.4127 447.365 37.0333 447.202 37.7147 447.202C38.3867 447.202 38.97 447.347 39.4647 447.636C39.9593 447.925 40.328 448.289 40.5707 448.728V447.328H41.8587V455H40.5707V453.572C40.3187 454.02 39.9407 454.393 39.4367 454.692C38.942 454.981 38.3633 455.126 37.7007 455.126C37.0193 455.126 36.4033 454.958 35.8527 454.622C35.302 454.286 34.868 453.815 34.5507 453.208C34.2333 452.601 34.0747 451.911 34.0747 451.136ZM40.5707 451.15C40.5707 450.571 40.454 450.067 40.2207 449.638C39.9873 449.209 39.67 448.882 39.2687 448.658C38.8767 448.425 38.4427 448.308 37.9667 448.308C37.4907 448.308 37.0567 448.42 36.6647 448.644C36.2727 448.868 35.96 449.195 35.7267 449.624C35.4933 450.053 35.3767 450.557 35.3767 451.136C35.3767 451.724 35.4933 452.237 35.7267 452.676C35.96 453.105 36.2727 453.437 36.6647 453.67C37.0567 453.894 37.4907 454.006 37.9667 454.006C38.4427 454.006 38.8767 453.894 39.2687 453.67C39.67 453.437 39.9873 453.105 40.2207 452.676C40.454 452.237 40.5707 451.729 40.5707 451.15ZM53.2376 447.188C53.8349 447.188 54.3669 447.314 54.8336 447.566C55.3003 447.809 55.6689 448.177 55.9396 448.672C56.2103 449.167 56.3456 449.769 56.3456 450.478V455H55.0856V450.66C55.0856 449.895 54.8943 449.311 54.5116 448.91C54.1383 448.499 53.6296 448.294 52.9856 448.294C52.3229 448.294 51.7956 448.509 51.4036 448.938C51.0116 449.358 50.8156 449.969 50.8156 450.772V455H49.5556V450.66C49.5556 449.895 49.3643 449.311 48.9816 448.91C48.6083 448.499 48.0996 448.294 47.4556 448.294C46.7929 448.294 46.2656 448.509 45.8736 448.938C45.4816 449.358 45.2856 449.969 45.2856 450.772V455H44.0116V447.328H45.2856V448.434C45.5376 448.033 45.8736 447.725 46.2936 447.51C46.7229 447.295 47.1943 447.188 47.7076 447.188C48.3516 447.188 48.9209 447.333 49.4156 447.622C49.9103 447.911 50.2789 448.336 50.5216 448.896C50.7363 448.355 51.0909 447.935 51.5856 447.636C52.0803 447.337 52.6309 447.188 53.2376 447.188ZM65.4354 450.87C65.4354 451.113 65.4214 451.369 65.3934 451.64H59.2614C59.3081 452.396 59.5648 452.989 60.0314 453.418C60.5074 453.838 61.0814 454.048 61.7534 454.048C62.3041 454.048 62.7614 453.922 63.1254 453.67C63.4988 453.409 63.7601 453.063 63.9094 452.634H65.2814C65.0761 453.371 64.6654 453.973 64.0494 454.44C63.4334 454.897 62.6681 455.126 61.7534 455.126C61.0254 455.126 60.3721 454.963 59.7934 454.636C59.2241 454.309 58.7761 453.847 58.4494 453.25C58.1228 452.643 57.9594 451.943 57.9594 451.15C57.9594 450.357 58.1181 449.661 58.4354 449.064C58.7528 448.467 59.1961 448.009 59.7654 447.692C60.3441 447.365 61.0068 447.202 61.7534 447.202C62.4814 447.202 63.1254 447.361 63.6854 447.678C64.2454 447.995 64.6748 448.434 64.9734 448.994C65.2814 449.545 65.4354 450.17 65.4354 450.87ZM64.1194 450.604C64.1194 450.119 64.0121 449.703 63.7974 449.358C63.5828 449.003 63.2888 448.737 62.9154 448.56C62.5514 448.373 62.1454 448.28 61.6974 448.28C61.0534 448.28 60.5028 448.485 60.0454 448.896C59.5974 449.307 59.3408 449.876 59.2754 450.604H64.1194ZM69.8331 455.126C69.2451 455.126 68.7177 455.028 68.2511 454.832C67.7844 454.627 67.4157 454.347 67.1451 453.992C66.8744 453.628 66.7251 453.213 66.6971 452.746H68.0131C68.0504 453.129 68.2277 453.441 68.5451 453.684C68.8717 453.927 69.2964 454.048 69.8191 454.048C70.3044 454.048 70.6871 453.941 70.9671 453.726C71.2471 453.511 71.3871 453.241 71.3871 452.914C71.3871 452.578 71.2377 452.331 70.9391 452.172C70.6404 452.004 70.1784 451.841 69.5531 451.682C68.9837 451.533 68.5171 451.383 68.1531 451.234C67.7984 451.075 67.4904 450.847 67.2291 450.548C66.9771 450.24 66.8511 449.839 66.8511 449.344C66.8511 448.952 66.9677 448.593 67.2011 448.266C67.4344 447.939 67.7657 447.683 68.1951 447.496C68.6244 447.3 69.1144 447.202 69.6651 447.202C70.5144 447.202 71.2004 447.417 71.7231 447.846C72.2457 448.275 72.5257 448.863 72.5631 449.61H71.2891C71.2611 449.209 71.0977 448.887 70.7991 448.644C70.5097 448.401 70.1177 448.28 69.6231 448.28C69.1657 448.28 68.8017 448.378 68.5311 448.574C68.2604 448.77 68.1251 449.027 68.1251 449.344C68.1251 449.596 68.2044 449.806 68.3631 449.974C68.5311 450.133 68.7364 450.263 68.9791 450.366C69.2311 450.459 69.5764 450.567 70.0151 450.688C70.5657 450.837 71.0137 450.987 71.3591 451.136C71.7044 451.276 71.9984 451.491 72.2411 451.78C72.4931 452.069 72.6237 452.447 72.6331 452.914C72.6331 453.334 72.5164 453.712 72.2831 454.048C72.0497 454.384 71.7184 454.65 71.2891 454.846C70.8691 455.033 70.3837 455.126 69.8331 455.126ZM74.8375 455.084C74.5948 455.084 74.3895 455 74.2215 454.832C74.0535 454.664 73.9695 454.459 73.9695 454.216C73.9695 453.973 74.0535 453.768 74.2215 453.6C74.3895 453.432 74.5948 453.348 74.8375 453.348C75.0708 453.348 75.2668 453.432 75.4255 453.6C75.5935 453.768 75.6775 453.973 75.6775 454.216C75.6775 454.459 75.5935 454.664 75.4255 454.832C75.2668 455 75.0708 455.084 74.8375 455.084ZM80.087 455.126C79.499 455.126 78.9716 455.028 78.505 454.832C78.0383 454.627 77.6696 454.347 77.399 453.992C77.1283 453.628 76.979 453.213 76.951 452.746H78.267C78.3043 453.129 78.4816 453.441 78.799 453.684C79.1256 453.927 79.5503 454.048 80.073 454.048C80.5583 454.048 80.941 453.941 81.221 453.726C81.501 453.511 81.641 453.241 81.641 452.914C81.641 452.578 81.4916 452.331 81.193 452.172C80.8943 452.004 80.4323 451.841 79.807 451.682C79.2376 451.533 78.771 451.383 78.407 451.234C78.0523 451.075 77.7443 450.847 77.483 450.548C77.231 450.24 77.105 449.839 77.105 449.344C77.105 448.952 77.2216 448.593 77.455 448.266C77.6883 447.939 78.0196 447.683 78.449 447.496C78.8783 447.3 79.3683 447.202 79.919 447.202C80.7683 447.202 81.4543 447.417 81.977 447.846C82.4996 448.275 82.7796 448.863 82.817 449.61H81.543C81.515 449.209 81.3516 448.887 81.053 448.644C80.7636 448.401 80.3716 448.28 79.877 448.28C79.4196 448.28 79.0556 448.378 78.785 448.574C78.5143 448.77 78.379 449.027 78.379 449.344C78.379 449.596 78.4583 449.806 78.617 449.974C78.785 450.133 78.9903 450.263 79.233 450.366C79.485 450.459 79.8303 450.567 80.269 450.688C80.8196 450.837 81.2676 450.987 81.613 451.136C81.9583 451.276 82.2523 451.491 82.495 451.78C82.747 452.069 82.8776 452.447 82.887 452.914C82.887 453.334 82.7703 453.712 82.537 454.048C82.3036 454.384 81.9723 454.65 81.543 454.846C81.123 455.033 80.6376 455.126 80.087 455.126ZM93.9114 447.188C94.5088 447.188 95.0408 447.314 95.5074 447.566C95.9741 447.809 96.3428 448.177 96.6134 448.672C96.8841 449.167 97.0194 449.769 97.0194 450.478V455H95.7594V450.66C95.7594 449.895 95.5681 449.311 95.1854 448.91C94.8121 448.499 94.3034 448.294 93.6594 448.294C92.9968 448.294 92.4694 448.509 92.0774 448.938C91.6854 449.358 91.4894 449.969 91.4894 450.772V455H90.2294V450.66C90.2294 449.895 90.0381 449.311 89.6554 448.91C89.2821 448.499 88.7734 448.294 88.1294 448.294C87.4668 448.294 86.9394 448.509 86.5474 448.938C86.1554 449.358 85.9594 449.969 85.9594 450.772V455H84.6854V447.328H85.9594V448.434C86.2114 448.033 86.5474 447.725 86.9674 447.51C87.3968 447.295 87.8681 447.188 88.3814 447.188C89.0254 447.188 89.5948 447.333 90.0894 447.622C90.5841 447.911 90.9528 448.336 91.1954 448.896C91.4101 448.355 91.7648 447.935 92.2594 447.636C92.7541 447.337 93.3048 447.188 93.9114 447.188ZM99.7673 446.082C99.5246 446.082 99.3193 445.998 99.1513 445.83C98.9833 445.662 98.8993 445.457 98.8993 445.214C98.8993 444.971 98.9833 444.766 99.1513 444.598C99.3193 444.43 99.5246 444.346 99.7673 444.346C100.001 444.346 100.197 444.43 100.355 444.598C100.523 444.766 100.607 444.971 100.607 445.214C100.607 445.457 100.523 445.662 100.355 445.83C100.197 445.998 100.001 446.082 99.7673 446.082ZM100.383 447.328V455H99.1093V447.328H100.383ZM104.109 448.378V452.9C104.109 453.273 104.188 453.539 104.347 453.698C104.505 453.847 104.781 453.922 105.173 453.922H106.111V455H104.963C104.253 455 103.721 454.837 103.367 454.51C103.012 454.183 102.835 453.647 102.835 452.9V448.378H101.841V447.328H102.835V445.396H104.109V447.328H106.111V448.378H104.109ZM111.462 447.188C112.041 447.188 112.564 447.314 113.03 447.566C113.497 447.809 113.861 448.177 114.122 448.672C114.393 449.167 114.528 449.769 114.528 450.478V455H113.268V450.66C113.268 449.895 113.077 449.311 112.694 448.91C112.312 448.499 111.789 448.294 111.126 448.294C110.454 448.294 109.918 448.504 109.516 448.924C109.124 449.344 108.928 449.955 108.928 450.758V455H107.654V444.64H108.928V448.42C109.18 448.028 109.526 447.725 109.964 447.51C110.412 447.295 110.912 447.188 111.462 447.188ZM123.609 446.026C124.645 446.026 125.546 446.222 126.311 446.614C127.077 447.006 127.665 447.557 128.075 448.266C128.486 448.966 128.691 449.778 128.691 450.702C128.691 451.439 128.57 452.149 128.327 452.83C128.085 453.502 127.73 454.048 127.263 454.468C126.806 454.888 126.269 455.098 125.653 455.098C125.187 455.098 124.827 454.981 124.575 454.748C124.323 454.515 124.179 454.197 124.141 453.796C123.852 454.197 123.483 454.515 123.035 454.748C122.597 454.981 122.13 455.098 121.635 455.098C120.926 455.098 120.366 454.883 119.955 454.454C119.554 454.015 119.353 453.427 119.353 452.69C119.353 451.99 119.498 451.337 119.787 450.73C120.086 450.123 120.497 449.638 121.019 449.274C121.542 448.901 122.135 448.714 122.797 448.714C123.684 448.714 124.281 449.05 124.589 449.722L124.743 448.854H125.849L125.149 452.9C125.121 453.077 125.107 453.241 125.107 453.39C125.107 453.95 125.355 454.23 125.849 454.23C126.223 454.23 126.545 454.053 126.815 453.698C127.095 453.343 127.305 452.9 127.445 452.368C127.585 451.827 127.655 451.295 127.655 450.772C127.655 449.549 127.287 448.602 126.549 447.93C125.821 447.258 124.79 446.922 123.455 446.922C122.345 446.922 121.341 447.193 120.445 447.734C119.559 448.266 118.863 448.999 118.359 449.932C117.855 450.865 117.603 451.897 117.603 453.026C117.594 454.258 117.963 455.205 118.709 455.868C119.456 456.54 120.492 456.876 121.817 456.876C122.695 456.876 123.469 456.717 124.141 456.4L124.309 457.268C123.479 457.613 122.564 457.786 121.565 457.786C120.567 457.786 119.685 457.595 118.919 457.212C118.163 456.839 117.575 456.297 117.155 455.588C116.745 454.888 116.539 454.071 116.539 453.138C116.539 451.822 116.843 450.623 117.449 449.54C118.056 448.448 118.896 447.589 119.969 446.964C121.052 446.339 122.265 446.026 123.609 446.026ZM122.013 454.104C122.433 454.104 122.821 453.983 123.175 453.74C123.53 453.488 123.81 453.152 124.015 452.732C124.221 452.303 124.323 451.836 124.323 451.332C124.323 450.847 124.188 450.455 123.917 450.156C123.656 449.848 123.283 449.694 122.797 449.694C122.349 449.694 121.953 449.829 121.607 450.1C121.271 450.361 121.01 450.711 120.823 451.15C120.637 451.579 120.543 452.027 120.543 452.494C120.543 452.989 120.669 453.381 120.921 453.67C121.173 453.959 121.537 454.104 122.013 454.104ZM140.013 447.188C140.61 447.188 141.142 447.314 141.609 447.566C142.076 447.809 142.444 448.177 142.715 448.672C142.986 449.167 143.121 449.769 143.121 450.478V455H141.861V450.66C141.861 449.895 141.67 449.311 141.287 448.91C140.914 448.499 140.405 448.294 139.761 448.294C139.098 448.294 138.571 448.509 138.179 448.938C137.787 449.358 137.591 449.969 137.591 450.772V455H136.331V450.66C136.331 449.895 136.14 449.311 135.757 448.91C135.384 448.499 134.875 448.294 134.231 448.294C133.568 448.294 133.041 448.509 132.649 448.938C132.257 449.358 132.061 449.969 132.061 450.772V455H130.787V447.328H132.061V448.434C132.313 448.033 132.649 447.725 133.069 447.51C133.498 447.295 133.97 447.188 134.483 447.188C135.127 447.188 135.696 447.333 136.191 447.622C136.686 447.911 137.054 448.336 137.297 448.896C137.512 448.355 137.866 447.935 138.361 447.636C138.856 447.337 139.406 447.188 140.013 447.188ZM144.735 451.136C144.735 450.352 144.893 449.666 145.211 449.078C145.528 448.481 145.962 448.019 146.513 447.692C147.073 447.365 147.693 447.202 148.375 447.202C149.047 447.202 149.63 447.347 150.125 447.636C150.619 447.925 150.988 448.289 151.231 448.728V447.328H152.519V455H151.231V453.572C150.979 454.02 150.601 454.393 150.097 454.692C149.602 454.981 149.023 455.126 148.361 455.126C147.679 455.126 147.063 454.958 146.513 454.622C145.962 454.286 145.528 453.815 145.211 453.208C144.893 452.601 144.735 451.911 144.735 451.136ZM151.231 451.15C151.231 450.571 151.114 450.067 150.881 449.638C150.647 449.209 150.33 448.882 149.929 448.658C149.537 448.425 149.103 448.308 148.627 448.308C148.151 448.308 147.717 448.42 147.325 448.644C146.933 448.868 146.62 449.195 146.387 449.624C146.153 450.053 146.037 450.557 146.037 451.136C146.037 451.724 146.153 452.237 146.387 452.676C146.62 453.105 146.933 453.437 147.325 453.67C147.717 453.894 148.151 454.006 148.627 454.006C149.103 454.006 149.537 453.894 149.929 453.67C150.33 453.437 150.647 453.105 150.881 452.676C151.114 452.237 151.231 451.729 151.231 451.15ZM155.33 446.082C155.087 446.082 154.882 445.998 154.714 445.83C154.546 445.662 154.462 445.457 154.462 445.214C154.462 444.971 154.546 444.766 154.714 444.598C154.882 444.43 155.087 444.346 155.33 444.346C155.563 444.346 155.759 444.43 155.918 444.598C156.086 444.766 156.17 444.971 156.17 445.214C156.17 445.457 156.086 445.662 155.918 445.83C155.759 445.998 155.563 446.082 155.33 446.082ZM155.946 447.328V455H154.672V447.328H155.946ZM159.391 444.64V455H158.117V444.64H159.391ZM161.968 455.084C161.726 455.084 161.52 455 161.352 454.832C161.184 454.664 161.1 454.459 161.1 454.216C161.1 453.973 161.184 453.768 161.352 453.6C161.52 453.432 161.726 453.348 161.968 453.348C162.202 453.348 162.398 453.432 162.556 453.6C162.724 453.768 162.808 453.973 162.808 454.216C162.808 454.459 162.724 454.664 162.556 454.832C162.398 455 162.202 455.084 161.968 455.084ZM167.666 447.202C168.328 447.202 168.907 447.347 169.402 447.636C169.906 447.925 170.279 448.289 170.522 448.728V447.328H171.81V455.168C171.81 455.868 171.66 456.489 171.362 457.03C171.063 457.581 170.634 458.01 170.074 458.318C169.523 458.626 168.879 458.78 168.142 458.78C167.134 458.78 166.294 458.542 165.622 458.066C164.95 457.59 164.553 456.941 164.432 456.12H165.692C165.832 456.587 166.121 456.96 166.56 457.24C166.998 457.529 167.526 457.674 168.142 457.674C168.842 457.674 169.411 457.455 169.85 457.016C170.298 456.577 170.522 455.961 170.522 455.168V453.558C170.27 454.006 169.896 454.379 169.402 454.678C168.907 454.977 168.328 455.126 167.666 455.126C166.984 455.126 166.364 454.958 165.804 454.622C165.253 454.286 164.819 453.815 164.502 453.208C164.184 452.601 164.026 451.911 164.026 451.136C164.026 450.352 164.184 449.666 164.502 449.078C164.819 448.481 165.253 448.019 165.804 447.692C166.364 447.365 166.984 447.202 167.666 447.202ZM170.522 451.15C170.522 450.571 170.405 450.067 170.172 449.638C169.938 449.209 169.621 448.882 169.22 448.658C168.828 448.425 168.394 448.308 167.918 448.308C167.442 448.308 167.008 448.42 166.616 448.644C166.224 448.868 165.911 449.195 165.678 449.624C165.444 450.053 165.328 450.557 165.328 451.136C165.328 451.724 165.444 452.237 165.678 452.676C165.911 453.105 166.224 453.437 166.616 453.67C167.008 453.894 167.442 454.006 167.918 454.006C168.394 454.006 168.828 453.894 169.22 453.67C169.621 453.437 169.938 453.105 170.172 452.676C170.405 452.237 170.522 451.729 170.522 451.15ZM177.127 447.202C177.789 447.202 178.368 447.347 178.863 447.636C179.367 447.925 179.74 448.289 179.983 448.728V447.328H181.271V455.168C181.271 455.868 181.121 456.489 180.823 457.03C180.524 457.581 180.095 458.01 179.535 458.318C178.984 458.626 178.34 458.78 177.603 458.78C176.595 458.78 175.755 458.542 175.083 458.066C174.411 457.59 174.014 456.941 173.893 456.12H175.153C175.293 456.587 175.582 456.96 176.021 457.24C176.459 457.529 176.987 457.674 177.603 457.674C178.303 457.674 178.872 457.455 179.311 457.016C179.759 456.577 179.983 455.961 179.983 455.168V453.558C179.731 454.006 179.357 454.379 178.863 454.678C178.368 454.977 177.789 455.126 177.127 455.126C176.445 455.126 175.825 454.958 175.265 454.622C174.714 454.286 174.28 453.815 173.963 453.208C173.645 452.601 173.487 451.911 173.487 451.136C173.487 450.352 173.645 449.666 173.963 449.078C174.28 448.481 174.714 448.019 175.265 447.692C175.825 447.365 176.445 447.202 177.127 447.202ZM179.983 451.15C179.983 450.571 179.866 450.067 179.633 449.638C179.399 449.209 179.082 448.882 178.681 448.658C178.289 448.425 177.855 448.308 177.379 448.308C176.903 448.308 176.469 448.42 176.077 448.644C175.685 448.868 175.372 449.195 175.139 449.624C174.905 450.053 174.789 450.557 174.789 451.136C174.789 451.724 174.905 452.237 175.139 452.676C175.372 453.105 175.685 453.437 176.077 453.67C176.469 453.894 176.903 454.006 177.379 454.006C177.855 454.006 178.289 453.894 178.681 453.67C179.082 453.437 179.399 453.105 179.633 452.676C179.866 452.237 179.983 451.729 179.983 451.15Z" fill="#545974"/>
<rect x="21" y="514" width="333" height="38" rx="9" fill="white" fill-opacity="0.2" stroke="#F1F1F1" stroke-width="2"/>
<path d="M30.41 502H32.03C32.5767 502 32.9867 502.147 33.26 502.44C33.5333 502.733 33.67 503.163 33.67 503.73V504.42C33.67 504.987 33.5333 505.417 33.26 505.71C32.9867 506.003 32.5767 506.15 32.03 506.15H31.51V509H30.41V502ZM32.03 505.15C32.21 505.15 32.3433 505.1 32.43 505C32.5233 504.9 32.57 504.73 32.57 504.49V503.66C32.57 503.42 32.5233 503.25 32.43 503.15C32.3433 503.05 32.21 503 32.03 503H31.51V505.15H32.03ZM34.7659 502H36.2559L37.3959 509H36.2959L36.0959 507.61V507.63H34.8459L34.6459 509H33.6259L34.7659 502ZM35.9659 506.68L35.4759 503.22H35.4559L34.9759 506.68H35.9659ZM39.3302 509.1C38.7969 509.1 38.3936 508.95 38.1202 508.65C37.8469 508.343 37.7102 507.907 37.7102 507.34V506.94H38.7502V507.42C38.7502 507.873 38.9402 508.1 39.3202 508.1C39.5069 508.1 39.6469 508.047 39.7402 507.94C39.8402 507.827 39.8902 507.647 39.8902 507.4C39.8902 507.107 39.8236 506.85 39.6902 506.63C39.5569 506.403 39.3102 506.133 38.9502 505.82C38.4969 505.42 38.1802 505.06 38.0002 504.74C37.8202 504.413 37.7302 504.047 37.7302 503.64C37.7302 503.087 37.8702 502.66 38.1502 502.36C38.4302 502.053 38.8369 501.9 39.3702 501.9C39.8969 501.9 40.2936 502.053 40.5602 502.36C40.8336 502.66 40.9702 503.093 40.9702 503.66V503.95H39.9302V503.59C39.9302 503.35 39.8836 503.177 39.7902 503.07C39.6969 502.957 39.5602 502.9 39.3802 502.9C39.0136 502.9 38.8302 503.123 38.8302 503.57C38.8302 503.823 38.8969 504.06 39.0302 504.28C39.1702 504.5 39.4202 504.767 39.7802 505.08C40.2402 505.48 40.5569 505.843 40.7302 506.17C40.9036 506.497 40.9902 506.88 40.9902 507.32C40.9902 507.893 40.8469 508.333 40.5602 508.64C40.2802 508.947 39.8702 509.1 39.3302 509.1ZM43.0509 509.1C42.5176 509.1 42.1143 508.95 41.8409 508.65C41.5676 508.343 41.4309 507.907 41.4309 507.34V506.94H42.4709V507.42C42.4709 507.873 42.6609 508.1 43.0409 508.1C43.2276 508.1 43.3676 508.047 43.4609 507.94C43.5609 507.827 43.6109 507.647 43.6109 507.4C43.6109 507.107 43.5443 506.85 43.4109 506.63C43.2776 506.403 43.0309 506.133 42.6709 505.82C42.2176 505.42 41.9009 505.06 41.7209 504.74C41.5409 504.413 41.4509 504.047 41.4509 503.64C41.4509 503.087 41.5909 502.66 41.8709 502.36C42.1509 502.053 42.5576 501.9 43.0909 501.9C43.6176 501.9 44.0143 502.053 44.2809 502.36C44.5543 502.66 44.6909 503.093 44.6909 503.66V503.95H43.6509V503.59C43.6509 503.35 43.6043 503.177 43.5109 503.07C43.4176 502.957 43.2809 502.9 43.1009 502.9C42.7343 502.9 42.5509 503.123 42.5509 503.57C42.5509 503.823 42.6176 504.06 42.7509 504.28C42.8909 504.5 43.1409 504.767 43.5009 505.08C43.9609 505.48 44.2776 505.843 44.4509 506.17C44.6243 506.497 44.7109 506.88 44.7109 507.32C44.7109 507.893 44.5676 508.333 44.2809 508.64C44.0009 508.947 43.5909 509.1 43.0509 509.1ZM45.0816 502H46.1416L46.6316 507.38H46.6516L47.1716 502H48.3716L48.8916 507.38H48.9116L49.4016 502H50.3516L49.6416 509H48.2716L47.7716 504.28H47.7516L47.2516 509H45.7916L45.0816 502ZM52.498 509.1C51.958 509.1 51.5447 508.947 51.258 508.64C50.9714 508.333 50.828 507.9 50.828 507.34V503.66C50.828 503.1 50.9714 502.667 51.258 502.36C51.5447 502.053 51.958 501.9 52.498 501.9C53.038 501.9 53.4514 502.053 53.738 502.36C54.0247 502.667 54.168 503.1 54.168 503.66V507.34C54.168 507.9 54.0247 508.333 53.738 508.64C53.4514 508.947 53.038 509.1 52.498 509.1ZM52.498 508.1C52.878 508.1 53.068 507.87 53.068 507.41V503.59C53.068 503.13 52.878 502.9 52.498 502.9C52.118 502.9 51.928 503.13 51.928 503.59V507.41C51.928 507.87 52.118 508.1 52.498 508.1ZM54.912 502H56.542C57.1086 502 57.522 502.133 57.782 502.4C58.042 502.66 58.172 503.063 58.172 503.61V504.04C58.172 504.767 57.932 505.227 57.452 505.42V505.44C57.7186 505.52 57.9053 505.683 58.012 505.93C58.1253 506.177 58.182 506.507 58.182 506.92V508.15C58.182 508.35 58.1886 508.513 58.202 508.64C58.2153 508.76 58.2486 508.88 58.302 509H57.182C57.142 508.887 57.1153 508.78 57.102 508.68C57.0886 508.58 57.082 508.4 57.082 508.14V506.86C57.082 506.54 57.0286 506.317 56.922 506.19C56.822 506.063 56.6453 506 56.392 506H56.012V509H54.912V502ZM56.412 505C56.632 505 56.7953 504.943 56.902 504.83C57.0153 504.717 57.072 504.527 57.072 504.26V503.72C57.072 503.467 57.0253 503.283 56.932 503.17C56.8453 503.057 56.7053 503 56.512 503H56.012V505H56.412ZM58.9452 502H60.6252C61.1718 502 61.5818 502.147 61.8552 502.44C62.1285 502.733 62.2652 503.163 62.2652 503.73V507.27C62.2652 507.837 62.1285 508.267 61.8552 508.56C61.5818 508.853 61.1718 509 60.6252 509H58.9452V502ZM60.6052 508C60.7852 508 60.9218 507.947 61.0152 507.84C61.1152 507.733 61.1652 507.56 61.1652 507.32V503.68C61.1652 503.44 61.1152 503.267 61.0152 503.16C60.9218 503.053 60.7852 503 60.6052 503H60.0452V508H60.6052Z" fill="#545974"/>
<path d="M35.418 528.62L35.922 529.53L33.976 530.342L35.936 531.14L35.404 532.078L33.71 530.846L33.934 532.96H32.884L33.094 530.846L31.4 532.092L30.854 531.14L32.8 530.328L30.854 529.544L31.372 528.606L33.108 529.852L32.884 527.724H33.948L33.71 529.852L35.418 528.62ZM42.2266 528.62L42.7306 529.53L40.7846 530.342L42.7446 531.14L42.2126 532.078L40.5186 530.846L40.7426 532.96H39.6926L39.9026 530.846L38.2086 532.092L37.6626 531.14L39.6086 530.328L37.6626 529.544L38.1806 528.606L39.9166 529.852L39.6926 527.724H40.7566L40.5186 529.852L42.2266 528.62ZM49.0352 528.62L49.5392 529.53L47.5932 530.342L49.5532 531.14L49.0212 532.078L47.3272 530.846L47.5512 532.96H46.5012L46.7112 530.846L45.0172 532.092L44.4712 531.14L46.4172 530.328L44.4712 529.544L44.9892 528.606L46.7252 529.852L46.5012 527.724H47.5652L47.3272 529.852L49.0352 528.62ZM55.8438 528.62L56.3478 529.53L54.4018 530.342L56.3618 531.14L55.8298 532.078L54.1358 530.846L54.3598 532.96H53.3098L53.5198 530.846L51.8258 532.092L51.2798 531.14L53.2258 530.328L51.2798 529.544L51.7978 528.606L53.5338 529.852L53.3098 527.724H54.3738L54.1358 529.852L55.8438 528.62ZM62.6524 528.62L63.1564 529.53L61.2104 530.342L63.1704 531.14L62.6384 532.078L60.9444 530.846L61.1684 532.96H60.1184L60.3284 530.846L58.6344 532.092L58.0884 531.14L60.0344 530.328L58.0884 529.544L58.6064 528.606L60.3424 529.852L60.1184 527.724H61.1824L60.9444 529.852L62.6524 528.62ZM69.461 528.62L69.965 529.53L68.019 530.342L69.979 531.14L69.447 532.078L67.753 530.846L67.977 532.96H66.927L67.137 530.846L65.443 532.092L64.897 531.14L66.843 530.328L64.897 529.544L65.415 528.606L67.151 529.852L66.927 527.724H67.991L67.753 529.852L69.461 528.62ZM76.2696 528.62L76.7736 529.53L74.8276 530.342L76.7876 531.14L76.2556 532.078L74.5616 530.846L74.7856 532.96H73.7356L73.9456 530.846L72.2516 532.092L71.7056 531.14L73.6516 530.328L71.7056 529.544L72.2236 528.606L73.9596 529.852L73.7356 527.724H74.7996L74.5616 529.852L76.2696 528.62ZM83.0782 528.62L83.5822 529.53L81.6362 530.342L83.5962 531.14L83.0642 532.078L81.3702 530.846L81.5942 532.96H80.5442L80.7542 530.846L79.0602 532.092L78.5142 531.14L80.4602 530.328L78.5142 529.544L79.0322 528.606L80.7682 529.852L80.5442 527.724H81.6082L81.3702 529.852L83.0782 528.62Z" fill="#545974"/>
<rect x="20" y="722" width="335" height="40" rx="10" fill="#FF6464"/>
<path d="M155.194 747.16C154.341 747.16 153.695 746.92 153.258 746.44C152.821 745.949 152.602 745.251 152.602 744.344V743.704H154.266V744.472C154.266 745.197 154.57 745.56 155.178 745.56C155.477 745.56 155.701 745.475 155.85 745.304C156.01 745.123 156.09 744.835 156.09 744.44C156.09 743.971 155.983 743.56 155.77 743.208C155.557 742.845 155.162 742.413 154.586 741.912C153.861 741.272 153.354 740.696 153.066 740.184C152.778 739.661 152.634 739.075 152.634 738.424C152.634 737.539 152.858 736.856 153.306 736.376C153.754 735.885 154.405 735.64 155.258 735.64C156.101 735.64 156.735 735.885 157.162 736.376C157.599 736.856 157.818 737.549 157.818 738.456V738.92H156.154V738.344C156.154 737.96 156.079 737.683 155.93 737.512C155.781 737.331 155.562 737.24 155.274 737.24C154.687 737.24 154.394 737.597 154.394 738.312C154.394 738.717 154.501 739.096 154.714 739.448C154.938 739.8 155.338 740.227 155.914 740.728C156.65 741.368 157.157 741.949 157.434 742.472C157.711 742.995 157.85 743.608 157.85 744.312C157.85 745.229 157.621 745.933 157.162 746.424C156.714 746.915 156.058 747.16 155.194 747.16ZM160.172 735.8H162.556L164.38 747H162.62L162.3 744.776V744.808H160.3L159.98 747H158.348L160.172 735.8ZM162.092 743.288L161.308 737.752H161.276L160.508 743.288H162.092ZM164.317 735.8H166.093L167.245 744.488H167.277L168.429 735.8H170.045L168.349 747H166.013L164.317 735.8ZM170.89 735.8H175.69V737.4H172.65V740.36H175.066V741.96H172.65V745.4H175.69V747H170.89V735.8ZM181.745 747.16C180.903 747.16 180.257 746.92 179.809 746.44C179.372 745.96 179.153 745.283 179.153 744.408V738.392C179.153 737.517 179.372 736.84 179.809 736.36C180.257 735.88 180.903 735.64 181.745 735.64C182.588 735.64 183.228 735.88 183.665 736.36C184.113 736.84 184.337 737.517 184.337 738.392V739.576H182.673V738.28C182.673 737.587 182.38 737.24 181.793 737.24C181.207 737.24 180.913 737.587 180.913 738.28V744.536C180.913 745.219 181.207 745.56 181.793 745.56C182.38 745.56 182.673 745.219 182.673 744.536V742.824H184.337V744.408C184.337 745.283 184.113 745.96 183.665 746.44C183.228 746.92 182.588 747.16 181.745 747.16ZM185.39 735.8H187.15V740.36H189.038V735.8H190.798V747H189.038V741.96H187.15V747H185.39V735.8ZM193.469 735.8H195.853L197.677 747H195.917L195.597 744.776V744.808H193.597L193.277 747H191.645L193.469 735.8ZM195.389 743.288L194.605 737.752H194.573L193.805 743.288H195.389ZM198.531 735.8H200.739L202.451 742.504H202.483V735.8H204.051V747H202.243L200.131 738.824H200.099V747H198.531V735.8ZM207.855 747.16C207.002 747.16 206.351 746.92 205.903 746.44C205.455 745.949 205.231 745.251 205.231 744.344V738.456C205.231 737.549 205.455 736.856 205.903 736.376C206.351 735.885 207.002 735.64 207.855 735.64C208.708 735.64 209.359 735.885 209.807 736.376C210.255 736.856 210.479 737.549 210.479 738.456V739.416H208.815V738.344C208.815 737.608 208.511 737.24 207.903 737.24C207.295 737.24 206.991 737.608 206.991 738.344V744.472C206.991 745.197 207.295 745.56 207.903 745.56C208.511 745.56 208.815 745.197 208.815 744.472V742.28H207.935V740.68H210.479V744.344C210.479 745.251 210.255 745.949 209.807 746.44C209.359 746.92 208.708 747.16 207.855 747.16ZM211.609 735.8H216.409V737.4H213.369V740.36H215.785V741.96H213.369V745.4H216.409V747H211.609V735.8ZM219.741 747.16C218.888 747.16 218.242 746.92 217.805 746.44C217.368 745.949 217.149 745.251 217.149 744.344V743.704H218.813V744.472C218.813 745.197 219.117 745.56 219.725 745.56C220.024 745.56 220.248 745.475 220.397 745.304C220.557 745.123 220.637 744.835 220.637 744.44C220.637 743.971 220.53 743.56 220.317 743.208C220.104 742.845 219.709 742.413 219.133 741.912C218.408 741.272 217.901 740.696 217.613 740.184C217.325 739.661 217.181 739.075 217.181 738.424C217.181 737.539 217.405 736.856 217.853 736.376C218.301 735.885 218.952 735.64 219.805 735.64C220.648 735.64 221.282 735.885 221.709 736.376C222.146 736.856 222.365 737.549 222.365 738.456V738.92H220.701V738.344C220.701 737.96 220.626 737.683 220.477 737.512C220.328 737.331 220.109 737.24 219.821 737.24C219.234 737.24 218.941 737.597 218.941 738.312C218.941 738.717 219.048 739.096 219.261 739.448C219.485 739.8 219.885 740.227 220.461 740.728C221.197 741.368 221.704 741.949 221.981 742.472C222.258 742.995 222.397 743.608 222.397 744.312C222.397 745.229 222.168 745.933 221.709 746.424C221.261 746.915 220.605 747.16 219.741 747.16Z" fill="white"/>
<rect x="199" y="584" width="155" height="38" rx="9" stroke="#FF6464" stroke-width="2"/>
<path d="M243.355 608.16C242.502 608.16 241.851 607.92 241.403 607.44C240.955 606.949 240.731 606.251 240.731 605.344V599.456C240.731 598.549 240.955 597.856 241.403 597.376C241.851 596.885 242.502 596.64 243.355 596.64C244.208 596.64 244.859 596.885 245.307 597.376C245.755 597.856 245.979 598.549 245.979 599.456V600.416H244.315V599.344C244.315 598.608 244.011 598.24 243.403 598.24C242.795 598.24 242.491 598.608 242.491 599.344V605.472C242.491 606.197 242.795 606.56 243.403 606.56C244.011 606.56 244.315 606.197 244.315 605.472V603.28H243.435V601.68H245.979V605.344C245.979 606.251 245.755 606.949 245.307 607.44C244.859 607.92 244.208 608.16 243.355 608.16ZM247.109 596.8H251.909V598.4H248.869V601.36H251.285V602.96H248.869V606.4H251.909V608H247.109V596.8ZM252.922 596.8H255.13L256.842 603.504H256.874V596.8H258.442V608H256.634L254.522 599.824H254.49V608H252.922V596.8ZM259.75 596.8H264.55V598.4H261.51V601.36H263.926V602.96H261.51V606.4H264.55V608H259.75V596.8ZM265.562 596.8H268.17C269.077 596.8 269.738 597.013 270.154 597.44C270.57 597.856 270.778 598.501 270.778 599.376V600.064C270.778 601.227 270.394 601.963 269.626 602.272V602.304C270.053 602.432 270.352 602.693 270.522 603.088C270.704 603.483 270.794 604.011 270.794 604.672V606.64C270.794 606.96 270.805 607.221 270.826 607.424C270.848 607.616 270.901 607.808 270.986 608H269.194C269.13 607.819 269.088 607.648 269.066 607.488C269.045 607.328 269.034 607.04 269.034 606.624V604.576C269.034 604.064 268.949 603.707 268.778 603.504C268.618 603.301 268.336 603.2 267.93 603.2H267.322V608H265.562V596.8ZM267.962 601.6C268.314 601.6 268.576 601.509 268.746 601.328C268.928 601.147 269.018 600.843 269.018 600.416V599.552C269.018 599.147 268.944 598.853 268.794 598.672C268.656 598.491 268.432 598.4 268.122 598.4H267.322V601.6H267.962ZM273.375 596.8H275.759L277.583 608H275.823L275.503 605.776V605.808H273.503L273.183 608H271.551L273.375 596.8ZM275.295 604.288L274.511 598.752H274.479L273.711 604.288H275.295ZM279.079 598.4H277.239V596.8H282.679V598.4H280.839V608H279.079V598.4ZM283.531 596.8H288.331V598.4H285.291V601.36H287.707V602.96H285.291V606.4H288.331V608H283.531V596.8ZM291.906 596.8H294.114L295.826 603.504H295.858V596.8H297.426V608H295.618L293.506 599.824H293.474V608H291.906V596.8ZM298.734 596.8H303.534V598.4H300.494V601.36H302.91V602.96H300.494V606.4H303.534V608H298.734V596.8ZM304.131 596.8H305.827L306.611 605.408H306.643L307.475 596.8H309.395L310.227 605.408H310.259L311.043 596.8H312.563L311.427 608H309.235L308.435 600.448H308.403L307.603 608H305.267L304.131 596.8Z" fill="#FF6464"/>
<path d="M32.864 182.64C29.4507 182.64 26.848 181.68 25.056 179.76C23.264 177.797 22.368 175.003 22.368 171.376V137.2H29.408V171.888C29.408 173.424 29.7067 174.533 30.304 175.216C30.944 175.899 31.84 176.24 32.992 176.24C34.144 176.24 35.0187 175.899 35.616 175.216C36.256 174.533 36.576 173.424 36.576 171.888V137.2H43.36V171.376C43.36 175.003 42.464 177.797 40.672 179.76C38.88 181.68 36.2773 182.64 32.864 182.64ZM48.374 137.2H58.742C62.2407 137.2 64.8647 138.139 66.614 140.016C68.3633 141.893 69.238 144.645 69.238 148.272V152.688C69.238 156.315 68.3633 159.067 66.614 160.944C64.8647 162.821 62.2407 163.76 58.742 163.76H55.414V182H48.374V137.2ZM58.742 157.36C59.894 157.36 60.7473 157.04 61.302 156.4C61.8993 155.76 62.198 154.672 62.198 153.136V147.824C62.198 146.288 61.8993 145.2 61.302 144.56C60.7473 143.92 59.894 143.6 58.742 143.6H55.414V157.36H58.742ZM73.0615 137.2H83.8135C87.3122 137.2 89.9362 138.139 91.6855 140.016C93.4348 141.893 94.3095 144.645 94.3095 148.272V170.928C94.3095 174.555 93.4348 177.307 91.6855 179.184C89.9362 181.061 87.3122 182 83.8135 182H73.0615V137.2ZM83.6855 175.6C84.8375 175.6 85.7122 175.259 86.3095 174.576C86.9495 173.893 87.2695 172.784 87.2695 171.248V147.952C87.2695 146.416 86.9495 145.307 86.3095 144.624C85.7122 143.941 84.8375 143.6 83.6855 143.6H80.1015V175.6H83.6855ZM104.377 137.2H113.913L121.209 182H114.169L112.889 173.104V173.232H104.889L103.609 182H97.0805L104.377 137.2ZM112.057 167.152L108.921 145.008H108.793L105.72 167.152H112.057ZM127.191 143.6H119.831V137.2H141.591V143.6H134.231V182H127.191V143.6ZM144.999 137.2H164.199V143.6H152.039V155.44H161.703V161.84H152.039V175.6H164.199V182H144.999V137.2Z" fill="#545974"/>
<defs>
<clipPath id="clip0_22_340">
<rect width="24" height="24" fill="white" transform="translate(20 50)"/>
</clipPath>
</defs>
</svg>
